<svg width="34" height="34" viewBox="0 0 34 34" fill="none" xmlns="http://www.w3.org/2000/svg">
<path d="M4.30225 18.0907L8.01457 21.8031C11.8222 25.6107 17.9956 25.6107 21.8032 21.8031C25.6108 17.9954 25.6108 11.8221 21.8032 8.01446L18.0908 4.30212" stroke="#3C4EF2" stroke-width="2" stroke-linecap="round" stroke-linejoin="round"/>
<path d="M22.5 22.4998L26.9999 26.9998" stroke="#3C4EF2" stroke-width="2" stroke-miterlimit="2" stroke-linecap="round" stroke-linejoin="round"/>
<path d="M14.212 14.2121C18.0196 10.4045 19.4442 5.65574 17.394 3.60549C15.3437 1.55524 10.595 2.97986 6.78736 6.78747C2.97975 10.5951 1.55512 15.3438 3.60538 17.3941C5.65563 19.4443 10.4044 18.0197 14.212 14.2121Z" stroke="#3C4EF2" stroke-width="2"/>
<path d="M30.0905 30.0908C31.8479 28.3335 32.5602 26.1965 31.6815 25.3179C30.8028 24.4392 28.6659 25.1515 26.9085 26.9088C25.1512 28.6662 24.4389 30.8031 25.3176 31.6818C26.1962 32.5605 28.3332 31.8482 30.0905 30.0908Z" stroke="#3C4EF2" stroke-width="2"/>
</svg>
