<svg width="36" height="32" viewBox="0 0 36 32" fill="none" xmlns="http://www.w3.org/2000/svg">
<path d="M34.5 31.125H1.5C0.885 31.125 0.375 30.615 0.375 30C0.375 29.385 0.885 28.875 1.5 28.875H34.5C35.115 28.875 35.625 29.385 35.625 30C35.625 30.615 35.115 31.125 34.5 31.125Z" fill="#3C4EF2"/>
<path d="M29.6704 31.1401C29.0554 31.1401 28.5454 30.6301 28.5454 30.0151V23.3251C28.5454 22.7101 29.0554 22.2001 29.6704 22.2001C30.2854 22.2001 30.7954 22.7101 30.7954 23.3251V30.0151C30.7954 30.6301 30.3004 31.1401 29.6704 31.1401Z" fill="#3C4EF2"/>
<path d="M29.7004 24.45C27.2554 24.45 25.2754 22.47 25.2754 20.025V16.62C25.2754 14.175 27.2554 12.195 29.7004 12.195C32.1454 12.195 34.1254 14.175 34.1254 16.62V20.025C34.1254 22.47 32.1454 24.45 29.7004 24.45ZM29.7004 14.46C28.5004 14.46 27.5254 15.435 27.5254 16.635V20.04C27.5254 21.24 28.5004 22.215 29.7004 22.215C30.9004 22.215 31.8754 21.24 31.8754 20.04V16.635C31.8754 15.435 30.9004 14.46 29.7004 14.46Z" fill="#3C4EF2"/>
<path d="M21.4497 31.125C20.8347 31.125 20.3247 30.615 20.3247 30V6.04504C20.3247 3.66004 19.3197 2.64001 16.9797 2.64001H7.63477C5.27977 2.64001 4.25977 3.66004 4.25977 6.04504V30C4.25977 30.615 3.74977 31.125 3.13477 31.125C2.51977 31.125 2.00977 30.615 2.00977 30V6.04504C2.00977 2.40004 4.00477 0.390015 7.63477 0.390015H16.9797C20.5947 0.390015 22.5747 2.40004 22.5747 6.04504V30C22.5747 30.615 22.0647 31.125 21.4497 31.125Z" fill="#3C4EF2"/>
<path d="M16.1247 10.5H8.69971C8.08471 10.5 7.57471 9.99 7.57471 9.375C7.57471 8.76 8.08471 8.25 8.69971 8.25H16.1247C16.7397 8.25 17.2497 8.76 17.2497 9.375C17.2497 9.99 16.7397 10.5 16.1247 10.5Z" fill="#3C4EF2"/>
<path d="M16.1247 16.125H8.69971C8.08471 16.125 7.57471 15.615 7.57471 15C7.57471 14.385 8.08471 13.875 8.69971 13.875H16.1247C16.7397 13.875 17.2497 14.385 17.2497 15C17.2497 15.615 16.7397 16.125 16.1247 16.125Z" fill="#3C4EF2"/>
<path d="M12.375 31.125C11.76 31.125 11.25 30.615 11.25 30V24.375C11.25 23.76 11.76 23.25 12.375 23.25C12.99 23.25 13.5 23.76 13.5 24.375V30C13.5 30.615 12.99 31.125 12.375 31.125Z" fill="#3C4EF2"/>
</svg>
