<svg width="30" height="32" viewBox="0 0 30 32" fill="none" xmlns="http://www.w3.org/2000/svg">
<path fill-rule="evenodd" clip-rule="evenodd" d="M15 28.7651C16.8233 28.7651 17.5733 29.7476 18.5506 29.966C19.528 30.1845 20.3484 30.2451 21.1886 29.8749C22.8525 29.1417 23.8668 28.2683 25.0976 26.9639C27.3785 24.5465 28.5 21.2226 28.5 16.7714C28.5 12.3202 27.2997 10.0199 25.45 8.51513C23.6004 7.01048 22.5277 6.72218 20.2912 7.01048C18.0545 7.29871 16.8367 9.70186 15.0062 9.70186C13.1759 9.70186 10.945 7.33231 9.00413 7.01048C7.06328 6.68858 6 7.01048 4.31975 8.51513C2.63951 10.0199 1.5 12.3629 1.5 16.7714C1.5 21.1799 2.66366 24.4487 4.94453 26.8661C6.17528 28.1706 7.1475 29.1417 8.81137 29.8749C9.6516 30.2451 10.52 30.1845 11.4633 29.966C12.4067 29.7476 13.1567 28.7651 15 28.7651Z" stroke="#3C4EF2" stroke-width="2"/>
<path d="M15.0068 9.70187C15.5954 3.90063 18.0961 1 22.5088 1C22.9134 2.22089 23.0179 3.40252 22.8224 4.54487C22.7294 5.08756 22.4411 5.86143 21.9575 6.86643" stroke="#3C4EF2" stroke-width="2" stroke-linecap="round"/>
<path d="M7.6717 17.5C7.46425 18.5093 7.46425 19.5485 7.6717 20.6175C7.87908 21.6864 8.32083 22.5113 8.9968 23.0922" stroke="#3C4EF2" stroke-width="2" stroke-linecap="round"/>
</svg>
