<svg width="36" height="36" viewBox="0 0 36 36" fill="none" xmlns="http://www.w3.org/2000/svg">
<path d="M6.61499 25.125C6.25499 29.46 9.52499 33 13.875 33H21.06C25.95 33 29.31 29.055 28.5 24.225C27.645 19.155 22.755 15 17.61 15C12.03 15 7.07999 19.56 6.61499 25.125Z" stroke="#3C4EF2" stroke-width="2" stroke-linecap="round" stroke-linejoin="round"/>
<path d="M15.7051 11.25C17.7761 11.25 19.4551 9.57107 19.4551 7.5C19.4551 5.42893 17.7761 3.75 15.7051 3.75C13.634 3.75 11.9551 5.42893 11.9551 7.5C11.9551 9.57107 13.634 11.25 15.7051 11.25Z" stroke="#3C4EF2" stroke-width="2" stroke-linecap="round" stroke-linejoin="round"/>
<path d="M25.9502 13.05C27.607 13.05 28.9502 11.7069 28.9502 10.05C28.9502 8.39319 27.607 7.05005 25.9502 7.05005C24.2933 7.05005 22.9502 8.39319 22.9502 10.05C22.9502 11.7069 24.2933 13.05 25.9502 13.05Z" stroke="#3C4EF2" stroke-width="2" stroke-linecap="round" stroke-linejoin="round"/>
<path d="M31.5 19.05C32.7426 19.05 33.75 18.0427 33.75 16.8C33.75 15.5574 32.7426 14.55 31.5 14.55C30.2574 14.55 29.25 15.5574 29.25 16.8C29.25 18.0427 30.2574 19.05 31.5 19.05Z" stroke="#3C4EF2" stroke-width="2" stroke-linecap="round" stroke-linejoin="round"/>
<path d="M5.95508 16.05C7.61193 16.05 8.95508 14.7069 8.95508 13.05C8.95508 11.3932 7.61193 10.05 5.95508 10.05C4.29822 10.05 2.95508 11.3932 2.95508 13.05C2.95508 14.7069 4.29822 16.05 5.95508 16.05Z" stroke="#3C4EF2" stroke-width="2" stroke-linecap="round" stroke-linejoin="round"/>
</svg>
