<svg width="36" height="36" viewBox="0 0 36 36" fill="none" xmlns="http://www.w3.org/2000/svg">
<path d="M27.75 19.125C27.135 19.125 26.625 18.615 26.625 18C26.625 13.245 22.755 9.375 18 9.375C13.245 9.375 9.375 13.245 9.375 18C9.375 18.615 8.865 19.125 8.25 19.125C7.635 19.125 7.125 18.615 7.125 18C7.125 12 12 7.125 18 7.125C24 7.125 28.875 12 28.875 18C28.875 18.615 28.365 19.125 27.75 19.125Z" fill="#3C4EF2"/>
<path d="M33 19.5H32.88C32.055 19.5 31.38 18.825 31.38 18C31.38 17.175 32.055 16.5 32.88 16.5C33.705 16.5 34.44 17.175 34.44 18C34.44 18.825 33.825 19.5 33 19.5ZM3.12003 19.5H3C2.175 19.5 1.5 18.825 1.5 18C1.5 17.175 2.175 16.5 3 16.5C3.825 16.5 4.55997 17.175 4.55997 18C4.55997 18.825 3.94503 19.5 3.12003 19.5ZM28.515 8.98499C28.125 8.98499 27.75 8.83502 27.45 8.55002C26.865 7.96502 26.865 7.02001 27.45 6.43501L27.645 6.24001C28.23 5.65501 29.175 5.65501 29.76 6.24001C30.345 6.82501 30.345 7.77001 29.76 8.35501L29.565 8.55002C29.28 8.83502 28.905 8.98499 28.515 8.98499ZM7.48499 8.98499C7.09499 8.98499 6.72004 8.83502 6.42004 8.55002L6.22504 8.35501C5.64004 7.77001 5.64004 6.82501 6.22504 6.24001C6.81004 5.65501 7.755 5.65501 8.34 6.24001L8.535 6.43501C9.12 7.02001 9.12 7.96502 8.535 8.55002C8.25 8.83502 7.85999 8.98499 7.48499 8.98499ZM18 4.56001C17.175 4.56001 16.5 3.94498 16.5 3.11998V3C16.5 2.175 17.175 1.5 18 1.5C18.825 1.5 19.5 2.175 19.5 3C19.5 3.825 18.825 4.56001 18 4.56001Z" fill="#3C4EF2"/>
<path d="M30 23.625H6C5.385 23.625 4.875 23.115 4.875 22.5C4.875 21.885 5.385 21.375 6 21.375H30C30.615 21.375 31.125 21.885 31.125 22.5C31.125 23.115 30.615 23.625 30 23.625Z" fill="#3C4EF2"/>
<path d="M27 28.125H9C8.385 28.125 7.875 27.615 7.875 27C7.875 26.385 8.385 25.875 9 25.875H27C27.615 25.875 28.125 26.385 28.125 27C28.125 27.615 27.615 28.125 27 28.125Z" fill="#3C4EF2"/>
<path d="M22.5 32.625H13.5C12.885 32.625 12.375 32.115 12.375 31.5C12.375 30.885 12.885 30.375 13.5 30.375H22.5C23.115 30.375 23.625 30.885 23.625 31.5C23.625 32.115 23.115 32.625 22.5 32.625Z" fill="#3C4EF2"/>
</svg>
