<svg width="36" height="36" viewBox="0 0 36 36" fill="none" xmlns="http://www.w3.org/2000/svg">
<path d="M14.25 15C17.1495 15 19.5 12.6495 19.5 9.75C19.5 6.85051 17.1495 4.5 14.25 4.5C11.3505 4.5 9 6.85051 9 9.75C9 12.6495 11.3505 15 14.25 15Z" stroke="#3C4EF2" stroke-width="2" stroke-linecap="round" stroke-linejoin="round"/>
<path d="M24.75 6C24.75 6 26.4375 9.375 24.75 13.5" stroke="#3C4EF2" stroke-width="2" stroke-linecap="round" stroke-linejoin="round"/>
<path d="M30 3C30 3 33.375 9.075 30 16.5" stroke="#3C4EF2" stroke-width="2" stroke-linecap="round" stroke-linejoin="round"/>
<path d="M3 30.6V31.5H25.5V30.6C25.5 27.2397 25.5 25.5595 24.8461 24.2761C24.2708 23.1471 23.3529 22.2292 22.2239 21.6539C20.9405 21 19.2603 21 15.9 21H12.6C9.2397 21 7.55955 21 6.27606 21.6539C5.14709 22.2292 4.2292 23.1471 3.65396 24.2761C3 25.5595 3 27.2397 3 30.6Z" stroke="#3C4EF2" stroke-width="2" stroke-linecap="round" stroke-linejoin="round"/>
</svg>
