<svg width="32" height="32" viewBox="0 0 32 32" fill="none" xmlns="http://www.w3.org/2000/svg">
<path d="M18.5949 3.26499L21.2349 8.54499C21.5949 9.27999 22.5549 9.98499 23.3649 10.12L28.1499 10.915C31.2099 11.425 31.9299 13.645 29.7249 15.835L26.0049 19.555C25.3749 20.185 25.0299 21.4 25.2249 22.27L26.2899 26.875C27.1299 30.52 25.1949 31.93 21.9699 30.025L17.4849 27.37C16.6749 26.89 15.3399 26.89 14.5149 27.37L10.0299 30.025C6.81986 31.93 4.86986 30.505 5.70986 26.875L6.77486 22.27C6.96986 21.4 6.62486 20.185 5.99486 19.555L2.27486 15.835C0.0848635 13.645 0.789864 11.425 3.84986 10.915L8.63486 10.12C9.42986 9.98499 10.3899 9.27999 10.7499 8.54499L13.3899 3.26499C14.8299 0.399991 17.1699 0.399991 18.5949 3.26499Z" stroke="#3C4EF2" stroke-width="2" stroke-linecap="round" stroke-linejoin="round"/>
</svg>
