<svg width="36" height="36" viewBox="0 0 36 36" fill="none" xmlns="http://www.w3.org/2000/svg">
<path d="M29.9995 17.6251H5.99954C5.65454 17.6251 5.33954 17.4751 5.12954 17.2051C4.91954 16.9501 4.82954 16.5901 4.90454 16.2601L6.59954 8.16012C7.15454 5.53512 8.27954 3.12012 12.7345 3.12012H23.2795C27.7345 3.12012 28.8595 5.55012 29.4145 8.16012L31.1095 16.2751C31.1845 16.6051 31.0945 16.9501 30.8845 17.2201C30.6595 17.4751 30.3445 17.6251 29.9995 17.6251ZM7.37954 15.3751H28.6045L27.1945 8.62512C26.7745 6.66012 26.2795 5.37012 23.2645 5.37012H12.7345C9.71954 5.37012 9.22454 6.66012 8.80454 8.62512L7.37954 15.3751Z" fill="#3C4EF2"/>
<path d="M29.9394 34.1251H27.1194C24.6894 34.1251 24.2244 32.7301 23.9244 31.8151L23.6244 30.9151C23.2344 29.7751 23.1894 29.6251 21.8394 29.6251H14.1594C12.8094 29.6251 12.7194 29.8801 12.3744 30.9151L12.0744 31.8151C11.7594 32.7451 11.3094 34.1251 8.8794 34.1251H6.0594C4.8744 34.1251 3.7344 33.6301 2.9394 32.7601C2.1594 31.9051 1.7844 30.7651 1.8894 29.6251L2.7294 20.4901C2.9544 18.0151 3.6144 15.3751 8.4294 15.3751H27.5694C32.3844 15.3751 33.0294 18.0151 33.2694 20.4901L34.1094 29.6251C34.2144 30.7651 33.8394 31.9051 33.0594 32.7601C32.2644 33.6301 31.1244 34.1251 29.9394 34.1251ZM14.1594 27.3751H21.8394C24.5694 27.3751 25.2144 28.5901 25.7544 30.1801L26.0694 31.1101C26.3244 31.8751 26.3244 31.8901 27.1344 31.8901H29.9544C30.5094 31.8901 31.0344 31.6651 31.4094 31.2601C31.7694 30.8701 31.9344 30.3751 31.8894 29.8501L31.0494 20.7151C30.8544 18.6901 30.6144 17.6401 27.5994 17.6401H8.4294C5.3994 17.6401 5.1594 18.6901 4.9794 20.7151L4.1394 29.8501C4.0944 30.3751 4.2594 30.8701 4.6194 31.2601C4.9794 31.6651 5.5194 31.8901 6.0744 31.8901H8.8944C9.7044 31.8901 9.7044 31.8751 9.9594 31.1251L10.2594 30.2101C10.6344 29.0101 11.1894 27.3751 14.1594 27.3751Z" fill="#3C4EF2"/>
<path d="M5.99951 13.1251H4.49951C3.88451 13.1251 3.37451 12.6151 3.37451 12.0001C3.37451 11.3851 3.88451 10.8751 4.49951 10.8751H5.99951C6.61451 10.8751 7.12451 11.3851 7.12451 12.0001C7.12451 12.6151 6.61451 13.1251 5.99951 13.1251Z" fill="#3C4EF2"/>
<path d="M31.4995 13.1251H29.9995C29.3845 13.1251 28.8745 12.6151 28.8745 12.0001C28.8745 11.3851 29.3845 10.8751 29.9995 10.8751H31.4995C32.1145 10.8751 32.6245 11.3851 32.6245 12.0001C32.6245 12.6151 32.1145 13.1251 31.4995 13.1251Z" fill="#3C4EF2"/>
<path d="M17.9995 8.62512C17.3845 8.62512 16.8745 8.11512 16.8745 7.50012V4.50012C16.8745 3.88512 17.3845 3.37512 17.9995 3.37512C18.6145 3.37512 19.1245 3.88512 19.1245 4.50012V7.50012C19.1245 8.11512 18.6145 8.62512 17.9995 8.62512Z" fill="#3C4EF2"/>
<path d="M20.2495 8.62512H15.7495C15.1345 8.62512 14.6245 8.11512 14.6245 7.50012C14.6245 6.88512 15.1345 6.37512 15.7495 6.37512H20.2495C20.8645 6.37512 21.3745 6.88512 21.3745 7.50012C21.3745 8.11512 20.8645 8.62512 20.2495 8.62512Z" fill="#3C4EF2"/>
<path d="M13.4995 23.6251H8.99951C8.38451 23.6251 7.87451 23.1151 7.87451 22.5001C7.87451 21.8851 8.38451 21.3751 8.99951 21.3751H13.4995C14.1145 21.3751 14.6245 21.8851 14.6245 22.5001C14.6245 23.1151 14.1145 23.6251 13.4995 23.6251Z" fill="#3C4EF2"/>
<path d="M26.9995 23.6251H22.4995C21.8845 23.6251 21.3745 23.1151 21.3745 22.5001C21.3745 21.8851 21.8845 21.3751 22.4995 21.3751H26.9995C27.6145 21.3751 28.1245 21.8851 28.1245 22.5001C28.1245 23.1151 27.6145 23.6251 26.9995 23.6251Z" fill="#3C4EF2"/>
</svg>
