<svg width="36" height="36" viewBox="0 0 36 36" fill="none" xmlns="http://www.w3.org/2000/svg">
<path d="M22.2164 26.2504C21.2174 30.1321 17.6936 33.0003 13.5 33.0003C8.52945 33.0003 4.5 28.971 4.5 24.0004C4.5 20.3682 6.6517 17.2384 9.75 15.8164" stroke="#3C4EF2" stroke-width="2" stroke-linecap="round" stroke-linejoin="round"/>
<path d="M13.5 9L15 22.5L26.25 21.75L28.5 30H30.75" stroke="#3C4EF2" stroke-width="2" stroke-linecap="round" stroke-linejoin="round"/>
<path d="M16.5 6C16.5 7.65683 15.1568 9 13.5 9C11.8432 9 10.5 7.65683 10.5 6C10.5 4.34314 11.8432 3 13.5 3C15.1568 3 16.5 4.34314 16.5 6Z" stroke="#3C4EF2" stroke-width="2" stroke-linecap="round" stroke-linejoin="round"/>
<path d="M18.75 15H24.75" stroke="#3C4EF2" stroke-width="2" stroke-linecap="round" stroke-linejoin="round"/>
</svg>
