<svg width="586" height="395" viewBox="0 0 586 395" fill="none" xmlns="http://www.w3.org/2000/svg">
<rect width="586" height="395" rx="24" fill="#3C4EF2" fill-opacity="0.1"/>
<path d="M53 79.48C50.5467 79.48 48.4667 79.1067 46.76 78.36C45.08 77.6133 43.7867 76.5467 42.88 75.16C42 73.7467 41.5067 72.1067 41.4 70.24H47.64C47.7467 71.12 48 71.88 48.4 72.52C48.8 73.1333 49.3733 73.6133 50.12 73.96C50.8933 74.28 51.8533 74.44 53 74.44C54.8667 74.44 56.2267 74.0933 57.08 73.4C57.96 72.7067 58.4 71.76 58.4 70.56C58.4 69.76 58.2133 69.0667 57.84 68.48C57.4933 67.8933 56.9067 67.44 56.08 67.12C55.28 66.8 54.1867 66.64 52.8 66.64H49.84V62.56H52.8C54.48 62.56 55.6667 62.2 56.36 61.48C57.0533 60.7333 57.4 59.8533 57.4 58.84C57.4 57.8533 57.04 57.0667 56.32 56.48C55.6267 55.8667 54.52 55.56 53 55.56C51.9867 55.56 51.1333 55.6933 50.44 55.96C49.7733 56.2 49.2533 56.5867 48.88 57.12C48.5333 57.6533 48.32 58.3333 48.24 59.16H42C42.1333 56.36 43.0933 54.2267 44.88 52.76C46.6667 51.2667 49.3733 50.52 53 50.52C56.6 50.52 59.2667 51.2267 61 52.64C62.7333 54.0267 63.6 55.96 63.6 58.44C63.6 59.9067 63.24 61.16 62.52 62.2C61.8 63.2133 60.7467 63.9467 59.36 64.4C61.0667 64.8 62.36 65.5733 63.24 66.72C64.1467 67.84 64.6 69.3067 64.6 71.12C64.6 72.7467 64.1733 74.2 63.32 75.48C62.4667 76.7333 61.1867 77.72 59.48 78.44C57.7733 79.1333 55.6133 79.48 53 79.48ZM75.0491 79.48C73.5291 79.48 72.2357 79.2 71.1691 78.64C70.1024 78.0533 69.2891 77.2533 68.7291 76.24C68.1691 75.2267 67.8891 74.08 67.8891 72.8C67.8891 70.6667 68.5157 69.0667 69.7691 68C71.0491 66.9333 72.9557 66.4 75.4891 66.4H81.8091V65.4C81.8091 64.0133 81.4891 63.04 80.8491 62.48C80.2357 61.92 79.2491 61.64 77.8891 61.64C76.6891 61.64 75.8224 61.8533 75.2891 62.28C74.7557 62.68 74.4491 63.1867 74.3691 63.8H69.0891C69.1691 62.5733 69.5557 61.48 70.2491 60.52C70.9691 59.5333 71.9824 58.76 73.2891 58.2C74.6224 57.6133 76.2224 57.32 78.0891 57.32C79.9024 57.32 81.4757 57.5867 82.8091 58.12C84.1691 58.6533 85.2224 59.52 85.9691 60.72C86.7157 61.8933 87.0891 63.48 87.0891 65.48V73.6C87.0891 74.72 87.1024 75.7067 87.1291 76.56C87.1824 77.3867 87.2624 78.2 87.3691 79H82.4491C82.3424 78.4133 82.2757 77.9733 82.2491 77.68C82.2491 77.36 82.2491 76.8933 82.2491 76.28C81.6891 77.1333 80.8091 77.88 79.6091 78.52C78.4091 79.16 76.8891 79.48 75.0491 79.48ZM76.6891 75.4C77.5424 75.4 78.3557 75.2533 79.1291 74.96C79.9291 74.64 80.5691 74.16 81.0491 73.52C81.5557 72.8533 81.8091 72.0133 81.8091 71V70H76.4891C75.4757 70 74.6757 70.24 74.0891 70.72C73.5291 71.1733 73.2491 71.8 73.2491 72.6C73.2491 73.4533 73.5424 74.1333 74.1291 74.64C74.7157 75.1467 75.5691 75.4 76.6891 75.4ZM89.8969 79L97.0969 67.96L90.2969 57.8H96.1769L100.817 64.6L105.377 57.8H111.097L104.377 67.76L111.497 79H105.577L100.617 71.08L95.6969 79H89.8969ZM123.289 79.48C121.369 79.48 119.596 79.0933 117.969 78.32C116.369 77.52 115.089 76.32 114.129 74.72C113.169 73.0933 112.689 71.0533 112.689 68.6V67.8C112.689 65.48 113.169 63.5467 114.129 62C115.089 60.4533 116.369 59.2933 117.969 58.52C119.596 57.72 121.369 57.32 123.289 57.32C125.209 57.32 126.969 57.72 128.569 58.52C130.196 59.2933 131.489 60.4533 132.449 62C133.409 63.5467 133.889 65.48 133.889 67.8V68.6C133.889 71 133.409 73.0133 132.449 74.64C131.489 76.24 130.196 77.4533 128.569 78.28C126.969 79.08 125.209 79.48 123.289 79.48ZM123.289 75C124.302 75 125.196 74.7733 125.969 74.32C126.769 73.84 127.396 73.12 127.849 72.16C128.302 71.2 128.529 70.0133 128.529 68.6V67.8C128.529 66.4933 128.302 65.4 127.849 64.52C127.396 63.64 126.769 62.9733 125.969 62.52C125.196 62.04 124.302 61.8 123.289 61.8C122.276 61.8 121.369 62.04 120.569 62.52C119.796 62.9733 119.182 63.64 118.729 64.52C118.276 65.4 118.049 66.4933 118.049 67.8V68.6C118.049 70.04 118.276 71.24 118.729 72.2C119.182 73.1333 119.796 73.84 120.569 74.32C121.369 74.7733 122.276 75 123.289 75ZM142.443 79V62.2H135.683V57.8H154.443V62.2H147.723V79H142.443ZM166.844 79.48C164.924 79.48 163.15 79.0933 161.524 78.32C159.924 77.52 158.644 76.32 157.684 74.72C156.724 73.0933 156.244 71.0533 156.244 68.6V67.8C156.244 65.4533 156.697 63.5067 157.604 61.96C158.537 60.4133 159.777 59.2533 161.324 58.48C162.87 57.7067 164.577 57.32 166.444 57.32C169.777 57.32 172.31 58.2 174.044 59.96C175.777 61.72 176.644 64.2667 176.644 67.6V69.84H161.644C161.697 71.0933 161.964 72.12 162.444 72.92C162.95 73.6933 163.59 74.2667 164.364 74.64C165.137 74.9867 165.964 75.16 166.844 75.16C168.204 75.16 169.23 74.96 169.924 74.56C170.617 74.16 171.11 73.5733 171.404 72.8H176.244C175.817 75.0133 174.764 76.68 173.084 77.8C171.404 78.92 169.324 79.48 166.844 79.48ZM166.644 61.64C165.817 61.64 165.017 61.7733 164.244 62.04C163.47 62.3067 162.857 62.7867 162.404 63.48C161.95 64.1467 161.697 65.04 161.644 66.16H171.524C171.497 64.96 171.257 64.04 170.804 63.4C170.377 62.7333 169.804 62.28 169.084 62.04C168.364 61.7733 167.55 61.64 166.644 61.64ZM180.256 79.48C180.043 79.48 179.776 79.4667 179.456 79.44C179.136 79.44 178.87 79.4133 178.656 79.36V74.6C178.736 74.6267 178.936 74.64 179.256 74.64C179.95 74.64 180.51 74.36 180.936 73.8C181.39 73.2133 181.723 72.2133 181.936 70.8C182.15 69.3867 182.256 67.4533 182.256 65V57.8H199.056V79H193.776V62.2H187.136V65.8C187.136 68.5467 186.99 70.8133 186.696 72.6C186.43 74.3867 186.003 75.7867 185.416 76.8C184.856 77.7867 184.15 78.48 183.296 78.88C182.443 79.28 181.43 79.48 180.256 79.48ZM203.885 79V57.8H209.125V71.4L218.565 57.8H223.405V79H218.165V65.4L208.725 79H203.885ZM237.059 70.28V65.32H263.859V70.28H237.059ZM275.878 84V74.6H278.278C278.651 74.04 278.945 73.2 279.158 72.08C279.398 70.96 279.571 69.7067 279.678 68.32C279.811 66.9067 279.878 65.52 279.878 64.16V57.8H296.478V74.6H299.038V84H294.438V79H280.478V84H275.878ZM283.438 74.6H291.198V62.2H284.678V64.96C284.678 66.8267 284.585 68.64 284.398 70.4C284.238 72.1333 283.918 73.5333 283.438 74.6ZM303.42 79.48C303.207 79.48 302.94 79.4667 302.62 79.44C302.3 79.44 302.034 79.4133 301.82 79.36V74.6C301.9 74.6267 302.1 74.64 302.42 74.64C303.114 74.64 303.674 74.36 304.1 73.8C304.554 73.2133 304.887 72.2133 305.1 70.8C305.314 69.3867 305.42 67.4533 305.42 65V57.8H322.22V79H316.94V62.2H310.3V65.8C310.3 68.5467 310.154 70.8133 309.86 72.6C309.594 74.3867 309.167 75.7867 308.58 76.8C308.02 77.7867 307.314 78.48 306.46 78.88C305.607 79.28 304.594 79.48 303.42 79.48ZM325.809 79L331.289 71.04C329.663 70.5067 328.476 69.7067 327.729 68.64C326.983 67.5733 326.609 66.32 326.609 64.88C326.609 63.4933 326.929 62.2667 327.569 61.2C328.209 60.1333 329.183 59.3067 330.489 58.72C331.796 58.1067 333.436 57.8 335.409 57.8H345.409V79H340.129V71.68H336.329L331.729 79H325.809ZM331.889 64.88C331.889 65.7867 332.183 66.4533 332.769 66.88C333.383 67.3067 334.196 67.52 335.209 67.52H340.129V62.2H335.209C334.196 62.2 333.383 62.4267 332.769 62.88C332.183 63.3067 331.889 63.9733 331.889 64.88ZM369.813 79.48C367.893 79.48 366.119 79.0933 364.493 78.32C362.893 77.52 361.613 76.32 360.653 74.72C359.693 73.0933 359.213 71.0533 359.213 68.6V67.8C359.213 65.48 359.693 63.5467 360.653 62C361.613 60.4533 362.893 59.2933 364.493 58.52C366.119 57.72 367.893 57.32 369.813 57.32C371.733 57.32 373.493 57.72 375.093 58.52C376.719 59.2933 378.013 60.4533 378.973 62C379.933 63.5467 380.412 65.48 380.412 67.8V68.6C380.412 71 379.933 73.0133 378.973 74.64C378.013 76.24 376.719 77.4533 375.093 78.28C373.493 79.08 371.733 79.48 369.813 79.48ZM369.813 75C370.826 75 371.719 74.7733 372.493 74.32C373.293 73.84 373.919 73.12 374.373 72.16C374.826 71.2 375.053 70.0133 375.053 68.6V67.8C375.053 66.4933 374.826 65.4 374.373 64.52C373.919 63.64 373.293 62.9733 372.493 62.52C371.719 62.04 370.826 61.8 369.813 61.8C368.799 61.8 367.893 62.04 367.093 62.52C366.319 62.9733 365.706 63.64 365.253 64.52C364.799 65.4 364.573 66.4933 364.573 67.8V68.6C364.573 70.04 364.799 71.24 365.253 72.2C365.706 73.1333 366.319 73.84 367.093 74.32C367.893 74.7733 368.799 75 369.813 75ZM388.966 79V62.2H382.206V57.8H400.966V62.2H394.246V79H388.966ZM413.367 79.48C411.447 79.48 409.674 79.0933 408.047 78.32C406.447 77.52 405.167 76.32 404.207 74.72C403.247 73.0933 402.767 71.0533 402.767 68.6V67.8C402.767 65.4533 403.221 63.5067 404.127 61.96C405.061 60.4133 406.301 59.2533 407.847 58.48C409.394 57.7067 411.101 57.32 412.967 57.32C416.301 57.32 418.834 58.2 420.567 59.96C422.301 61.72 423.167 64.2667 423.167 67.6V69.84H408.167C408.221 71.0933 408.487 72.12 408.967 72.92C409.474 73.6933 410.114 74.2667 410.887 74.64C411.661 74.9867 412.487 75.16 413.367 75.16C414.727 75.16 415.754 74.96 416.447 74.56C417.141 74.16 417.634 73.5733 417.927 72.8H422.767C422.341 75.0133 421.287 76.68 419.607 77.8C417.927 78.92 415.847 79.48 413.367 79.48ZM413.167 61.64C412.341 61.64 411.541 61.7733 410.767 62.04C409.994 62.3067 409.381 62.7867 408.927 63.48C408.474 64.1467 408.221 65.04 408.167 66.16H418.047C418.021 64.96 417.781 64.04 417.327 63.4C416.901 62.7333 416.327 62.28 415.607 62.04C414.887 61.7733 414.074 61.64 413.167 61.64ZM426.78 79.48C426.566 79.48 426.3 79.4667 425.98 79.44C425.66 79.44 425.393 79.4133 425.18 79.36V74.6C425.26 74.6267 425.46 74.64 425.78 74.64C426.473 74.64 427.033 74.36 427.46 73.8C427.913 73.2133 428.246 72.2133 428.46 70.8C428.673 69.3867 428.78 67.4533 428.78 65V57.8H445.58V79H440.3V62.2H433.66V65.8C433.66 68.5467 433.513 70.8133 433.22 72.6C432.953 74.3867 432.526 75.7867 431.94 76.8C431.38 77.7867 430.673 78.48 429.82 78.88C428.966 79.28 427.953 79.48 426.78 79.48ZM459.969 79.48C458.049 79.48 456.275 79.0933 454.649 78.32C453.049 77.52 451.769 76.32 450.809 74.72C449.849 73.0933 449.369 71.0533 449.369 68.6V67.8C449.369 65.4533 449.822 63.5067 450.729 61.96C451.662 60.4133 452.902 59.2533 454.449 58.48C455.995 57.7067 457.702 57.32 459.569 57.32C462.902 57.32 465.435 58.2 467.169 59.96C468.902 61.72 469.769 64.2667 469.769 67.6V69.84H454.769C454.822 71.0933 455.089 72.12 455.569 72.92C456.075 73.6933 456.715 74.2667 457.489 74.64C458.262 74.9867 459.089 75.16 459.969 75.16C461.329 75.16 462.355 74.96 463.049 74.56C463.742 74.16 464.235 73.5733 464.529 72.8H469.369C468.942 75.0133 467.889 76.68 466.209 77.8C464.529 78.92 462.449 79.48 459.969 79.48ZM459.769 61.64C458.942 61.64 458.142 61.7733 457.369 62.04C456.595 62.3067 455.982 62.7867 455.529 63.48C455.075 64.1467 454.822 65.04 454.769 66.16H464.649C464.622 64.96 464.382 64.04 463.929 63.4C463.502 62.7333 462.929 62.28 462.209 62.04C461.489 61.7733 460.675 61.64 459.769 61.64ZM473.612 79V57.8H478.852V71.4L488.292 57.8H493.132V79H487.892V65.4L478.452 79H473.612ZM483.412 55.6C481.039 55.6 479.305 55.0933 478.212 54.08C477.145 53.0667 476.612 51.5733 476.612 49.6H481.292C481.292 50.64 481.465 51.3733 481.812 51.8C482.159 52.2 482.679 52.4 483.372 52.4C484.119 52.4 484.679 52.2 485.052 51.8C485.425 51.3733 485.612 50.64 485.612 49.6H490.212C490.212 51.5733 489.665 53.0667 488.572 54.08C487.479 55.0933 485.759 55.6 483.412 55.6Z" fill="#292D32"/>
<path d="M40.7 124.4V120.31C41.2267 120.31 41.6533 120.177 41.98 119.91C42.3133 119.643 42.5733 119.283 42.76 118.83C42.9467 118.37 43.0867 117.853 43.18 117.28C43.28 116.707 43.36 116.113 43.42 115.5C43.5067 114.633 43.5767 113.793 43.63 112.98C43.69 112.167 43.7433 111.323 43.79 110.45C43.8367 109.577 43.89 108.623 43.95 107.59L53 107.6V120.31H54.05V124.4H52.27V122H42.48V124.4H40.7ZM43.82 120.31H51.22V109.29L45.6 109.28C45.56 110.053 45.52 110.797 45.48 111.51C45.4467 112.217 45.4033 112.93 45.35 113.65C45.2967 114.37 45.23 115.133 45.15 115.94C45.0767 116.687 44.9933 117.333 44.9 117.88C44.8133 118.42 44.6867 118.887 44.52 119.28C44.3533 119.667 44.12 120.01 43.82 120.31ZM60.8438 122.3C59.7704 122.3 58.8438 122.057 58.0638 121.57C57.2904 121.083 56.6938 120.41 56.2738 119.55C55.8538 118.69 55.6438 117.703 55.6438 116.59C55.6438 115.457 55.8571 114.463 56.2838 113.61C56.7104 112.757 57.3138 112.093 58.0938 111.62C58.8738 111.14 59.7904 110.9 60.8438 110.9C61.9238 110.9 62.8538 111.143 63.6338 111.63C64.4138 112.11 65.0104 112.78 65.4238 113.64C65.8438 114.493 66.0538 115.477 66.0538 116.59C66.0538 117.717 65.8438 118.71 65.4238 119.57C65.0038 120.423 64.4038 121.093 63.6238 121.58C62.8438 122.06 61.9171 122.3 60.8438 122.3ZM60.8438 120.61C61.9638 120.61 62.7971 120.237 63.3438 119.49C63.8904 118.743 64.1638 117.777 64.1638 116.59C64.1638 115.37 63.8871 114.4 63.3338 113.68C62.7804 112.953 61.9504 112.59 60.8438 112.59C60.0904 112.59 59.4704 112.76 58.9838 113.1C58.4971 113.44 58.1338 113.91 57.8938 114.51C57.6538 115.11 57.5338 115.803 57.5338 116.59C57.5338 117.803 57.8138 118.777 58.3738 119.51C58.9338 120.243 59.7571 120.61 60.8438 120.61ZM72.6455 122.31C71.6255 122.303 70.7555 122.083 70.0355 121.65C69.3155 121.21 68.7555 120.567 68.3555 119.72C67.9555 118.873 67.7321 117.837 67.6855 116.61C67.6588 116.043 67.6655 115.42 67.7055 114.74C67.7521 114.06 67.8255 113.407 67.9255 112.78C68.0321 112.153 68.1655 111.637 68.3255 111.23C68.5055 110.743 68.7588 110.293 69.0855 109.88C69.4188 109.46 69.7921 109.113 70.2055 108.84C70.6255 108.553 71.0955 108.33 71.6155 108.17C72.1355 108.01 72.6788 107.887 73.2455 107.8C73.8188 107.707 74.3921 107.627 74.9655 107.56C75.5388 107.487 76.0855 107.4 76.6055 107.3L76.7855 108.9C76.4188 108.98 75.9855 109.05 75.4855 109.11C74.9855 109.163 74.4655 109.227 73.9255 109.3C73.3921 109.373 72.8788 109.477 72.3855 109.61C71.8988 109.737 71.4788 109.913 71.1255 110.14C70.6055 110.453 70.2055 110.923 69.9255 111.55C69.6521 112.17 69.4855 112.867 69.4255 113.64C69.8388 113 70.3755 112.53 71.0355 112.23C71.6955 111.93 72.3988 111.78 73.1455 111.78C74.1121 111.78 74.9455 112.007 75.6455 112.46C76.3455 112.907 76.8821 113.523 77.2555 114.31C77.6355 115.097 77.8255 115.993 77.8255 117C77.8255 118.067 77.6121 119 77.1855 119.8C76.7588 120.6 76.1555 121.22 75.3755 121.66C74.6021 122.1 73.6921 122.317 72.6455 122.31ZM72.7555 120.62C73.8021 120.62 74.5955 120.297 75.1355 119.65C75.6755 118.997 75.9455 118.13 75.9455 117.05C75.9455 115.943 75.6655 115.073 75.1055 114.44C74.5455 113.8 73.7588 113.48 72.7455 113.48C71.7188 113.48 70.9321 113.8 70.3855 114.44C69.8455 115.073 69.5755 115.943 69.5755 117.05C69.5755 118.163 69.8488 119.037 70.3955 119.67C70.9421 120.303 71.7288 120.62 72.7555 120.62ZM83.1028 122.3C82.2961 122.3 81.6195 122.153 81.0728 121.86C80.5328 121.56 80.1228 121.167 79.8428 120.68C79.5695 120.193 79.4328 119.66 79.4328 119.08C79.4328 118.513 79.5395 118.023 79.7528 117.61C79.9728 117.19 80.2795 116.843 80.6728 116.57C81.0661 116.29 81.5361 116.07 82.0828 115.91C82.5961 115.77 83.1695 115.65 83.8028 115.55C84.4428 115.443 85.0895 115.347 85.7428 115.26C86.3961 115.173 87.0061 115.09 87.5728 115.01L86.9328 115.38C86.9528 114.42 86.7595 113.71 86.3528 113.25C85.9528 112.79 85.2595 112.56 84.2728 112.56C83.6195 112.56 83.0461 112.71 82.5528 113.01C82.0661 113.303 81.7228 113.783 81.5228 114.45L79.8328 113.94C80.0928 112.993 80.5961 112.25 81.3428 111.71C82.0895 111.17 83.0728 110.9 84.2928 110.9C85.2728 110.9 86.1128 111.077 86.8128 111.43C87.5195 111.777 88.0261 112.303 88.3328 113.01C88.4861 113.343 88.5828 113.707 88.6228 114.1C88.6628 114.487 88.6828 114.893 88.6828 115.32V122H87.1028V119.41L87.4728 119.65C87.0661 120.523 86.4961 121.183 85.7628 121.63C85.0361 122.077 84.1495 122.3 83.1028 122.3ZM83.3728 120.81C84.0128 120.81 84.5661 120.697 85.0328 120.47C85.5061 120.237 85.8861 119.933 86.1728 119.56C86.4595 119.18 86.6461 118.767 86.7328 118.32C86.8328 117.987 86.8861 117.617 86.8928 117.21C86.9061 116.797 86.9128 116.48 86.9128 116.26L87.5328 116.53C86.9528 116.61 86.3828 116.687 85.8228 116.76C85.2628 116.833 84.7328 116.913 84.2328 117C83.7328 117.08 83.2828 117.177 82.8828 117.29C82.5895 117.383 82.3128 117.503 82.0528 117.65C81.7995 117.797 81.5928 117.987 81.4328 118.22C81.2795 118.447 81.2028 118.73 81.2028 119.07C81.2028 119.363 81.2761 119.643 81.4228 119.91C81.5761 120.177 81.8095 120.393 82.1228 120.56C82.4428 120.727 82.8595 120.81 83.3728 120.81ZM91.2728 122V111.2H95.8728C96.1461 111.2 96.4395 111.217 96.7528 111.25C97.0728 111.277 97.3628 111.327 97.6228 111.4C98.2028 111.553 98.6795 111.87 99.0528 112.35C99.4328 112.823 99.6228 113.423 99.6228 114.15C99.6228 114.557 99.5595 114.91 99.4328 115.21C99.3128 115.51 99.1395 115.77 98.9128 115.99C98.8128 116.09 98.7028 116.18 98.5828 116.26C98.4628 116.34 98.3428 116.403 98.2228 116.45C98.4561 116.49 98.6928 116.58 98.9328 116.72C99.3128 116.927 99.6095 117.217 99.8228 117.59C100.043 117.963 100.153 118.44 100.153 119.02C100.153 119.753 99.9761 120.36 99.6228 120.84C99.2695 121.313 98.7828 121.64 98.1628 121.82C97.9028 121.893 97.6161 121.943 97.3028 121.97C96.9895 121.99 96.6861 122 96.3928 122H91.2728ZM93.0728 120.55H96.2928C96.4328 120.55 96.5995 120.537 96.7928 120.51C96.9928 120.483 97.1695 120.45 97.3228 120.41C97.6695 120.31 97.9195 120.123 98.0728 119.85C98.2328 119.577 98.3128 119.28 98.3128 118.96C98.3128 118.533 98.1928 118.187 97.9528 117.92C97.7195 117.653 97.4095 117.487 97.0228 117.42C96.8828 117.38 96.7295 117.357 96.5628 117.35C96.4028 117.343 96.2595 117.34 96.1328 117.34H93.0728V120.55ZM93.0728 115.87H95.7528C95.9395 115.87 96.1361 115.86 96.3428 115.84C96.5495 115.813 96.7295 115.77 96.8828 115.71C97.1895 115.597 97.4128 115.41 97.5528 115.15C97.6995 114.883 97.7728 114.593 97.7728 114.28C97.7728 113.933 97.6928 113.63 97.5328 113.37C97.3795 113.103 97.1428 112.92 96.8228 112.82C96.6095 112.74 96.3695 112.697 96.1028 112.69C95.8428 112.677 95.6761 112.67 95.6028 112.67H93.0728V115.87ZM102.162 122L102.152 111.2H103.942V115.11H106.272C106.585 115.11 106.905 115.117 107.232 115.13C107.558 115.143 107.842 115.173 108.082 115.22C108.642 115.327 109.132 115.513 109.552 115.78C109.972 116.047 110.298 116.41 110.532 116.87C110.765 117.323 110.882 117.887 110.882 118.56C110.882 119.493 110.638 120.233 110.152 120.78C109.672 121.32 109.042 121.68 108.262 121.86C107.995 121.92 107.688 121.96 107.342 121.98C107.002 121.993 106.678 122 106.372 122H102.162ZM103.942 120.53H106.402C106.602 120.53 106.825 120.523 107.072 120.51C107.318 120.497 107.538 120.463 107.732 120.41C108.072 120.31 108.375 120.113 108.642 119.82C108.915 119.527 109.052 119.107 109.052 118.56C109.052 118.007 108.918 117.58 108.652 117.28C108.392 116.98 108.048 116.783 107.622 116.69C107.428 116.643 107.225 116.613 107.012 116.6C106.798 116.587 106.595 116.58 106.402 116.58H103.942V120.53ZM115.94 122V112.82H112.18V111.2H121.48V112.82H117.72V122H115.94ZM128.053 122.3C126.993 122.3 126.066 122.067 125.273 121.6C124.486 121.127 123.873 120.47 123.433 119.63C122.993 118.783 122.773 117.797 122.773 116.67C122.773 115.49 122.989 114.47 123.423 113.61C123.856 112.743 124.459 112.077 125.233 111.61C126.013 111.137 126.926 110.9 127.973 110.9C129.059 110.9 129.983 111.15 130.743 111.65C131.509 112.15 132.083 112.863 132.463 113.79C132.849 114.717 133.016 115.82 132.963 117.1H131.163V116.46C131.143 115.133 130.873 114.143 130.353 113.49C129.833 112.83 129.059 112.5 128.033 112.5C126.933 112.5 126.096 112.853 125.523 113.56C124.949 114.267 124.663 115.28 124.663 116.6C124.663 117.873 124.949 118.86 125.523 119.56C126.096 120.26 126.913 120.61 127.973 120.61C128.686 120.61 129.306 120.447 129.833 120.12C130.359 119.793 130.773 119.323 131.073 118.71L132.783 119.3C132.363 120.253 131.729 120.993 130.883 121.52C130.043 122.04 129.099 122.3 128.053 122.3ZM124.063 117.1V115.67H132.043V117.1H124.063ZM143.743 122.3C142.65 122.3 141.72 122.057 140.953 121.57C140.193 121.077 139.613 120.4 139.213 119.54C138.813 118.68 138.606 117.7 138.593 116.6C138.606 115.473 138.816 114.483 139.223 113.63C139.636 112.77 140.226 112.1 140.993 111.62C141.76 111.14 142.683 110.9 143.763 110.9C144.903 110.9 145.883 111.18 146.703 111.74C147.53 112.3 148.083 113.067 148.363 114.04L146.603 114.57C146.376 113.943 146.006 113.457 145.493 113.11C144.986 112.763 144.403 112.59 143.743 112.59C143.003 112.59 142.393 112.763 141.913 113.11C141.433 113.45 141.076 113.923 140.843 114.53C140.61 115.13 140.49 115.82 140.483 116.6C140.496 117.8 140.773 118.77 141.313 119.51C141.86 120.243 142.67 120.61 143.743 120.61C144.45 120.61 145.036 120.45 145.503 120.13C145.97 119.803 146.323 119.333 146.563 118.72L148.363 119.19C147.99 120.197 147.406 120.967 146.613 121.5C145.82 122.033 144.863 122.3 143.743 122.3ZM150.394 122V111.2H154.994C155.267 111.2 155.561 111.217 155.874 111.25C156.194 111.277 156.484 111.327 156.744 111.4C157.324 111.553 157.801 111.87 158.174 112.35C158.554 112.823 158.744 113.423 158.744 114.15C158.744 114.557 158.681 114.91 158.554 115.21C158.434 115.51 158.261 115.77 158.034 115.99C157.934 116.09 157.824 116.18 157.704 116.26C157.584 116.34 157.464 116.403 157.344 116.45C157.577 116.49 157.814 116.58 158.054 116.72C158.434 116.927 158.731 117.217 158.944 117.59C159.164 117.963 159.274 118.44 159.274 119.02C159.274 119.753 159.097 120.36 158.744 120.84C158.391 121.313 157.904 121.64 157.284 121.82C157.024 121.893 156.737 121.943 156.424 121.97C156.111 121.99 155.807 122 155.514 122H150.394ZM152.194 120.55H155.414C155.554 120.55 155.721 120.537 155.914 120.51C156.114 120.483 156.291 120.45 156.444 120.41C156.791 120.31 157.041 120.123 157.194 119.85C157.354 119.577 157.434 119.28 157.434 118.96C157.434 118.533 157.314 118.187 157.074 117.92C156.841 117.653 156.531 117.487 156.144 117.42C156.004 117.38 155.851 117.357 155.684 117.35C155.524 117.343 155.381 117.34 155.254 117.34H152.194V120.55ZM152.194 115.87H154.874C155.061 115.87 155.257 115.86 155.464 115.84C155.671 115.813 155.851 115.77 156.004 115.71C156.311 115.597 156.534 115.41 156.674 115.15C156.821 114.883 156.894 114.593 156.894 114.28C156.894 113.933 156.814 113.63 156.654 113.37C156.501 113.103 156.264 112.92 155.944 112.82C155.731 112.74 155.491 112.697 155.224 112.69C154.964 112.677 154.797 112.67 154.724 112.67H152.194V115.87ZM165.883 122.3C164.809 122.3 163.883 122.057 163.103 121.57C162.329 121.083 161.733 120.41 161.313 119.55C160.893 118.69 160.683 117.703 160.683 116.59C160.683 115.457 160.896 114.463 161.323 113.61C161.749 112.757 162.353 112.093 163.133 111.62C163.913 111.14 164.829 110.9 165.883 110.9C166.963 110.9 167.893 111.143 168.673 111.63C169.453 112.11 170.049 112.78 170.463 113.64C170.883 114.493 171.093 115.477 171.093 116.59C171.093 117.717 170.883 118.71 170.463 119.57C170.043 120.423 169.443 121.093 168.663 121.58C167.883 122.06 166.956 122.3 165.883 122.3ZM165.883 120.61C167.003 120.61 167.836 120.237 168.383 119.49C168.929 118.743 169.203 117.777 169.203 116.59C169.203 115.37 168.926 114.4 168.373 113.68C167.819 112.953 166.989 112.59 165.883 112.59C165.129 112.59 164.509 112.76 164.023 113.1C163.536 113.44 163.173 113.91 162.933 114.51C162.693 115.11 162.573 115.803 162.573 116.59C162.573 117.803 162.853 118.777 163.413 119.51C163.973 120.243 164.796 120.61 165.883 120.61ZM177.945 109.94C177.445 109.94 176.988 109.817 176.575 109.57C176.161 109.323 175.831 108.997 175.585 108.59C175.338 108.177 175.215 107.717 175.215 107.21H176.655C176.655 107.563 176.781 107.867 177.035 108.12C177.288 108.373 177.591 108.5 177.945 108.5C178.305 108.5 178.608 108.373 178.855 108.12C179.108 107.867 179.235 107.563 179.235 107.21H180.675C180.675 107.717 180.551 108.177 180.305 108.59C180.065 108.997 179.735 109.323 179.315 109.57C178.901 109.817 178.445 109.94 177.945 109.94ZM182.135 111.2V122H180.415V114.04L174.755 122H173.285V111.2H175.005V119.05L180.675 111.2H182.135ZM193.539 122.3C192.466 122.3 191.539 122.057 190.759 121.57C189.986 121.083 189.389 120.41 188.969 119.55C188.549 118.69 188.339 117.703 188.339 116.59C188.339 115.457 188.552 114.463 188.979 113.61C189.406 112.757 190.009 112.093 190.789 111.62C191.569 111.14 192.486 110.9 193.539 110.9C194.619 110.9 195.549 111.143 196.329 111.63C197.109 112.11 197.706 112.78 198.119 113.64C198.539 114.493 198.749 115.477 198.749 116.59C198.749 117.717 198.539 118.71 198.119 119.57C197.699 120.423 197.099 121.093 196.319 121.58C195.539 122.06 194.612 122.3 193.539 122.3ZM193.539 120.61C194.659 120.61 195.492 120.237 196.039 119.49C196.586 118.743 196.859 117.777 196.859 116.59C196.859 115.37 196.582 114.4 196.029 113.68C195.476 112.953 194.646 112.59 193.539 112.59C192.786 112.59 192.166 112.76 191.679 113.1C191.192 113.44 190.829 113.91 190.589 114.51C190.349 115.11 190.229 115.803 190.229 116.59C190.229 117.803 190.509 118.777 191.069 119.51C191.629 120.243 192.452 120.61 193.539 120.61ZM205.341 122.31C204.321 122.303 203.451 122.083 202.731 121.65C202.011 121.21 201.451 120.567 201.051 119.72C200.651 118.873 200.427 117.837 200.381 116.61C200.354 116.043 200.361 115.42 200.401 114.74C200.447 114.06 200.521 113.407 200.621 112.78C200.727 112.153 200.861 111.637 201.021 111.23C201.201 110.743 201.454 110.293 201.781 109.88C202.114 109.46 202.487 109.113 202.901 108.84C203.321 108.553 203.791 108.33 204.311 108.17C204.831 108.01 205.374 107.887 205.941 107.8C206.514 107.707 207.087 107.627 207.661 107.56C208.234 107.487 208.781 107.4 209.301 107.3L209.481 108.9C209.114 108.98 208.681 109.05 208.181 109.11C207.681 109.163 207.161 109.227 206.621 109.3C206.087 109.373 205.574 109.477 205.081 109.61C204.594 109.737 204.174 109.913 203.821 110.14C203.301 110.453 202.901 110.923 202.621 111.55C202.347 112.17 202.181 112.867 202.121 113.64C202.534 113 203.071 112.53 203.731 112.23C204.391 111.93 205.094 111.78 205.841 111.78C206.807 111.78 207.641 112.007 208.341 112.46C209.041 112.907 209.577 113.523 209.951 114.31C210.331 115.097 210.521 115.993 210.521 117C210.521 118.067 210.307 119 209.881 119.8C209.454 120.6 208.851 121.22 208.071 121.66C207.297 122.1 206.387 122.317 205.341 122.31ZM205.451 120.62C206.497 120.62 207.291 120.297 207.831 119.65C208.371 118.997 208.641 118.13 208.641 117.05C208.641 115.943 208.361 115.073 207.801 114.44C207.241 113.8 206.454 113.48 205.441 113.48C204.414 113.48 203.627 113.8 203.081 114.44C202.541 115.073 202.271 115.943 202.271 117.05C202.271 118.163 202.544 119.037 203.091 119.67C203.637 120.303 204.424 120.62 205.451 120.62ZM213.238 122L213.228 112.67H211.728V111.2H215.018V115.11H217.348C217.661 115.11 217.981 115.117 218.308 115.13C218.635 115.143 218.918 115.173 219.158 115.22C219.718 115.327 220.208 115.513 220.628 115.78C221.048 116.047 221.375 116.41 221.608 116.87C221.841 117.323 221.958 117.887 221.958 118.56C221.958 119.493 221.715 120.233 221.228 120.78C220.748 121.32 220.118 121.68 219.338 121.86C219.071 121.92 218.765 121.96 218.418 121.98C218.078 121.993 217.755 122 217.448 122H213.238ZM215.018 120.53H217.478C217.678 120.53 217.901 120.523 218.148 120.51C218.395 120.497 218.615 120.463 218.808 120.41C219.148 120.31 219.451 120.113 219.718 119.82C219.991 119.527 220.128 119.107 220.128 118.56C220.128 118.007 219.995 117.58 219.728 117.28C219.468 116.98 219.125 116.783 218.698 116.69C218.505 116.643 218.301 116.613 218.088 116.6C217.875 116.587 217.671 116.58 217.478 116.58H215.018V120.53ZM228.834 122.3C227.774 122.3 226.847 122.067 226.054 121.6C225.267 121.127 224.654 120.47 224.214 119.63C223.774 118.783 223.554 117.797 223.554 116.67C223.554 115.49 223.771 114.47 224.204 113.61C224.637 112.743 225.241 112.077 226.014 111.61C226.794 111.137 227.707 110.9 228.754 110.9C229.841 110.9 230.764 111.15 231.524 111.65C232.291 112.15 232.864 112.863 233.244 113.79C233.631 114.717 233.797 115.82 233.744 117.1H231.944V116.46C231.924 115.133 231.654 114.143 231.134 113.49C230.614 112.83 229.841 112.5 228.814 112.5C227.714 112.5 226.877 112.853 226.304 113.56C225.731 114.267 225.444 115.28 225.444 116.6C225.444 117.873 225.731 118.86 226.304 119.56C226.877 120.26 227.694 120.61 228.754 120.61C229.467 120.61 230.087 120.447 230.614 120.12C231.141 119.793 231.554 119.323 231.854 118.71L233.564 119.3C233.144 120.253 232.511 120.993 231.664 121.52C230.824 122.04 229.881 122.3 228.834 122.3ZM224.844 117.1V115.67H232.824V117.1H224.844ZM235.96 122L235.97 111.2H237.77V116.4L242.3 111.2H244.61L239.84 116.6L245.17 122H242.68L237.77 116.8V122H235.96ZM249.026 122V112.82H245.266V111.2H254.566V112.82H250.806V122H249.026ZM265.423 122.3C264.409 122.3 263.556 122.05 262.863 121.55C262.169 121.043 261.643 120.36 261.283 119.5C260.929 118.633 260.753 117.663 260.753 116.59C260.753 115.503 260.929 114.53 261.283 113.67C261.643 112.81 262.169 112.133 262.863 111.64C263.563 111.147 264.419 110.9 265.433 110.9C266.433 110.9 267.293 111.15 268.013 111.65C268.739 112.143 269.296 112.82 269.683 113.68C270.069 114.54 270.263 115.51 270.263 116.59C270.263 117.67 270.069 118.64 269.683 119.5C269.296 120.36 268.739 121.043 268.013 121.55C267.293 122.05 266.429 122.3 265.423 122.3ZM260.453 126.8V111.2H262.043V119.15H262.243V126.8H260.453ZM265.203 120.67C265.916 120.67 266.506 120.49 266.973 120.13C267.439 119.77 267.789 119.283 268.023 118.67C268.256 118.05 268.373 117.357 268.373 116.59C268.373 115.83 268.256 115.143 268.023 114.53C267.796 113.917 267.443 113.43 266.963 113.07C266.489 112.71 265.886 112.53 265.153 112.53C264.453 112.53 263.873 112.703 263.413 113.05C262.953 113.39 262.609 113.867 262.383 114.48C262.156 115.087 262.043 115.79 262.043 116.59C262.043 117.377 262.153 118.08 262.373 118.7C262.599 119.313 262.946 119.797 263.413 120.15C263.879 120.497 264.476 120.67 265.203 120.67ZM275.525 122.3C274.718 122.3 274.041 122.153 273.495 121.86C272.955 121.56 272.545 121.167 272.265 120.68C271.991 120.193 271.855 119.66 271.855 119.08C271.855 118.513 271.961 118.023 272.175 117.61C272.395 117.19 272.701 116.843 273.095 116.57C273.488 116.29 273.958 116.07 274.505 115.91C275.018 115.77 275.591 115.65 276.225 115.55C276.865 115.443 277.511 115.347 278.165 115.26C278.818 115.173 279.428 115.09 279.995 115.01L279.355 115.38C279.375 114.42 279.181 113.71 278.775 113.25C278.375 112.79 277.681 112.56 276.695 112.56C276.041 112.56 275.468 112.71 274.975 113.01C274.488 113.303 274.145 113.783 273.945 114.45L272.255 113.94C272.515 112.993 273.018 112.25 273.765 111.71C274.511 111.17 275.495 110.9 276.715 110.9C277.695 110.9 278.535 111.077 279.235 111.43C279.941 111.777 280.448 112.303 280.755 113.01C280.908 113.343 281.005 113.707 281.045 114.1C281.085 114.487 281.105 114.893 281.105 115.32V122H279.525V119.41L279.895 119.65C279.488 120.523 278.918 121.183 278.185 121.63C277.458 122.077 276.571 122.3 275.525 122.3ZM275.795 120.81C276.435 120.81 276.988 120.697 277.455 120.47C277.928 120.237 278.308 119.933 278.595 119.56C278.881 119.18 279.068 118.767 279.155 118.32C279.255 117.987 279.308 117.617 279.315 117.21C279.328 116.797 279.335 116.48 279.335 116.26L279.955 116.53C279.375 116.61 278.805 116.687 278.245 116.76C277.685 116.833 277.155 116.913 276.655 117C276.155 117.08 275.705 117.177 275.305 117.29C275.011 117.383 274.735 117.503 274.475 117.65C274.221 117.797 274.015 117.987 273.855 118.22C273.701 118.447 273.625 118.73 273.625 119.07C273.625 119.363 273.698 119.643 273.845 119.91C273.998 120.177 274.231 120.393 274.545 120.56C274.865 120.727 275.281 120.81 275.795 120.81ZM287.575 122.3C286.508 122.3 285.565 122.07 284.745 121.61C283.925 121.143 283.278 120.503 282.805 119.69L284.225 118.77C284.618 119.363 285.088 119.82 285.635 120.14C286.181 120.453 286.805 120.61 287.505 120.61C288.238 120.61 288.821 120.443 289.255 120.11C289.688 119.77 289.905 119.313 289.905 118.74C289.905 118.313 289.798 117.987 289.585 117.76C289.371 117.533 289.065 117.377 288.665 117.29C288.265 117.203 287.788 117.16 287.235 117.16H286.115V115.69H287.225C287.925 115.69 288.495 115.577 288.935 115.35C289.375 115.123 289.595 114.737 289.595 114.19C289.595 113.63 289.388 113.223 288.975 112.97C288.568 112.71 288.081 112.58 287.515 112.58C286.915 112.58 286.341 112.707 285.795 112.96C285.248 113.207 284.778 113.52 284.385 113.9L283.305 112.69C283.865 112.117 284.508 111.677 285.235 111.37C285.968 111.057 286.765 110.9 287.625 110.9C288.318 110.9 288.951 111.023 289.525 111.27C290.105 111.51 290.565 111.867 290.905 112.34C291.251 112.807 291.425 113.377 291.425 114.05C291.425 114.623 291.291 115.133 291.025 115.58C290.758 116.027 290.365 116.417 289.845 116.75L289.775 116.12C290.215 116.227 290.578 116.423 290.865 116.71C291.158 116.99 291.375 117.323 291.515 117.71C291.655 118.097 291.725 118.5 291.725 118.92C291.725 119.627 291.538 120.233 291.165 120.74C290.798 121.24 290.301 121.627 289.675 121.9C289.048 122.167 288.348 122.3 287.575 122.3ZM293.91 122V111.2H295.44L299.54 119.58L303.64 111.2H305.17V122H303.45V114.91L300.01 122H299.07L295.63 114.91V122H293.91ZM312.643 122.3C311.583 122.3 310.656 122.067 309.863 121.6C309.076 121.127 308.463 120.47 308.023 119.63C307.583 118.783 307.363 117.797 307.363 116.67C307.363 115.49 307.579 114.47 308.013 113.61C308.446 112.743 309.049 112.077 309.823 111.61C310.603 111.137 311.516 110.9 312.563 110.9C313.649 110.9 314.573 111.15 315.333 111.65C316.099 112.15 316.673 112.863 317.053 113.79C317.439 114.717 317.606 115.82 317.553 117.1H315.753V116.46C315.733 115.133 315.463 114.143 314.943 113.49C314.423 112.83 313.649 112.5 312.623 112.5C311.523 112.5 310.686 112.853 310.113 113.56C309.539 114.267 309.253 115.28 309.253 116.6C309.253 117.873 309.539 118.86 310.113 119.56C310.686 120.26 311.503 120.61 312.563 120.61C313.276 120.61 313.896 120.447 314.423 120.12C314.949 119.793 315.363 119.323 315.663 118.71L317.373 119.3C316.953 120.253 316.319 120.993 315.473 121.52C314.633 122.04 313.689 122.3 312.643 122.3ZM308.653 117.1V115.67H316.633V117.1H308.653ZM331.859 124V122H319.769V111.2H321.489V120.38H325.209V111.2H326.929V120.38H330.639V111.2H332.359V120.38H333.639V124H331.859ZM339.928 122.3C338.868 122.3 337.941 122.067 337.148 121.6C336.361 121.127 335.748 120.47 335.308 119.63C334.868 118.783 334.648 117.797 334.648 116.67C334.648 115.49 334.864 114.47 335.298 113.61C335.731 112.743 336.334 112.077 337.108 111.61C337.888 111.137 338.801 110.9 339.848 110.9C340.934 110.9 341.858 111.15 342.618 111.65C343.384 112.15 343.958 112.863 344.338 113.79C344.724 114.717 344.891 115.82 344.838 117.1H343.038V116.46C343.018 115.133 342.748 114.143 342.228 113.49C341.708 112.83 340.934 112.5 339.908 112.5C338.808 112.5 337.971 112.853 337.398 113.56C336.824 114.267 336.538 115.28 336.538 116.6C336.538 117.873 336.824 118.86 337.398 119.56C337.971 120.26 338.788 120.61 339.848 120.61C340.561 120.61 341.181 120.447 341.708 120.12C342.234 119.793 342.648 119.323 342.948 118.71L344.658 119.3C344.238 120.253 343.604 120.993 342.758 121.52C341.918 122.04 340.974 122.3 339.928 122.3ZM335.938 117.1V115.67H343.918V117.1H335.938ZM347.054 122V111.2H348.834V115.75H354.514V111.2H356.294V122H354.514V117.44H348.834V122H347.054ZM367.935 111.2V122H366.215V114.04L360.555 122H359.085V111.2H360.805V119.05L366.475 111.2H367.935ZM377.406 122V118.09H375.076C374.803 118.09 374.499 118.08 374.166 118.06C373.839 118.033 373.533 117.997 373.246 117.95C372.466 117.803 371.806 117.46 371.266 116.92C370.733 116.38 370.466 115.633 370.466 114.68C370.466 113.753 370.716 113.01 371.216 112.45C371.723 111.883 372.346 111.517 373.086 111.35C373.419 111.27 373.756 111.227 374.096 111.22C374.443 111.207 374.736 111.2 374.976 111.2H379.186L379.196 122H377.406ZM370.136 122L373.006 117.6H374.926L372.056 122H370.136ZM374.946 116.62H377.406V112.67H374.946C374.793 112.67 374.589 112.677 374.336 112.69C374.089 112.703 373.853 112.743 373.626 112.81C373.413 112.87 373.203 112.98 372.996 113.14C372.796 113.3 372.629 113.507 372.496 113.76C372.363 114.013 372.296 114.313 372.296 114.66C372.296 115.16 372.436 115.567 372.716 115.88C372.996 116.187 373.336 116.393 373.736 116.5C373.956 116.553 374.173 116.587 374.386 116.6C374.606 116.613 374.793 116.62 374.946 116.62ZM41.39 154V143.2H43.17V147.75H48.85V143.2H50.63V154H48.85V149.44H43.17V154H41.39ZM56.5013 154.3C55.6946 154.3 55.0179 154.153 54.4713 153.86C53.9313 153.56 53.5213 153.167 53.2413 152.68C52.9679 152.193 52.8313 151.66 52.8313 151.08C52.8313 150.513 52.9379 150.023 53.1513 149.61C53.3713 149.19 53.6779 148.843 54.0713 148.57C54.4646 148.29 54.9346 148.07 55.4813 147.91C55.9946 147.77 56.5679 147.65 57.2013 147.55C57.8413 147.443 58.4879 147.347 59.1413 147.26C59.7946 147.173 60.4046 147.09 60.9713 147.01L60.3313 147.38C60.3513 146.42 60.1579 145.71 59.7513 145.25C59.3513 144.79 58.6579 144.56 57.6713 144.56C57.0179 144.56 56.4446 144.71 55.9513 145.01C55.4646 145.303 55.1213 145.783 54.9213 146.45L53.2313 145.94C53.4913 144.993 53.9946 144.25 54.7413 143.71C55.4879 143.17 56.4713 142.9 57.6913 142.9C58.6713 142.9 59.5113 143.077 60.2113 143.43C60.9179 143.777 61.4246 144.303 61.7313 145.01C61.8846 145.343 61.9813 145.707 62.0213 146.1C62.0613 146.487 62.0812 146.893 62.0812 147.32V154H60.5013V151.41L60.8713 151.65C60.4646 152.523 59.8946 153.183 59.1613 153.63C58.4346 154.077 57.5479 154.3 56.5013 154.3ZM56.7713 152.81C57.4113 152.81 57.9646 152.697 58.4313 152.47C58.9046 152.237 59.2846 151.933 59.5713 151.56C59.8579 151.18 60.0446 150.767 60.1313 150.32C60.2313 149.987 60.2846 149.617 60.2913 149.21C60.3046 148.797 60.3113 148.48 60.3113 148.26L60.9313 148.53C60.3513 148.61 59.7813 148.687 59.2213 148.76C58.6613 148.833 58.1313 148.913 57.6313 149C57.1313 149.08 56.6813 149.177 56.2813 149.29C55.9879 149.383 55.7113 149.503 55.4513 149.65C55.1979 149.797 54.9913 149.987 54.8313 150.22C54.6779 150.447 54.6012 150.73 54.6012 151.07C54.6012 151.363 54.6746 151.643 54.8213 151.91C54.9746 152.177 55.2079 152.393 55.5213 152.56C55.8413 152.727 56.2579 152.81 56.7713 152.81ZM73.4552 154.3C72.4685 154.3 71.6085 154.157 70.8752 153.87C70.1485 153.577 69.5452 153.197 69.0652 152.73C68.5918 152.257 68.2318 151.75 67.9852 151.21L69.5652 150.23C69.7252 150.65 69.9718 151.04 70.3052 151.4C70.6452 151.76 71.0785 152.05 71.6052 152.27C72.1385 152.49 72.7785 152.6 73.5252 152.6C74.2852 152.6 74.9218 152.483 75.4352 152.25C75.9485 152.01 76.3318 151.687 76.5852 151.28C76.8452 150.867 76.9752 150.393 76.9752 149.86C76.9752 149.253 76.8252 148.787 76.5252 148.46C76.2252 148.127 75.8218 147.893 75.3152 147.76C74.8152 147.62 74.2618 147.54 73.6552 147.52C73.1818 147.5 72.8418 147.487 72.6352 147.48C72.4285 147.473 72.2885 147.47 72.2152 147.47C72.1485 147.47 72.0852 147.47 72.0252 147.47V145.77C72.0852 145.77 72.2118 145.77 72.4052 145.77C72.5985 145.77 72.8018 145.77 73.0152 145.77C73.2285 145.763 73.3985 145.757 73.5252 145.75C74.4185 145.703 75.1285 145.477 75.6552 145.07C76.1818 144.657 76.4452 144.09 76.4452 143.37C76.4452 142.623 76.1752 142.04 75.6352 141.62C75.1018 141.2 74.4052 140.99 73.5452 140.99C72.7318 140.99 72.0385 141.18 71.4652 141.56C70.8985 141.94 70.4452 142.43 70.1052 143.03L68.7352 141.86C69.2018 141.12 69.8485 140.51 70.6752 140.03C71.5085 139.543 72.4818 139.3 73.5952 139.3C74.2085 139.3 74.7985 139.383 75.3652 139.55C75.9385 139.71 76.4452 139.957 76.8852 140.29C77.3318 140.617 77.6852 141.033 77.9452 141.54C78.2052 142.04 78.3352 142.633 78.3352 143.32C78.3352 144.06 78.1785 144.717 77.8652 145.29C77.5518 145.863 77.1418 146.307 76.6352 146.62C77.3352 146.853 77.8818 147.24 78.2752 147.78C78.6685 148.32 78.8652 149.02 78.8652 149.88C78.8652 150.78 78.6352 151.56 78.1752 152.22C77.7218 152.88 77.0885 153.393 76.2752 153.76C75.4618 154.12 74.5218 154.3 73.4552 154.3ZM84.0403 154.3C83.2336 154.3 82.557 154.153 82.0103 153.86C81.4703 153.56 81.0603 153.167 80.7803 152.68C80.507 152.193 80.3703 151.66 80.3703 151.08C80.3703 150.513 80.477 150.023 80.6903 149.61C80.9103 149.19 81.217 148.843 81.6103 148.57C82.0036 148.29 82.4736 148.07 83.0203 147.91C83.5336 147.77 84.107 147.65 84.7403 147.55C85.3803 147.443 86.027 147.347 86.6803 147.26C87.3336 147.173 87.9436 147.09 88.5103 147.01L87.8703 147.38C87.8903 146.42 87.697 145.71 87.2903 145.25C86.8903 144.79 86.197 144.56 85.2103 144.56C84.557 144.56 83.9836 144.71 83.4903 145.01C83.0036 145.303 82.6603 145.783 82.4603 146.45L80.7703 145.94C81.0303 144.993 81.5336 144.25 82.2803 143.71C83.027 143.17 84.0103 142.9 85.2303 142.9C86.2103 142.9 87.0503 143.077 87.7503 143.43C88.457 143.777 88.9636 144.303 89.2703 145.01C89.4236 145.343 89.5203 145.707 89.5603 146.1C89.6003 146.487 89.6203 146.893 89.6203 147.32V154H88.0403V151.41L88.4103 151.65C88.0036 152.523 87.4336 153.183 86.7003 153.63C85.9736 154.077 85.087 154.3 84.0403 154.3ZM84.3103 152.81C84.9503 152.81 85.5036 152.697 85.9703 152.47C86.4436 152.237 86.8236 151.933 87.1103 151.56C87.397 151.18 87.5836 150.767 87.6703 150.32C87.7703 149.987 87.8236 149.617 87.8303 149.21C87.8436 148.797 87.8503 148.48 87.8503 148.26L88.4703 148.53C87.8903 148.61 87.3203 148.687 86.7603 148.76C86.2003 148.833 85.6703 148.913 85.1703 149C84.6703 149.08 84.2203 149.177 83.8203 149.29C83.527 149.383 83.2503 149.503 82.9903 149.65C82.737 149.797 82.5303 149.987 82.3703 150.22C82.217 150.447 82.1403 150.73 82.1403 151.07C82.1403 151.363 82.2136 151.643 82.3603 151.91C82.5136 152.177 82.747 152.393 83.0603 152.56C83.3803 152.727 83.797 152.81 84.3103 152.81ZM91.0203 154L95.1503 148.54L91.1103 143.2H93.2303L96.1903 147.16L99.1203 143.2H101.24L97.2003 148.54L101.34 154H99.2103L96.1903 149.92L93.1503 154H91.0203ZM107.152 154.3C106.079 154.3 105.152 154.057 104.372 153.57C103.599 153.083 103.002 152.41 102.582 151.55C102.162 150.69 101.952 149.703 101.952 148.59C101.952 147.457 102.166 146.463 102.592 145.61C103.019 144.757 103.622 144.093 104.402 143.62C105.182 143.14 106.099 142.9 107.152 142.9C108.232 142.9 109.162 143.143 109.942 143.63C110.722 144.11 111.319 144.78 111.732 145.64C112.152 146.493 112.362 147.477 112.362 148.59C112.362 149.717 112.152 150.71 111.732 151.57C111.312 152.423 110.712 153.093 109.932 153.58C109.152 154.06 108.226 154.3 107.152 154.3ZM107.152 152.61C108.272 152.61 109.106 152.237 109.652 151.49C110.199 150.743 110.472 149.777 110.472 148.59C110.472 147.37 110.196 146.4 109.642 145.68C109.089 144.953 108.259 144.59 107.152 144.59C106.399 144.59 105.779 144.76 105.292 145.1C104.806 145.44 104.442 145.91 104.202 146.51C103.962 147.11 103.842 147.803 103.842 148.59C103.842 149.803 104.122 150.777 104.682 151.51C105.242 152.243 106.066 152.61 107.152 152.61ZM117.19 154V144.82H113.43V143.2H122.73V144.82H118.97V154H117.19ZM129.303 154.3C128.243 154.3 127.316 154.067 126.523 153.6C125.736 153.127 125.123 152.47 124.683 151.63C124.243 150.783 124.023 149.797 124.023 148.67C124.023 147.49 124.239 146.47 124.673 145.61C125.106 144.743 125.709 144.077 126.483 143.61C127.263 143.137 128.176 142.9 129.223 142.9C130.309 142.9 131.233 143.15 131.993 143.65C132.759 144.15 133.333 144.863 133.713 145.79C134.099 146.717 134.266 147.82 134.213 149.1H132.413V148.46C132.393 147.133 132.123 146.143 131.603 145.49C131.083 144.83 130.309 144.5 129.283 144.5C128.183 144.5 127.346 144.853 126.773 145.56C126.199 146.267 125.913 147.28 125.913 148.6C125.913 149.873 126.199 150.86 126.773 151.56C127.346 152.26 128.163 152.61 129.223 152.61C129.936 152.61 130.556 152.447 131.083 152.12C131.609 151.793 132.023 151.323 132.323 150.71L134.033 151.3C133.613 152.253 132.979 152.993 132.133 153.52C131.293 154.04 130.349 154.3 129.303 154.3ZM125.313 149.1V147.67H133.293V149.1H125.313ZM135.439 154V152.47C135.839 152.543 136.142 152.53 136.349 152.43C136.562 152.323 136.719 152.14 136.819 151.88C136.926 151.613 137.012 151.28 137.079 150.88C137.192 150.247 137.289 149.54 137.369 148.76C137.456 147.98 137.532 147.127 137.599 146.2C137.672 145.267 137.739 144.267 137.799 143.2H145.349V154H143.569V144.89H139.419C139.379 145.503 139.329 146.133 139.269 146.78C139.216 147.427 139.159 148.057 139.099 148.67C139.039 149.277 138.972 149.843 138.899 150.37C138.832 150.89 138.759 151.34 138.679 151.72C138.552 152.373 138.376 152.897 138.149 153.29C137.922 153.677 137.596 153.927 137.169 154.04C136.742 154.16 136.166 154.147 135.439 154ZM156.998 143.2V154H155.278V146.04L149.618 154H148.148V143.2H149.868V151.05L155.538 143.2H156.998ZM172.642 143.2V154H170.922V146.04L165.262 154H163.792V143.2H165.512V151.05L171.182 143.2H172.642ZM183.317 154.3C182.25 154.3 181.307 154.07 180.487 153.61C179.667 153.143 179.02 152.503 178.547 151.69L179.967 150.77C180.36 151.363 180.83 151.82 181.377 152.14C181.924 152.453 182.547 152.61 183.247 152.61C183.98 152.61 184.564 152.443 184.997 152.11C185.43 151.77 185.647 151.313 185.647 150.74C185.647 150.313 185.54 149.987 185.327 149.76C185.114 149.533 184.807 149.377 184.407 149.29C184.007 149.203 183.53 149.16 182.977 149.16H181.857V147.69H182.967C183.667 147.69 184.237 147.577 184.677 147.35C185.117 147.123 185.337 146.737 185.337 146.19C185.337 145.63 185.13 145.223 184.717 144.97C184.31 144.71 183.824 144.58 183.257 144.58C182.657 144.58 182.084 144.707 181.537 144.96C180.99 145.207 180.52 145.52 180.127 145.9L179.047 144.69C179.607 144.117 180.25 143.677 180.977 143.37C181.71 143.057 182.507 142.9 183.367 142.9C184.06 142.9 184.694 143.023 185.267 143.27C185.847 143.51 186.307 143.867 186.647 144.34C186.994 144.807 187.167 145.377 187.167 146.05C187.167 146.623 187.034 147.133 186.767 147.58C186.5 148.027 186.107 148.417 185.587 148.75L185.517 148.12C185.957 148.227 186.32 148.423 186.607 148.71C186.9 148.99 187.117 149.323 187.257 149.71C187.397 150.097 187.467 150.5 187.467 150.92C187.467 151.627 187.28 152.233 186.907 152.74C186.54 153.24 186.044 153.627 185.417 153.9C184.79 154.167 184.09 154.3 183.317 154.3ZM192.732 154.3C191.925 154.3 191.248 154.153 190.702 153.86C190.162 153.56 189.752 153.167 189.472 152.68C189.198 152.193 189.062 151.66 189.062 151.08C189.062 150.513 189.168 150.023 189.382 149.61C189.602 149.19 189.908 148.843 190.302 148.57C190.695 148.29 191.165 148.07 191.712 147.91C192.225 147.77 192.798 147.65 193.432 147.55C194.072 147.443 194.718 147.347 195.372 147.26C196.025 147.173 196.635 147.09 197.202 147.01L196.562 147.38C196.582 146.42 196.388 145.71 195.982 145.25C195.582 144.79 194.888 144.56 193.902 144.56C193.248 144.56 192.675 144.71 192.182 145.01C191.695 145.303 191.352 145.783 191.152 146.45L189.462 145.94C189.722 144.993 190.225 144.25 190.972 143.71C191.718 143.17 192.702 142.9 193.922 142.9C194.902 142.9 195.742 143.077 196.442 143.43C197.148 143.777 197.655 144.303 197.962 145.01C198.115 145.343 198.212 145.707 198.252 146.1C198.292 146.487 198.312 146.893 198.312 147.32V154H196.732V151.41L197.102 151.65C196.695 152.523 196.125 153.183 195.392 153.63C194.665 154.077 193.778 154.3 192.732 154.3ZM193.002 152.81C193.642 152.81 194.195 152.697 194.662 152.47C195.135 152.237 195.515 151.933 195.802 151.56C196.088 151.18 196.275 150.767 196.362 150.32C196.462 149.987 196.515 149.617 196.522 149.21C196.535 148.797 196.542 148.48 196.542 148.26L197.162 148.53C196.582 148.61 196.012 148.687 195.452 148.76C194.892 148.833 194.362 148.913 193.862 149C193.362 149.08 192.912 149.177 192.512 149.29C192.218 149.383 191.942 149.503 191.682 149.65C191.428 149.797 191.222 149.987 191.062 150.22C190.908 150.447 190.832 150.73 190.832 151.07C190.832 151.363 190.905 151.643 191.052 151.91C191.205 152.177 191.438 152.393 191.752 152.56C192.072 152.727 192.488 152.81 193.002 152.81ZM205.872 154.3C204.858 154.3 204.005 154.05 203.312 153.55C202.618 153.043 202.092 152.36 201.732 151.5C201.378 150.633 201.202 149.663 201.202 148.59C201.202 147.503 201.378 146.53 201.732 145.67C202.092 144.81 202.618 144.133 203.312 143.64C204.012 143.147 204.868 142.9 205.882 142.9C206.882 142.9 207.742 143.15 208.462 143.65C209.188 144.143 209.745 144.82 210.132 145.68C210.518 146.54 210.712 147.51 210.712 148.59C210.712 149.67 210.518 150.64 210.132 151.5C209.745 152.36 209.188 153.043 208.462 153.55C207.742 154.05 206.878 154.3 205.872 154.3ZM200.902 158.8V143.2H202.492V151.15H202.692V158.8H200.902ZM205.652 152.67C206.365 152.67 206.955 152.49 207.422 152.13C207.888 151.77 208.238 151.283 208.472 150.67C208.705 150.05 208.822 149.357 208.822 148.59C208.822 147.83 208.705 147.143 208.472 146.53C208.245 145.917 207.892 145.43 207.412 145.07C206.938 144.71 206.335 144.53 205.602 144.53C204.902 144.53 204.322 144.703 203.862 145.05C203.402 145.39 203.058 145.867 202.832 146.48C202.605 147.087 202.492 147.79 202.492 148.59C202.492 149.377 202.602 150.08 202.822 150.7C203.048 151.313 203.395 151.797 203.862 152.15C204.328 152.497 204.925 152.67 205.652 152.67ZM215.974 154.3C215.167 154.3 214.491 154.153 213.944 153.86C213.404 153.56 212.994 153.167 212.714 152.68C212.441 152.193 212.304 151.66 212.304 151.08C212.304 150.513 212.411 150.023 212.624 149.61C212.844 149.19 213.151 148.843 213.544 148.57C213.937 148.29 214.407 148.07 214.954 147.91C215.467 147.77 216.041 147.65 216.674 147.55C217.314 147.443 217.961 147.347 218.614 147.26C219.267 147.173 219.877 147.09 220.444 147.01L219.804 147.38C219.824 146.42 219.631 145.71 219.224 145.25C218.824 144.79 218.131 144.56 217.144 144.56C216.491 144.56 215.917 144.71 215.424 145.01C214.937 145.303 214.594 145.783 214.394 146.45L212.704 145.94C212.964 144.993 213.467 144.25 214.214 143.71C214.961 143.17 215.944 142.9 217.164 142.9C218.144 142.9 218.984 143.077 219.684 143.43C220.391 143.777 220.897 144.303 221.204 145.01C221.357 145.343 221.454 145.707 221.494 146.1C221.534 146.487 221.554 146.893 221.554 147.32V154H219.974V151.41L220.344 151.65C219.937 152.523 219.367 153.183 218.634 153.63C217.907 154.077 217.021 154.3 215.974 154.3ZM216.244 152.81C216.884 152.81 217.437 152.697 217.904 152.47C218.377 152.237 218.757 151.933 219.044 151.56C219.331 151.18 219.517 150.767 219.604 150.32C219.704 149.987 219.757 149.617 219.764 149.21C219.777 148.797 219.784 148.48 219.784 148.26L220.404 148.53C219.824 148.61 219.254 148.687 218.694 148.76C218.134 148.833 217.604 148.913 217.104 149C216.604 149.08 216.154 149.177 215.754 149.29C215.461 149.383 215.184 149.503 214.924 149.65C214.671 149.797 214.464 149.987 214.304 150.22C214.151 150.447 214.074 150.73 214.074 151.07C214.074 151.363 214.147 151.643 214.294 151.91C214.447 152.177 214.681 152.393 214.994 152.56C215.314 152.727 215.731 152.81 216.244 152.81ZM228.544 154.31C227.524 154.303 226.654 154.083 225.934 153.65C225.214 153.21 224.654 152.567 224.254 151.72C223.854 150.873 223.631 149.837 223.584 148.61C223.557 148.043 223.564 147.42 223.604 146.74C223.651 146.06 223.724 145.407 223.824 144.78C223.931 144.153 224.064 143.637 224.224 143.23C224.404 142.743 224.657 142.293 224.984 141.88C225.317 141.46 225.691 141.113 226.104 140.84C226.524 140.553 226.994 140.33 227.514 140.17C228.034 140.01 228.577 139.887 229.144 139.8C229.717 139.707 230.291 139.627 230.864 139.56C231.437 139.487 231.984 139.4 232.504 139.3L232.684 140.9C232.317 140.98 231.884 141.05 231.384 141.11C230.884 141.163 230.364 141.227 229.824 141.3C229.291 141.373 228.777 141.477 228.284 141.61C227.797 141.737 227.377 141.913 227.024 142.14C226.504 142.453 226.104 142.923 225.824 143.55C225.551 144.17 225.384 144.867 225.324 145.64C225.737 145 226.274 144.53 226.934 144.23C227.594 143.93 228.297 143.78 229.044 143.78C230.011 143.78 230.844 144.007 231.544 144.46C232.244 144.907 232.781 145.523 233.154 146.31C233.534 147.097 233.724 147.993 233.724 149C233.724 150.067 233.511 151 233.084 151.8C232.657 152.6 232.054 153.22 231.274 153.66C230.501 154.1 229.591 154.317 228.544 154.31ZM228.654 152.62C229.701 152.62 230.494 152.297 231.034 151.65C231.574 150.997 231.844 150.13 231.844 149.05C231.844 147.943 231.564 147.073 231.004 146.44C230.444 145.8 229.657 145.48 228.644 145.48C227.617 145.48 226.831 145.8 226.284 146.44C225.744 147.073 225.474 147.943 225.474 149.05C225.474 150.163 225.747 151.037 226.294 151.67C226.841 152.303 227.627 152.62 228.654 152.62ZM239.001 154.3C238.195 154.3 237.518 154.153 236.971 153.86C236.431 153.56 236.021 153.167 235.741 152.68C235.468 152.193 235.331 151.66 235.331 151.08C235.331 150.513 235.438 150.023 235.651 149.61C235.871 149.19 236.178 148.843 236.571 148.57C236.965 148.29 237.435 148.07 237.981 147.91C238.495 147.77 239.068 147.65 239.701 147.55C240.341 147.443 240.988 147.347 241.641 147.26C242.295 147.173 242.905 147.09 243.471 147.01L242.831 147.38C242.851 146.42 242.658 145.71 242.251 145.25C241.851 144.79 241.158 144.56 240.171 144.56C239.518 144.56 238.945 144.71 238.451 145.01C237.965 145.303 237.621 145.783 237.421 146.45L235.731 145.94C235.991 144.993 236.495 144.25 237.241 143.71C237.988 143.17 238.971 142.9 240.191 142.9C241.171 142.9 242.011 143.077 242.711 143.43C243.418 143.777 243.925 144.303 244.231 145.01C244.385 145.343 244.481 145.707 244.521 146.1C244.561 146.487 244.581 146.893 244.581 147.32V154H243.001V151.41L243.371 151.65C242.965 152.523 242.395 153.183 241.661 153.63C240.935 154.077 240.048 154.3 239.001 154.3ZM239.271 152.81C239.911 152.81 240.465 152.697 240.931 152.47C241.405 152.237 241.785 151.933 242.071 151.56C242.358 151.18 242.545 150.767 242.631 150.32C242.731 149.987 242.785 149.617 242.791 149.21C242.805 148.797 242.811 148.48 242.811 148.26L243.431 148.53C242.851 148.61 242.281 148.687 241.721 148.76C241.161 148.833 240.631 148.913 240.131 149C239.631 149.08 239.181 149.177 238.781 149.29C238.488 149.383 238.211 149.503 237.951 149.65C237.698 149.797 237.491 149.987 237.331 150.22C237.178 150.447 237.101 150.73 237.101 151.07C237.101 151.363 237.175 151.643 237.321 151.91C237.475 152.177 237.708 152.393 238.021 152.56C238.341 152.727 238.758 152.81 239.271 152.81ZM250.041 154V144.82H246.281V143.2H255.581V144.82H251.821V154H250.041ZM257.474 154L257.464 143.2H259.254V147.11H260.904C261.218 147.11 261.538 147.117 261.864 147.13C262.191 147.143 262.474 147.173 262.714 147.22C263.274 147.333 263.764 147.523 264.184 147.79C264.604 148.057 264.931 148.417 265.164 148.87C265.398 149.323 265.514 149.887 265.514 150.56C265.514 151.493 265.271 152.233 264.784 152.78C264.304 153.32 263.674 153.68 262.894 153.86C262.628 153.92 262.321 153.96 261.974 153.98C261.634 153.993 261.311 154 261.004 154H257.474ZM259.254 152.53H261.034C261.234 152.53 261.458 152.523 261.704 152.51C261.951 152.497 262.171 152.463 262.364 152.41C262.704 152.31 263.008 152.113 263.274 151.82C263.548 151.527 263.684 151.107 263.684 150.56C263.684 150.007 263.551 149.58 263.284 149.28C263.024 148.98 262.681 148.783 262.254 148.69C262.061 148.643 261.858 148.613 261.644 148.6C261.431 148.587 261.228 148.58 261.034 148.58H259.254V152.53ZM266.754 154V143.2H268.534V154H266.754ZM271.331 154V143.2H275.931C276.205 143.2 276.498 143.217 276.811 143.25C277.131 143.277 277.421 143.327 277.681 143.4C278.261 143.553 278.738 143.87 279.111 144.35C279.491 144.823 279.681 145.423 279.681 146.15C279.681 146.557 279.618 146.91 279.491 147.21C279.371 147.51 279.198 147.77 278.971 147.99C278.871 148.09 278.761 148.18 278.641 148.26C278.521 148.34 278.401 148.403 278.281 148.45C278.515 148.49 278.751 148.58 278.991 148.72C279.371 148.927 279.668 149.217 279.881 149.59C280.101 149.963 280.211 150.44 280.211 151.02C280.211 151.753 280.035 152.36 279.681 152.84C279.328 153.313 278.841 153.64 278.221 153.82C277.961 153.893 277.675 153.943 277.361 153.97C277.048 153.99 276.745 154 276.451 154H271.331ZM273.131 152.55H276.351C276.491 152.55 276.658 152.537 276.851 152.51C277.051 152.483 277.228 152.45 277.381 152.41C277.728 152.31 277.978 152.123 278.131 151.85C278.291 151.577 278.371 151.28 278.371 150.96C278.371 150.533 278.251 150.187 278.011 149.92C277.778 149.653 277.468 149.487 277.081 149.42C276.941 149.38 276.788 149.357 276.621 149.35C276.461 149.343 276.318 149.34 276.191 149.34H273.131V152.55ZM273.131 147.87H275.811C275.998 147.87 276.195 147.86 276.401 147.84C276.608 147.813 276.788 147.77 276.941 147.71C277.248 147.597 277.471 147.41 277.611 147.15C277.758 146.883 277.831 146.593 277.831 146.28C277.831 145.933 277.751 145.63 277.591 145.37C277.438 145.103 277.201 144.92 276.881 144.82C276.668 144.74 276.428 144.697 276.161 144.69C275.901 144.677 275.735 144.67 275.661 144.67H273.131V147.87ZM285.29 154.3C284.484 154.3 283.807 154.153 283.26 153.86C282.72 153.56 282.31 153.167 282.03 152.68C281.757 152.193 281.62 151.66 281.62 151.08C281.62 150.513 281.727 150.023 281.94 149.61C282.16 149.19 282.467 148.843 282.86 148.57C283.254 148.29 283.724 148.07 284.27 147.91C284.784 147.77 285.357 147.65 285.99 147.55C286.63 147.443 287.277 147.347 287.93 147.26C288.584 147.173 289.194 147.09 289.76 147.01L289.12 147.38C289.14 146.42 288.947 145.71 288.54 145.25C288.14 144.79 287.447 144.56 286.46 144.56C285.807 144.56 285.234 144.71 284.74 145.01C284.254 145.303 283.91 145.783 283.71 146.45L282.02 145.94C282.28 144.993 282.784 144.25 283.53 143.71C284.277 143.17 285.26 142.9 286.48 142.9C287.46 142.9 288.3 143.077 289 143.43C289.707 143.777 290.214 144.303 290.52 145.01C290.674 145.343 290.77 145.707 290.81 146.1C290.85 146.487 290.87 146.893 290.87 147.32V154H289.29V151.41L289.66 151.65C289.254 152.523 288.684 153.183 287.95 153.63C287.224 154.077 286.337 154.3 285.29 154.3ZM285.56 152.81C286.2 152.81 286.754 152.697 287.22 152.47C287.694 152.237 288.074 151.933 288.36 151.56C288.647 151.18 288.834 150.767 288.92 150.32C289.02 149.987 289.074 149.617 289.08 149.21C289.094 148.797 289.1 148.48 289.1 148.26L289.72 148.53C289.14 148.61 288.57 148.687 288.01 148.76C287.45 148.833 286.92 148.913 286.42 149C285.92 149.08 285.47 149.177 285.07 149.29C284.777 149.383 284.5 149.503 284.24 149.65C283.987 149.797 283.78 149.987 283.62 150.22C283.467 150.447 283.39 150.73 283.39 151.07C283.39 151.363 283.464 151.643 283.61 151.91C283.764 152.177 283.997 152.393 284.31 152.56C284.63 152.727 285.047 152.81 285.56 152.81ZM298.12 141.94C297.62 141.94 297.164 141.817 296.75 141.57C296.337 141.323 296.007 140.997 295.76 140.59C295.514 140.177 295.39 139.717 295.39 139.21H296.83C296.83 139.563 296.957 139.867 297.21 140.12C297.464 140.373 297.767 140.5 298.12 140.5C298.48 140.5 298.784 140.373 299.03 140.12C299.284 139.867 299.41 139.563 299.41 139.21H300.85C300.85 139.717 300.727 140.177 300.48 140.59C300.24 140.997 299.91 141.323 299.49 141.57C299.077 141.817 298.62 141.94 298.12 141.94ZM302.31 143.2V154H300.59V146.04L294.93 154H293.46V143.2H295.18V151.05L300.85 143.2H302.31ZM307.971 154V144.82H304.211V143.2H313.511V144.82H309.751V154H307.971ZM320.084 154.3C319.024 154.3 318.097 154.067 317.304 153.6C316.517 153.127 315.904 152.47 315.464 151.63C315.024 150.783 314.804 149.797 314.804 148.67C314.804 147.49 315.021 146.47 315.454 145.61C315.887 144.743 316.491 144.077 317.264 143.61C318.044 143.137 318.957 142.9 320.004 142.9C321.091 142.9 322.014 143.15 322.774 143.65C323.541 144.15 324.114 144.863 324.494 145.79C324.881 146.717 325.047 147.82 324.994 149.1H323.194V148.46C323.174 147.133 322.904 146.143 322.384 145.49C321.864 144.83 321.091 144.5 320.064 144.5C318.964 144.5 318.127 144.853 317.554 145.56C316.981 146.267 316.694 147.28 316.694 148.6C316.694 149.873 316.981 150.86 317.554 151.56C318.127 152.26 318.944 152.61 320.004 152.61C320.717 152.61 321.337 152.447 321.864 152.12C322.391 151.793 322.804 151.323 323.104 150.71L324.814 151.3C324.394 152.253 323.761 152.993 322.914 153.52C322.074 154.04 321.131 154.3 320.084 154.3ZM316.094 149.1V147.67H324.074V149.1H316.094Z" fill="#292D32"/>
<rect x="40" y="305" width="205" height="50" rx="8" fill="#3C4EF2"/>
<path d="M65.26 337V324.04H70.381C70.507 324.04 70.657 324.046 70.831 324.058C71.005 324.064 71.173 324.082 71.335 324.112C72.037 324.22 72.625 324.46 73.099 324.832C73.579 325.204 73.939 325.675 74.179 326.245C74.419 326.809 74.539 327.436 74.539 328.126C74.539 328.81 74.416 329.437 74.17 330.007C73.93 330.571 73.57 331.042 73.09 331.42C72.616 331.792 72.031 332.032 71.335 332.14C71.173 332.164 71.005 332.182 70.831 332.194C70.657 332.206 70.507 332.212 70.381 332.212H66.862V337H65.26ZM66.862 330.691H70.327C70.441 330.691 70.57 330.685 70.714 330.673C70.864 330.661 71.005 330.64 71.137 330.61C71.551 330.514 71.887 330.34 72.145 330.088C72.409 329.83 72.601 329.53 72.721 329.188C72.841 328.84 72.901 328.486 72.901 328.126C72.901 327.766 72.841 327.415 72.721 327.073C72.601 326.725 72.409 326.422 72.145 326.164C71.887 325.906 71.551 325.732 71.137 325.642C71.005 325.606 70.864 325.585 70.714 325.579C70.57 325.567 70.441 325.561 70.327 325.561H66.862V330.691ZM79.0972 337.27C78.3712 337.27 77.7622 337.138 77.2702 336.874C76.7842 336.604 76.4152 336.25 76.1632 335.812C75.9172 335.374 75.7942 334.894 75.7942 334.372C75.7942 333.862 75.8902 333.421 76.0822 333.049C76.2802 332.671 76.5562 332.359 76.9102 332.113C77.2642 331.861 77.6872 331.663 78.1792 331.519C78.6412 331.393 79.1572 331.285 79.7272 331.195C80.3032 331.099 80.8852 331.012 81.4732 330.934C82.0612 330.856 82.6102 330.781 83.1202 330.709L82.5442 331.042C82.5622 330.178 82.3882 329.539 82.0222 329.125C81.6622 328.711 81.0382 328.504 80.1502 328.504C79.5622 328.504 79.0462 328.639 78.6022 328.909C78.1642 329.173 77.8552 329.605 77.6752 330.205L76.1542 329.746C76.3882 328.894 76.8412 328.225 77.5132 327.739C78.1852 327.253 79.0702 327.01 80.1682 327.01C81.0502 327.01 81.8062 327.169 82.4362 327.487C83.0722 327.799 83.5282 328.273 83.8042 328.909C83.9422 329.209 84.0292 329.536 84.0652 329.89C84.1012 330.238 84.1192 330.604 84.1192 330.988V337H82.6972V334.669L83.0302 334.885C82.6642 335.671 82.1512 336.265 81.4912 336.667C80.8372 337.069 80.0392 337.27 79.0972 337.27ZM79.3402 335.929C79.9162 335.929 80.4142 335.827 80.8342 335.623C81.2602 335.413 81.6022 335.14 81.8602 334.804C82.1182 334.462 82.2862 334.09 82.3642 333.688C82.4542 333.388 82.5022 333.055 82.5082 332.689C82.5202 332.317 82.5262 332.032 82.5262 331.834L83.0842 332.077C82.5622 332.149 82.0492 332.218 81.5452 332.284C81.0412 332.35 80.5642 332.422 80.1142 332.5C79.6642 332.572 79.2592 332.659 78.8992 332.761C78.6352 332.845 78.3862 332.953 78.1522 333.085C77.9242 333.217 77.7382 333.388 77.5942 333.598C77.4562 333.802 77.3872 334.057 77.3872 334.363C77.3872 334.627 77.4532 334.879 77.5852 335.119C77.7232 335.359 77.9332 335.554 78.2152 335.704C78.5032 335.854 78.8782 335.929 79.3402 335.929ZM89.9422 337.27C88.9822 337.27 88.1332 337.063 87.3952 336.649C86.6572 336.229 86.0752 335.653 85.6492 334.921L86.9272 334.093C87.2812 334.627 87.7042 335.038 88.1962 335.326C88.6882 335.608 89.2492 335.749 89.8792 335.749C90.5392 335.749 91.0642 335.599 91.4542 335.299C91.8442 334.993 92.0392 334.582 92.0392 334.066C92.0392 333.682 91.9432 333.388 91.7512 333.184C91.5592 332.98 91.2832 332.839 90.9232 332.761C90.5632 332.683 90.1342 332.644 89.6362 332.644H88.6282V331.321H89.6272C90.2572 331.321 90.7702 331.219 91.1662 331.015C91.5622 330.811 91.7602 330.463 91.7602 329.971C91.7602 329.467 91.5742 329.101 91.2022 328.873C90.8362 328.639 90.3982 328.522 89.8882 328.522C89.3482 328.522 88.8322 328.636 88.3402 328.864C87.8482 329.086 87.4252 329.368 87.0712 329.71L86.0992 328.621C86.6032 328.105 87.1822 327.709 87.8362 327.433C88.4962 327.151 89.2132 327.01 89.9872 327.01C90.6112 327.01 91.1812 327.121 91.6972 327.343C92.2192 327.559 92.6332 327.88 92.9392 328.306C93.2512 328.726 93.4072 329.239 93.4072 329.845C93.4072 330.361 93.2872 330.82 93.0472 331.222C92.8072 331.624 92.4532 331.975 91.9852 332.275L91.9222 331.708C92.3182 331.804 92.6452 331.981 92.9032 332.239C93.1672 332.491 93.3622 332.791 93.4882 333.139C93.6142 333.487 93.6772 333.85 93.6772 334.228C93.6772 334.864 93.5092 335.41 93.1732 335.866C92.8432 336.316 92.3962 336.664 91.8322 336.91C91.2682 337.15 90.6382 337.27 89.9422 337.27ZM95.6436 337V327.28H97.0206L100.711 334.822L104.401 327.28H105.778V337H104.23V330.619L101.134 337H100.288L97.1916 330.619V337H95.6436ZM112.503 337.27C111.549 337.27 110.715 337.06 110.001 336.64C109.293 336.214 108.741 335.623 108.345 334.867C107.949 334.105 107.751 333.217 107.751 332.203C107.751 331.141 107.946 330.223 108.336 329.449C108.726 328.669 109.269 328.069 109.965 327.649C110.667 327.223 111.489 327.01 112.431 327.01C113.409 327.01 114.24 327.235 114.924 327.685C115.614 328.135 116.13 328.777 116.472 329.611C116.82 330.445 116.97 331.438 116.922 332.59H115.302V332.014C115.284 330.82 115.041 329.929 114.573 329.341C114.105 328.747 113.409 328.45 112.485 328.45C111.495 328.45 110.742 328.768 110.226 329.404C109.71 330.04 109.452 330.952 109.452 332.14C109.452 333.286 109.71 334.174 110.226 334.804C110.742 335.434 111.477 335.749 112.431 335.749C113.073 335.749 113.631 335.602 114.105 335.308C114.579 335.014 114.951 334.591 115.221 334.039L116.76 334.57C116.382 335.428 115.812 336.094 115.05 336.568C114.294 337.036 113.445 337.27 112.503 337.27ZM108.912 332.59V331.303H116.094V332.59H108.912ZM123.021 337.27C122.037 337.27 121.2 337.051 120.51 336.613C119.826 336.169 119.304 335.56 118.944 334.786C118.584 334.012 118.398 333.13 118.386 332.14C118.398 331.126 118.587 330.235 118.953 329.467C119.325 328.693 119.856 328.09 120.546 327.658C121.236 327.226 122.067 327.01 123.039 327.01C124.065 327.01 124.947 327.262 125.685 327.766C126.429 328.27 126.927 328.96 127.179 329.836L125.595 330.313C125.391 329.749 125.058 329.311 124.596 328.999C124.14 328.687 123.615 328.531 123.021 328.531C122.355 328.531 121.806 328.687 121.374 328.999C120.942 329.305 120.621 329.731 120.411 330.277C120.201 330.817 120.093 331.438 120.087 332.14C120.099 333.22 120.348 334.093 120.834 334.759C121.326 335.419 122.055 335.749 123.021 335.749C123.657 335.749 124.185 335.605 124.605 335.317C125.025 335.023 125.343 334.6 125.559 334.048L127.179 334.471C126.843 335.377 126.318 336.07 125.604 336.55C124.89 337.03 124.029 337.27 123.021 337.27ZM131.414 337V328.738H128.03V327.28H136.4V328.738H133.016V337H131.414ZM146.06 327.28V337H144.512V329.836L139.418 337H138.095V327.28H139.643V334.345L144.746 327.28H146.06ZM151.154 337V328.738H147.77V327.28H156.14V328.738H152.756V337H151.154ZM157.844 337L157.835 327.28H159.446V330.799H161.543C161.825 330.799 162.113 330.805 162.407 330.817C162.701 330.829 162.956 330.856 163.172 330.898C163.676 330.994 164.117 331.162 164.495 331.402C164.873 331.642 165.167 331.969 165.377 332.383C165.587 332.791 165.692 333.298 165.692 333.904C165.692 334.744 165.473 335.41 165.035 335.902C164.603 336.388 164.036 336.712 163.334 336.874C163.094 336.928 162.818 336.964 162.506 336.982C162.2 336.994 161.909 337 161.633 337H157.844ZM159.446 335.677H161.66C161.84 335.677 162.041 335.671 162.263 335.659C162.485 335.647 162.683 335.617 162.857 335.569C163.163 335.479 163.436 335.302 163.676 335.038C163.922 334.774 164.045 334.396 164.045 333.904C164.045 333.406 163.925 333.022 163.685 332.752C163.451 332.482 163.142 332.305 162.758 332.221C162.584 332.179 162.401 332.152 162.209 332.14C162.017 332.128 161.834 332.122 161.66 332.122H159.446V335.677ZM175.414 337.27C174.448 337.27 173.614 337.051 172.912 336.613C172.216 336.175 171.679 335.569 171.301 334.795C170.923 334.021 170.734 333.133 170.734 332.131C170.734 331.111 170.926 330.217 171.31 329.449C171.694 328.681 172.237 328.084 172.939 327.658C173.641 327.226 174.466 327.01 175.414 327.01C176.386 327.01 177.223 327.229 177.925 327.667C178.627 328.099 179.164 328.702 179.536 329.476C179.914 330.244 180.103 331.129 180.103 332.131C180.103 333.145 179.914 334.039 179.536 334.813C179.158 335.581 178.618 336.184 177.916 336.622C177.214 337.054 176.38 337.27 175.414 337.27ZM175.414 335.749C176.422 335.749 177.172 335.413 177.664 334.741C178.156 334.069 178.402 333.199 178.402 332.131C178.402 331.033 178.153 330.16 177.655 329.512C177.157 328.858 176.41 328.531 175.414 328.531C174.736 328.531 174.178 328.684 173.74 328.99C173.302 329.296 172.975 329.719 172.759 330.259C172.543 330.799 172.435 331.423 172.435 332.131C172.435 333.223 172.687 334.099 173.191 334.759C173.695 335.419 174.436 335.749 175.414 335.749ZM184.447 337V328.738H181.063V327.28H189.433V328.738H186.049V337H184.447ZM195.349 337.27C194.395 337.27 193.561 337.06 192.847 336.64C192.139 336.214 191.587 335.623 191.191 334.867C190.795 334.105 190.597 333.217 190.597 332.203C190.597 331.141 190.792 330.223 191.182 329.449C191.572 328.669 192.115 328.069 192.811 327.649C193.513 327.223 194.335 327.01 195.277 327.01C196.255 327.01 197.086 327.235 197.77 327.685C198.46 328.135 198.976 328.777 199.318 329.611C199.666 330.445 199.816 331.438 199.768 332.59H198.148V332.014C198.13 330.82 197.887 329.929 197.419 329.341C196.951 328.747 196.255 328.45 195.331 328.45C194.341 328.45 193.588 328.768 193.072 329.404C192.556 330.04 192.298 330.952 192.298 332.14C192.298 333.286 192.556 334.174 193.072 334.804C193.588 335.434 194.323 335.749 195.277 335.749C195.919 335.749 196.477 335.602 196.951 335.308C197.425 335.014 197.797 334.591 198.067 334.039L199.606 334.57C199.228 335.428 198.658 336.094 197.896 336.568C197.14 337.036 196.291 337.27 195.349 337.27ZM191.758 332.59V331.303H198.94V332.59H191.758ZM200.872 337V335.623C201.232 335.689 201.505 335.677 201.691 335.587C201.883 335.491 202.024 335.326 202.114 335.092C202.21 334.852 202.288 334.552 202.348 334.192C202.45 333.622 202.537 332.986 202.609 332.284C202.687 331.582 202.756 330.814 202.816 329.98C202.882 329.14 202.942 328.24 202.996 327.28H209.791V337H208.189V328.801H204.454C204.418 329.353 204.373 329.92 204.319 330.502C204.271 331.084 204.22 331.651 204.166 332.203C204.112 332.749 204.052 333.259 203.986 333.733C203.926 334.201 203.86 334.606 203.788 334.948C203.674 335.536 203.515 336.007 203.311 336.361C203.107 336.709 202.813 336.934 202.429 337.036C202.045 337.144 201.526 337.132 200.872 337ZM212.319 337L212.31 327.28H213.921V330.799H216.018C216.3 330.799 216.588 330.805 216.882 330.817C217.176 330.829 217.431 330.856 217.647 330.898C218.151 330.994 218.592 331.162 218.97 331.402C219.348 331.642 219.642 331.969 219.852 332.383C220.062 332.791 220.167 333.298 220.167 333.904C220.167 334.744 219.948 335.41 219.51 335.902C219.078 336.388 218.511 336.712 217.809 336.874C217.569 336.928 217.293 336.964 216.981 336.982C216.675 336.994 216.384 337 216.108 337H212.319ZM213.921 335.677H216.135C216.315 335.677 216.516 335.671 216.738 335.659C216.96 335.647 217.158 335.617 217.332 335.569C217.638 335.479 217.911 335.302 218.151 335.038C218.397 334.774 218.52 334.396 218.52 333.904C218.52 333.406 218.4 333.022 218.16 332.752C217.926 332.482 217.617 332.305 217.233 332.221C217.059 332.179 216.876 332.152 216.684 332.14C216.492 332.128 216.309 332.122 216.135 332.122H213.921V335.677Z" fill="white"/>
<rect x="425.989" y="181.922" width="89.1146" height="147.156" stroke="#292D32" stroke-width="2.09372"/>
<rect x="457.497" y="288.055" width="24.4396" height="41.023" stroke="#292D32" stroke-width="2.09372"/>
<rect x="439.255" y="198.505" width="14.4896" height="12.8313" stroke="#292D32" stroke-width="2.09372"/>
<rect x="464.13" y="198.505" width="12.8313" height="12.8313" stroke="#292D32" stroke-width="2.09372"/>
<rect x="487.347" y="198.505" width="12.8313" height="12.8313" stroke="#292D32" stroke-width="2.09372"/>
<rect x="439.255" y="221.722" width="14.4896" height="14.4896" stroke="#292D32" stroke-width="2.09372"/>
<rect x="464.13" y="221.722" width="12.8313" height="14.4896" stroke="#292D32" stroke-width="2.09372"/>
<rect x="487.347" y="221.722" width="12.8313" height="14.4896" stroke="#292D32" stroke-width="2.09372"/>
<rect x="439.255" y="246.597" width="14.4896" height="14.4896" stroke="#292D32" stroke-width="2.09372"/>
<rect x="464.13" y="246.597" width="12.8313" height="14.4896" stroke="#292D32" stroke-width="2.09372"/>
<rect x="487.347" y="246.597" width="12.8313" height="14.4896" stroke="#292D32" stroke-width="2.09372"/>
<rect x="375.192" y="217.358" width="43.1167" height="112.767" fill="#FFC226"/>
<path d="M424.942 210.725H381.825V321.833" stroke="#292D32" stroke-width="2.09372"/>
</svg>
