<svg width="240" height="240" viewBox="0 0 240 240" fill="none" xmlns="http://www.w3.org/2000/svg">
<path d="M121 94C79 94 67.3333 129.333 64 144H177C174.333 127.333 159.4 94 121 94Z" fill="#FFC226"/>
<path d="M8 151C9.33333 146.667 22.1938 135.388 52 151C73 162 96 158.001 109 151C122 144 145 138 166 151C190.946 166.444 219.667 156.334 230 151" stroke="#292D32" stroke-width="2"/>
<path d="M35 165C47.3333 171.667 73 184.634 113 170C145.8 158 167 169.4 186 177C196 181 205.2 183 214 175" stroke="#292D32" stroke-width="2"/>
<path d="M69 134C72.3333 119.333 88.6 90 127 90C165.4 90 180.333 123.333 183 140" stroke="#292D32" stroke-width="2"/>
<path d="M83 191C88.6667 192.333 102.8 193.4 114 187C128 179 146 178 162 187C174.8 194.2 182.667 194.667 185 194" stroke="#292D32" stroke-width="2"/>
<path d="M141.055 60.5891C140.125 70.1216 151.121 69.9999 158.124 69.9999C187.446 69.9999 190.072 69.9999 190.947 64.6224C191.509 61.1705 187.446 60.141 185.258 60.5891C187.008 56.4065 186.833 47.3243 172.128 44.4562C158.999 41.8954 152.872 50.7301 152.434 55.6595C149.663 52.9707 141.931 51.6264 141.055 60.5891Z" stroke="#292D32" stroke-width="2"/>
</svg>
