<svg width="240" height="240" viewBox="0 0 240 240" fill="none" xmlns="http://www.w3.org/2000/svg">
<path d="M82.5 150.75L67.5 168.75" stroke="#292D32" stroke-width="2"/>
<path d="M93.75 150L70.5 178.5" stroke="#292D32" stroke-width="2"/>
<path d="M103.5 150.75L75 186.75" stroke="#292D32" stroke-width="2"/>
<path d="M113.25 152.25L85.5 186.75" stroke="#292D32" stroke-width="2"/>
<path d="M123.75 151.5L96 186" stroke="#292D32" stroke-width="2"/>
<path d="M141.75 142.5L125.25 163.5" stroke="#292D32" stroke-width="2"/>
<path d="M145.5 151.5L130.5 170.25" stroke="#292D32" stroke-width="2"/>
<path d="M144.75 166.5L112.5 204" stroke="#292D32" stroke-width="2"/>
<path d="M102 108L60 132L66 163.5C75 210.9 111.25 206.25 128.25 198C161.85 175.8 148.5 149.25 135 135C121.5 120.75 102 108 102 108Z" stroke="#292D32" stroke-width="2"/>
<path d="M65.25 156.75C68.25 153.25 80.85 147.3 107.25 151.5C133.65 155.7 136.75 141.75 135 134.25" stroke="#292D32" stroke-width="2"/>
<path d="M139.5 207L150 220.5" stroke="#292D32" stroke-width="2"/>
<path d="M141 227.25L158.25 213" stroke="#292D32" stroke-width="2"/>
<path d="M74.25 188.25C55.65 195.45 41 213.25 36 221.25L87.75 231.75C90.75 229.95 107.5 222 115.5 218.25C153 200.25 161.25 156.75 162.75 149.25C163.95 143.25 161.625 139.5 157.5 139.5C152.25 139.5 148.95 150.75 147.75 153.75C145.75 158.75 140.7 171.75 136.5 177.75C132.3 183.75 123.75 195 115.5 198.75C113.25 200.5 108.15 202.95 105.75 198.75C103.35 194.55 106.75 190 108.75 188.25L120.75 176.25C124 173.75 129.15 167.55 123.75 162.75C118.35 157.95 111.5 163.25 108.75 166.5C105 170.75 92.85 181.05 74.25 188.25Z" fill="#FFC226"/>
<path d="M40.5 223.5C45.5 215.5 60.15 197.7 78.75 190.5C97.35 183.3 109.5 173 113.25 168.75C116 165.5 122.85 160.2 128.25 165C133.65 169.8 128.5 176 125.25 178.5L113.25 190.5C111.25 192.25 107.85 196.8 110.25 201C112.65 205.2 117.75 202.75 120 201C128.25 197.25 136.8 186 141 180C145.2 174 150.25 161 152.25 156C153.45 153 156.75 141.75 162 141.75C166.125 141.75 168.45 145.5 167.25 151.5C165.75 159 157.5 202.5 120 220.5C112 224.25 95.25 232.2 92.25 234" stroke="#292D32" stroke-width="2"/>
<path d="M95.9248 66.5839L110.82 28.1049C113.302 29.0979 134.611 32.863 144.955 34.3112L144.324 73.4108C143.703 69.4802 133.783 60.9788 121.991 59.1363C113.302 57.7787 97.9936 62.0326 95.9248 66.5839Z" fill="#FFC226"/>
<path d="M38.2063 5.76221C63.859 17.3473 132.045 39.7727 199.57 36.7937" stroke="#292D32" stroke-width="2"/>
<path d="M32 46.1031C42.8083 34.543 48.3133 27.5354 56.2045 13.2098C63.6521 15.6923 76.8922 20.0367 82.8916 21.2779L68.6171 63.4807C68.6171 63.4807 61.1696 49.2063 56.8252 46.7237C52.4808 44.2412 41.8348 44.5517 32 46.1031Z" stroke="#292D32" stroke-width="2"/>
<path d="M98.4073 70.3077L113.923 29.3461C116.406 30.3391 137.714 33.4837 148.058 34.9318L146.816 80.2377C146.196 76.3071 136.266 64.7026 124.474 62.8601C115.785 61.5025 100.476 65.7564 98.4073 70.3077Z" stroke="#292D32" stroke-width="2"/>
<path d="M175.365 79.6171L174.124 36.7937H198.949L209.5 75.2727L193.364 70.3077L175.365 79.6171Z" stroke="#292D32" stroke-width="2"/>
<path d="M52.4807 19.4161L60.5489 14.451" stroke="#292D32" stroke-width="2"/>
<path d="M48.1364 26.243L65.514 16.3129" stroke="#292D32" stroke-width="2"/>
<path d="M41.9301 34.9318L71.7203 18.1748" stroke="#292D32" stroke-width="2"/>
<path d="M32.6206 45.4825L78.5472 20.0367" stroke="#292D32" stroke-width="2"/>
<path d="M43.792 44.8619L81.6504 24.3811" stroke="#292D32" stroke-width="2"/>
<path d="M54.3427 46.1031L79.1678 32.4493" stroke="#292D32" stroke-width="2"/>
<path d="M59.3077 49.8269L76.6854 39.8968" stroke="#292D32" stroke-width="2"/>
<path d="M63.0315 54.1713L74.2028 47.3444" stroke="#292D32" stroke-width="2"/>
<path d="M65.514 57.8951L71.7203 54.1713" stroke="#292D32" stroke-width="2"/>
<mask id="path-29-inside-1_2146_3579" fill="white">
<ellipse cx="179.089" cy="42.3793" rx="1.86189" ry="1.86189"/>
</mask>
<path d="M178.951 42.3793C178.951 42.3031 179.013 42.2412 179.089 42.2412V46.2412C181.222 46.2412 182.951 44.5122 182.951 42.3793H178.951ZM179.089 42.2412C179.165 42.2412 179.227 42.3031 179.227 42.3793H175.227C175.227 44.5122 176.956 46.2412 179.089 46.2412V42.2412ZM179.227 42.3793C179.227 42.4556 179.165 42.5175 179.089 42.5175V38.5175C176.956 38.5175 175.227 40.2465 175.227 42.3793H179.227ZM179.089 42.5175C179.013 42.5175 178.951 42.4556 178.951 42.3793H182.951C182.951 40.2465 181.222 38.5175 179.089 38.5175V42.5175Z" fill="#292D32" mask="url(#path-29-inside-1_2146_3579)"/>
<ellipse cx="181.572" cy="51.0682" rx="1.86189" ry="1.86189" fill="#FFC226"/>
<mask id="path-32-inside-2_2146_3579" fill="white">
<ellipse cx="182.813" cy="52.3094" rx="1.86189" ry="1.86189"/>
</mask>
<path d="M182.675 52.3094C182.675 52.2331 182.737 52.1713 182.813 52.1713V56.1713C184.946 56.1713 186.675 54.4423 186.675 52.3094H182.675ZM182.813 52.1713C182.889 52.1713 182.951 52.2331 182.951 52.3094H178.951C178.951 54.4423 180.68 56.1713 182.813 56.1713V52.1713ZM182.951 52.3094C182.951 52.3857 182.889 52.4475 182.813 52.4475V48.4475C180.68 48.4475 178.951 50.1766 178.951 52.3094H182.951ZM182.813 52.4475C182.737 52.4475 182.675 52.3857 182.675 52.3094H186.675C186.675 50.1766 184.946 48.4475 182.813 48.4475V52.4475Z" fill="#292D32" mask="url(#path-32-inside-2_2146_3579)"/>
<ellipse cx="193.975" cy="65.9633" rx="3.10315" ry="3.10315" fill="#FFC226"/>
<circle cx="195.225" cy="67.2045" r="2.10315" stroke="#292D32" stroke-width="2"/>
<path d="M199.811 48.5856C199.811 49.7472 198.87 50.6888 197.708 50.6888C196.546 50.6888 195.605 49.7472 195.605 48.5856C195.605 47.4241 196.546 46.4825 197.708 46.4825C198.87 46.4825 199.811 47.4241 199.811 48.5856Z" stroke="#292D32" stroke-width="2"/>
<mask id="path-37-inside-3_2146_3579" fill="white">
<ellipse cx="176.607" cy="59.757" rx="1.86189" ry="1.86189"/>
</mask>
<path d="M176.469 59.757C176.469 59.6807 176.53 59.6189 176.607 59.6189V63.6189C178.74 63.6189 180.469 61.8898 180.469 59.757H176.469ZM176.607 59.6189C176.683 59.6189 176.745 59.6807 176.745 59.757H172.745C172.745 61.8898 174.474 63.6189 176.607 63.6189V59.6189ZM176.745 59.757C176.745 59.8332 176.683 59.8951 176.607 59.8951V55.8951C174.474 55.8951 172.745 57.6241 172.745 59.757H176.745ZM176.607 59.8951C176.53 59.8951 176.469 59.8332 176.469 59.757H180.469C180.469 57.6241 178.74 55.8951 176.607 55.8951V59.8951Z" fill="#292D32" mask="url(#path-37-inside-3_2146_3579)"/>
<path d="M183.675 72.7902C183.675 74.2945 182.455 75.514 180.951 75.514C179.447 75.514 178.227 74.2945 178.227 72.7902C178.227 71.2859 179.447 70.0664 180.951 70.0664C182.455 70.0664 183.675 71.2859 183.675 72.7902Z" stroke="#292D32" stroke-width="2"/>
</svg>
