<svg width="240" height="240" viewBox="0 0 240 240" fill="none" xmlns="http://www.w3.org/2000/svg">
<rect x="94" y="52" width="46" height="92" rx="20" fill="#FFC226"/>
<rect x="101" y="47" width="44" height="90" rx="19" stroke="#292D32" stroke-width="2"/>
<path d="M122 138V205" stroke="#292D32" stroke-width="2" stroke-linejoin="round"/>
<rect x="145" y="21" width="60" height="116" rx="19" stroke="#292D32" stroke-width="2"/>
<path d="M174 65V187" stroke="#292D32" stroke-width="2" stroke-linejoin="round"/>
<rect x="41" y="21" width="60" height="116" rx="19" stroke="#292D32" stroke-width="2"/>
<path d="M76 20.6094L41 44.33" stroke="#292D32" stroke-width="2"/>
<path d="M86 24.6094L41 53" stroke="#292D32" stroke-width="2"/>
<path d="M93.5559 30.082L41 63" stroke="#292D32" stroke-width="2"/>
<path d="M97.282 38.3071L41 73" stroke="#292D32" stroke-width="2"/>
<path d="M100.077 48.5327L41.0001 84" stroke="#292D32" stroke-width="2"/>
<path d="M70 137V179" stroke="#292D32" stroke-width="2" stroke-linejoin="round"/>
<path d="M174 87L190 76" stroke="#292D32" stroke-width="2" stroke-linejoin="round"/>
<path d="M174 109L190 98" stroke="#292D32" stroke-width="2" stroke-linejoin="round"/>
<path d="M30 222.431C38 203.431 61.3245 167.249 85 183.431C99 193 110 207 125 205.431C143 203.548 160 161.431 210 205.431" stroke="#292D32" stroke-width="2"/>
</svg>
