<svg width="240" height="240" viewBox="0 0 240 240" fill="none" xmlns="http://www.w3.org/2000/svg">
<path d="M44.6365 151.072C27.3456 158.219 11.0121 178.6 12.0467 200.783L220 207.999C211.206 198.111 188.299 186.048 160.252 191.162C133.87 195.973 115.247 178.066 107.488 171.117C85.1049 151.072 64.0347 143.054 44.6365 151.072Z" fill="#FFC226"/>
<path d="M22.0467 196.783C21.0121 174.6 37.3456 154.219 54.6365 147.072C74.0347 139.054 95.1049 147.072 117.488 167.117C125.247 174.066 143.87 191.973 170.252 187.162C198.299 182.048 221.206 194.111 230 203.999" stroke="#292D32" stroke-width="2"/>
<path d="M32 164.569L49.2114 105.954C52.6316 93.707 62.4068 83.2636 69.2913 105.954L77.897 128.645L99.4112 53.4823C104.211 34.9665 118.917 11.5049 133.834 53.4823L162.52 145.663L175.428 118.718C178.297 112.1 186.042 102.834 194.074 118.718C202.106 134.601 220.351 180.145 228 200" stroke="#292D32" stroke-width="2"/>
<path d="M124.727 36.1421L99.5727 53.7747" stroke="#292D32" stroke-width="2"/>
<path d="M129.385 44.4585L94.9147 68.6807" stroke="#292D32" stroke-width="2"/>
<path d="M133.111 52.8433L91.1883 81.7236" stroke="#292D32" stroke-width="2"/>
<path d="M135.906 62.6362L87.4618 93.8342" stroke="#292D32" stroke-width="2"/>
<path d="M138.701 71.4756L85.5986 105.014" stroke="#292D32" stroke-width="2"/>
<path d="M142.427 79.7007L81.8717 117.125" stroke="#292D32" stroke-width="2"/>
<path d="M145.222 89.9262L78.1453 130.168" stroke="#292D32" stroke-width="2"/>
</svg>
