<svg width="240" height="240" viewBox="0 0 240 240" fill="none" xmlns="http://www.w3.org/2000/svg">
<path d="M63.4875 103.06C61.8588 104.593 59.9118 105.358 57.5895 105.358C55.2678 105.358 53.3867 104.594 51.8739 103.081C50.361 101.569 49.5977 99.6876 49.5977 97.3658C49.5977 95.0441 50.361 93.163 51.8739 91.6502C53.3867 90.1373 55.2678 89.374 57.5895 89.374C59.9118 89.374 61.8588 90.1386 63.4875 91.6713C65.1003 93.189 65.9025 95.0637 65.9025 97.3658C65.9025 99.668 65.1003 101.543 63.4875 103.06Z" stroke="#292D32" stroke-width="2"/>
<path d="M98.7801 102.776L98.801 102.766L98.8215 102.756C99.0713 102.631 99.4418 102.541 99.9797 102.541C101.017 102.541 101.827 102.876 102.484 103.532C103.141 104.189 103.476 104.999 103.476 106.037C103.476 107.16 103.034 108.016 102.069 108.686L86.1874 115.356L83.4919 115.955H73.9675H72.4769L73.0422 117.335L81.0706 136.924L81.3251 137.545H81.9959H99.6586C100.687 137.545 101.488 137.623 102.083 137.76C102.692 137.9 102.993 138.082 103.126 138.215L103.143 138.232L103.161 138.249L120.497 153.979C120.497 153.98 120.498 153.98 120.499 153.981C121.776 155.16 122.304 156.239 122.343 157.218C122.382 158.194 121.945 159.307 120.775 160.579C119.669 161.679 118.501 162.126 117.227 162.041C115.853 161.949 114.617 161.454 113.495 160.529L98.4312 145.785L98.1396 145.5H97.7317H71.7195C69.7096 145.5 68.1042 145.098 66.8503 144.355C65.6056 143.618 64.6403 142.504 63.9649 140.961L63.9607 140.951L63.9564 140.942L54.0935 119.625V117.598C54.0935 115.294 54.8976 113.354 56.5303 111.721C58.163 110.089 60.1031 109.285 62.4065 109.285H83.9228H84.135L84.3289 109.198L98.7801 102.776Z" stroke="#292D32" stroke-width="2"/>
<path d="M129.857 162L78 30C151.857 40.8145 182.107 106.072 188 137.349L129.857 162Z" fill="#FFC226"/>
<path d="M132.914 154L82 24C154.514 34.6506 184.214 98.9197 190 129.723L132.914 154Z" stroke="#292D32" stroke-width="2"/>
<path d="M174.738 155.169C135.698 164.165 103.307 183.28 91.9908 194.525C83.5038 202.256 81.5239 210.455 82.0894 214.203C93.4053 219.825 106.843 211.392 111.086 200.85C115.33 190.308 127.353 188.2 134.425 189.606C141.498 191.011 159.886 188.2 163.422 174.847C166.251 164.165 180.16 164.305 186.761 165.711C199.02 158.449 213.778 146.173 174.738 155.169Z" stroke="#292D32" stroke-width="2"/>
<path d="M100 188L88 216" stroke="#292D32" stroke-width="2"/>
<path d="M111 181L97 215" stroke="#292D32" stroke-width="2"/>
<path d="M122 174L114 195" stroke="#292D32" stroke-width="2"/>
</svg>
