<svg width="240" height="240" viewBox="0 0 240 240" fill="none" xmlns="http://www.w3.org/2000/svg">
<g clip-path="url(#clip0_2146_3580)">
<path d="M132 33.2857C115.543 31.9143 109.143 37.8572 108 41L114.857 58.1429C114.286 55.8572 117.771 50.7715 136.286 48.7143C154.8 46.6572 152 31.2857 148.286 23.8572C149.714 27.5715 148.457 34.6572 132 33.2857Z" fill="#FFC226"/>
<path d="M38.5715 184.143L73.7144 196.143V209.857L30.0001 193.571L19.7144 174.714L28.2858 166.143L38.5715 184.143Z" fill="#FFC226"/>
<path d="M73.7144 196.143C94.6667 168.5 113.587 130.089 119.143 112.143C115.333 168.071 86.4128 198.875 73.7144 209.857V196.143Z" fill="#FFC226"/>
<path d="M202.286 184.143L167.143 196.143V209.857L210.857 193.571L221.143 174.714L212.571 166.143L202.286 184.143Z" fill="#FFC226"/>
<path d="M167.143 196.143C146.19 168.5 127.27 130.089 121.714 112.143C125.524 168.071 154.444 198.875 167.143 209.857V196.143Z" fill="#FFC226"/>
<path d="M120 70.1429C102.857 102.596 58.2857 175.802 17.1428 209" stroke="#292D32" stroke-width="2"/>
<path d="M120 68.4286C95.7333 97.7619 37.76 162.829 0 188.429" stroke="#292D32" stroke-width="2"/>
<path d="M120 70.1429V111.286" stroke="#292D32" stroke-width="2"/>
<path d="M77.1428 199.679C98.0952 172.036 114.444 129.232 120 111.286C116.19 167.214 89.8412 203.161 77.1428 214.143V199.679Z" stroke="#292D32" stroke-width="2"/>
<path d="M77.1428 198.714L41.0598 186.798L27.4285 166.143" stroke="#292D32" stroke-width="2"/>
<path d="M77.1428 214.143L29.233 198.094L15.4285 176.429" stroke="#292D32" stroke-width="2"/>
<path d="M102.857 89L106.122 94.8776L120 99.2857" stroke="#292D32" stroke-width="2"/>
<path d="M120 70.1429C137.143 102.596 181.714 175.802 222.857 209" stroke="#292D32" stroke-width="2"/>
<path d="M120 68.4286C144.267 97.7619 202.24 162.829 240 188.429" stroke="#292D32" stroke-width="2"/>
<path d="M162.857 199.679C141.905 172.036 125.556 129.232 120 111.286C123.81 167.214 150.159 203.161 162.857 214.143V199.679Z" stroke="#292D32" stroke-width="2"/>
<path d="M162.857 198.714L198.94 186.798L212.572 166.143" stroke="#292D32" stroke-width="2"/>
<path d="M162.857 214.143L210.767 198.094L224.572 176.429" stroke="#292D32" stroke-width="2"/>
<path d="M137.143 89L133.878 94.8776L120 99.2857" stroke="#292D32" stroke-width="2"/>
<path d="M101.143 181.571H138.857" stroke="#292D32" stroke-width="2"/>
<path d="M113.143 83L102 89.8572" stroke="#292D32" stroke-width="2"/>
<line x1="106.764" y1="95.0208" x2="87.9074" y2="105.307" stroke="#292D32" stroke-width="2"/>
<path d="M100.938 103.179L79.7142 113.857" stroke="#292D32" stroke-width="2"/>
<path d="M95.1428 113L66.8571 127.367" stroke="#292D32" stroke-width="2"/>
<path d="M88.2856 123.41L56.5714 138.714" stroke="#292D32" stroke-width="2"/>
<path d="M80.5715 134.079L42.0001 152.429" stroke="#292D32" stroke-width="2"/>
<path d="M72 146.429L27.4286 166.796" stroke="#292D32" stroke-width="2"/>
<path d="M62.5715 159.286L32.5715 173" stroke="#292D32" stroke-width="2"/>
<path d="M52.2856 172.143L35.9999 179.857" stroke="#292D32" stroke-width="2"/>
<path d="M137.143 36.7143C120.686 35.3429 114.286 41.2857 113.143 44.4286L120 61.5715C119.429 59.2857 122.914 54.2 141.429 52.1429C159.943 50.0858 157.143 34.7143 153.429 27.2858C154.857 31 153.6 38.0857 137.143 36.7143Z" stroke="#292D32" stroke-width="2"/>
</g>
<defs>
<clipPath id="clip0_2146_3580">
<rect width="240" height="240" fill="white"/>
</clipPath>
</defs>
</svg>
