<svg width="586" height="395" viewBox="0 0 586 395" fill="none" xmlns="http://www.w3.org/2000/svg">
<g clip-path="url(#clip0_2687_13253)">
<rect width="586" height="395" rx="24" fill="#3C4EF2" fill-opacity="0.1"/>
<path d="M54.6 79.48C52.1733 79.48 50 79 48.08 78.04C46.1867 77.0533 44.6933 75.52 43.6 73.44C42.5333 71.3333 42 68.5867 42 65.2V64.4C42 61.9467 42.32 59.8533 42.96 58.12C43.6 56.36 44.4933 54.92 45.64 53.8C46.8133 52.68 48.16 51.8533 49.68 51.32C51.2 50.7867 52.84 50.52 54.6 50.52C56.1733 50.52 57.64 50.72 59 51.12C60.3867 51.4933 61.6133 52.0667 62.68 52.84C63.7467 53.6133 64.6 54.6133 65.24 55.84C65.9067 57.0667 66.2933 58.5067 66.4 60.16H60.16C59.8667 58.5867 59.2267 57.4267 58.24 56.68C57.2533 55.9333 56.04 55.56 54.6 55.56C53.48 55.56 52.44 55.84 51.48 56.4C50.52 56.9333 49.7333 57.84 49.12 59.12C48.5333 60.4 48.24 62.16 48.24 64.4V65.2C48.24 66.96 48.4267 68.44 48.8 69.64C49.1733 70.8133 49.6667 71.76 50.28 72.48C50.8933 73.1733 51.5733 73.68 52.32 74C53.0667 74.2933 53.8267 74.44 54.6 74.44C56.12 74.44 57.3733 74.0533 58.36 73.28C59.3467 72.48 59.9467 71.3333 60.16 69.84H66.4C66.2667 71.5733 65.88 73.0667 65.24 74.32C64.6 75.5467 63.76 76.5467 62.72 77.32C61.68 78.0667 60.4667 78.6133 59.08 78.96C57.6933 79.3067 56.2 79.48 54.6 79.48ZM70.4088 79V57.8H75.6488V66.12H77.6088L84.1688 57.8H89.9688L81.9688 67.84L90.3688 79H84.0488L77.6088 70.28H75.6488V79H70.4088ZM93.4166 79V57.8H98.6566V71.4L108.097 57.8H112.937V79H107.697V65.4L98.2566 79H93.4166ZM116.191 84V74.6H118.591C118.964 74.04 119.257 73.2 119.471 72.08C119.711 70.96 119.884 69.7067 119.991 68.32C120.124 66.9067 120.191 65.52 120.191 64.16V57.8H136.791V74.6H139.351V84H134.751V79H120.791V84H116.191ZM123.751 74.6H131.511V62.2H124.991V64.96C124.991 66.8267 124.897 68.64 124.711 70.4C124.551 72.1333 124.231 73.5333 123.751 74.6ZM142.792 79V57.8H148.032V66.12H149.992L156.552 57.8H162.352L154.352 67.84L162.752 79H156.432L149.992 70.28H148.032V79H142.792ZM171.729 79.48C170.209 79.48 168.915 79.2 167.849 78.64C166.782 78.0533 165.969 77.2533 165.409 76.24C164.849 75.2267 164.569 74.08 164.569 72.8C164.569 70.6667 165.195 69.0667 166.449 68C167.729 66.9333 169.635 66.4 172.169 66.4H178.489V65.4C178.489 64.0133 178.169 63.04 177.529 62.48C176.915 61.92 175.929 61.64 174.569 61.64C173.369 61.64 172.502 61.8533 171.969 62.28C171.435 62.68 171.129 63.1867 171.049 63.8H165.769C165.849 62.5733 166.235 61.48 166.929 60.52C167.649 59.5333 168.662 58.76 169.969 58.2C171.302 57.6133 172.902 57.32 174.769 57.32C176.582 57.32 178.155 57.5867 179.489 58.12C180.849 58.6533 181.902 59.52 182.649 60.72C183.395 61.8933 183.769 63.48 183.769 65.48V73.6C183.769 74.72 183.782 75.7067 183.809 76.56C183.862 77.3867 183.942 78.2 184.049 79H179.129C179.022 78.4133 178.955 77.9733 178.929 77.68C178.929 77.36 178.929 76.8933 178.929 76.28C178.369 77.1333 177.489 77.88 176.289 78.52C175.089 79.16 173.569 79.48 171.729 79.48ZM173.369 75.4C174.222 75.4 175.035 75.2533 175.809 74.96C176.609 74.64 177.249 74.16 177.729 73.52C178.235 72.8533 178.489 72.0133 178.489 71V70H173.169C172.155 70 171.355 70.24 170.769 70.72C170.209 71.1733 169.929 71.8 169.929 72.6C169.929 73.4533 170.222 74.1333 170.809 74.64C171.395 75.1467 172.249 75.4 173.369 75.4ZM197.177 79V74.64L206.977 66.2C208.203 65.1067 209.177 64.2133 209.897 63.52C210.643 62.8 211.177 62.12 211.497 61.48C211.817 60.84 211.977 60.1467 211.977 59.4C211.977 58.2533 211.657 57.3333 211.017 56.64C210.403 55.92 209.457 55.56 208.177 55.56C206.71 55.56 205.577 55.96 204.777 56.76C203.977 57.5333 203.577 58.8667 203.577 60.76H197.577C197.577 58.6533 197.977 56.84 198.777 55.32C199.577 53.7733 200.763 52.5867 202.337 51.76C203.937 50.9333 205.883 50.52 208.177 50.52C210.31 50.52 212.11 50.9067 213.577 51.68C215.043 52.4267 216.137 53.4667 216.857 54.8C217.603 56.1333 217.977 57.6667 217.977 59.4C217.977 60.68 217.67 61.88 217.057 63C216.47 64.12 215.683 65.1867 214.697 66.2C213.71 67.2133 212.603 68.2267 211.377 69.24L205.617 74.04H218.377V79H197.177ZM232.722 79.48C231.202 79.48 229.789 79.2267 228.482 78.72C227.175 78.2133 226.029 77.4 225.042 76.28C224.055 75.16 223.282 73.68 222.722 71.84C222.189 69.9733 221.922 67.6933 221.922 65V64.2C221.922 61.6933 222.189 59.5733 222.722 57.84C223.282 56.1067 224.055 54.7067 225.042 53.64C226.029 52.5467 227.175 51.76 228.482 51.28C229.789 50.7733 231.202 50.52 232.722 50.52C234.242 50.52 235.655 50.7733 236.962 51.28C238.269 51.76 239.415 52.5467 240.402 53.64C241.389 54.7067 242.149 56.1067 242.682 57.84C243.242 59.5733 243.522 61.6933 243.522 64.2V65C243.522 67.6933 243.242 69.9733 242.682 71.84C242.149 73.68 241.389 75.16 240.402 76.28C239.415 77.4 238.269 78.2133 236.962 78.72C235.655 79.2267 234.242 79.48 232.722 79.48ZM232.722 74.44C233.415 74.44 234.042 74.3067 234.602 74.04C235.189 73.7467 235.695 73.2533 236.122 72.56C236.575 71.8667 236.922 70.9067 237.162 69.68C237.402 68.4533 237.522 66.8933 237.522 65V64.2C237.522 61.9333 237.309 60.1733 236.882 58.92C236.455 57.6667 235.882 56.8 235.162 56.32C234.442 55.8133 233.629 55.56 232.722 55.56C231.789 55.56 230.962 55.8133 230.242 56.32C229.549 56.8 228.989 57.6667 228.562 58.92C228.135 60.1733 227.922 61.9333 227.922 64.2V65C227.922 66.8933 228.042 68.4533 228.282 69.68C228.522 70.9067 228.855 71.8667 229.282 72.56C229.735 73.2533 230.255 73.7467 230.842 74.04C231.429 74.3067 232.055 74.44 232.722 74.44ZM253.069 64.68C251.015 64.68 249.362 64.0667 248.109 62.84C246.882 61.6133 246.269 60 246.269 58V57.6C246.269 56.2933 246.549 55.1467 247.109 54.16C247.669 53.1467 248.455 52.36 249.469 51.8C250.509 51.2133 251.709 50.92 253.069 50.92C254.455 50.92 255.655 51.2 256.669 51.76C257.682 52.32 258.469 53.1067 259.029 54.12C259.589 55.1067 259.869 56.2667 259.869 57.6V58C259.869 60 259.242 61.6133 257.989 62.84C256.762 64.0667 255.122 64.68 253.069 64.68ZM253.069 60.52C253.602 60.52 254.029 60.3333 254.349 59.96C254.669 59.56 254.829 58.9067 254.829 58V57.6C254.829 56.6933 254.669 56.0533 254.349 55.68C254.029 55.28 253.602 55.08 253.069 55.08C252.535 55.08 252.109 55.28 251.789 55.68C251.469 56.0533 251.309 56.6933 251.309 57.6V58C251.309 58.9067 251.469 59.56 251.789 59.96C252.109 60.3333 252.535 60.52 253.069 60.52ZM249.909 79.4L269.109 51.4H274.629L255.429 79.4H249.909ZM271.469 79.88C269.415 79.88 267.762 79.2667 266.509 78.04C265.282 76.8133 264.669 75.2 264.669 73.2V72.8C264.669 71.4933 264.949 70.3467 265.509 69.36C266.069 68.3467 266.855 67.56 267.869 67C268.909 66.4133 270.109 66.12 271.469 66.12C272.855 66.12 274.055 66.4 275.069 66.96C276.082 67.52 276.869 68.3067 277.429 69.32C277.989 70.3067 278.269 71.4667 278.269 72.8V73.2C278.269 75.2 277.642 76.8133 276.389 78.04C275.162 79.2667 273.522 79.88 271.469 79.88ZM271.469 75.72C272.002 75.72 272.429 75.5333 272.749 75.16C273.069 74.76 273.229 74.1067 273.229 73.2V72.8C273.229 71.8933 273.069 71.2533 272.749 70.88C272.429 70.48 272.002 70.28 271.469 70.28C270.935 70.28 270.509 70.48 270.189 70.88C269.869 71.2533 269.709 71.8933 269.709 72.8V73.2C269.709 74.1067 269.869 74.76 270.189 75.16C270.509 75.5333 270.935 75.72 271.469 75.72ZM291.503 79V57.8H296.743V66H305.783V57.8H311.023V79H305.783V70.4H296.743V79H291.503ZM322.237 79.48C320.717 79.48 319.423 79.2 318.357 78.64C317.29 78.0533 316.477 77.2533 315.917 76.24C315.357 75.2267 315.077 74.08 315.077 72.8C315.077 70.6667 315.703 69.0667 316.957 68C318.237 66.9333 320.143 66.4 322.677 66.4H328.997V65.4C328.997 64.0133 328.677 63.04 328.037 62.48C327.423 61.92 326.437 61.64 325.077 61.64C323.877 61.64 323.01 61.8533 322.477 62.28C321.943 62.68 321.637 63.1867 321.557 63.8H316.277C316.357 62.5733 316.743 61.48 317.437 60.52C318.157 59.5333 319.17 58.76 320.477 58.2C321.81 57.6133 323.41 57.32 325.277 57.32C327.09 57.32 328.663 57.5867 329.997 58.12C331.357 58.6533 332.41 59.52 333.157 60.72C333.903 61.8933 334.277 63.48 334.277 65.48V73.6C334.277 74.72 334.29 75.7067 334.317 76.56C334.37 77.3867 334.45 78.2 334.557 79H329.637C329.53 78.4133 329.463 77.9733 329.437 77.68C329.437 77.36 329.437 76.8933 329.437 76.28C328.877 77.1333 327.997 77.88 326.797 78.52C325.597 79.16 324.077 79.48 322.237 79.48ZM323.877 75.4C324.73 75.4 325.543 75.2533 326.317 74.96C327.117 74.64 327.757 74.16 328.237 73.52C328.743 72.8533 328.997 72.0133 328.997 71V70H323.677C322.663 70 321.863 70.24 321.277 70.72C320.717 71.1733 320.437 71.8 320.437 72.6C320.437 73.4533 320.73 74.1333 321.317 74.64C321.903 75.1467 322.757 75.4 323.877 75.4ZM348.924 79V57.8H368.044V79H362.804V62.2H354.164V79H348.924ZM382.469 79.48C380.549 79.48 378.775 79.0933 377.149 78.32C375.549 77.52 374.269 76.32 373.309 74.72C372.349 73.0933 371.869 71.0533 371.869 68.6V67.8C371.869 65.4533 372.322 63.5067 373.229 61.96C374.162 60.4133 375.402 59.2533 376.949 58.48C378.495 57.7067 380.202 57.32 382.069 57.32C385.402 57.32 387.935 58.2 389.669 59.96C391.402 61.72 392.269 64.2667 392.269 67.6V69.84H377.269C377.322 71.0933 377.589 72.12 378.069 72.92C378.575 73.6933 379.215 74.2667 379.989 74.64C380.762 74.9867 381.589 75.16 382.469 75.16C383.829 75.16 384.855 74.96 385.549 74.56C386.242 74.16 386.735 73.5733 387.029 72.8H391.869C391.442 75.0133 390.389 76.68 388.709 77.8C387.029 78.92 384.949 79.48 382.469 79.48ZM382.269 61.64C381.442 61.64 380.642 61.7733 379.869 62.04C379.095 62.3067 378.482 62.7867 378.029 63.48C377.575 64.1467 377.322 65.04 377.269 66.16H387.149C387.122 64.96 386.882 64.04 386.429 63.4C386.002 62.7333 385.429 62.28 384.709 62.04C383.989 61.7733 383.175 61.64 382.269 61.64ZM396.112 87V57.8H400.992V60.92C401.525 59.96 402.365 59.12 403.512 58.4C404.659 57.68 406.112 57.32 407.872 57.32C410.699 57.32 412.899 58.2 414.472 59.96C416.072 61.6933 416.872 64.3067 416.872 67.8V68.6C416.872 71.0267 416.499 73.0533 415.752 74.68C415.032 76.28 414.005 77.48 412.672 78.28C411.339 79.08 409.739 79.48 407.872 79.48C406.432 79.48 405.152 79.1733 404.032 78.56C402.939 77.92 402.045 77.0933 401.352 76.08V87H396.112ZM406.632 75C408.019 75 409.179 74.48 410.112 73.44C411.045 72.3733 411.512 70.76 411.512 68.6V67.8C411.512 65.8 411.059 64.3067 410.152 63.32C409.272 62.3067 408.099 61.8 406.632 61.8C405.619 61.8 404.712 62 403.912 62.4C403.112 62.7733 402.485 63.3467 402.032 64.12C401.579 64.8667 401.352 65.8267 401.352 67V69.4C401.352 70.6533 401.565 71.7067 401.992 72.56C402.445 73.3867 403.072 74 403.872 74.4C404.672 74.8 405.592 75 406.632 75ZM420.721 79V57.8H431.281C433.121 57.8 434.615 58.04 435.761 58.52C436.908 59 437.735 59.6667 438.241 60.52C438.775 61.3733 439.041 62.3733 439.041 63.52C439.041 64.48 438.748 65.4 438.161 66.28C437.575 67.1333 436.748 67.7067 435.681 68C436.988 68.32 438.001 68.9333 438.721 69.84C439.468 70.72 439.841 71.76 439.841 72.96C439.841 74.8 439.201 76.2667 437.921 77.36C436.641 78.4533 434.695 79 432.081 79H420.721ZM425.961 74.76H431.081C432.281 74.76 433.161 74.5867 433.721 74.24C434.308 73.8667 434.601 73.28 434.601 72.48C434.601 71.68 434.321 71.1067 433.761 70.76C433.228 70.3867 432.335 70.2 431.081 70.2H425.961V74.76ZM425.961 66.28H430.561C431.788 66.28 432.628 66.1067 433.081 65.76C433.561 65.4133 433.801 64.88 433.801 64.16C433.801 63.4667 433.561 62.9467 433.081 62.6C432.601 62.2267 431.761 62.04 430.561 62.04H425.961V66.28ZM453.289 79.48C451.369 79.48 449.596 79.0933 447.969 78.32C446.369 77.52 445.089 76.32 444.129 74.72C443.169 73.0933 442.689 71.0533 442.689 68.6V67.8C442.689 65.48 443.169 63.5467 444.129 62C445.089 60.4533 446.369 59.2933 447.969 58.52C449.596 57.72 451.369 57.32 453.289 57.32C455.209 57.32 456.969 57.72 458.569 58.52C460.196 59.2933 461.489 60.4533 462.449 62C463.409 63.5467 463.889 65.48 463.889 67.8V68.6C463.889 71 463.409 73.0133 462.449 74.64C461.489 76.24 460.196 77.4533 458.569 78.28C456.969 79.08 455.209 79.48 453.289 79.48ZM453.289 75C454.302 75 455.196 74.7733 455.969 74.32C456.769 73.84 457.396 73.12 457.849 72.16C458.302 71.2 458.529 70.0133 458.529 68.6V67.8C458.529 66.4933 458.302 65.4 457.849 64.52C457.396 63.64 456.769 62.9733 455.969 62.52C455.196 62.04 454.302 61.8 453.289 61.8C452.276 61.8 451.369 62.04 450.569 62.52C449.796 62.9733 449.182 63.64 448.729 64.52C448.276 65.4 448.049 66.4933 448.049 67.8V68.6C448.049 70.04 448.276 71.24 448.729 72.2C449.182 73.1333 449.796 73.84 450.569 74.32C451.369 74.7733 452.276 75 453.289 75ZM477.273 79.48C475.353 79.48 473.58 79.0933 471.953 78.32C470.353 77.52 469.073 76.32 468.113 74.72C467.153 73.0933 466.673 71.0533 466.673 68.6V67.8C466.673 65.4533 467.127 63.5067 468.033 61.96C468.967 60.4133 470.207 59.2533 471.753 58.48C473.3 57.7067 475.007 57.32 476.873 57.32C480.207 57.32 482.74 58.2 484.473 59.96C486.207 61.72 487.073 64.2667 487.073 67.6V69.84H472.073C472.127 71.0933 472.393 72.12 472.873 72.92C473.38 73.6933 474.02 74.2667 474.793 74.64C475.567 74.9867 476.393 75.16 477.273 75.16C478.633 75.16 479.66 74.96 480.353 74.56C481.047 74.16 481.54 73.5733 481.833 72.8H486.673C486.247 75.0133 485.193 76.68 483.513 77.8C481.833 78.92 479.753 79.48 477.273 79.48ZM477.073 61.64C476.247 61.64 475.447 61.7733 474.673 62.04C473.9 62.3067 473.287 62.7867 472.833 63.48C472.38 64.1467 472.127 65.04 472.073 66.16H481.953C481.927 64.96 481.687 64.04 481.233 63.4C480.807 62.7333 480.233 62.28 479.513 62.04C478.793 61.7733 477.98 61.64 477.073 61.64ZM52 127.48C50.0533 127.48 48.28 127.027 46.68 126.12C45.1067 125.213 43.8667 123.867 42.96 122.08C42.0533 120.267 41.6 118.027 41.6 115.36V114.48C41.6 111.28 41.9333 108.56 42.6 106.32C43.2667 104.053 44.3867 102.293 45.96 101.04C47.56 99.7867 49.76 99.0933 52.56 98.96C53.68 98.9067 54.76 98.8667 55.8 98.84C56.84 98.7867 57.7867 98.7067 58.64 98.6C59.4933 98.4667 60.2133 98.2667 60.8 98V102.68C60.5333 102.84 60.0933 102.987 59.48 103.12C58.8667 103.253 58.0533 103.36 57.04 103.44C56.0267 103.493 54.7333 103.533 53.16 103.56C51.56 103.587 50.2533 103.827 49.24 104.28C48.2267 104.707 47.4533 105.427 46.92 106.44C46.3867 107.453 46.0267 108.827 45.84 110.56C46.2667 109.76 46.8133 109.067 47.48 108.48C48.1467 107.867 48.9733 107.387 49.96 107.04C50.9467 106.693 52.0933 106.52 53.4 106.52C55.16 106.52 56.72 106.88 58.08 107.6C59.44 108.32 60.4933 109.387 61.24 110.8C62.0133 112.213 62.4 113.947 62.4 116V116.76C62.4 119 61.9467 120.92 61.04 122.52C60.1333 124.12 58.8933 125.347 57.32 126.2C55.7733 127.053 54 127.48 52 127.48ZM52 123C53.6 123 54.84 122.48 55.72 121.44C56.6 120.373 57.04 118.867 57.04 116.92V116.12C57.04 114.413 56.5867 113.093 55.68 112.16C54.7733 111.2 53.5467 110.72 52 110.72C50.4533 110.72 49.2267 111.2 48.32 112.16C47.4133 113.12 46.96 114.44 46.96 116.12V116.84C46.96 118.12 47.1733 119.227 47.6 120.16C48.0533 121.067 48.6533 121.773 49.4 122.28C50.1733 122.76 51.04 123 52 123ZM66.2291 135V105.8H71.1091V108.92C71.6424 107.96 72.4824 107.12 73.6291 106.4C74.7757 105.68 76.2291 105.32 77.9891 105.32C80.8157 105.32 83.0157 106.2 84.5891 107.96C86.1891 109.693 86.9891 112.307 86.9891 115.8V116.6C86.9891 119.027 86.6157 121.053 85.8691 122.68C85.1491 124.28 84.1224 125.48 82.7891 126.28C81.4557 127.08 79.8557 127.48 77.9891 127.48C76.5491 127.48 75.2691 127.173 74.1491 126.56C73.0557 125.92 72.1624 125.093 71.4691 124.08V135H66.2291ZM76.7491 123C78.1357 123 79.2957 122.48 80.2291 121.44C81.1624 120.373 81.6291 118.76 81.6291 116.6V115.8C81.6291 113.8 81.1757 112.307 80.2691 111.32C79.3891 110.307 78.2157 109.8 76.7491 109.8C75.7357 109.8 74.8291 110 74.0291 110.4C73.2291 110.773 72.6024 111.347 72.1491 112.12C71.6957 112.867 71.4691 113.827 71.4691 115V117.4C71.4691 118.653 71.6824 119.707 72.1091 120.56C72.5624 121.387 73.1891 122 73.9891 122.4C74.7891 122.8 75.7091 123 76.7491 123ZM100.398 127.48C98.4784 127.48 96.7051 127.093 95.0784 126.32C93.4784 125.52 92.1984 124.32 91.2384 122.72C90.2784 121.093 89.7984 119.053 89.7984 116.6V115.8C89.7984 113.48 90.2784 111.547 91.2384 110C92.1984 108.453 93.4784 107.293 95.0784 106.52C96.7051 105.72 98.4784 105.32 100.398 105.32C102.318 105.32 104.078 105.72 105.678 106.52C107.305 107.293 108.598 108.453 109.558 110C110.518 111.547 110.998 113.48 110.998 115.8V116.6C110.998 119 110.518 121.013 109.558 122.64C108.598 124.24 107.305 125.453 105.678 126.28C104.078 127.08 102.318 127.48 100.398 127.48ZM100.398 123C101.412 123 102.305 122.773 103.078 122.32C103.878 121.84 104.505 121.12 104.958 120.16C105.412 119.2 105.638 118.013 105.638 116.6V115.8C105.638 114.493 105.412 113.4 104.958 112.52C104.505 111.64 103.878 110.973 103.078 110.52C102.305 110.04 101.412 109.8 100.398 109.8C99.3851 109.8 98.4784 110.04 97.6784 110.52C96.9051 110.973 96.2918 111.64 95.8384 112.52C95.3851 113.4 95.1584 114.493 95.1584 115.8V116.6C95.1584 118.04 95.3851 119.24 95.8384 120.2C96.2918 121.133 96.9051 121.84 97.6784 122.32C98.4784 122.773 99.3851 123 100.398 123ZM114.823 127V105.8H120.063V114H129.103V105.8H134.343V127H129.103V118.4H120.063V127H114.823ZM139.237 127V105.8H144.477V119.4L153.917 105.8H158.757V127H153.517V113.4L144.077 127H139.237ZM163.651 135V105.8H168.531V108.92C169.064 107.96 169.904 107.12 171.051 106.4C172.198 105.68 173.651 105.32 175.411 105.32C178.238 105.32 180.438 106.2 182.011 107.96C183.611 109.693 184.411 112.307 184.411 115.8V116.6C184.411 119.027 184.038 121.053 183.291 122.68C182.571 124.28 181.544 125.48 180.211 126.28C178.878 127.08 177.278 127.48 175.411 127.48C173.971 127.48 172.691 127.173 171.571 126.56C170.478 125.92 169.584 125.093 168.891 124.08V135H163.651ZM174.171 123C175.558 123 176.718 122.48 177.651 121.44C178.584 120.373 179.051 118.76 179.051 116.6V115.8C179.051 113.8 178.598 112.307 177.691 111.32C176.811 110.307 175.638 109.8 174.171 109.8C173.158 109.8 172.251 110 171.451 110.4C170.651 110.773 170.024 111.347 169.571 112.12C169.118 112.867 168.891 113.827 168.891 115V117.4C168.891 118.653 169.104 119.707 169.531 120.56C169.984 121.387 170.611 122 171.411 122.4C172.211 122.8 173.131 123 174.171 123ZM197.82 127.48C195.9 127.48 194.127 127.093 192.5 126.32C190.9 125.52 189.62 124.32 188.66 122.72C187.7 121.093 187.22 119.053 187.22 116.6V115.8C187.22 113.48 187.7 111.547 188.66 110C189.62 108.453 190.9 107.293 192.5 106.52C194.127 105.72 195.9 105.32 197.82 105.32C199.74 105.32 201.5 105.72 203.1 106.52C204.727 107.293 206.02 108.453 206.98 110C207.94 111.547 208.42 113.48 208.42 115.8V116.6C208.42 119 207.94 121.013 206.98 122.64C206.02 124.24 204.727 125.453 203.1 126.28C201.5 127.08 199.74 127.48 197.82 127.48ZM197.82 123C198.834 123 199.727 122.773 200.5 122.32C201.3 121.84 201.927 121.12 202.38 120.16C202.834 119.2 203.06 118.013 203.06 116.6V115.8C203.06 114.493 202.834 113.4 202.38 112.52C201.927 111.64 201.3 110.973 200.5 110.52C199.727 110.04 198.834 109.8 197.82 109.8C196.807 109.8 195.9 110.04 195.1 110.52C194.327 110.973 193.714 111.64 193.26 112.52C192.807 113.4 192.58 114.493 192.58 115.8V116.6C192.58 118.04 192.807 119.24 193.26 120.2C193.714 121.133 194.327 121.84 195.1 122.32C195.9 122.773 196.807 123 197.82 123ZM212.245 127V105.8H222.805C224.645 105.8 226.138 106.04 227.285 106.52C228.431 107 229.258 107.667 229.765 108.52C230.298 109.373 230.565 110.373 230.565 111.52C230.565 112.48 230.271 113.4 229.685 114.28C229.098 115.133 228.271 115.707 227.205 116C228.511 116.32 229.525 116.933 230.245 117.84C230.991 118.72 231.365 119.76 231.365 120.96C231.365 122.8 230.725 124.267 229.445 125.36C228.165 126.453 226.218 127 223.605 127H212.245ZM217.485 122.76H222.605C223.805 122.76 224.685 122.587 225.245 122.24C225.831 121.867 226.125 121.28 226.125 120.48C226.125 119.68 225.845 119.107 225.285 118.76C224.751 118.387 223.858 118.2 222.605 118.2H217.485V122.76ZM217.485 114.28H222.085C223.311 114.28 224.151 114.107 224.605 113.76C225.085 113.413 225.325 112.88 225.325 112.16C225.325 111.467 225.085 110.947 224.605 110.6C224.125 110.227 223.285 110.04 222.085 110.04H217.485V114.28ZM241.573 127.48C240.053 127.48 238.759 127.2 237.693 126.64C236.626 126.053 235.813 125.253 235.253 124.24C234.693 123.227 234.413 122.08 234.413 120.8C234.413 118.667 235.039 117.067 236.293 116C237.573 114.933 239.479 114.4 242.013 114.4H248.333V113.4C248.333 112.013 248.013 111.04 247.373 110.48C246.759 109.92 245.773 109.64 244.413 109.64C243.213 109.64 242.346 109.853 241.813 110.28C241.279 110.68 240.973 111.187 240.893 111.8H235.613C235.693 110.573 236.079 109.48 236.773 108.52C237.493 107.533 238.506 106.76 239.813 106.2C241.146 105.613 242.746 105.32 244.613 105.32C246.426 105.32 247.999 105.587 249.333 106.12C250.693 106.653 251.746 107.52 252.493 108.72C253.239 109.893 253.613 111.48 253.613 113.48V121.6C253.613 122.72 253.626 123.707 253.653 124.56C253.706 125.387 253.786 126.2 253.893 127H248.973C248.866 126.413 248.799 125.973 248.773 125.68C248.773 125.36 248.773 124.893 248.773 124.28C248.213 125.133 247.333 125.88 246.133 126.52C244.933 127.16 243.413 127.48 241.573 127.48ZM243.213 123.4C244.066 123.4 244.879 123.253 245.653 122.96C246.453 122.64 247.093 122.16 247.573 121.52C248.079 120.853 248.333 120.013 248.333 119V118H243.013C241.999 118 241.199 118.24 240.613 118.72C240.053 119.173 239.773 119.8 239.773 120.6C239.773 121.453 240.066 122.133 240.653 122.64C241.239 123.147 242.093 123.4 243.213 123.4ZM258.26 127V105.8H263.5V114H272.54V105.8H277.78V127H272.54V118.4H263.5V127H258.26ZM282.674 127V105.8H287.914V119.4L297.354 105.8H302.194V127H296.954V113.4L287.514 127H282.674ZM316.648 127.48C314.728 127.48 312.955 127.093 311.328 126.32C309.728 125.52 308.448 124.32 307.488 122.72C306.528 121.093 306.048 119.053 306.048 116.6V115.8C306.048 113.453 306.502 111.507 307.408 109.96C308.342 108.413 309.582 107.253 311.128 106.48C312.675 105.707 314.382 105.32 316.248 105.32C319.582 105.32 322.115 106.2 323.848 107.96C325.582 109.72 326.448 112.267 326.448 115.6V117.84H311.448C311.502 119.093 311.768 120.12 312.248 120.92C312.755 121.693 313.395 122.267 314.168 122.64C314.942 122.987 315.768 123.16 316.648 123.16C318.008 123.16 319.035 122.96 319.728 122.56C320.422 122.16 320.915 121.573 321.208 120.8H326.048C325.622 123.013 324.568 124.68 322.888 125.8C321.208 126.92 319.128 127.48 316.648 127.48ZM316.448 109.64C315.622 109.64 314.822 109.773 314.048 110.04C313.275 110.307 312.662 110.787 312.208 111.48C311.755 112.147 311.502 113.04 311.448 114.16H321.328C321.302 112.96 321.062 112.04 320.608 111.4C320.182 110.733 319.608 110.28 318.888 110.04C318.168 109.773 317.355 109.64 316.448 109.64ZM340.292 127V105.8H359.412V127H354.172V110.2H345.532V127H340.292ZM373.836 127.48C371.916 127.48 370.143 127.093 368.516 126.32C366.916 125.52 365.636 124.32 364.676 122.72C363.716 121.093 363.236 119.053 363.236 116.6V115.8C363.236 113.48 363.716 111.547 364.676 110C365.636 108.453 366.916 107.293 368.516 106.52C370.143 105.72 371.916 105.32 373.836 105.32C375.756 105.32 377.516 105.72 379.116 106.52C380.743 107.293 382.036 108.453 382.996 110C383.956 111.547 384.436 113.48 384.436 115.8V116.6C384.436 119 383.956 121.013 382.996 122.64C382.036 124.24 380.743 125.453 379.116 126.28C377.516 127.08 375.756 127.48 373.836 127.48ZM373.836 123C374.849 123 375.743 122.773 376.516 122.32C377.316 121.84 377.943 121.12 378.396 120.16C378.849 119.2 379.076 118.013 379.076 116.6V115.8C379.076 114.493 378.849 113.4 378.396 112.52C377.943 111.64 377.316 110.973 376.516 110.52C375.743 110.04 374.849 109.8 373.836 109.8C372.823 109.8 371.916 110.04 371.116 110.52C370.343 110.973 369.729 111.64 369.276 112.52C368.823 113.4 368.596 114.493 368.596 115.8V116.6C368.596 118.04 368.823 119.24 369.276 120.2C369.729 121.133 370.343 121.84 371.116 122.32C371.916 122.773 372.823 123 373.836 123ZM42.44 175V153.8H61.56V175H56.32V158.2H47.68V175H42.44ZM66.4244 183V153.8H71.3044V156.92C71.8377 155.96 72.6777 155.12 73.8244 154.4C74.971 153.68 76.4244 153.32 78.1844 153.32C81.011 153.32 83.211 154.2 84.7844 155.96C86.3844 157.693 87.1844 160.307 87.1844 163.8V164.6C87.1844 167.027 86.811 169.053 86.0644 170.68C85.3444 172.28 84.3177 173.48 82.9844 174.28C81.651 175.08 80.051 175.48 78.1844 175.48C76.7444 175.48 75.4644 175.173 74.3444 174.56C73.251 173.92 72.3577 173.093 71.6644 172.08V183H66.4244ZM76.9444 171C78.331 171 79.491 170.48 80.4244 169.44C81.3577 168.373 81.8244 166.76 81.8244 164.6V163.8C81.8244 161.8 81.371 160.307 80.4644 159.32C79.5844 158.307 78.411 157.8 76.9444 157.8C75.931 157.8 75.0244 158 74.2244 158.4C73.4244 158.773 72.7977 159.347 72.3444 160.12C71.891 160.867 71.6644 161.827 71.6644 163V165.4C71.6644 166.653 71.8777 167.707 72.3044 168.56C72.7577 169.387 73.3844 170 74.1844 170.4C74.9844 170.8 75.9044 171 76.9444 171ZM100.594 175.48C98.6738 175.48 96.9004 175.093 95.2738 174.32C93.6738 173.52 92.3938 172.32 91.4338 170.72C90.4738 169.093 89.9938 167.053 89.9938 164.6V163.8C89.9938 161.48 90.4738 159.547 91.4338 158C92.3938 156.453 93.6738 155.293 95.2738 154.52C96.9004 153.72 98.6738 153.32 100.594 153.32C102.514 153.32 104.274 153.72 105.874 154.52C107.5 155.293 108.794 156.453 109.754 158C110.714 159.547 111.194 161.48 111.194 163.8V164.6C111.194 167 110.714 169.013 109.754 170.64C108.794 172.24 107.5 173.453 105.874 174.28C104.274 175.08 102.514 175.48 100.594 175.48ZM100.594 171C101.607 171 102.5 170.773 103.274 170.32C104.074 169.84 104.7 169.12 105.154 168.16C105.607 167.2 105.834 166.013 105.834 164.6V163.8C105.834 162.493 105.607 161.4 105.154 160.52C104.7 159.64 104.074 158.973 103.274 158.52C102.5 158.04 101.607 157.8 100.594 157.8C99.5804 157.8 98.6738 158.04 97.8738 158.52C97.1004 158.973 96.4871 159.64 96.0338 160.52C95.5804 161.4 95.3538 162.493 95.3538 163.8V164.6C95.3538 166.04 95.5804 167.24 96.0338 168.2C96.4871 169.133 97.1004 169.84 97.8738 170.32C98.6738 170.773 99.5804 171 100.594 171ZM115.018 175V153.8H121.218L127.098 165.24L132.978 153.8H138.938V175H133.938V161.2L128.778 170.8H125.178L120.018 161.2V175H115.018ZM153.367 175.48C151.447 175.48 149.674 175.093 148.047 174.32C146.447 173.52 145.167 172.32 144.207 170.72C143.247 169.093 142.767 167.053 142.767 164.6V163.8C142.767 161.48 143.247 159.547 144.207 158C145.167 156.453 146.447 155.293 148.047 154.52C149.674 153.72 151.447 153.32 153.367 153.32C155.287 153.32 157.047 153.72 158.647 154.52C160.274 155.293 161.567 156.453 162.527 158C163.487 159.547 163.967 161.48 163.967 163.8V164.6C163.967 167 163.487 169.013 162.527 170.64C161.567 172.24 160.274 173.453 158.647 174.28C157.047 175.08 155.287 175.48 153.367 175.48ZM153.367 171C154.381 171 155.274 170.773 156.047 170.32C156.847 169.84 157.474 169.12 157.927 168.16C158.381 167.2 158.607 166.013 158.607 164.6V163.8C158.607 162.493 158.381 161.4 157.927 160.52C157.474 159.64 156.847 158.973 156.047 158.52C155.274 158.04 154.381 157.8 153.367 157.8C152.354 157.8 151.447 158.04 150.647 158.52C149.874 158.973 149.261 159.64 148.807 160.52C148.354 161.4 148.127 162.493 148.127 163.8V164.6C148.127 166.04 148.354 167.24 148.807 168.2C149.261 169.133 149.874 169.84 150.647 170.32C151.447 170.773 152.354 171 153.367 171ZM167.792 175V153.8H173.032V162.12H174.992L181.552 153.8H187.352L179.352 163.84L187.752 175H181.432L174.992 166.28H173.032V175H167.792ZM199.578 175.48C197.658 175.48 195.885 175.093 194.258 174.32C192.658 173.52 191.378 172.32 190.418 170.72C189.458 169.093 188.978 167.053 188.978 164.6V163.8C188.978 161.48 189.458 159.547 190.418 158C191.378 156.453 192.658 155.293 194.258 154.52C195.885 153.72 197.658 153.32 199.578 153.32C201.498 153.32 203.258 153.72 204.858 154.52C206.485 155.293 207.778 156.453 208.738 158C209.698 159.547 210.178 161.48 210.178 163.8V164.6C210.178 167 209.698 169.013 208.738 170.64C207.778 172.24 206.485 173.453 204.858 174.28C203.258 175.08 201.498 175.48 199.578 175.48ZM199.578 171C200.591 171 201.485 170.773 202.258 170.32C203.058 169.84 203.685 169.12 204.138 168.16C204.591 167.2 204.818 166.013 204.818 164.6V163.8C204.818 162.493 204.591 161.4 204.138 160.52C203.685 159.64 203.058 158.973 202.258 158.52C201.485 158.04 200.591 157.8 199.578 157.8C198.565 157.8 197.658 158.04 196.858 158.52C196.085 158.973 195.471 159.64 195.018 160.52C194.565 161.4 194.338 162.493 194.338 163.8V164.6C194.338 166.04 194.565 167.24 195.018 168.2C195.471 169.133 196.085 169.84 196.858 170.32C197.658 170.773 198.565 171 199.578 171ZM211.972 180V170.6H214.372C214.745 170.04 215.039 169.2 215.252 168.08C215.492 166.96 215.665 165.707 215.772 164.32C215.905 162.907 215.972 161.52 215.972 160.16V153.8H232.572V170.6H235.132V180H230.532V175H216.572V180H211.972ZM219.532 170.6H227.292V158.2H220.772V160.96C220.772 162.827 220.679 164.64 220.492 166.4C220.332 168.133 220.012 169.533 219.532 170.6ZM241.742 183.48C241.342 183.48 240.942 183.44 240.542 183.36V178.88C240.942 178.96 241.342 179 241.742 179C242.276 179 242.716 178.867 243.062 178.6C243.436 178.333 243.769 177.907 244.062 177.32C244.382 176.733 244.729 175.96 245.102 175L236.142 153.8H242.062L247.822 168.44L253.062 153.8H258.542L250.382 175C249.609 177 248.862 178.613 248.142 179.84C247.422 181.093 246.569 182.013 245.582 182.6C244.622 183.187 243.342 183.48 241.742 183.48Z" fill="#292D32"/>
<rect x="40" y="239" width="245" height="76" rx="16" fill="#3C4EF2" fill-opacity="0.1"/>
<path d="M102.43 288V267H116.8V270.72H106.9V276H115.9V279.6H106.9V288H102.43ZM120.572 288V267H125.042V288H120.572ZM130.174 288V267H138.664C140.424 267 141.884 267.28 143.044 267.84C144.224 268.4 145.114 269.19 145.714 270.21C146.314 271.21 146.614 272.39 146.614 273.75C146.614 275.19 146.244 276.45 145.504 277.53C144.764 278.59 143.634 279.36 142.114 279.84L147.214 288H142.024L137.614 280.32H134.644V288H130.174ZM134.644 276.78H137.794C139.454 276.78 140.594 276.53 141.214 276.03C141.834 275.51 142.144 274.75 142.144 273.75C142.144 272.75 141.834 272 141.214 271.5C140.594 270.98 139.454 270.72 137.794 270.72H134.644V276.78ZM158.211 288.36C156.351 288.36 154.801 288.1 153.561 287.58C152.321 287.06 151.371 286.34 150.711 285.42C150.071 284.48 149.721 283.39 149.661 282.15H154.161C154.321 282.93 154.681 283.53 155.241 283.95C155.821 284.37 156.811 284.58 158.211 284.58C159.651 284.58 160.681 284.39 161.301 284.01C161.941 283.61 162.261 283.05 162.261 282.33C162.261 281.73 162.071 281.24 161.691 280.86C161.331 280.48 160.771 280.16 160.011 279.9C159.251 279.62 158.261 279.36 157.041 279.12C155.621 278.84 154.401 278.45 153.381 277.95C152.361 277.45 151.581 276.77 151.041 275.91C150.521 275.05 150.261 273.96 150.261 272.64C150.261 271.42 150.581 270.37 151.221 269.49C151.881 268.59 152.801 267.89 153.981 267.39C155.181 266.89 156.591 266.64 158.211 266.64C159.971 266.64 161.411 266.89 162.531 267.39C163.671 267.87 164.531 268.55 165.111 269.43C165.711 270.31 166.061 271.35 166.161 272.55H161.691C161.531 271.83 161.201 271.3 160.701 270.96C160.201 270.6 159.371 270.42 158.211 270.42C157.031 270.42 156.161 270.61 155.601 270.99C155.041 271.37 154.761 271.88 154.761 272.52C154.761 273.3 155.141 273.91 155.901 274.35C156.681 274.79 157.901 275.17 159.561 275.49C160.701 275.71 161.711 275.98 162.591 276.3C163.491 276.62 164.251 277.04 164.871 277.56C165.491 278.06 165.961 278.67 166.281 279.39C166.601 280.11 166.761 280.98 166.761 282C166.761 283.28 166.421 284.4 165.741 285.36C165.081 286.32 164.111 287.06 162.831 287.58C161.571 288.1 160.031 288.36 158.211 288.36ZM175.289 288V270.72H168.539V267H186.509V270.72H179.759V288H175.289ZM188 288V284.73L195.35 278.4C196.27 277.58 197 276.91 197.54 276.39C198.1 275.85 198.5 275.34 198.74 274.86C198.98 274.38 199.1 273.86 199.1 273.3C199.1 272.44 198.86 271.75 198.38 271.23C197.92 270.69 197.21 270.42 196.25 270.42C195.15 270.42 194.3 270.72 193.7 271.32C193.1 271.9 192.8 272.9 192.8 274.32H188.3C188.3 272.74 188.6 271.38 189.2 270.24C189.8 269.08 190.69 268.19 191.87 267.57C193.07 266.95 194.53 266.64 196.25 266.64C197.85 266.64 199.2 266.93 200.3 267.51C201.4 268.07 202.22 268.85 202.76 269.85C203.32 270.85 203.6 272 203.6 273.3C203.6 274.26 203.37 275.16 202.91 276C202.47 276.84 201.88 277.64 201.14 278.4C200.4 279.16 199.57 279.92 198.65 280.68L194.33 284.28H203.9V288H188ZM214.659 288.36C213.519 288.36 212.459 288.17 211.479 287.79C210.499 287.41 209.639 286.8 208.899 285.96C208.159 285.12 207.579 284.01 207.159 282.63C206.759 281.23 206.559 279.52 206.559 277.5V276.9C206.559 275.02 206.759 273.43 207.159 272.13C207.579 270.83 208.159 269.78 208.899 268.98C209.639 268.16 210.499 267.57 211.479 267.21C212.459 266.83 213.519 266.64 214.659 266.64C215.799 266.64 216.859 266.83 217.839 267.21C218.819 267.57 219.679 268.16 220.419 268.98C221.159 269.78 221.729 270.83 222.129 272.13C222.549 273.43 222.759 275.02 222.759 276.9V277.5C222.759 279.52 222.549 281.23 222.129 282.63C221.729 284.01 221.159 285.12 220.419 285.96C219.679 286.8 218.819 287.41 217.839 287.79C216.859 288.17 215.799 288.36 214.659 288.36ZM214.659 284.58C215.179 284.58 215.649 284.48 216.069 284.28C216.509 284.06 216.889 283.69 217.209 283.17C217.549 282.65 217.809 281.93 217.989 281.01C218.169 280.09 218.259 278.92 218.259 277.5V276.9C218.259 275.2 218.099 273.88 217.779 272.94C217.459 272 217.029 271.35 216.489 270.99C215.949 270.61 215.339 270.42 214.659 270.42C213.959 270.42 213.339 270.61 212.799 270.99C212.279 271.35 211.859 272 211.539 272.94C211.219 273.88 211.059 275.2 211.059 276.9V277.5C211.059 278.92 211.149 280.09 211.329 281.01C211.509 281.93 211.759 282.65 212.079 283.17C212.419 283.69 212.809 284.06 213.249 284.28C213.689 284.48 214.159 284.58 214.659 284.58Z" fill="#3C4EF2"/>
<path d="M40.56 350.92V347.648C40.9813 347.648 41.3227 347.541 41.584 347.328C41.8507 347.115 42.0587 346.827 42.208 346.464C42.3573 346.096 42.4693 345.683 42.544 345.224C42.624 344.765 42.688 344.291 42.736 343.8C42.8053 343.107 42.8613 342.435 42.904 341.784C42.952 341.133 42.9947 340.459 43.032 339.76C43.0693 339.061 43.112 338.299 43.16 337.472L50.4 337.48V347.648H51.24V350.92H49.816V349H41.984V350.92H40.56ZM43.056 347.648H48.976V338.832L44.48 338.824C44.448 339.443 44.416 340.037 44.384 340.608C44.3573 341.173 44.3227 341.744 44.28 342.32C44.2373 342.896 44.184 343.507 44.12 344.152C44.0613 344.749 43.9947 345.267 43.92 345.704C43.8507 346.136 43.7493 346.509 43.616 346.824C43.4827 347.133 43.296 347.408 43.056 347.648ZM56.739 349.24C55.891 349.24 55.1497 349.053 54.515 348.68C53.8857 348.301 53.395 347.776 53.043 347.104C52.691 346.427 52.515 345.637 52.515 344.736C52.515 343.792 52.6883 342.976 53.035 342.288C53.3817 341.595 53.8643 341.061 54.483 340.688C55.107 340.309 55.8377 340.12 56.675 340.12C57.5443 340.12 58.283 340.32 58.891 340.72C59.5043 341.12 59.963 341.691 60.267 342.432C60.5763 343.173 60.7097 344.056 60.667 345.08H59.227V344.568C59.211 343.507 58.995 342.715 58.579 342.192C58.163 341.664 57.5443 341.4 56.723 341.4C55.843 341.4 55.1737 341.683 54.715 342.248C54.2563 342.813 54.027 343.624 54.027 344.68C54.027 345.699 54.2563 346.488 54.715 347.048C55.1737 347.608 55.827 347.888 56.675 347.888C57.2457 347.888 57.7417 347.757 58.163 347.496C58.5843 347.235 58.915 346.859 59.155 346.368L60.523 346.84C60.187 347.603 59.6803 348.195 59.003 348.616C58.331 349.032 57.5763 349.24 56.739 349.24ZM53.547 345.08V343.936H59.931V345.08H53.547ZM66.1681 339.352C65.7681 339.352 65.4028 339.253 65.0721 339.056C64.7415 338.859 64.4775 338.597 64.2801 338.272C64.0828 337.941 63.9841 337.573 63.9841 337.168H65.1361C65.1361 337.451 65.2375 337.693 65.4401 337.896C65.6428 338.099 65.8855 338.2 66.1681 338.2C66.4561 338.2 66.6988 338.099 66.8961 337.896C67.0988 337.693 67.2001 337.451 67.2001 337.168H68.3521C68.3521 337.573 68.2535 337.941 68.0561 338.272C67.8641 338.597 67.6001 338.859 67.2641 339.056C66.9335 339.253 66.5681 339.352 66.1681 339.352ZM69.5201 340.36V349H68.1441V342.632L63.6161 349H62.4401V340.36H63.8161V346.64L68.3521 340.36H69.5201ZM75.4006 349.24C74.526 349.24 73.782 349.045 73.1686 348.656C72.5606 348.261 72.0966 347.72 71.7766 347.032C71.4566 346.344 71.2913 345.56 71.2806 344.68C71.2913 343.779 71.4593 342.987 71.7846 342.304C72.1153 341.616 72.5873 341.08 73.2006 340.696C73.814 340.312 74.5526 340.12 75.4166 340.12C76.3286 340.12 77.1126 340.344 77.7686 340.792C78.43 341.24 78.8726 341.853 79.0966 342.632L77.6886 343.056C77.5073 342.555 77.2113 342.165 76.8006 341.888C76.3953 341.611 75.9286 341.472 75.4006 341.472C74.8086 341.472 74.3206 341.611 73.9366 341.888C73.5526 342.16 73.2673 342.539 73.0806 343.024C72.894 343.504 72.798 344.056 72.7926 344.68C72.8033 345.64 73.0246 346.416 73.4566 347.008C73.894 347.595 74.542 347.888 75.4006 347.888C75.966 347.888 76.4353 347.76 76.8086 347.504C77.182 347.243 77.4646 346.867 77.6566 346.376L79.0966 346.752C78.798 347.557 78.3313 348.173 77.6966 348.6C77.062 349.027 76.2966 349.24 75.4006 349.24ZM82.8611 349V341.656H79.8531V340.36H87.2931V341.656H84.2851V349H82.8611ZM88.7995 349V340.36H92.4795C92.6982 340.36 92.9328 340.373 93.1835 340.4C93.4395 340.421 93.6715 340.461 93.8795 340.52C94.3435 340.643 94.7248 340.896 95.0235 341.28C95.3275 341.659 95.4795 342.139 95.4795 342.72C95.4795 343.045 95.4288 343.328 95.3275 343.568C95.2315 343.808 95.0928 344.016 94.9115 344.192C94.8315 344.272 94.7435 344.344 94.6475 344.408C94.5515 344.472 94.4555 344.523 94.3595 344.56C94.5462 344.592 94.7355 344.664 94.9275 344.776C95.2315 344.941 95.4688 345.173 95.6395 345.472C95.8155 345.771 95.9035 346.152 95.9035 346.616C95.9035 347.203 95.7622 347.688 95.4795 348.072C95.1968 348.451 94.8075 348.712 94.3115 348.856C94.1035 348.915 93.8742 348.955 93.6235 348.976C93.3728 348.992 93.1302 349 92.8955 349H88.7995ZM90.2395 347.84H92.8155C92.9275 347.84 93.0608 347.829 93.2155 347.808C93.3755 347.787 93.5168 347.76 93.6395 347.728C93.9168 347.648 94.1168 347.499 94.2395 347.28C94.3675 347.061 94.4315 346.824 94.4315 346.568C94.4315 346.227 94.3355 345.949 94.1435 345.736C93.9568 345.523 93.7088 345.389 93.3995 345.336C93.2875 345.304 93.1648 345.285 93.0315 345.28C92.9035 345.275 92.7888 345.272 92.6875 345.272H90.2395V347.84ZM90.2395 344.096H92.3835C92.5328 344.096 92.6902 344.088 92.8555 344.072C93.0208 344.051 93.1648 344.016 93.2875 343.968C93.5328 343.877 93.7115 343.728 93.8235 343.52C93.9408 343.307 93.9995 343.075 93.9995 342.824C93.9995 342.547 93.9355 342.304 93.8075 342.096C93.6848 341.883 93.4955 341.736 93.2395 341.656C93.0688 341.592 92.8768 341.557 92.6635 341.552C92.4555 341.541 92.3222 341.536 92.2635 341.536H90.2395V344.096ZM98.7106 352.84L100.383 348.296L100.407 349.64L96.6306 340.36H98.1266L101.087 347.824H100.575L103.351 340.36H104.799L100.095 352.84H98.7106ZM109.864 349.24C109.016 349.24 108.275 349.053 107.64 348.68C107.011 348.301 106.52 347.776 106.168 347.104C105.816 346.427 105.64 345.637 105.64 344.736C105.64 343.792 105.813 342.976 106.16 342.288C106.507 341.595 106.989 341.061 107.608 340.688C108.232 340.309 108.963 340.12 109.8 340.12C110.669 340.12 111.408 340.32 112.016 340.72C112.629 341.12 113.088 341.691 113.392 342.432C113.701 343.173 113.835 344.056 113.792 345.08H112.352V344.568C112.336 343.507 112.12 342.715 111.704 342.192C111.288 341.664 110.669 341.4 109.848 341.4C108.968 341.4 108.299 341.683 107.84 342.248C107.381 342.813 107.152 343.624 107.152 344.68C107.152 345.699 107.381 346.488 107.84 347.048C108.299 347.608 108.952 347.888 109.8 347.888C110.371 347.888 110.867 347.757 111.288 347.496C111.709 347.235 112.04 346.859 112.28 346.368L113.648 346.84C113.312 347.603 112.805 348.195 112.128 348.616C111.456 349.032 110.701 349.24 109.864 349.24ZM106.672 345.08V343.936H113.056V345.08H106.672ZM117.705 349V341.656H114.697V340.36H122.137V341.656H119.129V349H117.705ZM126.214 350.92V347.824C126.7 347.824 127.046 347.667 127.254 347.352C127.462 347.032 127.63 346.507 127.758 345.776C127.844 345.317 127.913 344.827 127.966 344.304C128.02 343.781 128.065 343.2 128.102 342.56C128.145 341.915 128.185 341.181 128.222 340.36H134.174V347.824H135.014V350.92H133.654V349H127.574V350.92H126.214ZM128.406 347.824H132.75V341.536H129.51C129.494 341.915 129.473 342.312 129.446 342.728C129.42 343.139 129.388 343.549 129.35 343.96C129.318 344.371 129.278 344.76 129.23 345.128C129.188 345.491 129.137 345.816 129.078 346.104C129.009 346.504 128.929 346.843 128.838 347.12C128.748 347.397 128.604 347.632 128.406 347.824ZM140.3 349.24C139.441 349.24 138.7 349.045 138.076 348.656C137.457 348.267 136.98 347.728 136.644 347.04C136.308 346.352 136.14 345.563 136.14 344.672C136.14 343.765 136.311 342.971 136.652 342.288C136.993 341.605 137.476 341.075 138.1 340.696C138.724 340.312 139.457 340.12 140.3 340.12C141.164 340.12 141.908 340.315 142.532 340.704C143.156 341.088 143.633 341.624 143.964 342.312C144.3 342.995 144.468 343.781 144.468 344.672C144.468 345.573 144.3 346.368 143.964 347.056C143.628 347.739 143.148 348.275 142.524 348.664C141.9 349.048 141.159 349.24 140.3 349.24ZM140.3 347.888C141.196 347.888 141.863 347.589 142.3 346.992C142.737 346.395 142.956 345.621 142.956 344.672C142.956 343.696 142.735 342.92 142.292 342.344C141.849 341.763 141.185 341.472 140.3 341.472C139.697 341.472 139.201 341.608 138.812 341.88C138.423 342.152 138.132 342.528 137.94 343.008C137.748 343.488 137.652 344.043 137.652 344.672C137.652 345.643 137.876 346.421 138.324 347.008C138.772 347.595 139.431 347.888 140.3 347.888ZM152.593 349.224C152.022 349.224 151.491 349.12 151.001 348.912C150.51 348.699 150.086 348.4 149.729 348.016C149.377 347.627 149.118 347.165 148.953 346.632L150.321 346.24C150.497 346.773 150.79 347.179 151.201 347.456C151.611 347.733 152.073 347.869 152.585 347.864C153.054 347.853 153.459 347.747 153.801 347.544C154.147 347.336 154.414 347.053 154.601 346.696C154.793 346.339 154.889 345.925 154.889 345.456C154.889 344.741 154.675 344.163 154.249 343.72C153.822 343.272 153.262 343.048 152.569 343.048C152.377 343.048 152.174 343.075 151.961 343.128C151.753 343.181 151.558 343.256 151.377 343.352L150.689 342.224L154.961 338.36L155.145 338.84H149.409V337.48H156.201V338.848L152.561 342.336L152.545 341.832C153.307 341.779 153.974 341.904 154.545 342.208C155.115 342.512 155.558 342.947 155.873 343.512C156.193 344.077 156.352 344.725 156.352 345.456C156.352 346.192 156.187 346.843 155.857 347.408C155.526 347.973 155.078 348.419 154.513 348.744C153.947 349.064 153.307 349.224 152.593 349.224ZM162.321 349.24C161.574 349.24 160.907 349.072 160.321 348.736C159.739 348.395 159.278 347.933 158.937 347.352C158.601 346.765 158.433 346.099 158.433 345.352V341.128C158.433 340.381 158.601 339.715 158.937 339.128C159.278 338.541 159.739 338.08 160.321 337.744C160.907 337.408 161.574 337.24 162.321 337.24C163.067 337.24 163.734 337.408 164.321 337.744C164.907 338.08 165.369 338.541 165.705 339.128C166.041 339.715 166.209 340.381 166.209 341.128V345.352C166.209 346.099 166.041 346.765 165.705 347.352C165.369 347.933 164.907 348.395 164.321 348.736C163.734 349.072 163.067 349.24 162.321 349.24ZM162.321 347.872C162.774 347.872 163.185 347.763 163.553 347.544C163.921 347.325 164.214 347.032 164.433 346.664C164.651 346.291 164.761 345.88 164.761 345.432V341.04C164.761 340.587 164.651 340.176 164.433 339.808C164.214 339.44 163.921 339.147 163.553 338.928C163.185 338.709 162.774 338.6 162.321 338.6C161.873 338.6 161.462 338.709 161.089 338.928C160.721 339.147 160.427 339.44 160.209 339.808C159.99 340.176 159.881 340.587 159.881 341.04V345.432C159.881 345.88 159.99 346.291 160.209 346.664C160.427 347.032 160.721 347.325 161.089 347.544C161.462 347.763 161.873 347.872 162.321 347.872ZM174.107 349.24C173.462 349.24 172.921 349.123 172.483 348.888C172.051 348.648 171.723 348.333 171.499 347.944C171.281 347.555 171.171 347.128 171.171 346.664C171.171 346.211 171.257 345.819 171.427 345.488C171.603 345.152 171.849 344.875 172.163 344.656C172.478 344.432 172.854 344.256 173.291 344.128C173.702 344.016 174.161 343.92 174.667 343.84C175.179 343.755 175.697 343.677 176.219 343.608C176.742 343.539 177.23 343.472 177.683 343.408L177.171 343.704C177.187 342.936 177.033 342.368 176.707 342C176.387 341.632 175.833 341.448 175.043 341.448C174.521 341.448 174.062 341.568 173.667 341.808C173.278 342.043 173.003 342.427 172.843 342.96L171.491 342.552C171.699 341.795 172.102 341.2 172.699 340.768C173.297 340.336 174.083 340.12 175.059 340.12C175.843 340.12 176.515 340.261 177.075 340.544C177.641 340.821 178.046 341.243 178.291 341.808C178.414 342.075 178.491 342.365 178.523 342.68C178.555 342.989 178.571 343.315 178.571 343.656V349H177.307V346.928L177.603 347.12C177.278 347.819 176.822 348.347 176.235 348.704C175.654 349.061 174.945 349.24 174.107 349.24ZM174.323 348.048C174.835 348.048 175.278 347.957 175.651 347.776C176.03 347.589 176.334 347.347 176.563 347.048C176.793 346.744 176.942 346.413 177.011 346.056C177.091 345.789 177.134 345.493 177.139 345.168C177.15 344.837 177.155 344.584 177.155 344.408L177.651 344.624C177.187 344.688 176.731 344.749 176.283 344.808C175.835 344.867 175.411 344.931 175.011 345C174.611 345.064 174.251 345.141 173.931 345.232C173.697 345.307 173.475 345.403 173.267 345.52C173.065 345.637 172.899 345.789 172.771 345.976C172.649 346.157 172.587 346.384 172.587 346.656C172.587 346.891 172.646 347.115 172.763 347.328C172.886 347.541 173.073 347.715 173.323 347.848C173.579 347.981 173.913 348.048 174.323 348.048ZM180.643 349V340.36H187.723V349H186.299V341.712H182.067V349H180.643ZM193.932 349.24C193.121 349.24 192.438 349.04 191.884 348.64C191.329 348.235 190.908 347.688 190.62 347C190.337 346.307 190.196 345.531 190.196 344.672C190.196 343.803 190.337 343.024 190.62 342.336C190.908 341.648 191.329 341.107 191.884 340.712C192.444 340.317 193.129 340.12 193.94 340.12C194.74 340.12 195.428 340.32 196.004 340.72C196.585 341.115 197.03 341.656 197.34 342.344C197.649 343.032 197.804 343.808 197.804 344.672C197.804 345.536 197.649 346.312 197.34 347C197.03 347.688 196.585 348.235 196.004 348.64C195.428 349.04 194.737 349.24 193.932 349.24ZM189.956 352.84V340.36H191.228V346.72H191.388V352.84H189.956ZM193.756 347.936C194.326 347.936 194.798 347.792 195.172 347.504C195.545 347.216 195.825 346.827 196.012 346.336C196.198 345.84 196.292 345.285 196.292 344.672C196.292 344.064 196.198 343.515 196.012 343.024C195.83 342.533 195.548 342.144 195.164 341.856C194.785 341.568 194.302 341.424 193.716 341.424C193.156 341.424 192.692 341.563 192.324 341.84C191.956 342.112 191.681 342.493 191.5 342.984C191.318 343.469 191.228 344.032 191.228 344.672C191.228 345.301 191.316 345.864 191.492 346.36C191.673 346.851 191.95 347.237 192.324 347.52C192.697 347.797 193.174 347.936 193.756 347.936ZM203.302 349.24C202.454 349.24 201.712 349.053 201.078 348.68C200.448 348.301 199.958 347.776 199.606 347.104C199.254 346.427 199.078 345.637 199.078 344.736C199.078 343.792 199.251 342.976 199.598 342.288C199.944 341.595 200.427 341.061 201.046 340.688C201.67 340.309 202.4 340.12 203.238 340.12C204.107 340.12 204.846 340.32 205.454 340.72C206.067 341.12 206.526 341.691 206.83 342.432C207.139 343.173 207.272 344.056 207.23 345.08H205.79V344.568C205.774 343.507 205.558 342.715 205.142 342.192C204.726 341.664 204.107 341.4 203.286 341.4C202.406 341.4 201.736 341.683 201.278 342.248C200.819 342.813 200.59 343.624 200.59 344.68C200.59 345.699 200.819 346.488 201.278 347.048C201.736 347.608 202.39 347.888 203.238 347.888C203.808 347.888 204.304 347.757 204.726 347.496C205.147 347.235 205.478 346.859 205.718 346.368L207.086 346.84C206.75 347.603 206.243 348.195 205.566 348.616C204.894 349.032 204.139 349.24 203.302 349.24ZM200.11 345.08V343.936H206.494V345.08H200.11ZM208.211 349V347.776C208.531 347.835 208.773 347.824 208.939 347.744C209.109 347.659 209.235 347.512 209.315 347.304C209.4 347.091 209.469 346.824 209.523 346.504C209.613 345.997 209.691 345.432 209.755 344.808C209.824 344.184 209.885 343.501 209.939 342.76C209.997 342.013 210.051 341.213 210.099 340.36H216.139V349H214.715V341.712H211.395C211.363 342.203 211.323 342.707 211.275 343.224C211.232 343.741 211.187 344.245 211.139 344.736C211.091 345.221 211.037 345.675 210.979 346.096C210.925 346.512 210.867 346.872 210.803 347.176C210.701 347.699 210.56 348.117 210.379 348.432C210.197 348.741 209.936 348.941 209.595 349.032C209.253 349.128 208.792 349.117 208.211 349ZM223.722 349V345.872H221.858C221.639 345.872 221.396 345.864 221.13 345.848C220.868 345.827 220.623 345.797 220.394 345.76C219.77 345.643 219.242 345.368 218.81 344.936C218.383 344.504 218.17 343.907 218.17 343.144C218.17 342.403 218.37 341.808 218.77 341.36C219.175 340.907 219.674 340.613 220.266 340.48C220.532 340.416 220.802 340.381 221.074 340.376C221.351 340.365 221.586 340.36 221.778 340.36H225.146L225.154 349H223.722ZM217.906 349L220.202 345.48H221.738L219.442 349H217.906ZM221.754 344.696H223.722V341.536H221.754C221.631 341.536 221.468 341.541 221.266 341.552C221.068 341.563 220.879 341.595 220.698 341.648C220.527 341.696 220.359 341.784 220.194 341.912C220.034 342.04 219.9 342.205 219.794 342.408C219.687 342.611 219.634 342.851 219.634 343.128C219.634 343.528 219.746 343.853 219.97 344.104C220.194 344.349 220.466 344.515 220.786 344.6C220.962 344.643 221.135 344.669 221.306 344.68C221.482 344.691 221.631 344.696 221.754 344.696ZM230.284 348.992L230.292 347.712L235.404 343.112C235.831 342.728 236.116 342.365 236.26 342.024C236.41 341.677 236.484 341.323 236.484 340.96C236.484 340.517 236.383 340.117 236.18 339.76C235.978 339.403 235.7 339.12 235.348 338.912C235.002 338.704 234.607 338.6 234.164 338.6C233.706 338.6 233.298 338.709 232.94 338.928C232.583 339.141 232.3 339.427 232.092 339.784C231.89 340.141 231.791 340.531 231.796 340.952H230.34C230.34 340.227 230.508 339.587 230.844 339.032C231.18 338.472 231.636 338.035 232.212 337.72C232.794 337.4 233.452 337.24 234.188 337.24C234.903 337.24 235.543 337.405 236.108 337.736C236.674 338.061 237.119 338.507 237.444 339.072C237.775 339.632 237.94 340.267 237.94 340.976C237.94 341.477 237.876 341.912 237.748 342.28C237.626 342.648 237.434 342.989 237.172 343.304C236.911 343.613 236.583 343.944 236.188 344.296L231.94 348.112L231.756 347.632H237.94V348.992H230.284ZM243.742 349.24C242.996 349.24 242.329 349.072 241.742 348.736C241.161 348.395 240.7 347.933 240.358 347.352C240.022 346.765 239.854 346.099 239.854 345.352V341.128C239.854 340.381 240.022 339.715 240.358 339.128C240.7 338.541 241.161 338.08 241.742 337.744C242.329 337.408 242.996 337.24 243.742 337.24C244.489 337.24 245.156 337.408 245.742 337.744C246.329 338.08 246.79 338.541 247.126 339.128C247.462 339.715 247.63 340.381 247.63 341.128V345.352C247.63 346.099 247.462 346.765 247.126 347.352C246.79 347.933 246.329 348.395 245.742 348.736C245.156 349.072 244.489 349.24 243.742 349.24ZM243.742 347.872C244.196 347.872 244.606 347.763 244.974 347.544C245.342 347.325 245.636 347.032 245.854 346.664C246.073 346.291 246.182 345.88 246.182 345.432V341.04C246.182 340.587 246.073 340.176 245.854 339.808C245.636 339.44 245.342 339.147 244.974 338.928C244.606 338.709 244.196 338.6 243.742 338.6C243.294 338.6 242.884 338.709 242.51 338.928C242.142 339.147 241.849 339.44 241.63 339.808C241.412 340.176 241.302 340.587 241.302 341.04V345.432C241.302 345.88 241.412 346.291 241.63 346.664C241.849 347.032 242.142 347.325 242.51 347.544C242.884 347.763 243.294 347.872 243.742 347.872ZM249.55 348.992L249.558 347.712L254.67 343.112C255.097 342.728 255.382 342.365 255.526 342.024C255.675 341.677 255.75 341.323 255.75 340.96C255.75 340.517 255.649 340.117 255.446 339.76C255.243 339.403 254.966 339.12 254.614 338.912C254.267 338.704 253.873 338.6 253.43 338.6C252.971 338.6 252.563 338.709 252.206 338.928C251.849 339.141 251.566 339.427 251.358 339.784C251.155 340.141 251.057 340.531 251.062 340.952H249.606C249.606 340.227 249.774 339.587 250.11 339.032C250.446 338.472 250.902 338.035 251.478 337.72C252.059 337.4 252.718 337.24 253.454 337.24C254.169 337.24 254.809 337.405 255.374 337.736C255.939 338.061 256.385 338.507 256.71 339.072C257.041 339.632 257.206 340.267 257.206 340.976C257.206 341.477 257.142 341.912 257.014 342.28C256.891 342.648 256.699 342.989 256.438 343.304C256.177 343.613 255.849 343.944 255.454 344.296L251.206 348.112L251.022 347.632H257.206V348.992H249.55ZM263.784 349V346.88H258.488V345.528L262.288 337.48H263.904L260.104 345.528H263.784V342.288H265.224V345.528H266.424V346.88H265.224V349H263.784ZM271.542 349V340.36H277.542V341.712H272.966V349H271.542ZM282.581 349.24C281.723 349.24 280.981 349.045 280.357 348.656C279.739 348.267 279.261 347.728 278.925 347.04C278.589 346.352 278.421 345.563 278.421 344.672C278.421 343.765 278.592 342.971 278.933 342.288C279.275 341.605 279.757 341.075 280.381 340.696C281.005 340.312 281.739 340.12 282.581 340.12C283.445 340.12 284.189 340.315 284.813 340.704C285.437 341.088 285.915 341.624 286.245 342.312C286.581 342.995 286.749 343.781 286.749 344.672C286.749 345.573 286.581 346.368 286.245 347.056C285.909 347.739 285.429 348.275 284.805 348.664C284.181 349.048 283.44 349.24 282.581 349.24ZM282.581 347.888C283.477 347.888 284.144 347.589 284.581 346.992C285.019 346.395 285.237 345.621 285.237 344.672C285.237 343.696 285.016 342.92 284.573 342.344C284.131 341.763 283.467 341.472 282.581 341.472C281.979 341.472 281.483 341.608 281.093 341.88C280.704 342.152 280.413 342.528 280.221 343.008C280.029 343.488 279.933 344.043 279.933 344.672C279.933 345.643 280.157 346.421 280.605 347.008C281.053 347.595 281.712 347.888 282.581 347.888ZM287.871 350.92V347.824C288.356 347.824 288.703 347.667 288.911 347.352C289.119 347.032 289.287 346.507 289.415 345.776C289.5 345.317 289.569 344.827 289.623 344.304C289.676 343.781 289.721 343.2 289.759 342.56C289.801 341.915 289.841 341.181 289.879 340.36H295.831V347.824H296.671V350.92H295.311V349H289.231V350.92H287.871ZM290.063 347.824H294.407V341.536H291.167C291.151 341.915 291.129 342.312 291.103 342.728C291.076 343.139 291.044 343.549 291.007 343.96C290.975 344.371 290.935 344.76 290.887 345.128C290.844 345.491 290.793 345.816 290.735 346.104C290.665 346.504 290.585 346.843 290.495 347.12C290.404 347.397 290.26 347.632 290.063 347.824ZM300.732 349.24C300.087 349.24 299.546 349.123 299.108 348.888C298.676 348.648 298.348 348.333 298.124 347.944C297.906 347.555 297.796 347.128 297.796 346.664C297.796 346.211 297.882 345.819 298.052 345.488C298.228 345.152 298.474 344.875 298.788 344.656C299.103 344.432 299.479 344.256 299.916 344.128C300.327 344.016 300.786 343.92 301.292 343.84C301.804 343.755 302.322 343.677 302.844 343.608C303.367 343.539 303.855 343.472 304.308 343.408L303.796 343.704C303.812 342.936 303.658 342.368 303.332 342C303.012 341.632 302.458 341.448 301.668 341.448C301.146 341.448 300.687 341.568 300.292 341.808C299.903 342.043 299.628 342.427 299.468 342.96L298.116 342.552C298.324 341.795 298.727 341.2 299.324 340.768C299.922 340.336 300.708 340.12 301.684 340.12C302.468 340.12 303.14 340.261 303.7 340.544C304.266 340.821 304.671 341.243 304.916 341.808C305.039 342.075 305.116 342.365 305.148 342.68C305.18 342.989 305.196 343.315 305.196 343.656V349H303.932V346.928L304.228 347.12C303.903 347.819 303.447 348.347 302.86 348.704C302.279 349.061 301.57 349.24 300.732 349.24ZM300.948 348.048C301.46 348.048 301.903 347.957 302.276 347.776C302.655 347.589 302.959 347.347 303.188 347.048C303.418 346.744 303.567 346.413 303.636 346.056C303.716 345.789 303.759 345.493 303.764 345.168C303.775 344.837 303.78 344.584 303.78 344.408L304.276 344.624C303.812 344.688 303.356 344.749 302.908 344.808C302.46 344.867 302.036 344.931 301.636 345C301.236 345.064 300.876 345.141 300.556 345.232C300.322 345.307 300.1 345.403 299.892 345.52C299.69 345.637 299.524 345.789 299.396 345.976C299.274 346.157 299.212 346.384 299.212 346.656C299.212 346.891 299.271 347.115 299.388 347.328C299.511 347.541 299.698 347.715 299.948 347.848C300.204 347.981 300.538 348.048 300.948 348.048Z" fill="#919494"/>
<path style="mix-blend-mode:multiply" d="M466.8 439.316C532.411 439.316 585.6 386.202 585.6 320.683C585.6 255.163 532.411 202.049 466.8 202.049C401.189 202.049 348 255.163 348 320.683C348 386.202 401.189 439.316 466.8 439.316Z" fill="url(#paint0_radial_2687_13253)"/>
<path d="M465.212 164.002C412.909 164.002 370.512 206.343 370.512 258.569C370.512 310.796 412.912 353.137 465.212 353.137C517.511 353.137 559.912 310.796 559.912 258.569C559.912 206.343 517.511 164.002 465.212 164.002Z" fill="#3C4EF2"/>
<path style="mix-blend-mode:multiply" d="M465.212 164.002C412.909 164.002 370.512 206.343 370.512 258.569C370.512 310.796 412.912 353.137 465.212 353.137C517.511 353.137 559.912 310.796 559.912 258.569C559.912 206.343 517.511 164.002 465.212 164.002Z" fill="url(#paint1_linear_2687_13253)"/>
<g style="mix-blend-mode:screen">
<path d="M559.913 258.567C559.913 206.338 517.512 164 465.213 164C438.554 164 414.486 175.015 397.275 192.719C414.327 176.187 437.575 165.99 463.22 165.99C515.523 165.99 557.92 208.331 557.92 260.558C557.92 286.166 547.711 309.382 531.154 326.41C548.882 309.223 559.913 285.189 559.913 258.567Z" fill="#3C4EF2"/>
</g>
<path d="M452.68 239.351C453.519 222.911 440.808 208.853 424.344 208.016C407.881 207.178 393.804 219.872 392.965 236.312C392.126 252.753 404.838 266.81 421.301 267.648C437.765 268.485 451.842 255.791 452.68 239.351ZM409.253 237.143C409.633 229.67 416.031 223.901 423.515 224.281C430.999 224.661 436.776 231.05 436.396 238.523C436.015 245.997 429.617 251.766 422.133 251.386C414.65 251.006 408.872 244.617 409.253 237.143Z" fill="white"/>
<path d="M508.456 247.414C491.992 246.577 477.915 259.27 477.076 275.711C476.238 292.151 488.949 306.208 505.413 307.046C521.876 307.884 535.953 295.19 536.792 278.749C537.63 262.309 524.919 248.252 508.456 247.414ZM506.245 290.781C498.761 290.401 492.984 284.012 493.364 276.539C493.744 269.065 500.143 263.296 507.626 263.676C515.11 264.056 520.888 270.445 520.507 277.918C520.127 285.392 513.729 291.161 506.245 290.781Z" fill="white"/>
<path d="M443.822 306.997L503.713 208.086H484.658L424.768 306.997H443.822Z" fill="white"/>
</g>
<defs>
<radialGradient id="paint0_radial_2687_13253" cx="0" cy="0" r="1" gradientUnits="userSpaceOnUse" gradientTransform="translate(466.8 320.683) scale(118.8 118.634)">
<stop stop-color="#3C4EF2"/>
<stop offset="0.03" stop-color="#3C4EF2"/>
<stop offset="0.19" stop-color="#3C4EF2"/>
<stop offset="0.35" stop-color="#B6BDFA"/>
<stop offset="0.5" stop-color="#DBDEFE"/>
<stop offset="0.64" stop-color="#E9EBFF"/>
<stop offset="0.77" stop-color="#F8F8FC"/>
<stop offset="0.9" stop-color="#FDFDFF"/>
<stop offset="1" stop-color="white"/>
</radialGradient>
<linearGradient id="paint1_linear_2687_13253" x1="457.656" y1="274.873" x2="505.382" y2="171.571" gradientUnits="userSpaceOnUse">
<stop stop-color="white"/>
<stop offset="1" stop-color="#0018F5"/>
</linearGradient>
<clipPath id="clip0_2687_13253">
<rect width="586" height="395" rx="24" fill="white"/>
</clipPath>
</defs>
</svg>
