<svg width="560" height="287" viewBox="0 0 560 287" fill="none" xmlns="http://www.w3.org/2000/svg">
<g clip-path="url(#clip0_2684_10671)">
<rect width="560" height="287" rx="24" fill="#3C4EF2" fill-opacity="0.1"/>
<path d="M50.95 69.36C49.13 69.36 47.5 69 46.06 68.28C44.64 67.54 43.52 66.39 42.7 64.83C41.9 63.25 41.5 61.19 41.5 58.65V58.05C41.5 56.21 41.74 54.64 42.22 53.34C42.7 52.02 43.37 50.94 44.23 50.1C45.11 49.26 46.12 48.64 47.26 48.24C48.4 47.84 49.63 47.64 50.95 47.64C52.13 47.64 53.23 47.79 54.25 48.09C55.29 48.37 56.21 48.8 57.01 49.38C57.81 49.96 58.45 50.71 58.93 51.63C59.43 52.55 59.72 53.63 59.8 54.87H55.12C54.9 53.69 54.42 52.82 53.68 52.26C52.94 51.7 52.03 51.42 50.95 51.42C50.11 51.42 49.33 51.63 48.61 52.05C47.89 52.45 47.3 53.13 46.84 54.09C46.4 55.05 46.18 56.37 46.18 58.05V58.65C46.18 59.97 46.32 61.08 46.6 61.98C46.88 62.86 47.25 63.57 47.71 64.11C48.17 64.63 48.68 65.01 49.24 65.25C49.8 65.47 50.37 65.58 50.95 65.58C52.09 65.58 53.03 65.29 53.77 64.71C54.51 64.11 54.96 63.25 55.12 62.13H59.8C59.7 63.43 59.41 64.55 58.93 65.49C58.45 66.41 57.82 67.16 57.04 67.74C56.26 68.3 55.35 68.71 54.31 68.97C53.27 69.23 52.15 69.36 50.95 69.36ZM62.8066 69V53.1H66.7366V59.34H68.2066L73.1266 53.1H77.4766L71.4766 60.63L77.7766 69H73.0366L68.2066 62.46H66.7366V69H62.8066ZM80.0624 69V53.1H83.9924V63.3L91.0724 53.1H94.7024V69H90.7724V58.8L83.6924 69H80.0624ZM97.143 72.75V65.7H98.943C99.223 65.28 99.443 64.65 99.603 63.81C99.783 62.97 99.913 62.03 99.993 60.99C100.093 59.93 100.143 58.89 100.143 57.87V53.1H112.593V65.7H114.513V72.75H111.063V69H100.593V72.75H97.143ZM102.813 65.7H108.633V56.4H103.743V58.47C103.743 59.87 103.673 61.23 103.533 62.55C103.413 63.85 103.173 64.9 102.813 65.7ZM117.094 69V53.1H121.024V59.34H122.494L127.414 53.1H131.764L125.764 60.63L132.064 69H127.324L122.494 62.46H121.024V69H117.094ZM138.797 69.36C137.657 69.36 136.687 69.15 135.887 68.73C135.087 68.29 134.477 67.69 134.057 66.93C133.637 66.17 133.427 65.31 133.427 64.35C133.427 62.75 133.897 61.55 134.837 60.75C135.797 59.95 137.227 59.55 139.127 59.55H143.867V58.8C143.867 57.76 143.627 57.03 143.147 56.61C142.687 56.19 141.947 55.98 140.927 55.98C140.027 55.98 139.377 56.14 138.977 56.46C138.577 56.76 138.347 57.14 138.287 57.6H134.327C134.387 56.68 134.677 55.86 135.197 55.14C135.737 54.4 136.497 53.82 137.477 53.4C138.477 52.96 139.677 52.74 141.077 52.74C142.437 52.74 143.617 52.94 144.617 53.34C145.637 53.74 146.427 54.39 146.987 55.29C147.547 56.17 147.827 57.36 147.827 58.86V64.95C147.827 65.79 147.837 66.53 147.857 67.17C147.897 67.79 147.957 68.4 148.037 69H144.347C144.267 68.56 144.217 68.23 144.197 68.01C144.197 67.77 144.197 67.42 144.197 66.96C143.777 67.6 143.117 68.16 142.217 68.64C141.317 69.12 140.177 69.36 138.797 69.36ZM140.027 66.3C140.667 66.3 141.277 66.19 141.857 65.97C142.457 65.73 142.937 65.37 143.297 64.89C143.677 64.39 143.867 63.76 143.867 63V62.25H139.877C139.117 62.25 138.517 62.43 138.077 62.79C137.657 63.13 137.447 63.6 137.447 64.2C137.447 64.84 137.667 65.35 138.107 65.73C138.547 66.11 139.187 66.3 140.027 66.3ZM157.882 69V65.73L165.232 59.4C166.152 58.58 166.882 57.91 167.422 57.39C167.982 56.85 168.382 56.34 168.622 55.86C168.862 55.38 168.982 54.86 168.982 54.3C168.982 53.44 168.742 52.75 168.262 52.23C167.802 51.69 167.092 51.42 166.132 51.42C165.032 51.42 164.182 51.72 163.582 52.32C162.982 52.9 162.682 53.9 162.682 55.32H158.182C158.182 53.74 158.482 52.38 159.082 51.24C159.682 50.08 160.572 49.19 161.752 48.57C162.952 47.95 164.412 47.64 166.132 47.64C167.732 47.64 169.082 47.93 170.182 48.51C171.282 49.07 172.102 49.85 172.642 50.85C173.202 51.85 173.482 53 173.482 54.3C173.482 55.26 173.252 56.16 172.792 57C172.352 57.84 171.762 58.64 171.022 59.4C170.282 60.16 169.452 60.92 168.532 61.68L164.212 65.28H173.782V69H157.882ZM184.541 69.36C183.401 69.36 182.341 69.17 181.361 68.79C180.381 68.41 179.521 67.8 178.781 66.96C178.041 66.12 177.461 65.01 177.041 63.63C176.641 62.23 176.441 60.52 176.441 58.5V57.9C176.441 56.02 176.641 54.43 177.041 53.13C177.461 51.83 178.041 50.78 178.781 49.98C179.521 49.16 180.381 48.57 181.361 48.21C182.341 47.83 183.401 47.64 184.541 47.64C185.681 47.64 186.741 47.83 187.721 48.21C188.701 48.57 189.561 49.16 190.301 49.98C191.041 50.78 191.611 51.83 192.011 53.13C192.431 54.43 192.641 56.02 192.641 57.9V58.5C192.641 60.52 192.431 62.23 192.011 63.63C191.611 65.01 191.041 66.12 190.301 66.96C189.561 67.8 188.701 68.41 187.721 68.79C186.741 69.17 185.681 69.36 184.541 69.36ZM184.541 65.58C185.061 65.58 185.531 65.48 185.951 65.28C186.391 65.06 186.771 64.69 187.091 64.17C187.431 63.65 187.691 62.93 187.871 62.01C188.051 61.09 188.141 59.92 188.141 58.5V57.9C188.141 56.2 187.981 54.88 187.661 53.94C187.341 53 186.911 52.35 186.371 51.99C185.831 51.61 185.221 51.42 184.541 51.42C183.841 51.42 183.221 51.61 182.681 51.99C182.161 52.35 181.741 53 181.421 53.94C181.101 54.88 180.941 56.2 180.941 57.9V58.5C180.941 59.92 181.031 61.09 181.211 62.01C181.391 62.93 181.641 63.65 181.961 64.17C182.301 64.69 182.691 65.06 183.131 65.28C183.571 65.48 184.041 65.58 184.541 65.58ZM199.802 58.26C198.262 58.26 197.022 57.8 196.082 56.88C195.162 55.96 194.702 54.75 194.702 53.25V52.95C194.702 51.97 194.912 51.11 195.332 50.37C195.752 49.61 196.342 49.02 197.102 48.6C197.882 48.16 198.782 47.94 199.802 47.94C200.842 47.94 201.742 48.15 202.502 48.57C203.262 48.99 203.852 49.58 204.272 50.34C204.692 51.08 204.902 51.95 204.902 52.95V53.25C204.902 54.75 204.432 55.96 203.492 56.88C202.572 57.8 201.342 58.26 199.802 58.26ZM199.802 55.14C200.202 55.14 200.522 55 200.762 54.72C201.002 54.42 201.122 53.93 201.122 53.25V52.95C201.122 52.27 201.002 51.79 200.762 51.51C200.522 51.21 200.202 51.06 199.802 51.06C199.402 51.06 199.082 51.21 198.842 51.51C198.602 51.79 198.482 52.27 198.482 52.95V53.25C198.482 53.93 198.602 54.42 198.842 54.72C199.082 55 199.402 55.14 199.802 55.14ZM197.432 69.3L211.832 48.3H215.972L201.572 69.3H197.432ZM213.602 69.66C212.062 69.66 210.822 69.2 209.882 68.28C208.962 67.36 208.502 66.15 208.502 64.65V64.35C208.502 63.37 208.712 62.51 209.132 61.77C209.552 61.01 210.142 60.42 210.902 60C211.682 59.56 212.582 59.34 213.602 59.34C214.642 59.34 215.542 59.55 216.302 59.97C217.062 60.39 217.652 60.98 218.072 61.74C218.492 62.48 218.702 63.35 218.702 64.35V64.65C218.702 66.15 218.232 67.36 217.292 68.28C216.372 69.2 215.142 69.66 213.602 69.66ZM213.602 66.54C214.002 66.54 214.322 66.4 214.562 66.12C214.802 65.82 214.922 65.33 214.922 64.65V64.35C214.922 63.67 214.802 63.19 214.562 62.91C214.322 62.61 214.002 62.46 213.602 62.46C213.202 62.46 212.882 62.61 212.642 62.91C212.402 63.19 212.282 63.67 212.282 64.35V64.65C212.282 65.33 212.402 65.82 212.642 66.12C212.882 66.4 213.202 66.54 213.602 66.54ZM228.627 69V53.1H232.557V59.25H239.337V53.1H243.267V69H239.337V62.55H232.557V69H228.627ZM251.677 69.36C250.537 69.36 249.567 69.15 248.767 68.73C247.967 68.29 247.357 67.69 246.937 66.93C246.517 66.17 246.307 65.31 246.307 64.35C246.307 62.75 246.777 61.55 247.717 60.75C248.677 59.95 250.107 59.55 252.007 59.55H256.747V58.8C256.747 57.76 256.507 57.03 256.027 56.61C255.567 56.19 254.827 55.98 253.807 55.98C252.907 55.98 252.257 56.14 251.857 56.46C251.457 56.76 251.227 57.14 251.167 57.6H247.207C247.267 56.68 247.557 55.86 248.077 55.14C248.617 54.4 249.377 53.82 250.357 53.4C251.357 52.96 252.557 52.74 253.957 52.74C255.317 52.74 256.497 52.94 257.497 53.34C258.517 53.74 259.307 54.39 259.867 55.29C260.427 56.17 260.707 57.36 260.707 58.86V64.95C260.707 65.79 260.717 66.53 260.737 67.17C260.777 67.79 260.837 68.4 260.917 69H257.227C257.147 68.56 257.097 68.23 257.077 68.01C257.077 67.77 257.077 67.42 257.077 66.96C256.657 67.6 255.997 68.16 255.097 68.64C254.197 69.12 253.057 69.36 251.677 69.36ZM252.907 66.3C253.547 66.3 254.157 66.19 254.737 65.97C255.337 65.73 255.817 65.37 256.177 64.89C256.557 64.39 256.747 63.76 256.747 63V62.25H252.757C251.997 62.25 251.397 62.43 250.957 62.79C250.537 63.13 250.327 63.6 250.327 64.2C250.327 64.84 250.547 65.35 250.987 65.73C251.427 66.11 252.067 66.3 252.907 66.3ZM271.693 69V53.1H286.033V69H282.103V56.4H275.623V69H271.693ZM296.852 69.36C295.412 69.36 294.082 69.07 292.862 68.49C291.662 67.89 290.702 66.99 289.982 65.79C289.262 64.57 288.902 63.04 288.902 61.2V60.6C288.902 58.84 289.242 57.38 289.922 56.22C290.622 55.06 291.552 54.19 292.712 53.61C293.872 53.03 295.152 52.74 296.552 52.74C299.052 52.74 300.952 53.4 302.252 54.72C303.552 56.04 304.202 57.95 304.202 60.45V62.13H292.952C292.992 63.07 293.192 63.84 293.552 64.44C293.932 65.02 294.412 65.45 294.992 65.73C295.572 65.99 296.192 66.12 296.852 66.12C297.872 66.12 298.642 65.97 299.162 65.67C299.682 65.37 300.052 64.93 300.272 64.35H303.902C303.582 66.01 302.792 67.26 301.532 68.1C300.272 68.94 298.712 69.36 296.852 69.36ZM296.702 55.98C296.082 55.98 295.482 56.08 294.902 56.28C294.322 56.48 293.862 56.84 293.522 57.36C293.182 57.86 292.992 58.53 292.952 59.37H300.362C300.342 58.47 300.162 57.78 299.822 57.3C299.502 56.8 299.072 56.46 298.532 56.28C297.992 56.08 297.382 55.98 296.702 55.98ZM307.084 75V53.1H310.744V55.44C311.144 54.72 311.774 54.09 312.634 53.55C313.494 53.01 314.584 52.74 315.904 52.74C318.024 52.74 319.674 53.4 320.854 54.72C322.054 56.02 322.654 57.98 322.654 60.6V61.2C322.654 63.02 322.374 64.54 321.814 65.76C321.274 66.96 320.504 67.86 319.504 68.46C318.504 69.06 317.304 69.36 315.904 69.36C314.824 69.36 313.864 69.13 313.024 68.67C312.204 68.19 311.534 67.57 311.014 66.81V75H307.084ZM314.974 66C316.014 66 316.884 65.61 317.584 64.83C318.284 64.03 318.634 62.82 318.634 61.2V60.6C318.634 59.1 318.294 57.98 317.614 57.24C316.954 56.48 316.074 56.1 314.974 56.1C314.214 56.1 313.534 56.25 312.934 56.55C312.334 56.83 311.864 57.26 311.524 57.84C311.184 58.4 311.014 59.12 311.014 60V61.8C311.014 62.74 311.174 63.53 311.494 64.17C311.834 64.79 312.304 65.25 312.904 65.55C313.504 65.85 314.194 66 314.974 66ZM325.541 69V53.1H333.461C334.841 53.1 335.961 53.28 336.821 53.64C337.681 54 338.301 54.5 338.681 55.14C339.081 55.78 339.281 56.53 339.281 57.39C339.281 58.11 339.061 58.8 338.621 59.46C338.181 60.1 337.561 60.53 336.761 60.75C337.741 60.99 338.501 61.45 339.041 62.13C339.601 62.79 339.881 63.57 339.881 64.47C339.881 65.85 339.401 66.95 338.441 67.77C337.481 68.59 336.021 69 334.061 69H325.541ZM329.471 65.82H333.311C334.211 65.82 334.871 65.69 335.291 65.43C335.731 65.15 335.951 64.71 335.951 64.11C335.951 63.51 335.741 63.08 335.321 62.82C334.921 62.54 334.251 62.4 333.311 62.4H329.471V65.82ZM329.471 59.46H332.921C333.841 59.46 334.471 59.33 334.811 59.07C335.171 58.81 335.351 58.41 335.351 57.87C335.351 57.35 335.171 56.96 334.811 56.7C334.451 56.42 333.821 56.28 332.921 56.28H329.471V59.46ZM349.967 69.36C348.527 69.36 347.197 69.07 345.977 68.49C344.777 67.89 343.817 66.99 343.097 65.79C342.377 64.57 342.017 63.04 342.017 61.2V60.6C342.017 58.86 342.377 57.41 343.097 56.25C343.817 55.09 344.777 54.22 345.977 53.64C347.197 53.04 348.527 52.74 349.967 52.74C351.407 52.74 352.727 53.04 353.927 53.64C355.147 54.22 356.117 55.09 356.837 56.25C357.557 57.41 357.917 58.86 357.917 60.6V61.2C357.917 63 357.557 64.51 356.837 65.73C356.117 66.93 355.147 67.84 353.927 68.46C352.727 69.06 351.407 69.36 349.967 69.36ZM349.967 66C350.727 66 351.397 65.83 351.977 65.49C352.577 65.13 353.047 64.59 353.387 63.87C353.727 63.15 353.897 62.26 353.897 61.2V60.6C353.897 59.62 353.727 58.8 353.387 58.14C353.047 57.48 352.577 56.98 351.977 56.64C351.397 56.28 350.727 56.1 349.967 56.1C349.207 56.1 348.527 56.28 347.927 56.64C347.347 56.98 346.887 57.48 346.547 58.14C346.207 58.8 346.037 59.62 346.037 60.6V61.2C346.037 62.28 346.207 63.18 346.547 63.9C346.887 64.6 347.347 65.13 347.927 65.49C348.527 65.83 349.207 66 349.967 66ZM367.955 69.36C366.515 69.36 365.185 69.07 363.965 68.49C362.765 67.89 361.805 66.99 361.085 65.79C360.365 64.57 360.005 63.04 360.005 61.2V60.6C360.005 58.84 360.345 57.38 361.025 56.22C361.725 55.06 362.655 54.19 363.815 53.61C364.975 53.03 366.255 52.74 367.655 52.74C370.155 52.74 372.055 53.4 373.355 54.72C374.655 56.04 375.305 57.95 375.305 60.45V62.13H364.055C364.095 63.07 364.295 63.84 364.655 64.44C365.035 65.02 365.515 65.45 366.095 65.73C366.675 65.99 367.295 66.12 367.955 66.12C368.975 66.12 369.745 65.97 370.265 65.67C370.785 65.37 371.155 64.93 371.375 64.35H375.005C374.685 66.01 373.895 67.26 372.635 68.1C371.375 68.94 369.815 69.36 367.955 69.36ZM367.805 55.98C367.185 55.98 366.585 56.08 366.005 56.28C365.425 56.48 364.965 56.84 364.625 57.36C364.285 57.86 364.095 58.53 364.055 59.37H371.465C371.445 58.47 371.265 57.78 370.925 57.3C370.605 56.8 370.175 56.46 369.635 56.28C369.095 56.08 368.485 55.98 367.805 55.98ZM49 105.36C47.54 105.36 46.21 105.02 45.01 104.34C43.83 103.66 42.9 102.65 42.22 101.31C41.54 99.95 41.2 98.27 41.2 96.27V95.61C41.2 93.21 41.45 91.17 41.95 89.49C42.45 87.79 43.29 86.47 44.47 85.53C45.67 84.59 47.32 84.07 49.42 83.97C50.26 83.93 51.07 83.9 51.85 83.88C52.63 83.84 53.34 83.78 53.98 83.7C54.62 83.6 55.16 83.45 55.6 83.25V86.76C55.4 86.88 55.07 86.99 54.61 87.09C54.15 87.19 53.54 87.27 52.78 87.33C52.02 87.37 51.05 87.4 49.87 87.42C48.67 87.44 47.69 87.62 46.93 87.96C46.17 88.28 45.59 88.82 45.19 89.58C44.79 90.34 44.52 91.37 44.38 92.67C44.7 92.07 45.11 91.55 45.61 91.11C46.11 90.65 46.73 90.29 47.47 90.03C48.21 89.77 49.07 89.64 50.05 89.64C51.37 89.64 52.54 89.91 53.56 90.45C54.58 90.99 55.37 91.79 55.93 92.85C56.51 93.91 56.8 95.21 56.8 96.75V97.32C56.8 99 56.46 100.44 55.78 101.64C55.1 102.84 54.17 103.76 52.99 104.4C51.83 105.04 50.5 105.36 49 105.36ZM49 102C50.2 102 51.13 101.61 51.79 100.83C52.45 100.03 52.78 98.9 52.78 97.44V96.84C52.78 95.56 52.44 94.57 51.76 93.87C51.08 93.15 50.16 92.79 49 92.79C47.84 92.79 46.92 93.15 46.24 93.87C45.56 94.59 45.22 95.58 45.22 96.84V97.38C45.22 98.34 45.38 99.17 45.7 99.87C46.04 100.55 46.49 101.08 47.05 101.46C47.63 101.82 48.28 102 49 102ZM59.6718 111V89.1H63.3318V91.44C63.7318 90.72 64.3618 90.09 65.2218 89.55C66.0818 89.01 67.1718 88.74 68.4918 88.74C70.6118 88.74 72.2618 89.4 73.4418 90.72C74.6418 92.02 75.2418 93.98 75.2418 96.6V97.2C75.2418 99.02 74.9618 100.54 74.4018 101.76C73.8618 102.96 73.0918 103.86 72.0918 104.46C71.0918 105.06 69.8918 105.36 68.4918 105.36C67.4118 105.36 66.4518 105.13 65.6118 104.67C64.7918 104.19 64.1218 103.57 63.6018 102.81V111H59.6718ZM67.5618 102C68.6018 102 69.4718 101.61 70.1718 100.83C70.8718 100.03 71.2218 98.82 71.2218 97.2V96.6C71.2218 95.1 70.8818 93.98 70.2018 93.24C69.5418 92.48 68.6618 92.1 67.5618 92.1C66.8018 92.1 66.1218 92.25 65.5218 92.55C64.9218 92.83 64.4518 93.26 64.1118 93.84C63.7718 94.4 63.6018 95.12 63.6018 96V97.8C63.6018 98.74 63.7618 99.53 64.0818 100.17C64.4218 100.79 64.8918 101.25 65.4918 101.55C66.0918 101.85 66.7818 102 67.5618 102ZM85.2988 105.36C83.8588 105.36 82.5288 105.07 81.3088 104.49C80.1088 103.89 79.1488 102.99 78.4288 101.79C77.7088 100.57 77.3488 99.04 77.3488 97.2V96.6C77.3488 94.86 77.7088 93.41 78.4288 92.25C79.1488 91.09 80.1088 90.22 81.3088 89.64C82.5288 89.04 83.8588 88.74 85.2988 88.74C86.7388 88.74 88.0588 89.04 89.2588 89.64C90.4788 90.22 91.4488 91.09 92.1688 92.25C92.8888 93.41 93.2488 94.86 93.2488 96.6V97.2C93.2488 99 92.8888 100.51 92.1688 101.73C91.4488 102.93 90.4788 103.84 89.2588 104.46C88.0588 105.06 86.7388 105.36 85.2988 105.36ZM85.2988 102C86.0588 102 86.7288 101.83 87.3088 101.49C87.9088 101.13 88.3788 100.59 88.7188 99.87C89.0588 99.15 89.2288 98.26 89.2288 97.2V96.6C89.2288 95.62 89.0588 94.8 88.7188 94.14C88.3788 93.48 87.9088 92.98 87.3088 92.64C86.7288 92.28 86.0588 92.1 85.2988 92.1C84.5388 92.1 83.8588 92.28 83.2588 92.64C82.6788 92.98 82.2188 93.48 81.8788 94.14C81.5388 94.8 81.3688 95.62 81.3688 96.6V97.2C81.3688 98.28 81.5388 99.18 81.8788 99.9C82.2188 100.6 82.6788 101.13 83.2588 101.49C83.8588 101.83 84.5388 102 85.2988 102ZM96.1171 105V89.1H100.047V95.25H106.827V89.1H110.757V105H106.827V98.55H100.047V105H96.1171ZM114.428 105V89.1H118.358V99.3L125.438 89.1H129.068V105H125.138V94.8L118.058 105H114.428ZM132.738 111V89.1H136.398V91.44C136.798 90.72 137.428 90.09 138.288 89.55C139.148 89.01 140.238 88.74 141.558 88.74C143.678 88.74 145.328 89.4 146.508 90.72C147.708 92.02 148.308 93.98 148.308 96.6V97.2C148.308 99.02 148.028 100.54 147.468 101.76C146.928 102.96 146.158 103.86 145.158 104.46C144.158 105.06 142.958 105.36 141.558 105.36C140.478 105.36 139.518 105.13 138.678 104.67C137.858 104.19 137.188 103.57 136.668 102.81V111H132.738ZM140.628 102C141.668 102 142.538 101.61 143.238 100.83C143.938 100.03 144.288 98.82 144.288 97.2V96.6C144.288 95.1 143.948 93.98 143.268 93.24C142.608 92.48 141.728 92.1 140.628 92.1C139.868 92.1 139.188 92.25 138.588 92.55C137.988 92.83 137.518 93.26 137.178 93.84C136.838 94.4 136.668 95.12 136.668 96V97.8C136.668 98.74 136.828 99.53 137.148 100.17C137.488 100.79 137.958 101.25 138.558 101.55C139.158 101.85 139.848 102 140.628 102ZM158.365 105.36C156.925 105.36 155.595 105.07 154.375 104.49C153.175 103.89 152.215 102.99 151.495 101.79C150.775 100.57 150.415 99.04 150.415 97.2V96.6C150.415 94.86 150.775 93.41 151.495 92.25C152.215 91.09 153.175 90.22 154.375 89.64C155.595 89.04 156.925 88.74 158.365 88.74C159.805 88.74 161.125 89.04 162.325 89.64C163.545 90.22 164.515 91.09 165.235 92.25C165.955 93.41 166.315 94.86 166.315 96.6V97.2C166.315 99 165.955 100.51 165.235 101.73C164.515 102.93 163.545 103.84 162.325 104.46C161.125 105.06 159.805 105.36 158.365 105.36ZM158.365 102C159.125 102 159.795 101.83 160.375 101.49C160.975 101.13 161.445 100.59 161.785 99.87C162.125 99.15 162.295 98.26 162.295 97.2V96.6C162.295 95.62 162.125 94.8 161.785 94.14C161.445 93.48 160.975 92.98 160.375 92.64C159.795 92.28 159.125 92.1 158.365 92.1C157.605 92.1 156.925 92.28 156.325 92.64C155.745 92.98 155.285 93.48 154.945 94.14C154.605 94.8 154.435 95.62 154.435 96.6V97.2C154.435 98.28 154.605 99.18 154.945 99.9C155.285 100.6 155.745 101.13 156.325 101.49C156.925 101.83 157.605 102 158.365 102ZM169.184 105V89.1H177.104C178.484 89.1 179.604 89.28 180.464 89.64C181.324 90 181.944 90.5 182.324 91.14C182.724 91.78 182.924 92.53 182.924 93.39C182.924 94.11 182.704 94.8 182.264 95.46C181.824 96.1 181.204 96.53 180.404 96.75C181.384 96.99 182.144 97.45 182.684 98.13C183.244 98.79 183.524 99.57 183.524 100.47C183.524 101.85 183.044 102.95 182.084 103.77C181.124 104.59 179.664 105 177.704 105H169.184ZM173.114 101.82H176.954C177.854 101.82 178.514 101.69 178.934 101.43C179.374 101.15 179.594 100.71 179.594 100.11C179.594 99.51 179.384 99.08 178.964 98.82C178.564 98.54 177.894 98.4 176.954 98.4H173.114V101.82ZM173.114 95.46H176.564C177.484 95.46 178.114 95.33 178.454 95.07C178.814 94.81 178.994 94.41 178.994 93.87C178.994 93.35 178.814 92.96 178.454 92.7C178.094 92.42 177.464 92.28 176.564 92.28H173.114V95.46ZM191.179 105.36C190.039 105.36 189.069 105.15 188.269 104.73C187.469 104.29 186.859 103.69 186.439 102.93C186.019 102.17 185.809 101.31 185.809 100.35C185.809 98.75 186.279 97.55 187.219 96.75C188.179 95.95 189.609 95.55 191.509 95.55H196.249V94.8C196.249 93.76 196.009 93.03 195.529 92.61C195.069 92.19 194.329 91.98 193.309 91.98C192.409 91.98 191.759 92.14 191.359 92.46C190.959 92.76 190.729 93.14 190.669 93.6H186.709C186.769 92.68 187.059 91.86 187.579 91.14C188.119 90.4 188.879 89.82 189.859 89.4C190.859 88.96 192.059 88.74 193.459 88.74C194.819 88.74 195.999 88.94 196.999 89.34C198.019 89.74 198.809 90.39 199.369 91.29C199.929 92.17 200.209 93.36 200.209 94.86V100.95C200.209 101.79 200.219 102.53 200.239 103.17C200.279 103.79 200.339 104.4 200.419 105H196.729C196.649 104.56 196.599 104.23 196.579 104.01C196.579 103.77 196.579 103.42 196.579 102.96C196.159 103.6 195.499 104.16 194.599 104.64C193.699 105.12 192.559 105.36 191.179 105.36ZM192.409 102.3C193.049 102.3 193.659 102.19 194.239 101.97C194.839 101.73 195.319 101.37 195.679 100.89C196.059 100.39 196.249 99.76 196.249 99V98.25H192.259C191.499 98.25 190.899 98.43 190.459 98.79C190.039 99.13 189.829 99.6 189.829 100.2C189.829 100.84 190.049 101.35 190.489 101.73C190.929 102.11 191.569 102.3 192.409 102.3ZM203.695 105V89.1H207.625V95.25H214.405V89.1H218.335V105H214.405V98.55H207.625V105H203.695ZM222.006 105V89.1H225.936V99.3L233.016 89.1H236.646V105H232.716V94.8L225.636 105H222.006ZM247.486 105.36C246.046 105.36 244.716 105.07 243.496 104.49C242.296 103.89 241.336 102.99 240.616 101.79C239.896 100.57 239.536 99.04 239.536 97.2V96.6C239.536 94.84 239.876 93.38 240.556 92.22C241.256 91.06 242.186 90.19 243.346 89.61C244.506 89.03 245.786 88.74 247.186 88.74C249.686 88.74 251.586 89.4 252.886 90.72C254.186 92.04 254.836 93.95 254.836 96.45V98.13H243.586C243.626 99.07 243.826 99.84 244.186 100.44C244.566 101.02 245.046 101.45 245.626 101.73C246.206 101.99 246.826 102.12 247.486 102.12C248.506 102.12 249.276 101.97 249.796 101.67C250.316 101.37 250.686 100.93 250.906 100.35H254.536C254.216 102.01 253.426 103.26 252.166 104.1C250.906 104.94 249.346 105.36 247.486 105.36ZM247.336 91.98C246.716 91.98 246.116 92.08 245.536 92.28C244.956 92.48 244.496 92.84 244.156 93.36C243.816 93.86 243.626 94.53 243.586 95.37H250.996C250.976 94.47 250.796 93.78 250.456 93.3C250.136 92.8 249.706 92.46 249.166 92.28C248.626 92.08 248.016 91.98 247.336 91.98ZM265.219 105V89.1H279.559V105H275.629V92.4H269.149V105H265.219ZM290.377 105.36C288.937 105.36 287.607 105.07 286.387 104.49C285.187 103.89 284.227 102.99 283.507 101.79C282.787 100.57 282.427 99.04 282.427 97.2V96.6C282.427 94.86 282.787 93.41 283.507 92.25C284.227 91.09 285.187 90.22 286.387 89.64C287.607 89.04 288.937 88.74 290.377 88.74C291.817 88.74 293.137 89.04 294.337 89.64C295.557 90.22 296.527 91.09 297.247 92.25C297.967 93.41 298.327 94.86 298.327 96.6V97.2C298.327 99 297.967 100.51 297.247 101.73C296.527 102.93 295.557 103.84 294.337 104.46C293.137 105.06 291.817 105.36 290.377 105.36ZM290.377 102C291.137 102 291.807 101.83 292.387 101.49C292.987 101.13 293.457 100.59 293.797 99.87C294.137 99.15 294.307 98.26 294.307 97.2V96.6C294.307 95.62 294.137 94.8 293.797 94.14C293.457 93.48 292.987 92.98 292.387 92.64C291.807 92.28 291.137 92.1 290.377 92.1C289.617 92.1 288.937 92.28 288.337 92.64C287.757 92.98 287.297 93.48 286.957 94.14C286.617 94.8 286.447 95.62 286.447 96.6V97.2C286.447 98.28 286.617 99.18 286.957 99.9C287.297 100.6 287.757 101.13 288.337 101.49C288.937 101.83 289.617 102 290.377 102ZM308.695 105V89.1H323.035V105H319.105V92.4H312.625V105H308.695ZM326.684 111V89.1H330.344V91.44C330.744 90.72 331.374 90.09 332.234 89.55C333.094 89.01 334.184 88.74 335.504 88.74C337.624 88.74 339.274 89.4 340.454 90.72C341.654 92.02 342.254 93.98 342.254 96.6V97.2C342.254 99.02 341.974 100.54 341.414 101.76C340.874 102.96 340.104 103.86 339.104 104.46C338.104 105.06 336.904 105.36 335.504 105.36C334.424 105.36 333.464 105.13 332.624 104.67C331.804 104.19 331.134 103.57 330.614 102.81V111H326.684ZM334.574 102C335.614 102 336.484 101.61 337.184 100.83C337.884 100.03 338.234 98.82 338.234 97.2V96.6C338.234 95.1 337.894 93.98 337.214 93.24C336.554 92.48 335.674 92.1 334.574 92.1C333.814 92.1 333.134 92.25 332.534 92.55C331.934 92.83 331.464 93.26 331.124 93.84C330.784 94.4 330.614 95.12 330.614 96V97.8C330.614 98.74 330.774 99.53 331.094 100.17C331.434 100.79 331.904 101.25 332.504 101.55C333.104 101.85 333.794 102 334.574 102ZM352.311 105.36C350.871 105.36 349.541 105.07 348.321 104.49C347.121 103.89 346.161 102.99 345.441 101.79C344.721 100.57 344.361 99.04 344.361 97.2V96.6C344.361 94.86 344.721 93.41 345.441 92.25C346.161 91.09 347.121 90.22 348.321 89.64C349.541 89.04 350.871 88.74 352.311 88.74C353.751 88.74 355.071 89.04 356.271 89.64C357.491 90.22 358.461 91.09 359.181 92.25C359.901 93.41 360.261 94.86 360.261 96.6V97.2C360.261 99 359.901 100.51 359.181 101.73C358.461 102.93 357.491 103.84 356.271 104.46C355.071 105.06 353.751 105.36 352.311 105.36ZM352.311 102C353.071 102 353.741 101.83 354.321 101.49C354.921 101.13 355.391 100.59 355.731 99.87C356.071 99.15 356.241 98.26 356.241 97.2V96.6C356.241 95.62 356.071 94.8 355.731 94.14C355.391 93.48 354.921 92.98 354.321 92.64C353.741 92.28 353.071 92.1 352.311 92.1C351.551 92.1 350.871 92.28 350.271 92.64C349.691 92.98 349.231 93.48 348.891 94.14C348.551 94.8 348.381 95.62 348.381 96.6V97.2C348.381 98.28 348.551 99.18 348.891 99.9C349.231 100.6 349.691 101.13 350.271 101.49C350.871 101.83 351.551 102 352.311 102ZM363.129 105V89.1H367.779L372.189 97.68L376.599 89.1H381.069V105H377.319V94.65L373.449 101.85H370.749L366.879 94.65V105H363.129ZM391.891 105.36C390.451 105.36 389.121 105.07 387.901 104.49C386.701 103.89 385.741 102.99 385.021 101.79C384.301 100.57 383.941 99.04 383.941 97.2V96.6C383.941 94.86 384.301 93.41 385.021 92.25C385.741 91.09 386.701 90.22 387.901 89.64C389.121 89.04 390.451 88.74 391.891 88.74C393.331 88.74 394.651 89.04 395.851 89.64C397.071 90.22 398.041 91.09 398.761 92.25C399.481 93.41 399.841 94.86 399.841 96.6V97.2C399.841 99 399.481 100.51 398.761 101.73C398.041 102.93 397.071 103.84 395.851 104.46C394.651 105.06 393.331 105.36 391.891 105.36ZM391.891 102C392.651 102 393.321 101.83 393.901 101.49C394.501 101.13 394.971 100.59 395.311 99.87C395.651 99.15 395.821 98.26 395.821 97.2V96.6C395.821 95.62 395.651 94.8 395.311 94.14C394.971 93.48 394.501 92.98 393.901 92.64C393.321 92.28 392.651 92.1 391.891 92.1C391.131 92.1 390.451 92.28 389.851 92.64C389.271 92.98 388.811 93.48 388.471 94.14C388.131 94.8 387.961 95.62 387.961 96.6V97.2C387.961 98.28 388.131 99.18 388.471 99.9C388.811 100.6 389.271 101.13 389.851 101.49C390.451 101.83 391.131 102 391.891 102ZM402.709 105V89.1H406.639V95.34H408.109L413.029 89.1H417.379L411.379 96.63L417.679 105H412.939L408.109 98.46H406.639V105H402.709ZM426.549 105.36C425.109 105.36 423.779 105.07 422.559 104.49C421.359 103.89 420.399 102.99 419.679 101.79C418.959 100.57 418.599 99.04 418.599 97.2V96.6C418.599 94.86 418.959 93.41 419.679 92.25C420.399 91.09 421.359 90.22 422.559 89.64C423.779 89.04 425.109 88.74 426.549 88.74C427.989 88.74 429.309 89.04 430.509 89.64C431.729 90.22 432.699 91.09 433.419 92.25C434.139 93.41 434.499 94.86 434.499 96.6V97.2C434.499 99 434.139 100.51 433.419 101.73C432.699 102.93 431.729 103.84 430.509 104.46C429.309 105.06 427.989 105.36 426.549 105.36ZM426.549 102C427.309 102 427.979 101.83 428.559 101.49C429.159 101.13 429.629 100.59 429.969 99.87C430.309 99.15 430.479 98.26 430.479 97.2V96.6C430.479 95.62 430.309 94.8 429.969 94.14C429.629 93.48 429.159 92.98 428.559 92.64C427.979 92.28 427.309 92.1 426.549 92.1C425.789 92.1 425.109 92.28 424.509 92.64C423.929 92.98 423.469 93.48 423.129 94.14C422.789 94.8 422.619 95.62 422.619 96.6V97.2C422.619 98.28 422.789 99.18 423.129 99.9C423.469 100.6 423.929 101.13 424.509 101.49C425.109 101.83 425.789 102 426.549 102ZM435.844 108.75V101.7H437.644C437.924 101.28 438.144 100.65 438.304 99.81C438.484 98.97 438.614 98.03 438.694 96.99C438.794 95.93 438.844 94.89 438.844 93.87V89.1H451.294V101.7H453.214V108.75H449.764V105H439.294V108.75H435.844ZM441.514 101.7H447.334V92.4H442.444V94.47C442.444 95.87 442.374 97.23 442.234 98.55C442.114 99.85 441.874 100.9 441.514 101.7ZM458.172 111.36C457.872 111.36 457.572 111.33 457.272 111.27V107.91C457.572 107.97 457.872 108 458.172 108C458.572 108 458.902 107.9 459.162 107.7C459.442 107.5 459.692 107.18 459.912 106.74C460.152 106.3 460.412 105.72 460.692 105L453.972 89.1H458.412L462.732 100.08L466.662 89.1H470.772L464.652 105C464.072 106.5 463.512 107.71 462.972 108.63C462.432 109.57 461.792 110.26 461.052 110.7C460.332 111.14 459.372 111.36 458.172 111.36Z" fill="#292D32"/>
<rect x="40" y="152" width="146" height="59" rx="8" fill="#3C4EF2" fill-opacity="0.1"/>
<path d="M73.4 189V174.6H82.2V177.32H76.12V180.44H81V183.16H76.12V189H73.4ZM84.2055 189V174.6H86.9255V189H84.2055ZM89.9234 189V174.6H96.0034C96.1434 174.6 96.3301 174.607 96.5634 174.62C96.8034 174.627 97.0168 174.647 97.2034 174.68C98.0634 174.813 98.7668 175.097 99.3134 175.53C99.8668 175.963 100.273 176.51 100.533 177.17C100.793 177.823 100.923 178.553 100.923 179.36C100.923 180.567 100.623 181.6 100.023 182.46C99.4234 183.313 98.4834 183.84 97.2034 184.04L96.0034 184.12H92.6434V189H89.9234ZM98.0434 189L95.2034 183.14L98.0034 182.6L101.123 189H98.0434ZM92.6434 181.58H95.8834C96.0234 181.58 96.1768 181.573 96.3434 181.56C96.5101 181.547 96.6634 181.52 96.8034 181.48C97.1701 181.38 97.4534 181.213 97.6534 180.98C97.8534 180.74 97.9901 180.477 98.0634 180.19C98.1434 179.897 98.1834 179.62 98.1834 179.36C98.1834 179.1 98.1434 178.827 98.0634 178.54C97.9901 178.247 97.8534 177.983 97.6534 177.75C97.4534 177.51 97.1701 177.34 96.8034 177.24C96.6634 177.2 96.5101 177.173 96.3434 177.16C96.1768 177.147 96.0234 177.14 95.8834 177.14H92.6434V181.58ZM108.762 189.3C107.695 189.3 106.732 189.113 105.872 188.74C105.019 188.36 104.315 187.82 103.762 187.12C103.215 186.413 102.869 185.573 102.722 184.6L105.562 184.18C105.762 185.007 106.175 185.643 106.802 186.09C107.429 186.537 108.142 186.76 108.942 186.76C109.389 186.76 109.822 186.69 110.242 186.55C110.662 186.41 111.005 186.203 111.272 185.93C111.545 185.657 111.682 185.32 111.682 184.92C111.682 184.773 111.659 184.633 111.612 184.5C111.572 184.36 111.502 184.23 111.402 184.11C111.302 183.99 111.159 183.877 110.972 183.77C110.792 183.663 110.562 183.567 110.282 183.48L106.542 182.38C106.262 182.3 105.935 182.187 105.562 182.04C105.195 181.893 104.839 181.683 104.492 181.41C104.145 181.137 103.855 180.777 103.622 180.33C103.395 179.877 103.282 179.307 103.282 178.62C103.282 177.653 103.525 176.85 104.012 176.21C104.499 175.57 105.149 175.093 105.962 174.78C106.775 174.467 107.675 174.313 108.662 174.32C109.655 174.333 110.542 174.503 111.322 174.83C112.102 175.157 112.755 175.633 113.282 176.26C113.809 176.88 114.189 177.64 114.422 178.54L111.482 179.04C111.375 178.573 111.179 178.18 110.892 177.86C110.605 177.54 110.262 177.297 109.862 177.13C109.469 176.963 109.055 176.873 108.622 176.86C108.195 176.847 107.792 176.907 107.412 177.04C107.039 177.167 106.732 177.353 106.492 177.6C106.259 177.847 106.142 178.14 106.142 178.48C106.142 178.793 106.239 179.05 106.432 179.25C106.625 179.443 106.869 179.6 107.162 179.72C107.455 179.84 107.755 179.94 108.062 180.02L110.562 180.7C110.935 180.8 111.349 180.933 111.802 181.1C112.255 181.26 112.689 181.487 113.102 181.78C113.522 182.067 113.865 182.447 114.132 182.92C114.405 183.393 114.542 183.993 114.542 184.72C114.542 185.493 114.379 186.17 114.052 186.75C113.732 187.323 113.299 187.8 112.752 188.18C112.205 188.553 111.585 188.833 110.892 189.02C110.205 189.207 109.495 189.3 108.762 189.3ZM120.08 189V177.14H115.54V174.6H127.34V177.14H122.8V189H120.08ZM128.547 188.98V186.62L134.587 181.26C135.04 180.86 135.36 180.483 135.547 180.13C135.734 179.777 135.827 179.447 135.827 179.14C135.827 178.7 135.737 178.31 135.557 177.97C135.377 177.623 135.124 177.353 134.797 177.16C134.47 176.96 134.087 176.86 133.647 176.86C133.187 176.86 132.78 176.967 132.427 177.18C132.08 177.387 131.81 177.663 131.617 178.01C131.424 178.35 131.334 178.72 131.347 179.12H128.547C128.547 178.133 128.764 177.28 129.197 176.56C129.63 175.84 130.234 175.283 131.007 174.89C131.78 174.497 132.68 174.3 133.707 174.3C134.647 174.3 135.487 174.507 136.227 174.92C136.974 175.327 137.56 175.897 137.987 176.63C138.414 177.363 138.627 178.213 138.627 179.18C138.627 179.893 138.527 180.487 138.327 180.96C138.127 181.427 137.83 181.86 137.437 182.26C137.044 182.653 136.56 183.1 135.987 183.6L132.087 187.02L131.867 186.42H138.627V188.98H128.547ZM146.357 189.3C145.291 189.3 144.357 189.077 143.557 188.63C142.757 188.183 142.134 187.56 141.687 186.76C141.241 185.96 141.017 185.027 141.017 183.96V179.64C141.017 178.573 141.241 177.64 141.687 176.84C142.134 176.04 142.757 175.417 143.557 174.97C144.357 174.523 145.291 174.3 146.357 174.3C147.424 174.3 148.357 174.523 149.157 174.97C149.957 175.417 150.581 176.04 151.027 176.84C151.474 177.64 151.697 178.573 151.697 179.64V183.96C151.697 185.027 151.474 185.96 151.027 186.76C150.581 187.56 149.957 188.183 149.157 188.63C148.357 189.077 147.424 189.3 146.357 189.3ZM146.357 186.72C146.837 186.72 147.271 186.607 147.657 186.38C148.044 186.153 148.351 185.847 148.577 185.46C148.804 185.073 148.917 184.64 148.917 184.16V179.42C148.917 178.94 148.804 178.507 148.577 178.12C148.351 177.733 148.044 177.427 147.657 177.2C147.271 176.973 146.837 176.86 146.357 176.86C145.877 176.86 145.444 176.973 145.057 177.2C144.671 177.427 144.364 177.733 144.137 178.12C143.911 178.507 143.797 178.94 143.797 179.42V184.16C143.797 184.64 143.911 185.073 144.137 185.46C144.364 185.847 144.671 186.153 145.057 186.38C145.444 186.607 145.877 186.72 146.357 186.72Z" fill="#3C4EF2"/>
<path d="M40.49 243.68V240.817C40.8587 240.817 41.1573 240.724 41.386 240.537C41.6193 240.35 41.8013 240.098 41.932 239.781C42.0627 239.459 42.1607 239.097 42.226 238.696C42.296 238.295 42.352 237.879 42.394 237.45C42.4547 236.843 42.5037 236.255 42.541 235.686C42.583 235.117 42.6203 234.526 42.653 233.915C42.6857 233.304 42.723 232.636 42.765 231.913L49.1 231.92V240.817H49.835V243.68H48.589V242H41.736V243.68H40.49ZM42.674 240.817H47.854V233.103L43.92 233.096C43.892 233.637 43.864 234.158 43.836 234.657C43.8127 235.152 43.7823 235.651 43.745 236.155C43.7077 236.659 43.661 237.193 43.605 237.758C43.5537 238.281 43.4953 238.733 43.43 239.116C43.3693 239.494 43.2807 239.821 43.164 240.096C43.0473 240.367 42.884 240.607 42.674 240.817ZM54.6466 242.21C53.9046 242.21 53.256 242.047 52.7006 241.72C52.15 241.389 51.7206 240.929 51.4126 240.341C51.1046 239.748 50.9506 239.058 50.9506 238.269C50.9506 237.443 51.1023 236.729 51.4056 236.127C51.709 235.52 52.1313 235.054 52.6726 234.727C53.2186 234.396 53.858 234.23 54.5906 234.23C55.3513 234.23 55.9976 234.405 56.5296 234.755C57.0663 235.105 57.4676 235.604 57.7336 236.253C58.0043 236.902 58.121 237.674 58.0836 238.57H56.8236V238.122C56.8096 237.193 56.6206 236.5 56.2566 236.043C55.8926 235.581 55.3513 235.35 54.6326 235.35C53.8626 235.35 53.277 235.597 52.8756 236.092C52.4743 236.587 52.2736 237.296 52.2736 238.22C52.2736 239.111 52.4743 239.802 52.8756 240.292C53.277 240.782 53.8486 241.027 54.5906 241.027C55.09 241.027 55.524 240.913 55.8926 240.684C56.2613 240.455 56.5506 240.126 56.7606 239.697L57.9576 240.11C57.6636 240.777 57.2203 241.295 56.6276 241.664C56.0396 242.028 55.3793 242.21 54.6466 242.21ZM51.8536 238.57V237.569H57.4396V238.57H51.8536ZM62.8971 233.558C62.5471 233.558 62.2274 233.472 61.9381 233.299C61.6488 233.126 61.4178 232.898 61.2451 232.613C61.0724 232.324 60.9861 232.002 60.9861 231.647H61.9941C61.9941 231.894 62.0828 232.107 62.2601 232.284C62.4374 232.461 62.6498 232.55 62.8971 232.55C63.1491 232.55 63.3614 232.461 63.5341 232.284C63.7114 232.107 63.8001 231.894 63.8001 231.647H64.8081C64.8081 232.002 64.7218 232.324 64.5491 232.613C64.3811 232.898 64.1501 233.126 63.8561 233.299C63.5668 233.472 63.2471 233.558 62.8971 233.558ZM65.8301 234.44V242H64.6261V236.428L60.6641 242H59.6351V234.44H60.8391V239.935L64.8081 234.44H65.8301ZM70.9755 242.21C70.2102 242.21 69.5592 242.04 69.0225 241.699C68.4905 241.354 68.0845 240.88 67.8045 240.278C67.5245 239.676 67.3799 238.99 67.3705 238.22C67.3799 237.431 67.5269 236.738 67.8115 236.141C68.1009 235.539 68.5139 235.07 69.0505 234.734C69.5872 234.398 70.2335 234.23 70.9895 234.23C71.7875 234.23 72.4735 234.426 73.0475 234.818C73.6262 235.21 74.0135 235.747 74.2095 236.428L72.9775 236.799C72.8189 236.36 72.5599 236.02 72.2005 235.777C71.8459 235.534 71.4375 235.413 70.9755 235.413C70.4575 235.413 70.0305 235.534 69.6945 235.777C69.3585 236.015 69.1089 236.346 68.9455 236.771C68.7822 237.191 68.6982 237.674 68.6935 238.22C68.7029 239.06 68.8965 239.739 69.2745 240.257C69.6572 240.77 70.2242 241.027 70.9755 241.027C71.4702 241.027 71.8809 240.915 72.2075 240.691C72.5342 240.462 72.7815 240.133 72.9495 239.704L74.2095 240.033C73.9482 240.738 73.5399 241.277 72.9845 241.65C72.4292 242.023 71.7595 242.21 70.9755 242.21ZM77.5035 242V235.574H74.8715V234.44H81.3815V235.574H78.7495V242H77.5035ZM82.6996 242V234.44H85.9196C86.1109 234.44 86.3162 234.452 86.5356 234.475C86.7596 234.494 86.9626 234.529 87.1446 234.58C87.5506 234.687 87.8842 234.909 88.1456 235.245C88.4116 235.576 88.5446 235.996 88.5446 236.505C88.5446 236.79 88.5002 237.037 88.4116 237.247C88.3276 237.457 88.2062 237.639 88.0476 237.793C87.9776 237.863 87.9006 237.926 87.8166 237.982C87.7326 238.038 87.6486 238.082 87.5646 238.115C87.7279 238.143 87.8936 238.206 88.0616 238.304C88.3276 238.449 88.5352 238.652 88.6846 238.913C88.8386 239.174 88.9156 239.508 88.9156 239.914C88.9156 240.427 88.7919 240.852 88.5446 241.188C88.2972 241.519 87.9566 241.748 87.5226 241.874C87.3406 241.925 87.1399 241.96 86.9206 241.979C86.7012 241.993 86.4889 242 86.2836 242H82.6996ZM83.9596 240.985H86.2136C86.3116 240.985 86.4282 240.976 86.5636 240.957C86.7036 240.938 86.8272 240.915 86.9346 240.887C87.1772 240.817 87.3522 240.686 87.4596 240.495C87.5716 240.304 87.6276 240.096 87.6276 239.872C87.6276 239.573 87.5436 239.331 87.3756 239.144C87.2122 238.957 86.9952 238.841 86.7246 238.794C86.6266 238.766 86.5192 238.75 86.4026 238.745C86.2906 238.74 86.1902 238.738 86.1016 238.738H83.9596V240.985ZM83.9596 237.709H85.8356C85.9662 237.709 86.1039 237.702 86.2486 237.688C86.3932 237.669 86.5192 237.639 86.6266 237.597C86.8412 237.518 86.9976 237.387 87.0956 237.205C87.1982 237.018 87.2496 236.815 87.2496 236.596C87.2496 236.353 87.1936 236.141 87.0816 235.959C86.9742 235.772 86.8086 235.644 86.5846 235.574C86.4352 235.518 86.2672 235.488 86.0806 235.483C85.8986 235.474 85.7819 235.469 85.7306 235.469H83.9596V237.709ZM91.3718 245.36L92.8348 241.384L92.8558 242.56L89.5518 234.44H90.8608L93.4508 240.971H93.0028L95.4318 234.44H96.6988L92.5828 245.36H91.3718ZM101.131 242.21C100.389 242.21 99.7403 242.047 99.185 241.72C98.6343 241.389 98.205 240.929 97.897 240.341C97.589 239.748 97.435 239.058 97.435 238.269C97.435 237.443 97.5867 236.729 97.89 236.127C98.1933 235.52 98.6157 235.054 99.157 234.727C99.703 234.396 100.342 234.23 101.075 234.23C101.836 234.23 102.482 234.405 103.014 234.755C103.551 235.105 103.952 235.604 104.218 236.253C104.489 236.902 104.605 237.674 104.568 238.57H103.308V238.122C103.294 237.193 103.105 236.5 102.741 236.043C102.377 235.581 101.836 235.35 101.117 235.35C100.347 235.35 99.7613 235.597 99.36 236.092C98.9587 236.587 98.758 237.296 98.758 238.22C98.758 239.111 98.9587 239.802 99.36 240.292C99.7613 240.782 100.333 241.027 101.075 241.027C101.574 241.027 102.008 240.913 102.377 240.684C102.746 240.455 103.035 240.126 103.245 239.697L104.442 240.11C104.148 240.777 103.705 241.295 103.112 241.664C102.524 242.028 101.864 242.21 101.131 242.21ZM98.338 238.57V237.569H103.924V238.57H98.338ZM107.992 242V235.574H105.36V234.44H111.87V235.574H109.238V242H107.992ZM115.438 243.68V240.971C115.862 240.971 116.166 240.833 116.348 240.558C116.53 240.278 116.677 239.818 116.789 239.179C116.863 238.778 116.924 238.348 116.971 237.891C117.017 237.434 117.057 236.925 117.09 236.365C117.127 235.8 117.162 235.159 117.195 234.44H122.403V240.971H123.138V243.68H121.948V242H116.628V243.68H115.438ZM117.356 240.971H121.157V235.469H118.322C118.308 235.8 118.289 236.148 118.266 236.512C118.242 236.871 118.214 237.231 118.182 237.59C118.154 237.949 118.119 238.29 118.077 238.612C118.039 238.929 117.995 239.214 117.944 239.466C117.883 239.816 117.813 240.112 117.734 240.355C117.654 240.598 117.528 240.803 117.356 240.971ZM127.763 242.21C127.011 242.21 126.363 242.04 125.817 241.699C125.275 241.358 124.858 240.887 124.564 240.285C124.27 239.683 124.123 238.992 124.123 238.213C124.123 237.42 124.272 236.724 124.571 236.127C124.869 235.53 125.292 235.065 125.838 234.734C126.384 234.398 127.025 234.23 127.763 234.23C128.519 234.23 129.17 234.4 129.716 234.741C130.262 235.077 130.679 235.546 130.969 236.148C131.263 236.745 131.41 237.434 131.41 238.213C131.41 239.002 131.263 239.697 130.969 240.299C130.675 240.896 130.255 241.365 129.709 241.706C129.163 242.042 128.514 242.21 127.763 242.21ZM127.763 241.027C128.547 241.027 129.13 240.766 129.513 240.243C129.895 239.72 130.087 239.044 130.087 238.213C130.087 237.359 129.893 236.68 129.506 236.176C129.118 235.667 128.537 235.413 127.763 235.413C127.235 235.413 126.801 235.532 126.461 235.77C126.12 236.008 125.866 236.337 125.698 236.757C125.53 237.177 125.446 237.662 125.446 238.213C125.446 239.062 125.642 239.744 126.034 240.257C126.426 240.77 127.002 241.027 127.763 241.027ZM138.518 242.196C138.019 242.196 137.555 242.105 137.125 241.923C136.696 241.736 136.325 241.475 136.012 241.139C135.704 240.798 135.478 240.395 135.333 239.928L136.53 239.585C136.684 240.052 136.941 240.406 137.3 240.649C137.66 240.892 138.063 241.011 138.511 241.006C138.922 240.997 139.277 240.903 139.575 240.726C139.879 240.544 140.112 240.297 140.275 239.984C140.443 239.671 140.527 239.31 140.527 238.899C140.527 238.274 140.341 237.767 139.967 237.38C139.594 236.988 139.104 236.792 138.497 236.792C138.329 236.792 138.152 236.815 137.965 236.862C137.783 236.909 137.613 236.974 137.454 237.058L136.852 236.071L140.59 232.69L140.751 233.11H135.732V231.92H141.675V233.117L138.49 236.169L138.476 235.728C139.144 235.681 139.727 235.791 140.226 236.057C140.726 236.323 141.113 236.703 141.388 237.198C141.668 237.693 141.808 238.26 141.808 238.899C141.808 239.543 141.664 240.112 141.374 240.607C141.085 241.102 140.693 241.491 140.198 241.776C139.704 242.056 139.144 242.196 138.518 242.196ZM147.03 242.21C146.377 242.21 145.794 242.063 145.28 241.769C144.772 241.47 144.368 241.067 144.069 240.558C143.775 240.045 143.628 239.461 143.628 238.808V235.112C143.628 234.459 143.775 233.875 144.069 233.362C144.368 232.849 144.772 232.445 145.28 232.151C145.794 231.857 146.377 231.71 147.03 231.71C147.684 231.71 148.267 231.857 148.78 232.151C149.294 232.445 149.697 232.849 149.991 233.362C150.285 233.875 150.432 234.459 150.432 235.112V238.808C150.432 239.461 150.285 240.045 149.991 240.558C149.697 241.067 149.294 241.47 148.78 241.769C148.267 242.063 147.684 242.21 147.03 242.21ZM147.03 241.013C147.427 241.013 147.786 240.917 148.108 240.726C148.43 240.535 148.687 240.278 148.878 239.956C149.07 239.629 149.165 239.27 149.165 238.878V235.035C149.165 234.638 149.07 234.279 148.878 233.957C148.687 233.635 148.43 233.378 148.108 233.187C147.786 232.996 147.427 232.9 147.03 232.9C146.638 232.9 146.279 232.996 145.952 233.187C145.63 233.378 145.374 233.635 145.182 233.957C144.991 234.279 144.895 234.638 144.895 235.035V238.878C144.895 239.27 144.991 239.629 145.182 239.956C145.374 240.278 145.63 240.535 145.952 240.726C146.279 240.917 146.638 241.013 147.03 241.013ZM157.344 242.21C156.779 242.21 156.306 242.107 155.923 241.902C155.545 241.692 155.258 241.417 155.062 241.076C154.871 240.735 154.775 240.362 154.775 239.956C154.775 239.559 154.85 239.216 154.999 238.927C155.153 238.633 155.368 238.39 155.643 238.199C155.918 238.003 156.247 237.849 156.63 237.737C156.989 237.639 157.391 237.555 157.834 237.485C158.282 237.41 158.735 237.343 159.192 237.282C159.649 237.221 160.076 237.163 160.473 237.107L160.025 237.366C160.039 236.694 159.904 236.197 159.619 235.875C159.339 235.553 158.854 235.392 158.163 235.392C157.706 235.392 157.304 235.497 156.959 235.707C156.618 235.912 156.378 236.248 156.238 236.715L155.055 236.358C155.237 235.695 155.589 235.175 156.112 234.797C156.635 234.419 157.323 234.23 158.177 234.23C158.863 234.23 159.451 234.354 159.941 234.601C160.436 234.844 160.79 235.212 161.005 235.707C161.112 235.94 161.18 236.195 161.208 236.47C161.236 236.741 161.25 237.025 161.25 237.324V242H160.144V240.187L160.403 240.355C160.118 240.966 159.719 241.428 159.206 241.741C158.697 242.054 158.077 242.21 157.344 242.21ZM157.533 241.167C157.981 241.167 158.368 241.088 158.695 240.929C159.026 240.766 159.292 240.553 159.493 240.292C159.694 240.026 159.824 239.737 159.885 239.424C159.955 239.191 159.992 238.932 159.997 238.647C160.006 238.358 160.011 238.136 160.011 237.982L160.445 238.171C160.039 238.227 159.64 238.281 159.248 238.332C158.856 238.383 158.485 238.439 158.135 238.5C157.785 238.556 157.47 238.624 157.19 238.703C156.985 238.768 156.791 238.852 156.609 238.955C156.432 239.058 156.287 239.191 156.175 239.354C156.068 239.513 156.014 239.711 156.014 239.949C156.014 240.154 156.065 240.35 156.168 240.537C156.275 240.724 156.439 240.875 156.658 240.992C156.882 241.109 157.174 241.167 157.533 241.167ZM163.063 242V234.44H169.258V242H168.012V235.623H164.309V242H163.063ZM174.69 242.21C173.981 242.21 173.384 242.035 172.898 241.685C172.413 241.33 172.044 240.852 171.792 240.25C171.545 239.643 171.421 238.964 171.421 238.213C171.421 237.452 171.545 236.771 171.792 236.169C172.044 235.567 172.413 235.093 172.898 234.748C173.388 234.403 173.988 234.23 174.697 234.23C175.397 234.23 175.999 234.405 176.503 234.755C177.012 235.1 177.402 235.574 177.672 236.176C177.943 236.778 178.078 237.457 178.078 238.213C178.078 238.969 177.943 239.648 177.672 240.25C177.402 240.852 177.012 241.33 176.503 241.685C175.999 242.035 175.395 242.21 174.69 242.21ZM171.211 245.36V234.44H172.324V240.005H172.464V245.36H171.211ZM174.536 241.069C175.036 241.069 175.449 240.943 175.775 240.691C176.102 240.439 176.347 240.098 176.51 239.669C176.674 239.235 176.755 238.75 176.755 238.213C176.755 237.681 176.674 237.2 176.51 236.771C176.352 236.342 176.104 236.001 175.768 235.749C175.437 235.497 175.015 235.371 174.501 235.371C174.011 235.371 173.605 235.492 173.283 235.735C172.961 235.973 172.721 236.307 172.562 236.736C172.404 237.161 172.324 237.653 172.324 238.213C172.324 238.764 172.401 239.256 172.555 239.69C172.714 240.119 172.957 240.458 173.283 240.705C173.61 240.948 174.028 241.069 174.536 241.069ZM182.889 242.21C182.147 242.21 181.498 242.047 180.943 241.72C180.392 241.389 179.963 240.929 179.655 240.341C179.347 239.748 179.193 239.058 179.193 238.269C179.193 237.443 179.344 236.729 179.648 236.127C179.951 235.52 180.373 235.054 180.915 234.727C181.461 234.396 182.1 234.23 182.833 234.23C183.593 234.23 184.24 234.405 184.772 234.755C185.308 235.105 185.71 235.604 185.976 236.253C186.246 236.902 186.363 237.674 186.326 238.57H185.066V238.122C185.052 237.193 184.863 236.5 184.499 236.043C184.135 235.581 183.593 235.35 182.875 235.35C182.105 235.35 181.519 235.597 181.118 236.092C180.716 236.587 180.516 237.296 180.516 238.22C180.516 239.111 180.716 239.802 181.118 240.292C181.519 240.782 182.091 241.027 182.833 241.027C183.332 241.027 183.766 240.913 184.135 240.684C184.503 240.455 184.793 240.126 185.003 239.697L186.2 240.11C185.906 240.777 185.462 241.295 184.87 241.664C184.282 242.028 183.621 242.21 182.889 242.21ZM180.096 238.57V237.569H185.682V238.57H180.096ZM187.184 242V240.929C187.464 240.98 187.677 240.971 187.821 240.901C187.971 240.826 188.08 240.698 188.15 240.516C188.225 240.329 188.286 240.096 188.332 239.816C188.412 239.373 188.479 238.878 188.535 238.332C188.596 237.786 188.65 237.189 188.696 236.54C188.748 235.887 188.794 235.187 188.836 234.44H194.121V242H192.875V235.623H189.97C189.942 236.052 189.907 236.493 189.865 236.946C189.828 237.399 189.788 237.84 189.746 238.269C189.704 238.694 189.658 239.09 189.606 239.459C189.56 239.823 189.508 240.138 189.452 240.404C189.364 240.861 189.24 241.228 189.081 241.503C188.923 241.774 188.694 241.949 188.395 242.028C188.097 242.112 187.693 242.103 187.184 242ZM200.756 242V239.263H199.125C198.934 239.263 198.722 239.256 198.488 239.242C198.26 239.223 198.045 239.198 197.844 239.165C197.298 239.062 196.836 238.822 196.458 238.444C196.085 238.066 195.898 237.543 195.898 236.876C195.898 236.227 196.073 235.707 196.423 235.315C196.778 234.918 197.214 234.662 197.732 234.545C197.966 234.489 198.201 234.459 198.439 234.454C198.682 234.445 198.887 234.44 199.055 234.44H202.002L202.009 242H200.756ZM195.667 242L197.676 238.92H199.02L197.011 242H195.667ZM199.034 238.234H200.756V235.469H199.034C198.927 235.469 198.785 235.474 198.607 235.483C198.435 235.492 198.269 235.52 198.11 235.567C197.961 235.609 197.814 235.686 197.669 235.798C197.529 235.91 197.413 236.055 197.319 236.232C197.226 236.409 197.179 236.619 197.179 236.862C197.179 237.212 197.277 237.497 197.473 237.716C197.669 237.931 197.907 238.075 198.187 238.15C198.341 238.187 198.493 238.211 198.642 238.22C198.796 238.229 198.927 238.234 199.034 238.234ZM206.499 241.993L206.506 240.873L210.979 236.848C211.352 236.512 211.602 236.195 211.728 235.896C211.858 235.593 211.924 235.282 211.924 234.965C211.924 234.578 211.835 234.228 211.658 233.915C211.48 233.602 211.238 233.355 210.93 233.173C210.626 232.991 210.281 232.9 209.894 232.9C209.492 232.9 209.135 232.996 208.823 233.187C208.51 233.374 208.263 233.623 208.081 233.936C207.903 234.249 207.817 234.589 207.822 234.958H206.548C206.548 234.323 206.695 233.763 206.989 233.278C207.283 232.788 207.682 232.405 208.186 232.13C208.694 231.85 209.271 231.71 209.915 231.71C210.54 231.71 211.1 231.855 211.595 232.144C212.089 232.429 212.479 232.818 212.764 233.313C213.053 233.803 213.198 234.358 213.198 234.979C213.198 235.418 213.142 235.798 213.03 236.12C212.922 236.442 212.754 236.741 212.526 237.016C212.297 237.287 212.01 237.576 211.665 237.884L207.948 241.223L207.787 240.803H213.198V241.993H206.499ZM218.275 242.21C217.621 242.21 217.038 242.063 216.525 241.769C216.016 241.47 215.612 241.067 215.314 240.558C215.02 240.045 214.873 239.461 214.873 238.808V235.112C214.873 234.459 215.02 233.875 215.314 233.362C215.612 232.849 216.016 232.445 216.525 232.151C217.038 231.857 217.621 231.71 218.275 231.71C218.928 231.71 219.511 231.857 220.025 232.151C220.538 232.445 220.942 232.849 221.236 233.362C221.53 233.875 221.677 234.459 221.677 235.112V238.808C221.677 239.461 221.53 240.045 221.236 240.558C220.942 241.067 220.538 241.47 220.025 241.769C219.511 242.063 218.928 242.21 218.275 242.21ZM218.275 241.013C218.671 241.013 219.031 240.917 219.353 240.726C219.675 240.535 219.931 240.278 220.123 239.956C220.314 239.629 220.41 239.27 220.41 238.878V235.035C220.41 234.638 220.314 234.279 220.123 233.957C219.931 233.635 219.675 233.378 219.353 233.187C219.031 232.996 218.671 232.9 218.275 232.9C217.883 232.9 217.523 232.996 217.197 233.187C216.875 233.378 216.618 233.635 216.427 233.957C216.235 234.279 216.14 234.638 216.14 235.035V238.878C216.14 239.27 216.235 239.629 216.427 239.956C216.618 240.278 216.875 240.535 217.197 240.726C217.523 240.917 217.883 241.013 218.275 241.013ZM223.356 241.993L223.363 240.873L227.836 236.848C228.21 236.512 228.459 236.195 228.585 235.896C228.716 235.593 228.781 235.282 228.781 234.965C228.781 234.578 228.693 234.228 228.515 233.915C228.338 233.602 228.095 233.355 227.787 233.173C227.484 232.991 227.139 232.9 226.751 232.9C226.35 232.9 225.993 232.996 225.68 233.187C225.368 233.374 225.12 233.623 224.938 233.936C224.761 234.249 224.675 234.589 224.679 234.958H223.405C223.405 234.323 223.552 233.763 223.846 233.278C224.14 232.788 224.539 232.405 225.043 232.13C225.552 231.85 226.128 231.71 226.772 231.71C227.398 231.71 227.958 231.855 228.452 232.144C228.947 232.429 229.337 232.818 229.621 233.313C229.911 233.803 230.055 234.358 230.055 234.979C230.055 235.418 229.999 235.798 229.887 236.12C229.78 236.442 229.612 236.741 229.383 237.016C229.155 237.287 228.868 237.576 228.522 237.884L224.805 241.223L224.644 240.803H230.055V241.993H223.356ZM235.811 242V240.145H231.177V238.962L234.502 231.92H235.916L232.591 238.962H235.811V236.127H237.071V238.962H238.121V240.145H237.071V242H235.811ZM242.599 242V234.44H247.849V235.623H243.845V242H242.599ZM252.259 242.21C251.507 242.21 250.859 242.04 250.313 241.699C249.771 241.358 249.354 240.887 249.06 240.285C248.766 239.683 248.619 238.992 248.619 238.213C248.619 237.42 248.768 236.724 249.067 236.127C249.365 235.53 249.788 235.065 250.334 234.734C250.88 234.398 251.521 234.23 252.259 234.23C253.015 234.23 253.666 234.4 254.212 234.741C254.758 235.077 255.175 235.546 255.465 236.148C255.759 236.745 255.906 237.434 255.906 238.213C255.906 239.002 255.759 239.697 255.465 240.299C255.171 240.896 254.751 241.365 254.205 241.706C253.659 242.042 253.01 242.21 252.259 242.21ZM252.259 241.027C253.043 241.027 253.626 240.766 254.009 240.243C254.391 239.72 254.583 239.044 254.583 238.213C254.583 237.359 254.389 236.68 254.002 236.176C253.614 235.667 253.033 235.413 252.259 235.413C251.731 235.413 251.297 235.532 250.957 235.77C250.616 236.008 250.362 236.337 250.194 236.757C250.026 237.177 249.942 237.662 249.942 238.213C249.942 239.062 250.138 239.744 250.53 240.257C250.922 240.77 251.498 241.027 252.259 241.027ZM256.887 243.68V240.971C257.311 240.971 257.615 240.833 257.797 240.558C257.979 240.278 258.126 239.818 258.238 239.179C258.312 238.778 258.373 238.348 258.42 237.891C258.466 237.434 258.506 236.925 258.539 236.365C258.576 235.8 258.611 235.159 258.644 234.44H263.852V240.971H264.587V243.68H263.397V242H258.077V243.68H256.887ZM258.805 240.971H262.606V235.469H259.771C259.757 235.8 259.738 236.148 259.715 236.512C259.691 236.871 259.663 237.231 259.631 237.59C259.603 237.949 259.568 238.29 259.526 238.612C259.488 238.929 259.444 239.214 259.393 239.466C259.332 239.816 259.262 240.112 259.183 240.355C259.103 240.598 258.977 240.803 258.805 240.971ZM268.141 242.21C267.576 242.21 267.102 242.107 266.72 241.902C266.342 241.692 266.055 241.417 265.859 241.076C265.667 240.735 265.572 240.362 265.572 239.956C265.572 239.559 265.646 239.216 265.796 238.927C265.95 238.633 266.164 238.39 266.44 238.199C266.715 238.003 267.044 237.849 267.427 237.737C267.786 237.639 268.187 237.555 268.631 237.485C269.079 237.41 269.531 237.343 269.989 237.282C270.446 237.221 270.873 237.163 271.27 237.107L270.822 237.366C270.836 236.694 270.7 236.197 270.416 235.875C270.136 235.553 269.65 235.392 268.96 235.392C268.502 235.392 268.101 235.497 267.756 235.707C267.415 235.912 267.175 236.248 267.035 236.715L265.852 236.358C266.034 235.695 266.386 235.175 266.909 234.797C267.431 234.419 268.12 234.23 268.974 234.23C269.66 234.23 270.248 234.354 270.738 234.601C271.232 234.844 271.587 235.212 271.802 235.707C271.909 235.94 271.977 236.195 272.005 236.47C272.033 236.741 272.047 237.025 272.047 237.324V242H270.941V240.187L271.2 240.355C270.915 240.966 270.516 241.428 270.003 241.741C269.494 242.054 268.873 242.21 268.141 242.21ZM268.33 241.167C268.778 241.167 269.165 241.088 269.492 240.929C269.823 240.766 270.089 240.553 270.29 240.292C270.49 240.026 270.621 239.737 270.682 239.424C270.752 239.191 270.789 238.932 270.794 238.647C270.803 238.358 270.808 238.136 270.808 237.982L271.242 238.171C270.836 238.227 270.437 238.281 270.045 238.332C269.653 238.383 269.282 238.439 268.932 238.5C268.582 238.556 268.267 238.624 267.987 238.703C267.781 238.768 267.588 238.852 267.406 238.955C267.228 239.058 267.084 239.191 266.972 239.354C266.864 239.513 266.811 239.711 266.811 239.949C266.811 240.154 266.862 240.35 266.965 240.537C267.072 240.724 267.235 240.875 267.455 240.992C267.679 241.109 267.97 241.167 268.33 241.167Z" fill="#919494"/>
<path style="mix-blend-mode:multiply" d="M448.28 293.189C487.647 293.189 519.56 261.32 519.56 222.008C519.56 182.697 487.647 150.828 448.28 150.828C408.913 150.828 377 182.697 377 222.008C377 261.32 408.913 293.189 448.28 293.189Z" fill="url(#paint0_radial_2684_10671)"/>
<path d="M447.328 128C415.946 128 390.508 153.405 390.508 184.74C390.508 216.076 415.948 241.481 447.328 241.481C478.708 241.481 504.148 216.076 504.148 184.74C504.148 153.405 478.708 128 447.328 128Z" fill="#3C4EF2"/>
<path style="mix-blend-mode:multiply" d="M447.328 128C415.946 128 390.508 153.405 390.508 184.74C390.508 216.076 415.948 241.481 447.328 241.481C478.708 241.481 504.148 216.076 504.148 184.74C504.148 153.405 478.708 128 447.328 128Z" fill="url(#paint1_linear_2684_10671)"/>
<g style="mix-blend-mode:screen">
<path d="M504.149 184.74C504.149 153.403 478.709 128 447.329 128C431.334 128 416.893 134.609 406.566 145.231C416.797 135.312 430.746 129.194 446.133 129.194C477.515 129.194 502.953 154.599 502.953 185.935C502.953 201.3 496.828 215.229 486.893 225.446C497.53 215.134 504.149 200.713 504.149 184.74Z" fill="#3C4EF2"/>
</g>
<path d="M439.81 173.211C440.313 163.347 432.686 154.913 422.808 154.41C412.93 153.908 404.484 161.524 403.981 171.388C403.477 181.252 411.104 189.687 420.982 190.189C430.86 190.692 439.307 183.076 439.81 173.211ZM413.753 171.887C413.981 167.403 417.82 163.941 422.311 164.169C426.801 164.397 430.267 168.231 430.039 172.715C429.811 177.199 425.972 180.66 421.482 180.432C416.991 180.204 413.525 176.371 413.753 171.887Z" fill="white"/>
<path d="M473.273 178.047C463.395 177.544 454.949 185.161 454.445 195.025C453.942 204.889 461.569 213.323 471.447 213.826C481.325 214.329 489.771 206.712 490.275 196.848C490.778 186.984 483.151 178.55 473.273 178.047ZM471.946 204.067C467.456 203.839 463.99 200.006 464.218 195.522C464.446 191.038 468.285 187.576 472.776 187.804C477.266 188.032 480.732 191.865 480.504 196.349C480.276 200.834 476.437 204.295 471.946 204.067Z" fill="white"/>
<path d="M434.495 213.8L470.43 154.453H458.997L423.062 213.8H434.495Z" fill="white"/>
</g>
<defs>
<radialGradient id="paint0_radial_2684_10671" cx="0" cy="0" r="1" gradientUnits="userSpaceOnUse" gradientTransform="translate(448.28 222.008) scale(71.28 71.1802)">
<stop stop-color="#3C4EF2"/>
<stop offset="0.03" stop-color="#3C4EF2"/>
<stop offset="0.19" stop-color="#3C4EF2"/>
<stop offset="0.35" stop-color="#B6BDFA"/>
<stop offset="0.5" stop-color="#DBDEFE"/>
<stop offset="0.64" stop-color="#E9EBFF"/>
<stop offset="0.77" stop-color="#F8F8FC"/>
<stop offset="0.9" stop-color="#FDFDFF"/>
<stop offset="1" stop-color="white"/>
</radialGradient>
<linearGradient id="paint1_linear_2684_10671" x1="442.795" y1="194.523" x2="471.43" y2="132.541" gradientUnits="userSpaceOnUse">
<stop stop-color="white"/>
<stop offset="1" stop-color="#0018F5"/>
</linearGradient>
<clipPath id="clip0_2684_10671">
<rect width="560" height="287" rx="24" fill="white"/>
</clipPath>
</defs>
</svg>
