<svg width="64" height="64" viewBox="0 0 64 64" fill="none" xmlns="http://www.w3.org/2000/svg">
<rect width="64" height="64" rx="16" fill="white"/>
<path d="M16 20.8594L20.7801 29.4036V34.6153L16.0056 43.1427L16 20.8594Z" fill="#5B57A2"/>
<path d="M34.3535 26.2929L38.8327 23.5476L47.9996 23.5391L34.3535 31.8987V26.2929Z" fill="#D90751"/>
<path d="M34.3285 20.8072L34.3538 32.1194L29.5625 29.1754V12.2656L34.3285 20.8072Z" fill="#FAB718"/>
<path d="M47.9999 23.5387L38.8327 23.5473L34.3285 20.8072L29.5625 12.2656L47.9999 23.5387Z" fill="#ED6F26"/>
<path d="M34.3538 43.1889V37.7006L29.5625 34.8125L29.5651 51.7391L34.3538 43.1889Z" fill="#63B22F"/>
<path d="M38.8218 40.4697L20.7798 29.4036L16 20.8594L47.9805 40.4586L38.8218 40.4697Z" fill="#1487C9"/>
<path d="M29.5664 51.7387L34.3544 43.1885L38.8224 40.4682L47.9811 40.457L29.5664 51.7387Z" fill="#017F36"/>
<path d="M16.0059 43.1411L29.6019 34.8123L25.031 32.0078L20.7804 34.6137L16.0059 43.1411Z" fill="#984995"/>
</svg>
