<svg width="64" height="64" viewBox="0 0 64 64" fill="none" xmlns="http://www.w3.org/2000/svg">
<rect width="64" height="64" rx="16" fill="white"/>
<path d="M27.2119 42.8984C27.2119 42.8984 27.7592 42.6745 27.8089 42.5128L27.7343 42.3312C27.6833 42.2118 27.6895 42.0824 27.7903 42.0128L28.3798 41.6036L29.3662 41.7939C29.3662 41.7939 29.1871 41.57 29.2045 41.2715L28.2641 41.0725L27.3761 41.6135C27.2211 41.7284 27.1091 41.8919 27.0579 42.0779C27.0067 42.2639 27.0193 42.4617 27.0937 42.6397L27.2119 42.8997L27.2119 42.8984ZM34.1858 45.4757C34.3612 45.4682 34.5577 45.4657 34.7704 45.4657C34.7704 45.4657 35.2779 43.9793 35.3065 43.9321C34.9296 43.7562 34.5618 43.5615 34.2045 43.3486C34.355 43.575 34.7207 43.8325 34.6485 44.0316L34.1858 45.4757ZM34.4881 28.1349C33.7343 28.8837 33.0116 29.161 32.3661 29.2258C32.2479 29.2386 32.1292 29.2452 32.0103 29.2457H31.9941C31.7567 29.2456 31.5198 29.2206 31.2876 29.171C31.2453 29.3389 31.1918 29.691 31.3448 30.0243C31.4816 30.3265 31.759 30.5517 32.1645 30.7022L32.3014 30.7557L32.3026 30.9024C32.3026 30.946 32.335 31.8988 33.3723 32.1637C33.5415 31.9896 33.6957 31.8316 33.8077 31.6985C33.5963 31.1998 33.7082 30.6898 34.0154 30.4398C34.003 30.4932 33.8662 31.7433 34.8674 32.2085L35.0329 32.2869L34.9831 32.4622C34.967 32.5157 34.6336 33.726 35.8463 34.1762L36.0603 34.2583L35.9645 34.4661C35.9433 34.5121 35.4682 35.6104 36.5876 36.2348H39.0144V34.3031C38.1512 34.1974 37.7867 33.5021 37.6921 33.0095C37.2904 32.9411 36.9807 32.7682 36.768 32.4859C36.258 31.8142 36.6958 31.1985 36.7021 31.1649C36.7008 31.1699 36.7021 31.8241 37.1051 32.2296C37.3053 32.4237 37.5417 32.5754 37.9012 32.609L38.0765 32.6252L38.0915 32.8055C38.0952 32.8441 38.191 33.7309 39.0144 33.8702L39.0132 29.9272C39.0132 29.3153 39.191 28.7008 39.405 28.1336H34.4878L34.4881 28.1349ZM27.9543 29.9422L27.8896 32.4523L28.1757 32.4971L28.8723 30.0877L28.5178 29.3464L27.9556 29.9422H27.9543ZM29.4643 39.2387C29.4452 39.2381 29.4264 39.2336 29.409 39.2255C29.3917 39.2174 29.3762 39.2058 29.3635 39.1915C29.3508 39.1771 29.3412 39.1604 29.3352 39.1422C29.3292 39.124 29.327 39.1048 29.3287 39.0857C29.3298 39.0669 29.3347 39.0484 29.343 39.0315C29.3513 39.0145 29.363 38.9994 29.3772 38.987C29.3915 38.9746 29.4081 38.9652 29.426 38.9593C29.444 38.9534 29.4629 38.9511 29.4817 38.9526C29.5638 38.9564 29.621 39.0273 29.6186 39.1044C29.6157 39.1426 29.5979 39.1781 29.569 39.2032C29.5401 39.2284 29.5025 39.2411 29.4643 39.2387ZM35.636 41.4615C35.6571 41.4615 35.682 41.464 35.7044 41.4702C36.1398 41.5946 36.248 43.1593 37.0079 43.2986C37.0826 43.3148 37.1522 43.3185 37.2119 43.3185C37.4321 43.3185 37.5627 43.2252 37.7045 43.0573C37.7045 43.0573 37.3214 42.4566 37.0353 42.0498C36.6559 41.5174 36.3611 40.8744 35.6534 40.8744C35.636 40.8744 35.6161 40.8744 35.5974 40.8769C35.4626 40.8823 35.3322 40.9263 35.2218 41.0037C34.9855 40.8475 34.7089 40.7632 34.4257 40.7612C33.9841 40.7612 33.6383 40.9652 33.4654 40.9652H33.4592L31.8795 40.8085C31.632 40.7836 31.4367 40.5348 31.3658 40.4378L31.3385 40.3955C31.3385 40.352 31.3385 40.3084 31.336 40.2699C31.2825 38.975 30.2824 38.4215 29.9254 38.4116C29.9254 38.4116 29.9677 38.1653 29.872 38.072L29.5237 38.4949L28.3793 37.9202L29.1953 38.8755L28.505 39.6529C28.4179 39.7412 28.4291 39.8607 28.4652 39.9116L28.7637 40.1753L29.1418 39.9452C29.1605 39.9316 29.1953 39.9266 29.2376 39.9266C29.3421 39.9266 29.4988 39.9539 29.6394 39.9539C29.7948 39.9539 29.9279 39.9216 29.9441 39.7761C29.8968 40.2562 29.4515 41.0908 29.7438 41.7463L29.9603 42.2414L28.5634 42.0399L27.9092 43.1457C27.7077 43.5139 27.6753 43.9119 27.8694 44.1283L28.1144 44.4356C28.1144 44.4356 28.4577 44.0711 28.5336 43.8311L28.4229 43.7091C28.3296 43.6059 28.3346 43.5139 28.3918 43.4032L28.8023 42.7215L30.4504 43.1108L30.5374 42.9616C30.6494 42.775 30.8111 42.7203 30.9877 42.7203C31.0611 42.7203 31.1357 42.729 31.2129 42.7414C31.5188 42.8024 32.0226 42.8832 32.5263 42.8832C33.0799 42.8832 33.6284 42.7837 33.9207 42.4566C34.5177 43.3434 35.7292 43.484 35.6335 43.9355L35.3151 45.4555C35.5265 45.4455 35.7293 45.4318 35.9221 45.4057L36.2256 43.8248C36.2502 43.6905 36.2717 43.5558 36.2902 43.4205C36.1733 43.3011 35.891 43.0511 35.7305 42.7464C35.5178 42.3347 35.6335 42.1195 35.4345 41.5846C35.4345 41.5846 35.4967 41.4603 35.636 41.4603L35.636 41.4615ZM50.2649 36.287C48.9837 35.6526 48.1752 33.9734 47.9787 33.3689C47.7672 36.6999 46.144 39.0107 44.2472 41.2348C43.262 42.389 42.9187 43.511 42.9187 43.511C42.9187 43.511 43.109 42.2398 43.9598 41.205C45.7298 39.0755 47.4115 36.4234 47.5371 33.356C47.623 31.2166 47.0745 29.4814 46.2162 28.0513C46.6963 29.5402 46.6279 31.3649 44.9997 33.0675C44.9997 33.0675 48.2424 29.1767 43.7098 25.1865C41.8963 23.669 39.9111 22.7311 38.8899 22.0669C42.5804 23.2734 44.3837 21.945 44.3837 21.945C43.2045 22.9686 41.6783 22.9512 40.7317 22.8032C40.9892 22.9288 41.2566 23.0607 41.5427 23.2137C44.6561 24.9078 47.4526 27.6952 47.9302 31.5536V31.5238C48.6529 35.3138 50.2649 36.2862 50.2649 36.2862L50.2649 36.287ZM51.2127 31.8712C51.2413 31.8737 51.2662 31.8737 51.2948 31.8737C53.03 31.8737 53.6171 30.0116 53.6171 30.0116H53.5835C53.2651 30.0116 50.6853 29.937 48.8616 27.6147C47.6625 26.0885 46.6787 24.7463 44.7356 24.2189L44.5441 24.1841L44.503 23.9888C44.4495 23.6916 44.6523 23.4129 45.115 23.1132C47.7955 21.3544 45.9732 19.1105 45.9732 19.1105C45.9732 19.1105 45.2095 20.9041 43.4967 20.9041L43.3686 20.9016C43.1745 20.8917 42.9867 20.8854 42.7977 20.8444L42.4817 20.7822C42.4817 20.7822 42.9705 19.4513 41.7914 18.2311C40.9045 17.3081 39.8236 17.1514 39.2004 17.1514C38.8857 17.1514 38.6867 17.1924 38.6867 17.1924C39.2788 17.9674 39.7067 19.2548 39.0226 20.0483C38.4318 20.73 36.9889 20.7636 36.9889 21.781C36.9889 22.2114 37.3907 22.7139 38.1121 23.1654C40.2813 24.5337 42.4344 26.3497 43.3298 28.7837C44.4493 31.8187 43.188 33.8337 41.3895 34.9892C41.3895 34.9892 41.9542 35.5092 42.7714 35.5763C42.938 35.5925 43.101 35.6 43.2527 35.6C44.9804 35.6 45.8735 34.7877 45.8735 34.7877C45.8735 34.7877 45.7255 35.9097 44.8287 36.9508C43.9978 37.911 42.9094 38.4782 41.2488 38.5018C41.2488 38.5018 41.1966 39.273 41.9317 39.9422C42.4031 40.3639 43.489 40.5019 43.489 40.5019C43.489 40.5019 41.4541 40.9137 41.229 43.925C41.1071 45.5569 40.6916 46.1229 40.6916 46.1229H40.7277C45.4495 46.1229 45.3287 42.0655 45.3287 42.0655C45.3287 42.0655 45.6571 43.267 46.9743 43.5805C47.1335 43.6227 47.3039 43.6389 47.4656 43.6389C47.8885 43.6389 48.2579 43.5394 48.2579 43.5394C48.2579 43.5394 47.5676 42.0816 48.2517 40.0429C48.8202 38.3501 48.7281 37.0963 48.7281 37.0963C48.7281 37.0963 49.3637 38.0603 50.9422 38.069H50.9583C51.3312 38.0748 51.6995 37.9864 52.0291 37.812C52.3587 37.6376 52.639 37.3829 52.844 37.0714C49.6959 35.7617 50.0068 31.5362 50.0068 31.5362C50.0068 31.5362 50.4148 31.8422 51.2121 31.872L51.2127 31.8712ZM19.7568 41.235C17.8599 39.011 16.2367 36.7 16.0228 33.3691C15.8275 33.9749 15.0202 35.6541 13.7403 36.2872C13.7403 36.2872 15.3499 35.3145 16.0725 31.5248V31.5547C16.5514 27.6963 19.3476 24.909 22.4609 23.2161C22.747 23.0606 23.0157 22.93 23.2707 22.8056C22.3254 22.9524 20.7979 22.9698 19.62 21.9473C19.62 21.9473 21.4236 23.2745 25.1125 22.068C24.0925 22.7322 22.1073 23.6701 20.2948 25.1876C15.7611 29.1778 19.0037 33.0686 19.0037 33.0686C17.3742 31.3646 17.307 29.5423 17.7872 28.0525C16.9289 29.4829 16.3791 31.2181 16.4687 33.359C16.5918 36.425 18.2722 39.0766 20.0386 41.2079C20.8943 42.2403 21.0871 43.5115 21.0871 43.5115C21.0871 43.5115 20.7388 42.3908 19.7562 41.2365L19.7568 41.235ZM20.5156 40.5011C20.5156 40.5011 21.6015 40.3643 22.0729 39.9414C22.8067 39.2735 22.7558 38.5023 22.7558 38.5023C21.094 38.4787 20.0068 37.9115 19.1722 36.9512C18.2791 35.9101 18.1298 34.7882 18.1298 34.7882C18.1298 34.7882 19.0229 35.6004 20.7482 35.6004C20.9036 35.6004 21.0653 35.593 21.2308 35.5768C21.7413 35.5251 22.2242 35.3205 22.6164 34.9897C20.8153 33.8342 19.5541 31.8191 20.6723 28.7828C21.5679 26.3511 23.7197 24.5339 25.8918 23.1646C26.612 22.7143 27.0126 22.2118 27.0126 21.7814C27.0126 20.7639 25.5722 20.7304 24.9814 20.0487C24.2973 19.2551 24.7264 17.9678 25.3172 17.1928C25.3172 17.1928 25.1194 17.1518 24.8035 17.1518C24.1816 17.1518 23.1007 17.3085 22.2126 18.2314C21.0309 19.4529 21.5222 20.7838 21.5222 20.7838L21.2063 20.846C21.0185 20.8846 20.8281 20.892 20.6341 20.9032L20.5097 20.9045C18.7932 20.9045 18.0307 19.1121 18.0307 19.1121C18.0307 19.1121 16.211 21.3548 18.8914 23.1135C19.3516 23.4133 19.5544 23.6932 19.5009 23.9892L19.4598 24.1832L19.2645 24.2181C17.3254 24.7467 16.3415 26.0888 15.1401 27.615C13.3166 29.9373 10.7395 30.0119 10.4196 30.0119H10.3848C10.3848 30.0119 10.9731 31.874 12.7095 31.874C12.7369 31.874 12.7618 31.874 12.7916 31.8715C13.5889 31.8429 13.9982 31.5369 13.9982 31.5369C13.9982 31.5369 14.3066 35.7621 11.1597 37.0722C11.1597 37.0722 11.7331 38.071 13.0467 38.071H13.0616C14.6413 38.061 15.2757 37.097 15.2757 37.097C15.2757 37.097 15.1836 38.3521 15.7495 40.0437C16.4336 42.0836 15.747 43.5389 15.747 43.5389C15.747 43.5389 16.114 43.6384 16.5381 43.6384C16.7023 43.6384 16.8702 43.6235 17.0282 43.5812C18.3442 43.2678 18.6738 42.0662 18.6738 42.0662C18.6738 42.0662 18.5531 46.1236 23.2757 46.1236H23.3105C23.3105 46.1236 22.8963 45.5577 22.7757 43.9258C22.5518 40.9157 20.5143 40.5014 20.5143 40.5014L20.5156 40.5011ZM30.9355 25.5498H33.162V26.3148C32.9008 25.9939 32.3908 26.0598 32.3908 26.0598V27.1631C32.3908 27.1631 32.4082 27.7054 32.5997 27.9405H31.4977C31.6905 27.7054 31.7066 27.1631 31.7066 27.1631V26.0598C31.7066 26.0598 31.1991 25.9939 30.9354 26.3148L30.9355 25.5498ZM28.51 25.6643C28.5871 25.7476 28.6629 25.8384 28.7363 25.9292C28.7538 25.9503 28.7699 25.969 28.7873 25.9939C28.8557 26.0834 28.9242 26.1805 28.9901 26.2775L29.0349 26.3434C29.1132 26.4628 29.1879 26.5859 29.2625 26.7141C29.9441 27.892 31.0337 28.596 32.0002 28.5973C32.9692 28.596 34.0575 27.892 34.7404 26.7141C34.8163 26.5835 34.8922 26.4566 34.9718 26.3372C35.0626 26.1981 35.1597 26.0632 35.2628 25.9329C35.3387 25.8384 35.4171 25.7464 35.4967 25.6618C35.5104 25.6493 35.5216 25.6356 35.5352 25.6245C35.8835 25.2687 36.2952 24.9976 36.8375 24.8471L36.5962 24.7065H36.5838L35.6235 24.1492L34.6397 23.5833L32.0077 25.0187L32.0002 25.0125L31.9965 25.0187L29.3645 23.5833L28.3794 24.1492L27.4191 24.7065H27.4079L27.1654 24.8471C27.7065 24.9963 28.1194 25.265 28.4677 25.622C28.4826 25.6344 28.4925 25.6518 28.51 25.6643ZM32.0002 16.6937C30.3708 16.695 29.148 17.2298 28.8818 17.8605L32.0002 19.0919L35.1198 17.8605C34.8561 17.2298 33.6333 16.695 32.0002 16.6937ZM32.0338 49.331H31.9716C30.984 49.3372 29.6219 49.1345 28.9677 48.9417L28.1791 51.0799C28.699 51.2652 30.4603 51.621 32.0039 51.621C33.545 51.621 35.3076 51.2652 35.8263 51.0799L35.0389 48.9429C34.3809 49.1345 33.0214 49.3372 32.0338 49.331ZM38.0003 47.204C37.4132 47.5373 36.1034 48.0374 35.3409 48.2687L35.9803 50.035C37.1594 49.7116 38.1334 49.3347 38.9369 48.9304L37.6085 48.4888L38.0003 47.204ZM26.0035 47.204L26.3965 48.4889L25.0669 48.9305C25.8691 49.3347 26.8468 49.7116 28.0222 50.0338L28.6628 48.2676C27.9016 48.0362 26.5893 47.5374 26.0035 47.204ZM31.9999 14.6501C33.2301 14.6501 34.4341 14.9449 35.362 15.4611C35.4466 15.1775 35.5647 14.8317 35.7252 14.4698L35.3744 14.5121L35.0075 14.5494L34.852 14.2148L34.3818 13.2234L33.5286 13.6688L33.1952 13.8379L32.929 13.5767L31.9999 12.6562L31.0732 13.5767L30.8083 13.8379L30.4762 13.6688L29.6179 13.2234L29.154 14.2148L28.996 14.5506L28.6278 14.5121L28.2795 14.4698C28.44 14.8317 28.5569 15.1776 28.6427 15.4611C29.5732 14.9449 30.7772 14.6501 32.0011 14.6501H31.9999ZM50.7633 26.1149C50.9237 26.1696 51.0854 26.1945 51.2459 26.1945C51.9425 26.1945 52.6142 25.743 52.8443 25.228C52.8443 25.228 51.5693 25.1509 50.1986 23.7565C49.7632 23.3062 49.3005 23.1707 48.905 23.1707C48.2893 23.1707 47.8266 23.4953 47.8266 23.4953C49.4834 24.3784 49.8205 25.7965 50.7633 26.1149ZM12.7575 26.1933C12.9192 26.1933 13.0809 26.1696 13.2364 26.1137C14.1817 25.7952 14.5225 24.3785 16.1756 23.4966C16.1756 23.4966 15.7129 23.1707 15.1009 23.1707C14.7029 23.1707 14.2414 23.305 13.8036 23.7578C12.4341 25.1509 11.1603 25.2293 11.1603 25.2293C11.3892 25.743 12.0621 26.1945 12.7575 26.1945L12.7575 26.1933ZM31.1628 20.687V21.4084L31.0247 21.3437C31.0185 21.3387 30.8145 21.294 30.4625 21.0129C29.8791 20.5601 29.868 20.1422 29.868 20.1422L31.1616 20.687L31.1628 20.687ZM31.7723 24.0665V19.5859L28.9264 18.6182L29.6776 22.9594L31.7735 24.0664L31.7723 24.0665ZM32.842 20.687L34.1356 20.1421C34.1356 20.1421 34.1256 20.5601 33.5398 21.0128C33.1878 21.2927 32.985 21.3387 32.9788 21.3437L32.842 21.4071L32.842 20.687ZM34.3259 22.9608L35.0734 18.6196L32.2287 19.5861V24.0667L34.3259 22.9596L34.3259 22.9608ZM27.7471 34.4527C28.0245 34.5523 28.3603 34.5734 28.5332 34.5734C28.5394 34.5523 28.5494 34.5261 28.5581 34.4938C28.5718 34.444 28.5867 34.3918 28.5979 34.3371C28.6464 34.0883 28.6626 33.8084 28.6675 33.6268C28.5085 33.5323 28.3788 33.3953 28.2931 33.2313C28.1874 33.0086 28.0369 32.9042 27.8168 32.9042C27.5307 32.9042 27.2234 33.0783 27.0904 33.1579C26.9859 33.7773 27.4424 34.3396 27.7471 34.4515L27.7471 34.4527ZM34.0432 32.0757C33.5158 32.6516 32.4796 33.6554 32.4299 33.7051L32.3677 33.7673L29.0964 33.7163C29.0936 33.987 29.0586 34.2563 28.9919 34.5186L28.9658 34.6219L32.8553 35.3234C33.2595 35.0398 34.3727 34.2251 34.8056 33.9054C34.4909 33.4452 34.4611 32.8992 34.532 32.5161C34.3452 32.3981 34.18 32.2492 34.0432 32.0757Z" fill="#FFFFFE"/>
<path d="M39.0132 36.6621H24.9886V41.9472C24.9886 44.109 26.5496 45.461 28.8545 45.461C30.7787 45.461 31.2861 45.5357 32.0014 46.2484C32.4952 45.7546 32.9032 45.5717 33.7428 45.5021L33.7614 45.4212L34.203 44.0518C34.1781 44.0207 33.4567 43.1985 33.4567 43.1985C33.1706 43.2943 32.9293 43.3104 32.5238 43.3104C32.1096 43.3104 31.6407 43.2607 31.1319 43.1662C31.0843 43.1548 31.0354 43.149 30.9864 43.1487C30.9242 43.1487 30.9205 43.1537 30.9031 43.1848L30.816 43.3303L30.6543 43.5965L30.352 43.5256L29.0062 43.2084L28.8208 43.5132L28.8495 43.5468L29.0124 43.7271L28.9403 43.9635C28.8407 44.2707 28.5198 44.6302 28.4216 44.7297L28.0857 45.0904L27.7785 44.7035L27.5484 44.4137C27.3058 44.1426 27.2499 43.7271 27.3867 43.2918C27.3827 43.2947 27.3779 43.2964 27.373 43.2968L26.9936 43.4547L26.8232 43.0816L26.7026 42.8191C26.5867 42.5506 26.5659 42.2506 26.6435 41.9687C26.721 41.6867 26.8924 41.4396 27.1292 41.2681L28.2114 40.6549L29.2438 40.8576C29.2687 40.7581 29.306 40.4048 29.3346 40.314C29.3147 40.3115 29.296 40.3078 29.2761 40.3078L28.6816 40.5292L28.1094 40.1337C28.1094 40.1337 27.8855 39.9172 28.0883 39.7008L28.6418 38.8587L27.2362 37.0925L29.3968 37.9805L29.5411 37.8027L29.8321 37.4519L30.163 37.7678C30.25 37.8529 30.3105 37.9613 30.3371 38.08C30.9317 38.3126 31.9989 38.998 32.0935 40.1125L31.7601 40.2456V40.2543C31.836 40.3451 31.8994 40.3824 31.9193 40.3861L33.4617 40.5379C33.5015 40.5304 33.5488 40.513 33.6035 40.4981C33.7963 40.4321 34.0836 40.3364 34.4245 40.3364C34.7031 40.3364 34.9718 40.401 35.2293 40.5229C35.325 40.4856 35.4407 40.4595 35.5775 40.4508L35.6522 40.4483C36.4768 40.4483 36.8873 41.0665 37.2169 41.5603C37.2716 41.6461 37.3264 41.7257 37.3836 41.8053C37.6722 42.2133 38.049 42.8091 38.064 42.8352L38.2344 43.1002L38.0254 43.3439C37.8662 43.5305 37.6237 43.7482 37.2107 43.7482C37.1171 43.7474 37.0238 43.7378 36.9321 43.7196C36.8475 43.7034 36.7649 43.6779 36.6858 43.6437C36.6731 43.7315 36.6586 43.819 36.6423 43.9062L36.3723 45.3204C37.9894 44.9224 39.0168 43.6984 39.0168 41.9471L39.0132 36.6621ZM24.9886 36.2367H35.8973C35.3524 35.6719 35.3612 34.9593 35.4992 34.4953C35.3521 34.4246 35.2152 34.3342 35.0925 34.2266C34.6658 34.5413 33.3648 35.4903 33.0252 35.7291L32.9518 35.7789L28.6705 35.0027H28.5834C28.4814 35.0027 28.3309 34.999 28.1667 34.9779C28.1491 35.0565 28.1091 35.1283 28.0516 35.1847C27.994 35.2411 27.9214 35.2795 27.8424 35.2954C27.7634 35.3114 27.6816 35.3041 27.6067 35.2744C27.5318 35.2448 27.4671 35.194 27.4204 35.1284C27.3876 35.0835 27.3641 35.0326 27.3513 34.9786C27.3385 34.9245 27.3366 34.8685 27.3458 34.8137L27.3619 34.7204C26.9216 34.4094 26.5124 33.7129 26.694 32.979L26.7114 32.9019L26.7736 32.8571C26.8363 32.8143 26.9011 32.7744 26.9676 32.7377L26.6566 32.6879C26.6014 32.6785 26.5521 32.6478 26.5191 32.6025C26.4861 32.5572 26.4721 32.5008 26.48 32.4454C26.4999 32.3285 26.6081 32.2464 26.7238 32.2675L27.4639 32.3844L27.5323 29.7711L28.6344 28.6019L29.3235 30.0534L28.5971 32.5685L29.2514 32.6718C29.3072 32.6809 29.3572 32.7119 29.3903 32.7578C29.4234 32.8037 29.437 32.8609 29.428 32.9168C29.42 32.9663 29.3945 33.0114 29.3562 33.0438C29.3178 33.0762 29.2692 33.0938 29.219 33.0934L29.1854 33.0922L28.6518 33.0051C28.6592 33.0225 28.6692 33.0312 28.6767 33.0486C28.7361 33.1516 28.8254 33.2341 28.9329 33.285L32.1955 33.3385C32.3336 33.2029 32.6756 32.8671 33.0289 32.5113C32.7214 32.3984 32.4515 32.2021 32.2494 31.9444C32.0472 31.6867 31.9209 31.3777 31.8846 31.0522C31.4368 30.8607 31.1258 30.5746 30.9542 30.2015C30.7452 29.7388 30.8198 29.2761 30.8758 29.0509C30.4404 28.893 29.9827 28.6019 29.515 28.1367H24.5996C24.8111 28.7039 24.9889 29.3184 24.9889 29.9291V36.2354L24.9886 36.2367Z" fill="#FFE52B"/>
<path d="M32.002 19.0947L28.8836 17.8607C29.1486 17.2314 30.3713 16.6965 32.002 16.6953C33.6339 16.6965 34.8566 17.2314 35.1215 17.8607L32.002 19.0947ZM34.3267 22.9618L32.2308 24.0688V19.586L35.0755 18.6183L34.3268 22.9595L34.3267 22.9618ZM35.6253 24.1509L36.5831 24.7082H36.5968L36.8381 24.8487C36.297 24.998 35.8828 25.2704 35.5358 25.6261L35.4985 25.6634C35.4166 25.7508 35.3382 25.8412 35.2634 25.9346L35.2199 25.9918C35.1452 26.0876 35.0743 26.1859 35.0084 26.2878L34.9723 26.3388C34.8917 26.462 34.8149 26.5877 34.7422 26.7157C34.0581 27.8937 32.9697 28.5977 32.002 28.6002C31.0343 28.5977 29.9447 27.8937 29.263 26.7157C29.1906 26.5901 29.1147 26.4665 29.0354 26.3451L28.9906 26.2791C28.9256 26.1831 28.8584 26.0885 28.7891 25.9955C28.7717 25.9707 28.7556 25.952 28.7381 25.9309C28.6651 25.8401 28.5892 25.7518 28.5105 25.6659C28.4943 25.6535 28.4831 25.6373 28.4682 25.6236C28.1128 25.2515 27.6625 24.9835 27.1659 24.8487L27.4097 24.7082H27.4197L28.3812 24.1509L29.365 23.5849L31.997 25.0203L32.002 25.0154L32.0095 25.0203L34.6402 23.5849L35.6253 24.1509ZM39.4066 28.1362C39.1914 28.7034 39.0136 29.3179 39.0136 29.9286L39.0161 33.8716C38.1938 33.7347 38.0956 32.8467 38.0931 32.8081L38.0782 32.6277L37.9003 32.6116C37.5987 32.585 37.3168 32.4502 37.1067 32.2322C36.7025 31.8279 36.7025 31.1737 36.7025 31.1675C36.6975 31.201 36.2596 31.8143 36.7671 32.4859C36.9811 32.7695 37.292 32.9449 37.6926 33.0133C37.7871 33.5046 38.1527 34.1999 39.016 34.3069V36.2349H36.5893C35.4698 35.6118 35.9437 34.5147 35.9661 34.4674L36.0607 34.2585L35.8467 34.1776C34.634 33.7273 34.9686 32.5158 34.9848 32.4636L35.0345 32.287L34.8679 32.2099C33.8678 31.7447 34.0034 30.4934 34.0171 30.4411C33.7086 30.6911 33.5979 31.1999 33.8094 31.7012C33.6949 31.833 33.5407 31.991 33.3728 32.1651C33.0806 32.1013 32.8175 31.9431 32.6242 31.7149C32.4309 31.4867 32.318 31.2013 32.303 30.9026L32.3018 30.7558L32.165 30.7036C31.7607 30.5543 31.4833 30.3279 31.3452 30.0256C31.1923 29.6911 31.2457 29.3415 31.288 29.1711C31.5205 29.2193 31.7572 29.2443 31.9946 29.2458H32.0107C32.1314 29.2458 32.2496 29.2383 32.3665 29.2271C33.0133 29.1624 33.7347 28.885 34.4885 28.1362L39.4066 28.1362ZM36.3741 45.32L36.6452 43.9058L36.6888 43.6446C36.8561 43.7101 37.0339 43.7451 37.2137 43.7478C37.6266 43.7478 37.8679 43.5289 38.0284 43.3435L38.2349 43.101L38.0657 42.8348C38.0508 42.8087 37.6739 42.2129 37.3853 41.8049C37.328 41.7243 37.2728 41.6422 37.2199 41.5586C36.8903 41.066 36.4786 40.4479 35.6526 40.4479L35.5792 40.4504C35.4603 40.4568 35.343 40.4806 35.231 40.5213C34.9796 40.4011 34.7048 40.3382 34.4262 40.3372C34.146 40.3439 33.8688 40.3977 33.6065 40.4964C33.5517 40.5125 33.502 40.53 33.4634 40.5374L31.9211 40.3857C31.9012 40.3807 31.839 40.3434 31.7619 40.2538V40.2451L32.0952 40.112C32.0019 38.9976 30.9335 38.3122 30.3389 38.0796C30.3125 37.9604 30.252 37.8515 30.1647 37.7662L29.8339 37.4515L29.5428 37.801L29.3998 37.9801L27.238 37.0908L28.6435 38.8582L28.09 39.7003C27.886 39.9155 28.1111 40.1332 28.1111 40.1332L28.6833 40.5288L29.2778 40.3061C29.2977 40.3061 29.3152 40.3111 29.3363 40.3136C29.3077 40.4044 29.2704 40.7589 29.2455 40.8572L28.2143 40.6544L27.1322 41.2676C26.5737 41.6781 26.4978 42.3547 26.7055 42.8187L26.8249 43.0824L26.9953 43.4543L27.3747 43.2976C27.3809 43.2951 27.3859 43.2938 27.3896 43.2901C27.2528 43.7267 27.3088 44.1409 27.5513 44.4133L27.7815 44.7031L28.0874 45.0912L28.4233 44.7292C28.5228 44.6297 28.8437 44.2702 28.942 43.9618L29.0141 43.7267L28.8512 43.5463L28.8238 43.5127L29.0079 43.208L30.3538 43.5264L30.6573 43.5961L30.819 43.3287L30.906 43.1844C30.9222 43.1533 30.9259 43.1483 30.9881 43.1483C31.0366 43.1483 31.0839 43.1533 31.1349 43.1657C31.5939 43.2563 32.0602 43.3042 32.528 43.3088C32.9298 43.3088 33.1723 43.2938 33.4584 43.1981C33.4584 43.1981 34.1811 44.019 34.2059 44.0513L33.7631 45.4196L33.7432 45.5017C32.9061 45.5701 32.4981 45.7542 32.0043 46.248C31.2879 45.5365 30.7816 45.4606 28.8574 45.4606C26.5526 45.4606 24.9903 44.1086 24.9903 41.9455V36.6618H39.0158L39.0183 41.9455C39.0183 43.6981 37.9911 44.9207 36.3741 45.32ZM27.7353 42.3323L27.8087 42.5151C27.759 42.6743 27.2117 42.9007 27.2117 42.9007L27.0948 42.6407C27.0201 42.4626 27.0073 42.2645 27.0585 42.0783C27.1097 41.892 27.2219 41.7283 27.3771 41.6133L28.264 41.0723L29.2056 41.2713C29.1869 41.571 29.366 41.7949 29.366 41.7949L28.3809 41.6058L27.7901 42.0138C27.6906 42.0835 27.6831 42.2129 27.7353 42.3323ZM36.2247 43.8249L35.9224 45.4058C35.7284 45.4332 35.5244 45.4481 35.3154 45.4556L35.6339 43.9381C35.7284 43.4853 34.5194 43.3448 33.921 42.4579C33.6287 42.7863 33.0802 42.8846 32.528 42.8846C32.0229 42.8846 31.5204 42.8037 31.2132 42.7428C31.1392 42.7299 31.0644 42.7228 30.9893 42.7216C30.8114 42.7216 30.651 42.7764 30.539 42.9642L30.452 43.1134L28.8026 42.7241L28.3921 43.4045C28.3349 43.5152 28.3299 43.6073 28.4232 43.7105L28.5352 43.8324C28.4581 44.0725 28.1148 44.4369 28.1148 44.4369L27.8697 44.1297C27.6757 43.9133 27.708 43.5152 27.9095 43.147L28.5638 42.04L29.9606 42.2427L29.7442 41.7465C29.4519 41.091 29.8972 40.2576 29.9445 39.7775C29.9283 39.923 29.7952 39.9553 29.641 39.9553C29.4992 39.9553 29.3424 39.9292 29.2379 39.9292C29.1969 39.9292 29.1608 39.933 29.1422 39.9466L28.764 40.1767L28.4655 39.913C28.4294 39.8633 28.4183 39.7426 28.5053 39.6531L29.1969 38.8769L28.3809 37.9216L29.5228 38.4975L29.8723 38.0734C29.9681 38.1679 29.9258 38.413 29.9258 38.413C30.2828 38.4229 31.2841 38.9764 31.3363 40.27C31.3401 40.3098 31.3401 40.3534 31.3401 40.3969L31.3662 40.4392C31.4371 40.5375 31.6324 40.7875 31.8799 40.8099L33.4596 40.9666H33.4658C33.6399 40.9666 33.9845 40.7626 34.426 40.7626C34.6686 40.7626 34.936 40.8248 35.2221 41.0051C35.2221 41.0051 35.3664 40.8907 35.599 40.8783C35.6164 40.8758 35.6363 40.8758 35.6525 40.8758C36.3615 40.8758 36.6563 41.5176 37.0369 42.0512C37.323 42.4567 37.7049 43.0587 37.7049 43.0587C37.5643 43.2266 37.4325 43.3199 37.2123 43.3199C37.1438 43.3202 37.0755 43.3135 37.0083 43.3C36.2495 43.1595 36.1388 41.596 35.706 41.4716C35.6833 41.4656 35.6598 41.4627 35.6363 41.4629C35.497 41.4629 35.4361 41.5873 35.4361 41.5873C35.6351 42.1209 35.5182 42.336 35.7321 42.7478C35.8913 43.0525 36.1737 43.3026 36.2906 43.4219C36.2906 43.4219 36.2595 43.6533 36.2247 43.8262L36.2247 43.8249ZM34.7706 45.4668C34.5592 45.4668 34.3626 45.4693 34.186 45.4767L34.6487 44.0326C34.7208 43.8323 34.3551 43.5749 34.2046 43.3485C34.4322 43.4928 35.0231 43.8087 35.3079 43.9331C35.1233 44.4424 34.9442 44.9536 34.7706 45.4668ZM27.8894 32.4536L27.9554 29.9435L28.5176 29.3477L28.8708 30.089L28.1742 32.4984L27.8882 32.4548L27.8894 32.4536ZM28.2937 33.2322C28.3791 33.3958 28.5083 33.5323 28.6668 33.6265C28.6625 33.8651 28.6396 34.103 28.5984 34.338C28.586 34.3928 28.5736 34.4438 28.5574 34.4948C28.5499 34.5271 28.54 34.5532 28.5338 34.5744C28.3609 34.5744 28.0238 34.5532 27.7489 34.4525C27.4429 34.3405 26.9864 33.7783 27.0921 33.1589C27.2239 33.078 27.5299 32.9051 27.8172 32.9051C28.0374 32.9051 28.188 33.0096 28.2937 33.2322ZM34.8065 33.9064C34.3749 34.2261 33.2604 35.0408 32.8561 35.3244L28.9654 34.6228L28.9928 34.5196C29.0425 34.3169 29.096 34.0407 29.0985 33.7161L32.3686 33.7683L32.4308 33.7061C32.4805 33.6564 33.5167 32.6526 34.0441 32.0767C34.1697 32.2347 34.3264 32.3839 34.5329 32.5158C34.4633 32.9014 34.4918 33.4462 34.8065 33.9064ZM29.5165 28.1365C29.9854 28.6017 30.4419 28.8916 30.8773 29.0508C30.8214 29.2747 30.7467 29.7399 30.9557 30.2013C31.1273 30.5745 31.4383 30.8605 31.8873 31.0521C31.9371 31.5123 32.2269 32.2051 33.0317 32.5111C32.6784 32.8669 32.3351 33.2027 32.1983 33.337L28.9344 33.286C28.8266 33.2345 28.7372 33.1511 28.6782 33.0472C28.672 33.0311 28.6608 33.0223 28.6533 33.0049L29.1869 33.092L29.2205 33.0933C29.2707 33.0936 29.3193 33.076 29.3577 33.0436C29.396 33.0112 29.4215 32.9662 29.4295 32.9166C29.4385 32.8609 29.4251 32.8039 29.3923 32.758C29.3594 32.7121 29.3098 32.681 29.2541 32.6716L28.5986 32.5671L29.325 30.0533L28.6371 28.6017L27.5338 29.7709L27.4666 32.3843L26.7253 32.2661C26.6109 32.2437 26.5014 32.3283 26.4803 32.444C26.472 32.5 26.486 32.557 26.5192 32.6028C26.5525 32.6486 26.6023 32.6795 26.6581 32.689L26.9691 32.7363C26.8572 32.7997 26.7838 32.8507 26.7751 32.8569L26.7129 32.9017L26.6955 32.9788C26.5151 33.7127 26.9231 34.4092 27.3634 34.7202L27.3473 34.8135C27.3298 34.9254 27.3547 35.0374 27.4219 35.1282C27.4601 35.1834 27.5113 35.2283 27.5709 35.2591C27.6306 35.2899 27.6968 35.3056 27.7639 35.3048C27.8582 35.304 27.9494 35.2714 28.0228 35.2123C28.0962 35.1531 28.1474 35.0709 28.1682 34.9789C28.3324 34.9976 28.4829 35.0026 28.5849 35.0026H28.6732L32.9534 35.7775L33.0268 35.729C33.3676 35.4901 34.6686 34.5411 35.094 34.2264C35.2122 34.3272 35.3428 34.4192 35.5008 34.4951C35.3627 34.959 35.354 35.6718 35.8988 36.2365H24.9901V29.9301C24.9901 29.3182 24.8123 28.7037 24.6008 28.1365L29.5165 28.1365ZM28.927 18.6211L31.7741 19.5875V24.0681L29.6782 22.9611L28.927 18.6199V18.6211ZM35.8724 18.08C35.8724 16.9866 34.0352 16.0027 32.0077 16.0027H31.9953C29.9678 16.0027 28.1319 16.9866 28.1319 18.08L28.1717 18.3486L28.9815 23.0045L28.168 23.4771L26.0647 24.7086H26.0722C26.0722 24.7086 25.5995 24.9523 25.3793 25.1016C24.5783 25.6589 24.4078 26.4723 24.8731 26.8082C24.9875 26.1452 25.5111 25.4524 26.4901 25.4524C27.1966 25.4524 27.7339 25.818 28.1693 26.3641C28.2812 26.5021 28.3869 26.6502 28.4852 26.8082C28.6071 27.0084 28.7302 27.185 28.8509 27.3542H23.4302C23.8283 28.1565 24.2076 29.006 24.2076 29.9289V41.9472C24.2076 44.8553 26.4403 46.2434 28.8559 46.2434C30.7229 46.2434 30.9742 46.1588 32.0041 47.1862C33.029 46.1588 33.2815 46.2434 35.1498 46.2434C37.5666 46.2434 39.7958 44.8553 39.7958 41.9472V29.9289C39.7958 29.006 40.1752 28.1565 40.5757 27.3542H35.1524C35.2743 27.185 35.3962 27.0084 35.5181 26.8082C35.6176 26.6502 35.7233 26.5022 35.8328 26.3641C36.2706 25.8155 36.8079 25.4524 37.5144 25.4524C38.4933 25.4524 39.0157 26.1452 39.1315 26.8082C39.5966 26.4723 39.4287 25.6588 38.6215 25.1016C38.4075 24.9523 37.9324 24.7086 37.9324 24.7086H37.9411L35.8328 23.4771L35.0242 23.0045L35.8328 18.3486L35.8724 18.08ZM13.8039 23.7593C14.2418 23.3078 14.7032 23.171 15.1013 23.171C15.7132 23.171 16.1772 23.4981 16.1772 23.4981C14.5229 24.3813 14.1821 25.7967 13.2368 26.1164C13.0828 26.1698 12.9208 26.1963 12.7579 26.1948C12.0625 26.1948 11.3896 25.7445 11.1608 25.2308C11.1608 25.2308 12.4344 25.1524 13.8039 23.7593ZM12.7578 26.762C12.9855 26.762 13.2081 26.7271 13.4196 26.655C14.0116 26.4585 14.3898 25.987 14.7878 25.4945C15.1946 24.9932 15.6523 24.4247 16.4459 24.0018L17.2618 23.5627L16.5031 23.0279C16.4409 22.9893 15.8724 22.605 15.1013 22.605C14.4694 22.605 13.8823 22.8624 13.3985 23.3575C12.2206 24.5628 11.1645 24.6598 11.1259 24.661L10.305 24.7095L10.6408 25.4646C10.9816 26.2171 11.8723 26.762 12.7578 26.762ZM16.4682 33.3591C16.3812 31.2184 16.9284 29.4833 17.7867 28.0526C17.3091 29.5427 17.3738 31.3662 19.0057 33.0705C19.0057 33.0705 15.7618 29.1773 20.2956 25.1895C22.1091 23.6708 24.0931 22.7329 25.1133 22.0687C21.424 23.2752 19.6217 21.9468 19.6217 21.9468C20.7997 22.9704 22.3259 22.9543 23.2724 22.805C23.0162 22.9306 22.7475 23.0612 22.4614 23.2167C19.3481 24.9096 16.5533 27.6973 16.073 31.5553V31.5267C15.3504 35.3155 13.7408 36.2883 13.7408 36.2883C15.022 35.6539 15.828 33.9747 16.0245 33.3701C16.2385 36.7012 17.8605 39.012 19.7561 41.2374C20.7412 42.3904 21.087 43.5111 21.087 43.5111C21.087 43.5111 20.8954 42.2412 20.0409 41.2075C18.2747 39.0768 16.5929 36.425 16.4686 33.3586L16.4682 33.3591ZM30.9353 25.5512V26.3174C31.1989 25.9952 31.7065 26.0611 31.7065 26.0611V27.1645C31.7065 27.1645 31.6903 27.7068 31.4975 27.9419H32.5995C32.408 27.7068 32.3893 27.1645 32.3893 27.1645V26.0611C32.3893 26.0611 32.8993 25.9952 33.1605 26.3174V25.5512H30.934H30.9353ZM30.4626 21.014C30.8146 21.2938 31.0186 21.3411 31.0248 21.3448L31.1617 21.4083V20.6881L29.8681 20.1432C29.8681 20.1432 29.8793 20.5612 30.4626 21.014ZM33.5399 21.014C34.1245 20.5612 34.1369 20.1433 34.1369 20.1433L32.8421 20.6881V21.4095L32.9789 21.3448C32.9851 21.3411 33.1879 21.2938 33.5399 21.014ZM48.9055 23.172C49.3011 23.172 49.7638 23.3076 50.1991 23.7591C51.5699 25.1522 52.8448 25.2306 52.8448 25.2306C52.6134 25.7443 51.9418 26.1959 51.2464 26.1959C51.086 26.1959 50.923 26.171 50.765 26.115C49.8209 25.7966 49.4839 24.3798 47.8283 23.4979C47.8283 23.4979 48.2885 23.172 48.9055 23.172ZM47.5584 24.0004C48.3507 24.4233 48.8134 24.9918 49.2189 25.4943C49.617 25.9856 49.9938 26.4583 50.5872 26.6548C50.7962 26.727 51.0188 26.7618 51.2464 26.7618C52.1332 26.7618 53.0251 26.217 53.3634 25.4632L53.703 24.7095L52.8808 24.6597C52.8423 24.6597 51.7837 24.5614 50.607 23.3574C50.122 22.8623 49.5361 22.6036 48.9054 22.6036C48.1342 22.6036 47.5621 22.9892 47.4999 23.029L46.7436 23.5627L47.5584 24.0004ZM47.9303 31.5269V31.5555C47.4527 27.6971 44.6565 24.9107 41.5428 23.2169C41.2567 23.0627 40.9893 22.9309 40.7318 22.8065C41.6784 22.9532 43.2046 22.9707 44.3837 21.9482C44.3837 21.9482 42.5802 23.2754 38.8899 22.0689C39.9099 22.7331 41.8964 23.6709 43.7099 25.1885C48.2413 29.1787 44.9998 33.0695 44.9998 33.0695C46.6292 31.3667 46.6964 29.5432 46.2163 28.0533C47.0745 29.4837 47.6218 31.2189 47.5372 33.3598C47.4129 36.4259 45.7299 39.0775 43.9599 41.2087C43.1091 42.2411 42.9201 43.5124 42.9201 43.5124C42.9201 43.5124 43.2634 42.3917 44.2472 41.2386C46.1441 39.0121 47.7674 36.7023 47.9788 33.3714C48.1753 33.9771 48.9838 35.6563 50.265 36.2895C50.265 36.2895 48.6541 35.3167 47.9303 31.5279L47.9303 31.5269ZM23.2771 46.1246C18.5543 46.1246 18.6752 42.0684 18.6752 42.0684C18.6752 42.0684 18.3443 43.27 17.0296 43.5822C16.869 43.6226 16.7039 43.6422 16.5383 43.6406C16.1154 43.6406 15.7472 43.5411 15.7472 43.5411C15.7472 43.5411 16.4351 42.0833 15.7497 40.0446C15.185 38.353 15.2771 37.098 15.2771 37.098C15.2771 37.098 14.6415 38.062 13.063 38.0719H13.0468C11.7345 38.0719 11.1611 37.0732 11.1611 37.0732C14.3081 35.7634 13.9996 31.5379 13.9996 31.5379C13.9996 31.5379 13.5891 31.8439 12.793 31.8737H12.7097C10.9732 31.8737 10.3849 30.0129 10.3849 30.0129H10.421C10.7419 30.0129 13.3179 29.9383 15.1402 27.616C16.3405 26.0898 17.3256 24.7477 19.2646 24.2203L19.4599 24.1854L19.5009 23.9901C19.5557 23.6941 19.3517 23.4142 18.8915 23.1145C16.211 21.3557 18.0308 19.1131 18.0308 19.1131C18.0308 19.1131 18.792 20.9054 20.5098 20.9054L20.6342 20.9042C20.8282 20.8942 21.0185 20.8855 21.2064 20.8457L21.5223 20.7848C21.5223 20.7848 21.0322 19.4538 22.2139 18.2324C23.102 17.3094 24.1804 17.1527 24.8036 17.1527C25.1208 17.1527 25.316 17.1938 25.316 17.1938C24.7265 17.9687 24.2986 19.2561 24.9802 20.0497C25.5723 20.7326 27.0139 20.7649 27.0139 21.7811C27.0139 22.2127 26.6121 22.7153 25.8919 23.1668C23.7214 24.535 21.5684 26.351 20.6724 28.785C19.5554 31.82 20.8167 33.8351 22.6165 34.9919C22.6165 34.9919 22.0505 35.5118 21.2321 35.5777C21.0717 35.5932 20.9106 35.601 20.7495 35.6013C19.023 35.6013 18.13 34.7904 18.13 34.7904C18.13 34.7904 18.2792 35.9111 19.1723 36.9534C20.0057 37.9136 21.094 38.4796 22.7546 38.5033C22.7546 38.5033 22.8081 39.2745 22.073 39.9436C21.6016 40.3665 20.5157 40.5033 20.5157 40.5033C20.5157 40.5033 22.5518 40.9163 22.7758 43.9264C22.8977 45.5583 23.3106 46.1243 23.3106 46.1243L23.2771 46.1246ZM23.7783 45.8012C23.7771 45.795 23.4475 45.2788 23.3417 43.8857C23.2174 42.2165 22.588 41.2413 21.9648 40.6816C22.1452 40.597 22.3131 40.4912 22.4524 40.3644C23.3666 39.5409 23.3281 38.5733 23.3219 38.4663L23.287 37.9439L22.7634 37.9364C21.3678 37.914 20.3938 37.4961 19.604 36.5781C19.4337 36.3794 19.2822 36.1653 19.1512 35.9388C19.5866 36.0719 20.119 36.1701 20.7496 36.1701C20.9175 36.1701 21.0941 36.1602 21.2795 36.1477C21.9143 36.0843 22.5146 35.8283 22.9997 35.4139L23.5433 34.9126L22.9239 34.5146C21.5358 33.6252 20.1166 31.9398 21.2074 28.9833C21.9127 27.0616 23.5433 25.3214 26.195 23.6518C27.0906 23.0859 27.5807 22.4179 27.5807 21.7811C27.5807 20.7972 26.7597 20.4091 26.1577 20.1317C25.8641 19.9912 25.5582 19.8519 25.4102 19.6789C24.9437 19.1378 25.3355 18.1017 25.7696 17.5395L26.3244 16.8118L25.4251 16.634C25.4003 16.6302 25.1639 16.5867 24.8032 16.5867C24.1327 16.5867 22.8503 16.7497 21.8055 17.8355C20.9336 18.7386 20.8191 19.7001 20.8639 20.3208C20.7793 20.3282 20.6948 20.3319 20.6052 20.3357H20.5094C19.1959 20.3357 18.5765 18.9426 18.5529 18.8891L18.1834 18.0184L17.5864 18.7522C17.5528 18.797 16.6783 19.8866 16.8923 21.2536C17.0328 22.1617 17.6025 22.9453 18.5802 23.5896C18.6872 23.658 18.7606 23.7165 18.814 23.765C16.9682 24.3657 15.9395 25.683 14.8524 27.0674L14.6957 27.2639C13.0339 29.3822 10.6816 29.4456 10.4006 29.4456L9.59961 29.4208L9.8434 30.1845C9.87201 30.2765 10.581 32.4446 12.7092 32.4446L12.8112 32.4408C13.0364 32.4346 13.2391 32.4035 13.4182 32.3687C13.3312 33.5503 12.8958 35.7358 10.9405 36.5481L10.3434 36.7969L10.6668 37.3603C10.6967 37.4113 11.4231 38.639 13.0675 38.639C13.656 38.6449 14.2373 38.5083 14.7616 38.241C14.825 38.7758 14.9569 39.4612 15.2131 40.2287C15.8077 42.0024 15.2542 43.2475 15.233 43.2972L14.9395 43.9167L15.6025 44.092C15.6472 44.1045 16.0552 44.2065 16.5378 44.2065C17.2018 44.2082 17.8444 43.9716 18.3489 43.5398C18.5292 44.0958 18.8389 44.7239 19.375 45.2799C20.288 46.219 21.6003 46.6929 23.3143 46.6929L24.3529 46.6792L23.7783 45.8012ZM29.4813 38.9539C29.4624 38.9524 29.4433 38.9547 29.4253 38.9606C29.4073 38.9666 29.3907 38.9762 29.3764 38.9887C29.3621 39.0012 29.3505 39.0165 29.3422 39.0336C29.334 39.0507 29.3293 39.0693 29.3283 39.0882C29.3268 39.1072 29.3291 39.1263 29.3352 39.1443C29.3413 39.1623 29.3509 39.179 29.3636 39.1931C29.3763 39.2073 29.3917 39.2188 29.4089 39.2269C29.4262 39.2349 29.4449 39.2394 29.4639 39.24C29.5019 39.2424 29.5394 39.2298 29.5682 39.2049C29.597 39.18 29.615 39.1448 29.6181 39.1069C29.6202 39.0685 29.6069 39.0308 29.5813 39.0022C29.5556 38.9735 29.5197 38.9561 29.4813 38.9539ZM35.9816 50.0365L35.3411 48.2703C36.1035 48.0377 37.4133 47.5376 38.0017 47.2055L37.6099 48.4904L38.937 48.932C38.1335 49.335 37.1608 49.7119 35.9817 50.0353L35.9816 50.0365ZM32.0038 51.6224C30.4602 51.6224 28.6989 51.2667 28.179 51.0813L28.9676 48.9444C29.6219 49.1359 30.9826 49.3387 31.9715 49.3325H32.0337C33.0213 49.3387 34.3809 49.1347 35.0389 48.9444L35.8262 51.0813C35.3063 51.2679 33.545 51.6224 32.0038 51.6224ZM25.0682 48.932L26.3967 48.4904L26.0036 47.2055C26.5894 47.5376 27.903 48.0389 28.663 48.2702L28.0224 50.0365C26.847 49.7131 25.8705 49.335 25.0682 48.932ZM38.997 48.5402L38.1884 48.2292L38.4123 47.3933L38.6574 46.4816C38.6574 46.4816 37.227 47.2603 35.2082 47.8437C34.636 48.0079 34.2032 48.0837 34.2032 48.0837V48.7044C34.2032 48.7044 33.1235 48.891 32.0339 48.891H31.9717C30.8796 48.891 29.8025 48.7044 29.8025 48.7044V48.0825C29.8025 48.0825 29.3684 48.0079 28.7962 47.8437C26.7799 47.2591 25.3494 46.4816 25.3494 46.4816L25.5908 47.3933L25.8196 48.2292L25.0086 48.5402L24.1094 48.876C25.1393 49.3748 26.5672 50.1 27.8732 50.4582L27.566 51.3015C27.566 51.3015 29.2228 52.0578 31.983 52.0653V52.0665H32.0204V52.0653C34.7842 52.0578 36.441 51.3015 36.441 51.3015L36.13 50.4582C37.4373 50.1 38.8677 49.376 39.8927 48.876L38.997 48.5402ZM28.6293 14.5119L28.9962 14.5517L29.1542 14.2159L29.6168 13.2246L30.4751 13.6699L30.8085 13.8403L32.0001 12.6561L32.9292 13.5766L33.1954 13.8403L33.5288 13.6699L34.382 13.2246L34.8522 14.2159L35.0077 14.5517L35.3746 14.5119L35.7254 14.4709C35.5649 14.8329 35.4468 15.1774 35.3609 15.4635C34.4343 14.9448 33.2302 14.6512 32.0013 14.6512C30.7773 14.6512 29.5733 14.9448 28.6429 15.4635C28.5426 15.1254 28.4213 14.7939 28.2797 14.4709L28.628 14.5119H28.6293ZM32.0001 15.1675C33.6457 15.1675 34.9604 15.7147 35.6881 16.2956C35.6881 16.2956 35.9045 14.9933 36.6409 13.8452L35.3162 13.9945L34.6234 12.5205L33.2925 13.2083L32.0001 11.9297L30.7127 13.2083L29.3793 12.5205L28.6877 13.9957L27.363 13.844C28.1006 14.9933 28.3158 16.2944 28.3158 16.2944C29.0472 15.7135 30.3582 15.1675 32.0001 15.1675ZM52.8448 37.0727C52.8448 37.0727 52.2726 38.0714 50.9591 38.0714H50.9429C49.3657 38.0615 48.7289 37.0975 48.7289 37.0975C48.7289 37.0975 48.8209 38.3513 48.2537 40.0441C47.5696 42.0841 48.2587 43.5394 48.2587 43.5394C48.2587 43.5394 47.8905 43.6401 47.4664 43.6401C47.3047 43.6401 47.1355 43.624 46.9751 43.5817C45.6578 43.2695 45.3295 42.0679 45.3295 42.0679C45.3295 42.0679 45.4514 46.1241 40.7285 46.1241H40.6912C40.6912 46.1241 41.1078 45.5581 41.231 43.9262C41.4549 40.9161 43.4898 40.5019 43.4898 40.5019C43.4898 40.5019 42.4039 40.3651 41.9325 39.9434C41.1974 39.2754 41.2484 38.503 41.2484 38.503C42.9102 38.4794 43.9998 37.9134 44.8295 36.952C45.3641 36.3368 45.7248 35.5901 45.8743 34.7889C45.8743 34.7889 44.9813 35.6011 43.2536 35.6011C43.1018 35.6011 42.9401 35.5937 42.7734 35.5775C41.955 35.5116 41.3903 34.9904 41.3903 34.9904C43.1889 33.8349 44.4502 31.8186 43.3319 28.7835C42.4363 26.3518 40.282 24.5346 38.1142 23.1662C37.3927 22.7146 36.9897 22.2121 36.9897 21.7805C36.9897 20.7643 38.4326 20.732 39.0246 20.0491C39.7087 19.2555 39.2796 17.9681 38.6876 17.1932C38.6876 17.1932 38.8866 17.1521 39.2013 17.1521C39.8256 17.1521 40.9053 17.3088 41.7935 18.2318C42.9714 19.4533 42.4826 20.7842 42.4826 20.7842L42.7985 20.8464C42.9876 20.8849 43.1754 20.8936 43.3707 20.9036L43.4975 20.9048C45.2103 20.9048 45.9753 19.1112 45.9753 19.1112C45.9753 19.1112 47.7963 21.3551 45.1158 23.1139C44.6544 23.4137 44.4503 23.6936 44.5038 23.9895L44.5461 24.1848L44.7364 24.2184C46.6793 24.7471 47.6632 26.0904 48.8637 27.6154C50.6872 29.9377 53.2671 30.0123 53.5842 30.0123H53.619C53.619 30.0123 53.0307 31.8744 51.2955 31.8744C51.2669 31.8744 51.242 31.8744 51.2134 31.8719C50.4173 31.8433 50.0069 31.5373 50.0069 31.5373C50.0069 31.5373 49.6972 35.7625 52.8453 37.0726L52.8448 37.0727ZM51.295 32.444C53.422 32.444 54.1334 30.276 54.1633 30.1839L54.3996 29.419L53.6035 29.4438H53.6013C53.319 29.4438 50.973 29.3817 49.3099 27.2634L49.1519 27.0669C48.0648 25.6825 47.0337 24.3652 45.1903 23.7644C45.264 23.6999 45.3426 23.6413 45.4254 23.5891C46.403 22.9447 46.9727 22.1624 47.1145 21.2531C47.3247 19.8861 46.4528 18.7965 46.4155 18.7517L45.8234 18.0178L45.4527 18.8885C45.4278 18.942 44.8059 20.3351 43.4974 20.3351H43.4004C43.3108 20.3314 43.225 20.3277 43.1404 20.3202C43.1864 19.6983 43.0732 18.738 42.2026 17.835C41.1565 16.7491 39.8729 16.5862 39.2011 16.5862C38.8429 16.5862 38.6041 16.631 38.578 16.6334L37.6837 16.8113L38.2347 17.5389C38.6676 18.1012 39.0606 19.1373 38.5954 19.6784C38.4461 19.8525 38.1401 19.9906 37.8479 20.1312C37.2459 20.4086 36.4224 20.7966 36.4224 21.7805C36.4224 22.4174 36.9162 23.0853 37.8118 23.6513C40.4587 25.3193 42.0931 27.0607 42.7985 28.9828C43.8906 31.9382 42.4664 33.6248 41.082 34.5127L40.4626 34.912L41.0062 35.412C41.0795 35.4767 41.7425 36.0625 42.7239 36.1471C42.9105 36.1595 43.0884 36.1695 43.255 36.1695C43.8832 36.1695 44.4193 36.07 44.8547 35.9381C44.7245 36.1652 44.5729 36.3793 44.4019 36.5775C43.6119 37.4954 42.6393 37.9134 41.2399 37.9358L40.72 37.9432L40.6802 38.4656C40.6752 38.5714 40.6366 39.5403 41.5509 40.3637C41.6914 40.4906 41.8606 40.5963 42.0384 40.6809C41.4165 41.2407 40.7872 42.2158 40.6652 43.8851C40.562 45.2782 40.2299 45.7944 40.2261 45.8006L39.6515 46.6787L40.6901 46.6924C42.4053 46.6924 43.7189 46.2198 44.6281 45.2794C45.099 44.7855 45.4505 44.1902 45.6555 43.5393C46.1606 43.97 46.8028 44.2064 47.4666 44.206C47.9516 44.206 48.3571 44.1027 48.4019 44.0928L49.0649 43.9162L48.7726 43.2967C48.7502 43.247 48.1979 42.0031 48.7925 40.2281C49.0487 39.4607 49.1793 38.7741 49.2428 38.238C49.6607 38.4569 50.2192 38.636 50.9419 38.6385C52.5837 38.6385 53.3065 37.4108 53.3388 37.3599L53.6622 36.7951L53.0627 36.5489C51.1074 35.7354 50.6745 33.5512 50.5874 32.3694C50.7653 32.403 50.9668 32.4341 51.1944 32.4403L51.295 32.444Z" fill="black"/>
</svg>
