<svg width="64" height="64" viewBox="0 0 64 64" fill="none" xmlns="http://www.w3.org/2000/svg">
<rect width="64" height="64" rx="16" fill="white"/>
<path d="M37.9055 17.4414C29.8078 17.4414 23.3008 23.9921 23.3008 31.9986C23.3008 40.071 29.8719 46.5557 37.9036 46.5557C45.9352 46.5557 52.5122 40.005 52.5122 31.9986C52.5122 23.9921 45.9372 17.4414 37.9055 17.4414ZM37.9055 37.4245C34.9184 37.4245 32.4631 34.976 32.4631 31.9986C32.4631 29.0211 34.9184 26.5726 37.9055 26.5726C40.8926 26.5726 43.3489 29.0211 43.3489 31.9986C43.2819 34.976 40.8926 37.4245 37.9055 37.4245Z" fill="#8B3FFD"/>
<path d="M23.3009 21.6719V42.8458H18.1263L11.4883 21.6719H23.3009Z" fill="#8B3FFD"/>
</svg>
