<svg width="32" height="32" viewBox="0 0 32 32" fill="none" xmlns="http://www.w3.org/2000/svg">
<path fill-rule="evenodd" clip-rule="evenodd" d="M16 27.3465C17.6207 27.3465 18.2874 28.2198 19.1561 28.4139C20.0249 28.6081 20.7541 28.662 21.501 28.3329C22.98 27.6812 23.8816 26.9049 24.9756 25.7454C27.0031 23.5965 28 20.642 28 16.6854C28 12.7287 26.9331 10.684 25.2889 9.34646C23.6448 8.00899 22.6913 7.75273 20.7033 8.00899C18.7151 8.26519 17.6326 10.4013 16.0055 10.4013C14.3785 10.4013 12.3955 8.29506 10.6703 8.00899C8.94513 7.72286 8 8.00899 6.50645 9.34646C5.01289 10.684 4 12.7667 4 16.6854C4 20.6041 5.03437 23.5097 7.0618 25.6585C8.1558 26.818 9.02 27.6812 10.499 28.3329C11.2459 28.662 12.0178 28.6081 12.8563 28.4139C13.6948 28.2198 14.3615 27.3465 16 27.3465Z" stroke="#3C4EF2" stroke-width="2"/>
<path d="M16.0059 10.401C16.5291 5.24436 18.7519 2.66602 22.6743 2.66602C23.0339 3.75126 23.1268 4.80159 22.953 5.81702C22.8704 6.2994 22.6141 6.98728 22.1843 7.88062" stroke="#3C4EF2" stroke-width="2" stroke-linecap="round"/>
<path d="M9.48596 17.334C9.30156 18.2311 9.30156 19.1549 9.48596 20.1051C9.67029 21.0553 10.063 21.7885 10.6638 22.3048" stroke="#3C4EF2" stroke-width="2" stroke-linecap="round"/>
</svg>
