<svg width="102" height="103" viewBox="0 0 102 103" fill="none" xmlns="http://www.w3.org/2000/svg">
<path fill-rule="evenodd" clip-rule="evenodd" d="M0.793945 53.5325C0.793945 80.658 22.842 102.706 49.9674 102.706C77.0929 102.706 99.1409 80.658 99.1409 53.5325C99.1409 26.407 77.0929 4.35901 49.9674 4.35901C22.842 4.35901 0.793945 26.407 0.793945 53.5325ZM41.2656 69.0721C41.906 69.7125 42.7751 70.0784 43.6899 70.0784C44.6048 70.0784 45.4739 69.7125 46.1143 69.0721L72.0505 43.1359C73.377 41.8094 73.377 39.6138 72.0505 38.2872C70.7239 36.9607 68.5283 36.9607 67.2017 38.2872L43.6899 61.799L33.1691 51.2782C31.8426 49.9516 29.6469 49.9516 28.3204 51.2782C26.9938 52.6047 26.9938 54.8004 28.3204 56.1269L41.2656 69.0721Z" fill="#3BA87E"/>
<path d="M52.6192 98.0491C25.7993 98.0491 4.0043 76.362 4.0043 49.6879C4.0043 23.0138 25.7993 1.32668 52.6192 1.32668C79.4391 1.32668 101.234 23.0138 101.234 49.6879C101.234 76.362 79.4391 98.0491 52.6192 98.0491Z" stroke="#292D32" stroke-width="1.2"/>
</svg>
