<svg width="32" height="32" viewBox="0 0 32 32" fill="none" xmlns="http://www.w3.org/2000/svg">
<path d="M30.6673 30.334H1.33398C0.787318 30.334 0.333984 29.8807 0.333984 29.334C0.333984 28.7873 0.787318 28.334 1.33398 28.334H30.6673C31.214 28.334 31.6673 28.7873 31.6673 29.334C31.6673 29.8807 31.214 30.334 30.6673 30.334Z" fill="#3C4EF2"/>
<path d="M26.373 30.3471C25.8264 30.3471 25.373 29.8938 25.373 29.3471V23.4004C25.373 22.8537 25.8264 22.4004 26.373 22.4004C26.9197 22.4004 27.373 22.8537 27.373 23.4004V29.3471C27.373 29.8938 26.933 30.3471 26.373 30.3471Z" fill="#3C4EF2"/>
<path d="M26.4001 24.3992C24.2268 24.3992 22.4668 22.6392 22.4668 20.4658V17.4392C22.4668 15.2659 24.2268 13.5059 26.4001 13.5059C28.5735 13.5059 30.3335 15.2659 30.3335 17.4392V20.4658C30.3335 22.6392 28.5735 24.3992 26.4001 24.3992ZM26.4001 15.5192C25.3335 15.5192 24.4668 16.3859 24.4668 17.4526V20.4792C24.4668 21.5458 25.3335 22.4125 26.4001 22.4125C27.4668 22.4125 28.3335 21.5458 28.3335 20.4792V17.4526C28.3335 16.3859 27.4668 15.5192 26.4001 15.5192Z" fill="#3C4EF2"/>
<path d="M19.0671 30.3337C18.5204 30.3337 18.0671 29.8803 18.0671 29.3337V8.04036C18.0671 5.92036 17.1737 5.01367 15.0937 5.01367H6.78711C4.69378 5.01367 3.78711 5.92036 3.78711 8.04036V29.3337C3.78711 29.8803 3.33378 30.3337 2.78711 30.3337C2.24044 30.3337 1.78711 29.8803 1.78711 29.3337V8.04036C1.78711 4.80036 3.56044 3.01367 6.78711 3.01367H15.0937C18.3071 3.01367 20.0671 4.80036 20.0671 8.04036V29.3337C20.0671 29.8803 19.6137 30.3337 19.0671 30.3337Z" fill="#3C4EF2"/>
<path d="M14.3324 12H7.73242C7.18576 12 6.73242 11.5467 6.73242 11C6.73242 10.4533 7.18576 10 7.73242 10H14.3324C14.8791 10 15.3324 10.4533 15.3324 11C15.3324 11.5467 14.8791 12 14.3324 12Z" fill="#3C4EF2"/>
<path d="M14.3324 17H7.73242C7.18576 17 6.73242 16.5467 6.73242 16C6.73242 15.4533 7.18576 15 7.73242 15H14.3324C14.8791 15 15.3324 15.4533 15.3324 16C15.3324 16.5467 14.8791 17 14.3324 17Z" fill="#3C4EF2"/>
<path d="M11 30.334C10.4533 30.334 10 29.8807 10 29.334V24.334C10 23.7873 10.4533 23.334 11 23.334C11.5467 23.334 12 23.7873 12 24.334V29.334C12 29.8807 11.5467 30.334 11 30.334Z" fill="#3C4EF2"/>
</svg>
