<svg width="20" height="20" viewBox="0 0 20 20" fill="none" xmlns="http://www.w3.org/2000/svg">
<path d="M14.084 18.3327H5.91732C4.50066 18.3327 3.33398 17.1743 3.33398 15.7493V4.24935C3.33398 2.83269 4.49232 1.66602 5.91732 1.66602H14.084C15.5006 1.66602 16.6673 2.82435 16.6673 4.24935V15.7493C16.6673 17.1743 15.509 18.3327 14.084 18.3327Z" stroke="#292D32" stroke-width="1.5" stroke-linecap="round" stroke-linejoin="round"/>
<path d="M15.4173 10.8327H4.58398C3.89232 10.8327 3.33398 10.2743 3.33398 9.58268V7.91602C3.33398 7.22435 3.89232 6.66602 4.58398 6.66602H15.4173C16.109 6.66602 16.6673 7.22435 16.6673 7.91602V9.58268C16.6673 10.2743 16.109 10.8327 15.4173 10.8327Z" stroke="#292D32" stroke-width="1.5" stroke-linecap="round" stroke-linejoin="round"/>
<path d="M7.07811 14.7507H7.08559" stroke="#292D32" stroke-width="2.5" stroke-linecap="round" stroke-linejoin="round"/>
<path d="M12.9121 14.7507H12.9196" stroke="#292D32" stroke-width="2.5" stroke-linecap="round" stroke-linejoin="round"/>
<path d="M7.91602 4.16602H12.0827" stroke="#292D32" stroke-width="1.5" stroke-linecap="round" stroke-linejoin="round"/>
</svg>
