<svg width="32" height="32" viewBox="0 0 32 32" fill="none" xmlns="http://www.w3.org/2000/svg">
<path d="M26.6658 15.6668H5.33249C5.02582 15.6668 4.74582 15.5334 4.55916 15.2934C4.37249 15.0668 4.29249 14.7468 4.35916 14.4534L5.86582 7.25344C6.35916 4.9201 7.35916 2.77344 11.3192 2.77344H20.6925C24.6525 2.77344 25.6525 4.93344 26.1458 7.25344L27.6525 14.4668C27.7192 14.7601 27.6392 15.0668 27.4525 15.3068C27.2525 15.5334 26.9725 15.6668 26.6658 15.6668ZM6.55916 13.6668H25.4258L24.1725 7.66677C23.7992 5.9201 23.3592 4.77344 20.6792 4.77344H11.3192C8.63916 4.77344 8.19916 5.9201 7.82582 7.66677L6.55916 13.6668Z" fill="#3C4EF2"/>
<path d="M26.6128 30.3327H24.1061C21.9461 30.3327 21.5328 29.0927 21.2661 28.2793L20.9995 27.4793C20.6528 26.466 20.6128 26.3327 19.4128 26.3327H12.5861C11.3861 26.3327 11.3061 26.5593 10.9995 27.4793L10.7328 28.2793C10.4528 29.106 10.0528 30.3327 7.8928 30.3327H5.38613C4.3328 30.3327 3.31946 29.8927 2.6128 29.1193C1.91946 28.3593 1.58613 27.346 1.67946 26.3327L2.42613 18.2127C2.62613 16.0127 3.2128 13.666 7.4928 13.666H24.5061C28.7861 13.666 29.3595 16.0127 29.5728 18.2127L30.3195 26.3327C30.4128 27.346 30.0795 28.3593 29.3861 29.1193C28.6795 29.8927 27.6661 30.3327 26.6128 30.3327ZM12.5861 24.3327H19.4128C21.8395 24.3327 22.4128 25.4127 22.8928 26.826L23.1728 27.6527C23.3995 28.3327 23.3995 28.346 24.1195 28.346H26.6261C27.1195 28.346 27.5861 28.146 27.9195 27.786C28.2395 27.4393 28.3861 26.9993 28.3461 26.5327L27.5995 18.4127C27.4261 16.6127 27.2128 15.6793 24.5328 15.6793H7.4928C4.79946 15.6793 4.58613 16.6127 4.42613 18.4127L3.67946 26.5327C3.63946 26.9993 3.78613 27.4393 4.10613 27.786C4.42613 28.146 4.90613 28.346 5.39946 28.346H7.90613C8.62613 28.346 8.62613 28.3327 8.8528 27.666L9.11946 26.8527C9.4528 25.786 9.94613 24.3327 12.5861 24.3327Z" fill="#3C4EF2"/>
<path d="M5.33333 11.666H4C3.45333 11.666 3 11.2127 3 10.666C3 10.1193 3.45333 9.66602 4 9.66602H5.33333C5.88 9.66602 6.33333 10.1193 6.33333 10.666C6.33333 11.2127 5.88 11.666 5.33333 11.666Z" fill="#3C4EF2"/>
<path d="M27.9993 11.666H26.666C26.1193 11.666 25.666 11.2127 25.666 10.666C25.666 10.1193 26.1193 9.66602 26.666 9.66602H27.9993C28.546 9.66602 28.9993 10.1193 28.9993 10.666C28.9993 11.2127 28.546 11.666 27.9993 11.666Z" fill="#3C4EF2"/>
<path d="M16 7.66667C15.4533 7.66667 15 7.21333 15 6.66667V4C15 3.45333 15.4533 3 16 3C16.5467 3 17 3.45333 17 4V6.66667C17 7.21333 16.5467 7.66667 16 7.66667Z" fill="#3C4EF2"/>
<path d="M18 7.66602H14C13.4533 7.66602 13 7.21268 13 6.66602C13 6.11935 13.4533 5.66602 14 5.66602H18C18.5467 5.66602 19 6.11935 19 6.66602C19 7.21268 18.5467 7.66602 18 7.66602Z" fill="#3C4EF2"/>
<path d="M12 21H8C7.45333 21 7 20.5467 7 20C7 19.4533 7.45333 19 8 19H12C12.5467 19 13 19.4533 13 20C13 20.5467 12.5467 21 12 21Z" fill="#3C4EF2"/>
<path d="M24 21H20C19.4533 21 19 20.5467 19 20C19 19.4533 19.4533 19 20 19H24C24.5467 19 25 19.4533 25 20C25 20.5467 24.5467 21 24 21Z" fill="#3C4EF2"/>
</svg>
