<svg width="24" height="24" viewBox="0 0 24 24" fill="none" xmlns="http://www.w3.org/2000/svg">
<path d="M10.6975 21.7099L10.6975 21.7098L10.6936 21.7059L9.17356 20.1858C9.0437 20.056 8.86118 19.9631 8.72588 19.9073C8.59146 19.8517 8.39876 19.7894 8.22 19.7894H6.06C5.03617 19.7894 4.20999 18.9632 4.20999 17.9393V15.7794C4.20999 15.6006 4.14764 15.4079 4.09212 15.2735C4.03623 15.1382 3.9434 14.9557 3.81354 14.8259L2.29356 13.3058L1.94 13.6594L2.29356 13.3058C1.94577 12.9581 1.75 12.4946 1.75 11.9994C1.75 11.4993 1.93904 11.0396 2.28956 10.6968L2.28958 10.6968L2.29356 10.6929L3.81354 9.17285C3.81355 9.17285 3.81355 9.17285 3.81355 9.17285C3.9434 9.04299 4.03623 8.8605 4.09212 8.7252C4.14764 8.59079 4.20999 8.39809 4.20999 8.21933V6.05941C4.20999 5.03553 5.03617 4.20932 6.06 4.20932H8.22C8.39876 4.20932 8.59146 4.14697 8.72588 4.09145C8.86118 4.03557 9.0437 3.94273 9.17356 3.81287L9.17356 3.81287L10.6936 2.29285C11.3783 1.60811 12.6217 1.60811 13.3064 2.29285L14.8264 3.81287L15.1767 3.46256L14.8264 3.81287C14.9563 3.94273 15.1388 4.03557 15.2741 4.09145C15.4085 4.14697 15.6012 4.20932 15.78 4.20932H17.94C18.9638 4.20932 19.79 5.03553 19.79 6.05941V8.21933C19.79 8.39809 19.8524 8.59079 19.9079 8.7252C19.9638 8.8605 20.0566 9.043 20.1865 9.17286L21.7064 10.6929L22.06 10.3393L21.7064 10.6929C22.0542 11.0407 22.25 11.5041 22.25 11.9994C22.25 12.4994 22.061 12.9592 21.7104 13.3019L21.7104 13.3019L21.7064 13.3058L20.1865 14.8259C20.0566 14.9557 19.9638 15.1382 19.9079 15.2735C19.8524 15.4079 19.79 15.6006 19.79 15.7794V17.9393C19.79 18.9632 18.9638 19.7894 17.94 19.7894H15.78C15.6012 19.7894 15.4085 19.8517 15.2741 19.9073C15.1388 19.9631 14.9563 20.056 14.8264 20.1858L13.3064 21.7059L13.3064 21.7058L13.3025 21.7099C12.9598 22.0604 12.5001 22.2494 12 22.2494C11.4999 22.2494 11.0402 22.0604 10.6975 21.7099ZM4.16643 14.4729L4.51999 14.1194L4.16644 14.4729C4.47312 14.7796 4.70999 15.3526 4.70999 15.7794V17.9393C4.70999 18.6854 5.31379 19.2894 6.06 19.2894H8.22C8.64678 19.2894 9.21979 19.5262 9.52645 19.8329L11.0464 21.3529L11.4 20.9994L11.0464 21.3529C11.5617 21.8682 12.4383 21.8682 12.9536 21.3529L12.6 20.9994L12.9536 21.3529L14.4736 19.8329C14.7802 19.5262 15.3532 19.2894 15.78 19.2894H17.94C18.6862 19.2894 19.29 18.6854 19.29 17.9393V15.7794C19.29 15.3526 19.5269 14.7796 19.8336 14.4729L19.48 14.1194L19.8336 14.4729L21.3536 12.9529C21.6049 12.7015 21.75 12.3654 21.75 11.9994C21.75 11.6333 21.6049 11.2972 21.3536 11.0458L19.8336 9.52581L19.48 9.87936L19.8336 9.52581C19.5269 9.21913 19.29 8.64608 19.29 8.21933V6.05941C19.29 5.31334 18.6862 4.70932 17.94 4.70932H15.78C15.3532 4.70932 14.7802 4.47248 14.4735 4.16582L12.9536 2.64581L12.6 2.99936L12.9536 2.6458C12.4383 2.13054 11.5617 2.13054 11.0464 2.6458L11.4 2.99936L11.0464 2.64581L9.52645 4.16583C9.21979 4.47248 8.64678 4.70932 8.22 4.70932H6.06C5.31379 4.70932 4.70999 5.31334 4.70999 6.05941V8.21933C4.70999 8.64608 4.47312 9.21913 4.16644 9.52581L4.51999 9.87936L4.16643 9.52581L2.64644 11.0458C2.39511 11.2972 2.25 11.6333 2.25 11.9994C2.25 12.3654 2.39511 12.7015 2.64645 12.9529L4.16643 14.4729Z" fill="#3C4EF2" stroke="#3C4EF2"/>
<path d="M15.0002 15.5C14.7131 15.5 14.4902 15.2706 14.4902 15C14.4902 14.7261 14.7164 14.5 14.9902 14.5C15.2641 14.5 15.4902 14.7261 15.4902 15C15.4902 15.2804 15.2676 15.5 15.0002 15.5Z" fill="#3C4EF2" stroke="#3C4EF2"/>
<path d="M9.01001 10C8.45001 10 8 9.55 8 9C8 8.45 8.45 8 9 8C9.55 8 10 8.45 10 9C10 9.55 9.56001 10 9.01001 10Z" fill="#3C4EF2"/>
<path d="M8.99945 15.7495C8.80945 15.7495 8.61945 15.6795 8.46945 15.5295C8.17945 15.2395 8.17945 14.7595 8.46945 14.4695L14.4695 8.46945C14.7595 8.17945 15.2395 8.17945 15.5295 8.46945C15.8195 8.75945 15.8195 9.23951 15.5295 9.52951L9.52945 15.5295C9.37945 15.6795 9.18945 15.7495 8.99945 15.7495Z" fill="#3C4EF2"/>
</svg>
