<svg width="25" height="24" viewBox="0 0 25 24" fill="none" xmlns="http://www.w3.org/2000/svg">
<path d="M4.33398 6C4.33398 5.17155 5.00556 4.5 5.83398 4.5H18.834C19.6624 4.5 20.334 5.17155 20.334 6V11.5H4.33398V6Z" stroke="#919494" stroke-width="1.5" stroke-linecap="round" stroke-linejoin="round"/>
<path d="M3.33398 17.5V19.5" stroke="#919494" stroke-width="1.5" stroke-linecap="round" stroke-linejoin="round"/>
<path d="M21.334 17.5V19.5" stroke="#919494" stroke-width="1.5" stroke-linecap="round" stroke-linejoin="round"/>
<path d="M10.334 9H7.33398C6.50553 9 5.83398 9.67155 5.83398 10.5V11.5H11.834V10.5C11.834 9.67155 11.1624 9 10.334 9Z" stroke="#919494" stroke-width="1.5" stroke-linecap="round" stroke-linejoin="round"/>
<path d="M17.334 9H14.334C13.5055 9 12.834 9.67155 12.834 10.5V11.5H18.834V10.5C18.834 9.67155 18.1624 9 17.334 9Z" stroke="#919494" stroke-width="1.5" stroke-linecap="round" stroke-linejoin="round"/>
<path d="M2.33398 13C2.33398 12.1715 3.00556 11.5 3.83398 11.5H20.834C21.6624 11.5 22.334 12.1715 22.334 13V17.5H2.33398V13Z" stroke="#919494" stroke-width="1.5" stroke-linecap="round" stroke-linejoin="round"/>
</svg>
