<svg width="560" height="448" viewBox="0 0 560 448" fill="none" xmlns="http://www.w3.org/2000/svg">
<path fill-rule="evenodd" clip-rule="evenodd" d="M463.679 145.6C472.339 145.6 479.359 152.62 479.359 161.28C479.359 169.94 472.339 176.96 463.679 176.96H374.079C382.739 176.96 389.759 183.98 389.759 192.64C389.759 201.3 382.739 208.32 374.079 208.32H423.359C432.019 208.32 439.039 215.34 439.039 224C439.039 232.66 432.019 239.68 423.359 239.68H400.57C389.651 239.68 380.799 246.7 380.799 255.36C380.799 261.133 385.279 266.36 394.239 271.04C402.899 271.04 409.919 278.06 409.919 286.72C409.919 295.38 402.899 302.4 394.239 302.4H208.319C199.659 302.4 192.639 295.38 192.639 286.72C192.639 278.06 199.659 271.04 208.319 271.04H120.959C112.299 271.04 105.279 264.02 105.279 255.36C105.279 246.7 112.299 239.68 120.959 239.68H210.559C219.219 239.68 226.239 232.66 226.239 224C226.239 215.34 219.219 208.32 210.559 208.32H154.559C145.899 208.32 138.879 201.3 138.879 192.64C138.879 183.98 145.899 176.96 154.559 176.96H244.159C235.499 176.96 228.479 169.94 228.479 161.28C228.479 152.62 235.499 145.6 244.159 145.6H463.679ZM463.679 208.32C472.339 208.32 479.359 215.34 479.359 224C479.359 232.66 472.339 239.68 463.679 239.68C455.019 239.68 447.999 232.66 447.999 224C447.999 215.34 455.019 208.32 463.679 208.32Z" fill="#3C4EF2" fill-opacity="0.1"/>
<path fill-rule="evenodd" clip-rule="evenodd" d="M206.081 313.6C178.864 313.6 156.801 292.038 156.801 265.44C156.801 238.842 178.864 217.28 206.081 217.28C207.238 217.28 208.386 217.319 209.524 217.396C208.733 212.997 208.321 208.466 208.321 203.84C208.321 161.778 242.419 127.68 284.481 127.68C318.061 127.68 346.565 149.412 356.695 179.58C359.096 179.329 361.533 179.2 364.001 179.2C401.733 179.2 432.321 209.286 432.321 246.4C432.321 281.659 404.713 310.749 369.601 313.551V313.6H206.081Z" fill="white"/>
<path d="M209.524 217.396L209.322 220.389L213.156 220.647L212.476 216.865L209.524 217.396ZM356.695 179.58L353.851 180.535L354.617 182.813L357.007 182.563L356.695 179.58ZM369.601 313.551L369.362 310.561L366.601 310.781V313.551H369.601ZM369.601 313.6V316.6H372.601V313.6H369.601ZM206.081 310.6C180.456 310.6 159.801 290.316 159.801 265.44H153.801C153.801 293.759 177.273 316.6 206.081 316.6V310.6ZM159.801 265.44C159.801 240.563 180.456 220.28 206.081 220.28V214.28C177.273 214.28 153.801 237.12 153.801 265.44H159.801ZM206.081 220.28C207.171 220.28 208.251 220.317 209.322 220.389L209.725 214.402C208.521 214.321 207.306 214.28 206.081 214.28V220.28ZM212.476 216.865C211.717 212.64 211.321 208.288 211.321 203.84H205.321C205.321 208.645 205.749 213.353 206.571 217.926L212.476 216.865ZM211.321 203.84C211.321 163.435 244.076 130.68 284.481 130.68V124.68C240.762 124.68 205.321 160.121 205.321 203.84H211.321ZM284.481 130.68C316.733 130.68 344.119 151.552 353.851 180.535L359.539 178.625C349.011 147.273 319.388 124.68 284.481 124.68V130.68ZM357.007 182.563C359.304 182.323 361.637 182.2 364.001 182.2V176.2C361.428 176.2 358.887 176.334 356.383 176.596L357.007 182.563ZM364.001 182.2C400.123 182.2 429.321 210.99 429.321 246.4H435.321C435.321 207.583 403.343 176.2 364.001 176.2V182.2ZM429.321 246.4C429.321 280.051 402.96 307.88 369.362 310.561L369.839 316.542C406.467 313.619 435.321 283.267 435.321 246.4H429.321ZM366.601 313.551V313.6H372.601V313.551H366.601ZM369.601 310.6H206.081V316.6H369.601V310.6Z" fill="#3C4EF2"/>
<path fill-rule="evenodd" clip-rule="evenodd" d="M261.211 144.127C261.211 216.307 326.217 275.784 409.92 283.814C399.43 296.713 383.231 305.463 364.777 306.838V306.88H214.464C196.227 306.88 165.76 299.196 165.76 265.548C165.76 231.9 189.446 224.217 214.464 224.217C215.528 224.217 216.583 224.25 217.629 224.316C216.903 220.541 216.775 216.649 216.523 212.682C214.824 185.885 226.515 152.112 261.252 141.12C261.224 142.122 261.211 143.124 261.211 144.127Z" fill="#3C4EF2" fill-opacity="0.1"/>
<path d="M306.88 154.56C321.46 158.419 332.972 169.821 336.986 184.337" stroke="#3C4EF2" stroke-width="6" stroke-linecap="round"/>
<path d="M241.919 227.36C241.919 235.401 248.939 241.92 257.599 241.92C266.259 241.92 273.279 235.401 273.279 227.36" stroke="#3C4EF2" stroke-width="6" stroke-linecap="round"/>
<path d="M306.88 227.36C306.88 235.401 313.9 241.92 322.56 241.92C331.22 241.92 338.24 235.401 338.24 227.36" stroke="#3C4EF2" stroke-width="6" stroke-linecap="round"/>
<path d="M273.279 268.8H305.759" stroke="#3C4EF2" stroke-width="6" stroke-linecap="round"/>
<path fill-rule="evenodd" clip-rule="evenodd" d="M154.91 135.054H128.151V140.376H147.075L126.574 165.213V170.24H155.403V164.918H134.41L154.91 139.736V135.054ZM184.953 169.29H165.492V173.161H179.255L164.345 191.224V194.88H185.312V191.009H170.044L184.953 172.695V169.29Z" fill="#3C4EF2"/>
</svg>
