<svg width="32" height="31" viewBox="0 0 32 31" fill="none" xmlns="http://www.w3.org/2000/svg">
<path d="M22 11.5H10C5.02944 11.5 1 15.5295 1 20.5C1 25.4705 5.02944 29.5 10 29.5H22C26.9705 29.5 31 25.4705 31 20.5C31 15.5295 26.9705 11.5 22 11.5Z" stroke="#3C4EF2" stroke-width="2" stroke-linejoin="round"/>
<path d="M10 17.5V23.5" stroke="#3C4EF2" stroke-width="2" stroke-linecap="round" stroke-linejoin="round"/>
<path d="M7 20.5H13" stroke="#3C4EF2" stroke-width="2" stroke-linecap="round" stroke-linejoin="round"/>
<path d="M16 10V5.28572H22V1" stroke="#3C4EF2" stroke-width="2" stroke-linecap="round" stroke-linejoin="round"/>
<path d="M22 23.5C23.6568 23.5 25 22.1568 25 20.5C25 18.8432 23.6568 17.5 22 17.5C20.3432 17.5 19 18.8432 19 20.5C19 22.1568 20.3432 23.5 22 23.5Z" stroke="#3C4EF2" stroke-width="2" stroke-linejoin="round"/>
</svg>
