<svg width="24" height="24" viewBox="0 0 24 24" fill="none" xmlns="http://www.w3.org/2000/svg">
<path d="M13.5327 12.413L13.8862 12.0595L13.5327 11.7059L11.5027 9.6759C11.408 9.58116 11.408 9.41774 11.5027 9.32301C11.5974 9.22827 11.7608 9.22827 11.8556 9.32301L14.4156 11.883C14.5103 11.9777 14.5103 12.1412 14.4156 12.2359L11.8556 14.7959L11.8495 14.802L11.8436 14.8083C11.8134 14.8407 11.7545 14.8695 11.6791 14.8695C11.6146 14.8695 11.554 14.8472 11.5027 14.7959C11.408 14.7012 11.408 14.5377 11.5027 14.443L13.5327 12.413Z" fill="#292D32" stroke="#292D32"/>
<path d="M14.17 12.3105H4C3.86614 12.3105 3.75 12.1944 3.75 12.0605C3.75 11.9267 3.86614 11.8105 4 11.8105H14.17C14.3039 11.8105 14.42 11.9267 14.42 12.0605C14.42 12.1944 14.3039 12.3105 14.17 12.3105Z" fill="#292D32" stroke="#292D32"/>
<path d="M12 20.25C11.8661 20.25 11.75 20.1339 11.75 20C11.75 19.8661 11.8661 19.75 12 19.75C14.2544 19.75 16.1983 18.9613 17.5798 17.5798C18.9613 16.1983 19.75 14.2544 19.75 12C19.75 9.74561 18.9613 7.80167 17.5798 6.4202C16.1983 5.03873 14.2544 4.25 12 4.25C11.8661 4.25 11.75 4.13386 11.75 4C11.75 3.86614 11.8661 3.75 12 3.75C14.4554 3.75 16.5115 4.60614 17.9527 6.0473C19.3939 7.48847 20.25 9.54459 20.25 12C20.25 14.4554 19.3939 16.5115 17.9527 17.9527C16.5115 19.3939 14.4554 20.25 12 20.25Z" fill="#292D32" stroke="#292D32"/>
</svg>
