<svg width="25" height="24" viewBox="0 0 25 24" fill="none" xmlns="http://www.w3.org/2000/svg">
<path d="M12.5 22.75C6.57 22.75 1.75 17.93 1.75 12C1.75 6.07 6.57 1.25 12.5 1.25C18.43 1.25 23.25 6.07 23.25 12C23.25 17.93 18.43 22.75 12.5 22.75Z" fill="#919494"/>
<path d="M9.66937 15.5794C9.47937 15.5794 9.28938 15.5094 9.13938 15.3594C8.84938 15.0694 8.84938 14.5894 9.13938 14.2994L14.7994 8.63938C15.0894 8.34938 15.5694 8.34938 15.8594 8.63938C16.1494 8.92937 16.1494 9.40937 15.8594 9.69937L10.1994 15.3594C10.0594 15.5094 9.85937 15.5794 9.66937 15.5794Z" fill="white"/>
<path d="M15.3294 15.5794C15.1394 15.5794 14.9494 15.5094 14.7994 15.3594L9.13938 9.69937C8.84938 9.40937 8.84938 8.92937 9.13938 8.63938C9.42937 8.34938 9.90937 8.34938 10.1994 8.63938L15.8594 14.2994C16.1494 14.5894 16.1494 15.0694 15.8594 15.3594C15.7094 15.5094 15.5194 15.5794 15.3294 15.5794Z" fill="white"/>
</svg>
