<svg width="24" height="24" viewBox="0 0 24 24" fill="none" xmlns="http://www.w3.org/2000/svg">
<path d="M19.2944 12.415L19.648 12.0614L19.2944 11.7079L17.2644 9.67785C17.1697 9.58311 17.1697 9.4197 17.2644 9.32496C17.3592 9.23022 17.5226 9.23022 17.6173 9.32496L17.9709 8.97141L17.6173 9.32496L20.1773 11.885C20.272 11.9797 20.272 12.1431 20.1773 12.2379L17.6173 14.7979C17.566 14.8491 17.5054 14.8714 17.4409 14.8714C17.3763 14.8714 17.3157 14.8491 17.2644 14.7979C17.1697 14.7031 17.1697 14.5397 17.2644 14.445L19.2944 12.415Z" fill="#3C4EF2" stroke="#3C4EF2"/>
<path d="M19.9298 12.3086H9.75977C9.62591 12.3086 9.50977 12.1925 9.50977 12.0586C9.50977 11.9247 9.62591 11.8086 9.75977 11.8086H19.9298C20.0636 11.8086 20.1798 11.9247 20.1798 12.0586C20.1798 12.1925 20.0636 12.3086 19.9298 12.3086Z" fill="#3C4EF2" stroke="#3C4EF2"/>
<path d="M11.7598 20.25C9.30436 20.25 7.24823 19.3939 5.80707 17.9527C4.36591 16.5115 3.50977 14.4554 3.50977 12C3.50977 9.54459 4.36591 7.48847 5.80707 6.0473C7.24823 4.60614 9.30436 3.75 11.7598 3.75C11.8936 3.75 12.0098 3.86614 12.0098 4C12.0098 4.13386 11.8936 4.25 11.7598 4.25C9.50538 4.25 7.56143 5.03873 6.17996 6.4202C4.79849 7.80167 4.00977 9.74561 4.00977 12C4.00977 14.2544 4.79849 16.1983 6.17996 17.5798C7.56143 18.9613 9.50538 19.75 11.7598 19.75C11.8936 19.75 12.0098 19.8661 12.0098 20C12.0098 20.1339 11.8936 20.25 11.7598 20.25Z" fill="#3C4EF2" stroke="#3C4EF2"/>
</svg>
