<svg width="24" height="24" viewBox="0 0 24 24" fill="none" xmlns="http://www.w3.org/2000/svg">
<path d="M4 6C4 5.17155 4.67158 4.5 5.5 4.5H18.5C19.3285 4.5 20 5.17155 20 6V11.5H4V6Z" stroke="#292D32" stroke-width="1.5" stroke-linecap="round" stroke-linejoin="round"/>
<path d="M3 17.5V19.5" stroke="#292D32" stroke-width="1.5" stroke-linecap="round" stroke-linejoin="round"/>
<path d="M21 17.5V19.5" stroke="#292D32" stroke-width="1.5" stroke-linecap="round" stroke-linejoin="round"/>
<path d="M14.5 9H9.5C8.67155 9 8 9.67155 8 10.5V11.5H16V10.5C16 9.67155 15.3285 9 14.5 9Z" stroke="#292D32" stroke-width="1.5" stroke-linecap="round" stroke-linejoin="round"/>
<path d="M2 13C2 12.1715 2.67158 11.5 3.5 11.5H20.5C21.3285 11.5 22 12.1715 22 13V17.5H2V13Z" stroke="#292D32" stroke-width="1.5" stroke-linecap="round" stroke-linejoin="round"/>
<path d="M16.5 17.5C16.5 19.9853 14.4853 22 12 22C9.51472 22 7.5 19.9853 7.5 17.5C7.5 15.0147 9.51472 13 12 13C14.4853 13 16.5 15.0147 16.5 17.5Z" fill="white"/>
<path fill-rule="evenodd" clip-rule="evenodd" d="M12 14C12.4142 14 12.75 14.3358 12.75 14.75V16.7426H14.75C15.1642 16.7426 15.5 17.0784 15.5 17.4926C15.5 17.9068 15.1642 18.2426 14.75 18.2426H12.75V20.25C12.75 20.6642 12.4142 21 12 21C11.5858 21 11.25 20.6642 11.25 20.25V18.2426H9.25C8.83579 18.2426 8.5 17.9068 8.5 17.4926C8.5 17.0784 8.83579 16.7426 9.25 16.7426H11.25V14.75C11.25 14.3358 11.5858 14 12 14Z" fill="#3BA87E"/>
</svg>
