<svg width="20" height="20" viewBox="0 0 20 20" fill="none" xmlns="http://www.w3.org/2000/svg">
<mask id="path-1-inside-1_4914_8012" fill="white">
<path d="M9.11732 18.875C8.71732 18.875 8.32565 18.775 7.95898 18.575C7.22565 18.1667 6.78398 17.425 6.78398 16.5917V12.175C6.78398 11.7583 6.50898 11.1333 6.25065 10.8167L3.13398 7.51667C2.60898 6.99167 2.20898 6.09167 2.20898 5.41667V3.5C2.20898 2.16667 3.21732 1.125 4.50065 1.125H15.5007C16.7673 1.125 17.7923 2.15 17.7923 3.41667V5.25C17.7923 6.125 17.2673 7.11667 16.7757 7.60833L13.1673 10.8C12.8173 11.0917 12.5423 11.7333 12.5423 12.25V15.8333C12.5423 16.575 12.0757 17.4333 11.4923 17.7833L10.3423 18.525C9.96732 18.7583 9.54232 18.875 9.11732 18.875ZM4.50065 2.375C3.91732 2.375 3.45898 2.86667 3.45898 3.5V5.41667C3.45898 5.725 3.70898 6.325 4.02565 6.64167L7.20065 9.98333C7.62565 10.5083 8.04232 11.3833 8.04232 12.1667V16.5833C8.04232 17.125 8.41732 17.3917 8.57565 17.475C8.92565 17.6667 9.35065 17.6667 9.67565 17.4667L10.834 16.725C11.0673 16.5833 11.3007 16.1333 11.3007 15.8333V12.25C11.3007 11.3583 11.734 10.375 12.359 9.85L15.9257 6.69167C16.209 6.40833 16.5507 5.73333 16.5507 5.24167V3.41667C16.5507 2.84167 16.084 2.375 15.509 2.375H4.50065Z"/>
</mask>
<path d="M9.11732 18.875C8.71732 18.875 8.32565 18.775 7.95898 18.575C7.22565 18.1667 6.78398 17.425 6.78398 16.5917V12.175C6.78398 11.7583 6.50898 11.1333 6.25065 10.8167L3.13398 7.51667C2.60898 6.99167 2.20898 6.09167 2.20898 5.41667V3.5C2.20898 2.16667 3.21732 1.125 4.50065 1.125H15.5007C16.7673 1.125 17.7923 2.15 17.7923 3.41667V5.25C17.7923 6.125 17.2673 7.11667 16.7757 7.60833L13.1673 10.8C12.8173 11.0917 12.5423 11.7333 12.5423 12.25V15.8333C12.5423 16.575 12.0757 17.4333 11.4923 17.7833L10.3423 18.525C9.96732 18.7583 9.54232 18.875 9.11732 18.875ZM4.50065 2.375C3.91732 2.375 3.45898 2.86667 3.45898 3.5V5.41667C3.45898 5.725 3.70898 6.325 4.02565 6.64167L7.20065 9.98333C7.62565 10.5083 8.04232 11.3833 8.04232 12.1667V16.5833C8.04232 17.125 8.41732 17.3917 8.57565 17.475C8.92565 17.6667 9.35065 17.6667 9.67565 17.4667L10.834 16.725C11.0673 16.5833 11.3007 16.1333 11.3007 15.8333V12.25C11.3007 11.3583 11.734 10.375 12.359 9.85L15.9257 6.69167C16.209 6.40833 16.5507 5.73333 16.5507 5.24167V3.41667C16.5507 2.84167 16.084 2.375 15.509 2.375H4.50065Z" fill="#292D32"/>
<path d="M7.95898 18.575L7.22923 19.8856L7.24071 19.8918L7.95898 18.575ZM6.25065 10.8167L7.41295 9.86848L7.37854 9.8263L7.34117 9.78673L6.25065 10.8167ZM3.13398 7.51667L4.2245 6.48673L4.20979 6.47116L4.19464 6.45601L3.13398 7.51667ZM16.7757 7.60833L17.7695 8.73188L17.8038 8.70146L17.8363 8.66899L16.7757 7.60833ZM13.1673 10.8L14.1276 11.9523L14.1446 11.9382L14.1611 11.9235L13.1673 10.8ZM11.4923 17.7833L10.7206 16.4971L10.6997 16.5096L10.6793 16.5228L11.4923 17.7833ZM10.3423 18.525L11.1348 19.7986L11.1451 19.7922L11.1553 19.7856L10.3423 18.525ZM4.02565 6.64167L5.11308 5.60847L5.09987 5.59457L5.08631 5.58101L4.02565 6.64167ZM7.20065 9.98333L8.36652 9.03954L8.32907 8.99328L8.28808 8.95014L7.20065 9.98333ZM8.57565 17.475L9.29612 16.1594L9.28524 16.1534L9.27427 16.1476L8.57565 17.475ZM9.67565 17.4667L10.4618 18.7442L10.4732 18.7371L10.4845 18.7299L9.67565 17.4667ZM10.834 16.725L10.0555 15.4428L10.0402 15.4521L10.0251 15.4618L10.834 16.725ZM12.359 9.85L13.3238 10.9986L13.3388 10.986L13.3534 10.973L12.359 9.85ZM15.9257 6.69167L16.9201 7.81466L16.9541 7.7845L16.9863 7.75233L15.9257 6.69167ZM9.11732 17.375C8.97421 17.375 8.82884 17.3408 8.67726 17.2582L7.24071 19.8918C7.82246 20.2092 8.46043 20.375 9.11732 20.375V17.375ZM8.68871 17.2645C8.42255 17.1163 8.28398 16.8713 8.28398 16.5917H5.28398C5.28398 17.9787 6.02875 19.2171 7.22926 19.8855L8.68871 17.2645ZM8.28398 16.5917V12.175H5.28398V16.5917H8.28398ZM8.28398 12.175C8.28398 11.6899 8.13809 11.223 8.00326 10.8922C7.86249 10.5468 7.66035 10.1717 7.41295 9.86848L5.08835 11.7649C5.08717 11.7634 5.10648 11.7879 5.13785 11.8433C5.1675 11.8956 5.19824 11.9585 5.22513 12.0245C5.25234 12.0912 5.27011 12.1477 5.27978 12.1873C5.29081 12.2324 5.28398 12.2255 5.28398 12.175H8.28398ZM7.34117 9.78673L4.2245 6.48673L2.04346 8.5466L5.16013 11.8466L7.34117 9.78673ZM4.19464 6.45601C4.08711 6.34848 3.95254 6.15645 3.84674 5.91689C3.73783 5.6703 3.70898 5.48652 3.70898 5.41667H0.708984C0.708984 6.02181 0.880143 6.62553 1.10248 7.12894C1.32793 7.63939 1.65586 8.15986 2.07332 8.57733L4.19464 6.45601ZM3.70898 5.41667V3.5H0.708984V5.41667H3.70898ZM3.70898 3.5C3.70898 2.94555 4.09444 2.625 4.50065 2.625V-0.375C2.3402 -0.375 0.708984 1.38779 0.708984 3.5H3.70898ZM4.50065 2.625H15.5007V-0.375H4.50065V2.625ZM15.5007 2.625C15.9389 2.625 16.2923 2.97843 16.2923 3.41667H19.2923C19.2923 1.32157 17.5957 -0.375 15.5007 -0.375V2.625ZM16.2923 3.41667V5.25H19.2923V3.41667H16.2923ZM16.2923 5.25C16.2923 5.4078 16.2387 5.65684 16.1057 5.94583C15.9733 6.23367 15.8137 6.44899 15.715 6.54767L17.8363 8.66899C18.2293 8.27601 18.578 7.74966 18.831 7.2C19.0834 6.6515 19.2923 5.96721 19.2923 5.25H16.2923ZM15.7818 6.48479L12.1735 9.67646L14.1611 11.9235L17.7695 8.73188L15.7818 6.48479ZM12.207 9.64767C11.7935 9.99232 11.5167 10.4505 11.3457 10.8478C11.17 11.2561 11.0423 11.748 11.0423 12.25H14.0423C14.0423 12.2501 14.0428 12.2258 14.0534 12.1792C14.0636 12.1341 14.08 12.0833 14.1014 12.0335C14.1231 11.9831 14.1444 11.9466 14.1586 11.9259C14.1748 11.9024 14.1686 11.9181 14.1276 11.9523L12.207 9.64767ZM11.0423 12.25V15.8333H14.0423V12.25H11.0423ZM11.0423 15.8333C11.0423 15.9092 11.0116 16.0658 10.9162 16.2424C10.8723 16.3238 10.8247 16.39 10.7822 16.4378C10.7382 16.4872 10.7138 16.5012 10.7206 16.4971L12.2641 19.0696C12.8453 18.7208 13.2754 18.1873 13.5559 17.668C13.8397 17.1425 14.0423 16.4992 14.0423 15.8333H11.0423ZM10.6793 16.5228L9.52934 17.2644L11.1553 19.7856L12.3053 19.0439L10.6793 16.5228ZM9.54986 17.2514C9.41739 17.3338 9.26779 17.375 9.11732 17.375V20.375C9.81685 20.375 10.5172 20.1828 11.1348 19.7986L9.54986 17.2514ZM4.50065 0.875C2.98507 0.875 1.95898 2.14602 1.95898 3.5H4.95898C4.95898 3.54838 4.93949 3.63528 4.86066 3.72024C4.7789 3.80836 4.64725 3.875 4.50065 3.875V0.875ZM1.95898 3.5V5.41667H4.95898V3.5H1.95898ZM1.95898 5.41667C1.95898 5.8795 2.1176 6.33302 2.2544 6.63873C2.40307 6.97096 2.63634 7.37367 2.96499 7.70233L5.08631 5.58101C5.10022 5.59491 5.09012 5.58748 5.06483 5.54818C5.04125 5.51156 5.01563 5.46453 4.99273 5.41336C4.96948 5.36138 4.95615 5.32108 4.9506 5.30062C4.94801 5.29111 4.94922 5.2936 4.95146 5.30757C4.95339 5.3196 4.95898 5.35786 4.95898 5.41667H1.95898ZM2.93822 7.67486L6.11322 11.0165L8.28808 8.95014L5.11308 5.60847L2.93822 7.67486ZM6.03478 10.9271C6.15089 11.0706 6.28863 11.2935 6.39369 11.5489C6.50068 11.8089 6.54232 12.0257 6.54232 12.1667H9.54232C9.54232 10.9411 8.93616 9.74321 8.36652 9.03954L6.03478 10.9271ZM6.54232 12.1667V16.5833H9.54232V12.1667H6.54232ZM6.54232 16.5833C6.54232 17.9372 7.50256 18.6053 7.87703 18.8024L9.27427 16.1476C9.32728 16.1755 9.37952 16.2111 9.42997 16.2754C9.45904 16.3125 9.48921 16.3618 9.51145 16.4224C9.5344 16.4849 9.54232 16.5416 9.54232 16.5833H6.54232ZM7.85518 18.7906C8.63682 19.2187 9.63945 19.2502 10.4618 18.7442L8.8895 16.1892C9.06185 16.0831 9.21449 16.1146 9.29612 16.1594L7.85518 18.7906ZM10.4845 18.7299L11.6428 17.9882L10.0251 15.4618L8.86681 16.2034L10.4845 18.7299ZM11.6125 18.0072C12.0677 17.7308 12.3425 17.3049 12.4847 17.0324C12.6358 16.7427 12.8007 16.311 12.8007 15.8333H9.80065C9.80065 15.7259 9.81938 15.6632 9.82174 15.6552C9.82597 15.6409 9.8276 15.6396 9.82494 15.6447C9.8219 15.6505 9.82568 15.6411 9.84471 15.6179C9.85695 15.6029 9.92225 15.5237 10.0555 15.4428L11.6125 18.0072ZM12.8007 15.8333V12.25H9.80065V15.8333H12.8007ZM12.8007 12.25C12.8007 11.7545 13.0725 11.2097 13.3238 10.9986L11.3942 8.70144C10.3955 9.54033 9.80065 10.9622 9.80065 12.25H12.8007ZM13.3534 10.973L16.9201 7.81466L14.9312 5.56867L11.3646 8.72701L13.3534 10.973ZM16.9863 7.75233C17.2955 7.44316 17.5426 7.03343 17.7098 6.6659C17.8753 6.30202 18.0507 5.78734 18.0507 5.24167H15.0507C15.0507 5.19954 15.0566 5.20017 15.0434 5.24966C15.0314 5.29456 15.0102 5.35513 14.979 5.42368C14.9481 5.49177 14.9142 5.55256 14.8844 5.59843C14.8511 5.64976 14.8407 5.65528 14.865 5.63101L16.9863 7.75233ZM18.0507 5.24167V3.41667H15.0507V5.24167H18.0507ZM18.0507 3.41667C18.0507 2.01324 16.9124 0.875 15.509 0.875V3.875C15.2556 3.875 15.0507 3.67009 15.0507 3.41667H18.0507ZM15.509 0.875H4.50065V3.875H15.509V0.875Z" fill="#3C4EF2" mask="url(#path-1-inside-1_4914_8012)"/>
</svg>
