<svg width="36" height="36" viewBox="0 0 36 36" fill="none" xmlns="http://www.w3.org/2000/svg">
<path d="M10.5 21.75C10.5 21.75 8.25 18 8.25 13.5H20.25C20.25 13.5 20.25 10.125 22.5 7.5C24.75 4.875 27 3.75 27 3.75L33 10.125V13.875L27 12C24 15.75 25.5 21.75 25.5 21.75H10.5Z" stroke="#3C4EF2" stroke-width="2" stroke-linecap="round" stroke-linejoin="round"/>
<path d="M22.5 21.75L26.25 30.75" stroke="#3C4EF2" stroke-width="2" stroke-linecap="round" stroke-linejoin="round"/>
<path d="M13.5 21.75L9.75 30.75" stroke="#3C4EF2" stroke-width="2" stroke-linecap="round" stroke-linejoin="round"/>
<path d="M3 27.75C3 27.75 7.5 32.25 18 32.25C28.5 32.25 33 27.75 33 27.75" stroke="#3C4EF2" stroke-width="2" stroke-linecap="round" stroke-linejoin="round"/>
<path d="M8.25 13.5C8.25 11.25 6.75 9 3 9" stroke="#3C4EF2" stroke-width="2" stroke-linecap="round" stroke-linejoin="round"/>
</svg>
