<svg width="36" height="36" viewBox="0 0 36 36" fill="none" xmlns="http://www.w3.org/2000/svg">
<path d="M24 13.5H12C7.02944 13.5 3 17.5295 3 22.5C3 27.4705 7.02944 31.5 12 31.5H24C28.9705 31.5 33 27.4705 33 22.5C33 17.5295 28.9705 13.5 24 13.5Z" stroke="#3C4EF2" stroke-width="2" stroke-linejoin="round"/>
<path d="M12 19.5V25.5" stroke="#3C4EF2" stroke-width="2" stroke-linecap="round" stroke-linejoin="round"/>
<path d="M9 22.5H15" stroke="#3C4EF2" stroke-width="2" stroke-linecap="round" stroke-linejoin="round"/>
<path d="M18 12V7.28572H24V3" stroke="#3C4EF2" stroke-width="2" stroke-linecap="round" stroke-linejoin="round"/>
<path d="M24 25.5C25.6568 25.5 27 24.1568 27 22.5C27 20.8432 25.6568 19.5 24 19.5C22.3432 19.5 21 20.8432 21 22.5C21 24.1568 22.3432 25.5 24 25.5Z" stroke="#3C4EF2" stroke-width="2" stroke-linejoin="round"/>
</svg>
