<svg width="32" height="32" viewBox="0 0 32 32" fill="none" xmlns="http://www.w3.org/2000/svg">
<path d="M21.3327 12H10.666C6.24774 12 2.66602 15.5817 2.66602 20C2.66602 24.4183 6.24774 28 10.666 28H21.3327C25.7509 28 29.3327 24.4183 29.3327 20C29.3327 15.5817 25.7509 12 21.3327 12Z" stroke="#3C4EF2" stroke-width="2" stroke-linejoin="round"/>
<path d="M10.666 17.332V22.6654" stroke="#3C4EF2" stroke-width="2" stroke-linecap="round" stroke-linejoin="round"/>
<path d="M8 20H13.3333" stroke="#3C4EF2" stroke-width="2" stroke-linecap="round" stroke-linejoin="round"/>
<path d="M16 10.668V6.4775H21.3333V2.66797" stroke="#3C4EF2" stroke-width="2" stroke-linecap="round" stroke-linejoin="round"/>
<path d="M21.3327 22.6654C22.8054 22.6654 23.9993 21.4714 23.9993 19.9987C23.9993 18.526 22.8054 17.332 21.3327 17.332C19.8599 17.332 18.666 18.526 18.666 19.9987C18.666 21.4714 19.8599 22.6654 21.3327 22.6654Z" stroke="#3C4EF2" stroke-width="2" stroke-linejoin="round"/>
</svg>
