<svg width="24" height="24" viewBox="0 0 24 24" fill="none" xmlns="http://www.w3.org/2000/svg">
<path d="M23.8672 10.8961C24.89 17.3534 19.8568 22.7235 13.8881 23.5945C10.6911 24.061 8.07608 23.5701 5.66162 22.1395C2.86656 20.4832 0.766272 17.4341 0.148332 13.5324C-0.874554 7.07512 3.49084 1.41249 10.2187 0.430931C14.1181 -0.138072 16.404 0.564813 18.6615 2.0677C21.3632 3.8665 23.3098 7.37839 23.8672 10.8964V10.8961Z" fill="#FF6432"/>
<path d="M22.8457 10.6471C23.209 12.9416 23.0467 15.2493 22.0071 17.1964C20.4594 20.0952 17.3025 22.2442 13.7434 22.7635C10.6005 23.2222 7.17071 22.4049 4.86656 20.5777C2.80887 18.946 1.72716 16.4844 1.30066 13.7908C0.900277 11.2637 1.21597 8.45346 2.48938 6.36001C4.09344 3.72318 7.06929 2.05066 10.3859 1.5666C13.8654 1.05896 17.2086 1.72787 19.5813 3.98587C21.2657 5.58917 22.4704 8.27596 22.8459 10.6465L22.8457 10.6471Z" fill="#FDF8E1"/>
<path d="M6.15686 4.53878C5.598 4.90899 5.118 5.44807 5.04928 6.119C4.98792 6.7197 5.27242 7.23977 5.7613 7.6011C6.66095 8.26595 7.6671 8.81441 8.60707 9.42678C9.40961 9.94938 10.5296 10.8713 11.3304 11.3965C11.3304 11.3965 11.4328 11.3835 11.4171 11.3344C11.1493 10.495 10.7738 9.21099 10.4969 8.37422C10.3126 7.81663 10.1262 7.2598 9.93449 6.70449C9.67179 5.94354 9.23008 5.03704 8.61138 4.46119C8.13544 4.01821 7.49467 3.94594 6.88586 4.16325C6.62672 4.2558 6.3838 4.38841 6.15661 4.53903L6.15686 4.53878Z" fill="#FF6432"/>
<path d="M2.88464 9.14697C2.50023 10.1004 2.42796 11.3956 2.94803 12.2838C3.29846 12.8823 3.89738 12.9238 4.53687 12.845C5.56027 12.7187 6.86816 12.5164 7.30734 12.4522C8.38652 12.2947 9.46544 12.1373 10.5446 11.9798C10.6392 11.9661 10.734 11.9522 10.8286 11.9385C10.9004 11.9281 10.9214 11.8383 10.8611 11.7995C10.8611 11.7995 5.67894 8.4451 5.67412 8.44206C5.10309 8.07261 4.26429 7.79242 3.62175 8.16212C3.32889 8.33049 3.13212 8.61828 2.98733 8.91496C2.95082 8.98976 2.91633 9.06735 2.88413 9.14722L2.88464 9.14697Z" fill="#FF6432"/>
<path d="M18.6697 5.20403C18.5604 4.82495 18.2614 4.4981 17.9049 4.29347C17.0281 3.79014 15.8599 3.75769 15.1958 4.58583C14.8604 5.00396 14.7483 5.56181 14.5873 6.0555C14.357 6.76168 14.1278 7.46812 13.9014 8.17532C13.5925 9.14013 13.2837 10.105 12.9748 11.0695L12.9345 11.1988C12.9287 11.2176 12.9518 11.2321 12.9672 11.2194L14.8429 9.69773C15.3759 9.26514 17.3811 7.51173 17.821 7.04061C18.1752 6.66127 18.6043 6.22514 18.6973 5.70558C18.7283 5.53265 18.7158 5.36377 18.6697 5.20428V5.20403Z" fill="#FF6432"/>
<path d="M21.2463 9.20441C21.2265 9.02133 21.1788 8.83927 21.122 8.6709C20.9306 8.10165 20.5802 7.24028 19.894 7.08485C19.358 6.96339 18.758 7.22456 18.3835 7.58564C17.5653 8.37474 14.3822 10.7512 13.4869 11.4475C13.4118 11.5058 13.4641 11.6222 13.5599 11.6097C14.7104 11.4617 18.7489 10.8637 19.9518 10.6059C20.4326 10.5027 20.9521 10.3143 21.1618 9.84948C21.2531 9.64688 21.2704 9.42476 21.2465 9.20441H21.2463Z" fill="#FF6432"/>
<path d="M11.9466 2.66077C11.301 2.65138 10.5809 2.74799 10.0824 3.10273C9.99769 3.16308 9.9201 3.23256 9.8529 3.31091C9.63078 3.57005 9.57931 3.96663 9.60289 4.29094C9.63433 4.72581 9.83744 5.13025 9.99541 5.53392C10.3826 6.52207 10.7701 7.51022 11.1572 8.49837C11.4778 9.31586 11.8279 10.3778 12.1484 11.1953C12.1484 11.1955 12.1974 11.266 12.1976 11.2665C12.2237 11.3312 12.2724 11.2564 12.2922 11.1897C12.6026 10.1514 13.9196 5.36074 13.9668 4.53538C13.9914 4.10356 13.9477 3.62837 13.6762 3.26704C13.38 2.87325 12.8574 2.72264 12.3741 2.68207C12.238 2.67065 12.0942 2.6628 11.9466 2.66077Z" fill="#FF6432"/>
<path d="M3.06004 15.9333C3.53244 17.215 4.76731 17.6423 5.42785 17.2381C6.08839 16.8339 11.0933 12.7074 11.0933 12.7074C11.1397 12.6699 11.1057 12.5973 11.0456 12.6062C8.87939 12.9204 4.59539 13.3028 3.839 13.5142C3.08287 13.726 2.5874 14.6515 3.06004 15.9333Z" fill="#FF6432"/>
<path d="M11.4054 21.212C11.8362 21.2429 12.2693 21.2487 12.7001 21.2285C13.0396 21.2125 13.2207 21.2018 13.5549 21.1532C14.1084 21.0725 14.7415 20.6549 14.1518 19.1398C13.6256 17.7876 12.587 14.1385 12.3697 13.3694C12.358 13.3281 12.2972 13.3271 12.2842 13.3682C12.0352 14.155 10.8189 17.9848 10.3404 19.2867C9.80614 20.7403 10.8589 21.1729 11.4049 21.2122L11.4054 21.212Z" fill="#FF6432"/>
<path d="M18.0396 19.5999C18.3394 19.4026 18.6462 19.2071 18.886 18.953C19.4076 18.4005 19.4036 17.7083 18.9662 17.1116C18.5199 16.5028 17.8236 16.1564 17.195 15.7518C16.536 15.3275 15.8805 14.8977 15.2266 14.4664C14.8249 14.2014 14.4238 13.9365 14.0221 13.6715C13.7927 13.5201 13.5918 13.3165 13.3319 13.21C12.6531 12.9321 13.0768 13.811 13.1478 14.0399C13.5018 15.1838 13.8616 16.3258 14.2382 17.4628C14.3518 17.8059 14.4672 18.1485 14.5861 18.4898C15.5258 21.1862 17.7397 19.7971 18.0396 19.5999Z" fill="#FF6432"/>
<path d="M19.8369 11.377C19.8369 11.377 14.864 12.0956 13.6403 12.2736C13.44 12.3028 13.371 12.4205 13.6443 12.6056C13.6616 12.6172 17.1413 15.0053 18.5151 15.8553C18.9647 16.1334 19.5022 16.3092 20.0393 16.2072C21.2711 15.9734 21.586 14.5697 21.6139 13.5486C21.6459 12.3827 21.3672 11.1549 19.8463 11.3755C19.8433 11.376 19.84 11.3765 19.8369 11.3768V11.377Z" fill="#FF6432"/>
<path d="M7.26972 20.3162C7.61812 20.4782 8.03929 20.6227 8.41863 20.4878C8.78782 20.3565 9.05381 20.0372 9.25159 19.7238C9.90554 18.6867 11.3727 14.0259 11.5938 13.2173C11.6042 13.179 11.5573 13.1501 11.5256 13.1757C10.8767 13.6983 7.10465 16.6932 6.08709 17.4891C5.71282 17.782 5.45216 18.1963 5.52772 18.6738C5.66465 19.5382 6.86807 20.1293 7.26972 20.3162Z" fill="#FF6432"/>
<path d="M4.36075 9.25255C4.8088 9.2954 5.21349 9.49039 5.58167 9.73077C5.70541 9.81597 5.82586 9.90903 5.93666 10.029C5.62123 10.0723 5.32329 10.0389 5.0223 9.978C4.73375 9.91309 4.45381 9.82789 4.20709 9.66231C4.10135 9.58878 4.07777 9.44703 4.15435 9.34561C4.20329 9.28069 4.28316 9.24823 4.36075 9.25229V9.25255Z" fill="#F89959"/>
<path d="M19.5859 8.20839C19.2478 8.4939 18.8234 8.64503 18.389 8.73986C18.2399 8.76877 18.0865 8.78981 17.9199 8.78576C18.1017 8.53473 18.3302 8.34835 18.582 8.17821C18.8282 8.01973 19.0838 7.88128 19.3782 7.82068C19.5062 7.79659 19.6305 7.87672 19.6556 7.99945C19.6716 8.07805 19.6421 8.1564 19.5859 8.20788V8.20839Z" fill="#F89959"/>
<path d="M20.0358 13.9827C19.5857 13.9763 19.1653 13.8146 18.7773 13.6049C18.6467 13.5301 18.5182 13.4469 18.3975 13.3363C18.7078 13.2676 19.0075 13.2767 19.3131 13.3133C19.6065 13.3546 19.8927 13.417 20.1532 13.5618C20.265 13.6264 20.3007 13.7659 20.2333 13.8731C20.1902 13.9418 20.1133 13.9806 20.0358 13.9827Z" fill="#F89959"/>
<path d="M6.3281 6.04783C6.70972 6.27706 6.98205 6.62444 7.20062 6.99693C7.27213 7.12599 7.33704 7.26089 7.38065 7.41531C7.0779 7.31972 6.82661 7.16276 6.58496 6.97969C6.3565 6.79839 6.14528 6.60289 6.00074 6.34932C5.94014 6.23851 5.98452 6.10133 6.10014 6.04327C6.17419 6.00599 6.26065 6.01081 6.32835 6.04783H6.3281Z" fill="#F89959"/>
<path d="M15.2893 7.59546C15.1324 8.0004 14.8329 8.32649 14.4972 8.60719C14.38 8.70025 14.2555 8.78874 14.1064 8.86075C14.1427 8.55698 14.2522 8.28896 14.3902 8.02475C14.5291 7.77321 14.6858 7.53536 14.9153 7.34823C15.0162 7.26886 15.1651 7.28306 15.2477 7.37993C15.3007 7.44205 15.3132 7.52421 15.2891 7.5952L15.2893 7.59546Z" fill="#F89959"/>
<path d="M17.6388 10.1288C17.2277 10.3047 16.7754 10.3278 16.3314 10.2943C16.18 10.2794 16.0271 10.2558 15.8691 10.2041C16.1207 10.0162 16.3966 9.90359 16.6897 9.81332C16.9739 9.73243 17.261 9.67335 17.5607 9.69972C17.6905 9.71341 17.7841 9.82523 17.7699 9.94974C17.7607 10.0294 17.7083 10.0955 17.6388 10.129V10.1288Z" fill="#F89959"/>
<path d="M17.8348 14.7081C17.4025 14.5874 17.0419 14.3245 16.7257 14.0235C16.6205 13.918 16.5196 13.8051 16.4336 13.668C16.7518 13.6806 17.0383 13.7658 17.3229 13.8787C17.5942 13.9933 17.8531 14.1262 18.064 14.3321C18.1538 14.4228 18.15 14.5664 18.0554 14.6526C17.9948 14.7078 17.9101 14.7256 17.8345 14.7078L17.8348 14.7081Z" fill="#F89959"/>
<path d="M3.99246 14.4593C4.39588 14.2677 4.84673 14.2271 5.29173 14.2436C5.44362 14.2527 5.59728 14.2704 5.75728 14.3158C5.51386 14.5131 5.2428 14.6363 4.95373 14.738C4.67303 14.8298 4.38878 14.9 4.08831 14.8853C3.95823 14.8767 3.85985 14.7687 3.86872 14.6437C3.87455 14.5638 3.92425 14.4956 3.99221 14.4596L3.99246 14.4593Z" fill="#F89959"/>
<path d="M11.0466 3.99348C11.217 4.39335 11.2266 4.82796 11.1776 5.25269C11.1571 5.39747 11.1277 5.54327 11.0691 5.69313C10.8815 5.44591 10.773 5.17763 10.688 4.89364C10.6127 4.61826 10.5602 4.34112 10.597 4.05459C10.6152 3.93059 10.7347 3.84413 10.864 3.86162C10.9466 3.87278 11.0141 3.92527 11.0466 3.99323V3.99348Z" fill="#F89959"/>
<path d="M7.8147 19.329C7.99752 18.9342 8.31752 18.6266 8.67099 18.3665C8.79397 18.2805 8.92405 18.1999 9.07746 18.1367C9.02142 18.4377 8.89489 18.6986 8.73996 18.954C8.58503 19.1966 8.41312 19.4248 8.17197 19.5978C8.06624 19.671 7.91841 19.648 7.84209 19.5463C7.79315 19.4811 7.78605 19.3982 7.8147 19.329Z" fill="#F89959"/>
<path d="M17.0982 18.5461C16.7006 18.3435 16.4032 18.0156 16.1577 17.6591C16.0768 17.5354 16.0023 17.4053 15.9473 17.2539C16.2564 17.3285 16.5186 17.4679 16.7731 17.634C17.0145 17.7993 17.2397 17.9799 17.4025 18.2228C17.4712 18.3293 17.437 18.469 17.3259 18.5349C17.2549 18.577 17.1682 18.578 17.0979 18.5461H17.0982Z" fill="#F89959"/>
<path d="M3.58674 11.2931C4.00335 11.1296 4.45622 11.1202 4.89895 11.1671C5.04982 11.1866 5.2017 11.2148 5.3579 11.2711C5.10053 11.4511 4.82085 11.5556 4.52494 11.637C4.23815 11.7092 3.94934 11.7597 3.65064 11.7245C3.52132 11.707 3.43156 11.5923 3.44956 11.4684C3.46123 11.389 3.51574 11.3243 3.58649 11.2931H3.58674Z" fill="#F89959"/>
<path d="M6.66694 10.8411C7.11094 10.8023 7.55265 10.893 7.97103 11.0259C8.11278 11.0741 8.25351 11.1294 8.3917 11.2075C8.09832 11.2939 7.8019 11.3155 7.49509 11.3157C7.19918 11.3107 6.90681 11.2878 6.62536 11.1953C6.50415 11.1535 6.44431 11.0434 6.49198 10.9496C6.52241 10.8895 6.59113 10.8504 6.66719 10.8411H6.66694Z" fill="#F89959"/>
<path d="M16.3352 5.3502C16.1494 5.73892 15.8474 6.06171 15.519 6.34367C15.4049 6.43749 15.285 6.52725 15.1455 6.60332C15.2135 6.31629 15.3415 6.05866 15.4942 5.80307C15.646 5.55939 15.8121 5.32738 16.036 5.13898C16.1342 5.05885 16.2632 5.06392 16.3246 5.15014C16.3639 5.20541 16.3649 5.28199 16.3355 5.34995L16.3352 5.3502Z" fill="#F89959"/>
<path d="M20.3423 9.82704C19.9213 9.96752 19.4695 9.98172 19.0301 9.94951C18.8804 9.93557 18.7298 9.91452 18.5762 9.87066C18.8391 9.71902 19.1213 9.62926 19.4193 9.55801C19.7076 9.49462 19.9972 9.44897 20.2936 9.47357C20.4216 9.48599 20.5073 9.57906 20.4848 9.68124C20.4703 9.74666 20.4135 9.80042 20.342 9.82704H20.3423Z" fill="#F89959"/>
<path d="M20.3863 12.9259C19.9466 12.9966 19.4991 12.938 19.0713 12.8356C18.9263 12.7978 18.7815 12.7529 18.6377 12.685C18.9235 12.5777 19.2173 12.5346 19.5234 12.5123C19.8188 12.4961 20.1122 12.4976 20.4002 12.5696C20.5245 12.6026 20.5927 12.7078 20.5526 12.8049C20.527 12.8671 20.4616 12.9112 20.3865 12.9259H20.3863Z" fill="#F89959"/>
<path d="M8.74892 7.83627C9.07196 8.13117 9.29206 8.50974 9.46372 8.89948C9.51925 9.03336 9.56895 9.17155 9.59862 9.32268C9.3377 9.16775 9.12521 8.96819 8.92286 8.74683C8.73193 8.53003 8.55697 8.30385 8.44413 8.03963C8.39697 7.92451 8.44388 7.80889 8.5486 7.78125C8.6158 7.7635 8.69161 7.78733 8.74917 7.83602L8.74892 7.83627Z" fill="#F89959"/>
<path d="M12.8584 4.54841C12.9208 4.97212 12.8483 5.40014 12.7304 5.80762C12.6873 5.94582 12.6368 6.0835 12.5622 6.21967C12.4578 5.94277 12.4208 5.65954 12.4053 5.3654C12.3959 5.08166 12.4053 4.80021 12.4877 4.52559C12.5252 4.40743 12.6368 4.34455 12.7367 4.38562C12.8009 4.41174 12.845 4.47564 12.8584 4.54816V4.54841Z" fill="#F89959"/>
<path d="M8.13145 5.41528C8.44004 5.72387 8.64188 6.11208 8.79478 6.50866C8.84397 6.64508 8.88682 6.78505 8.90939 6.93744C8.65608 6.77135 8.45348 6.56241 8.26178 6.33243C8.08124 6.10752 7.91744 5.87373 7.81703 5.60495C7.77544 5.48805 7.82768 5.37446 7.93392 5.35164C8.00188 5.33693 8.07642 5.36406 8.1317 5.41528H8.13145Z" fill="#F89959"/>
<path d="M12.0334 6.94849C12.1148 7.36916 12.0618 7.79972 11.9629 8.21202C11.9262 8.35173 11.882 8.49145 11.8136 8.63091C11.6967 8.35858 11.6467 8.07737 11.6178 7.784C11.5955 7.50076 11.592 7.21931 11.6619 6.94165C11.6941 6.82197 11.8027 6.75452 11.9043 6.79128C11.9695 6.81487 12.0164 6.87673 12.0332 6.94849H12.0334Z" fill="#F89959"/>
<path d="M17.2248 6.88407C16.9867 7.24566 16.6429 7.52712 16.2783 7.76471C16.1523 7.84331 16.0209 7.91685 15.8721 7.97441C15.9793 7.69853 16.1416 7.45942 16.3282 7.22563C16.5126 7.0035 16.7093 6.79456 16.9571 6.63659C17.0654 6.56965 17.1926 6.5912 17.2413 6.68452C17.2725 6.74436 17.2631 6.82043 17.2243 6.88407H17.2248Z" fill="#F89959"/>
<path d="M6.83156 14.5394C7.19695 14.2944 7.62776 14.1631 8.05983 14.0796C8.20766 14.054 8.35853 14.035 8.51879 14.0373C8.30858 14.2518 8.06237 14.4118 7.79587 14.5579C7.53622 14.694 7.27048 14.8135 6.97837 14.867C6.85159 14.8883 6.74281 14.8213 6.73571 14.7171C6.73115 14.6504 6.77045 14.5837 6.83181 14.5396L6.83156 14.5394Z" fill="#F89959"/>
<path d="M4.56203 15.9905C4.92742 15.7456 5.35823 15.6142 5.7903 15.5308C5.93813 15.5052 6.089 15.4862 6.24926 15.4885C6.03905 15.703 5.79284 15.863 5.52634 16.009C5.26669 16.1452 5.00095 16.2646 4.70884 16.3181C4.58206 16.3394 4.47328 16.2725 4.46618 16.1683C4.46162 16.1016 4.50092 16.0349 4.56228 15.9908L4.56203 15.9905Z" fill="#F89959"/>
<path d="M7.45546 16.8859C7.7326 16.551 8.10611 16.3068 8.49508 16.108C8.62921 16.0428 8.76791 15.9832 8.92234 15.9414C8.7849 16.2046 8.5965 16.4255 8.38478 16.6387C8.1766 16.8406 7.95777 17.0279 7.69355 17.1595C7.57843 17.2148 7.45419 17.1803 7.41615 17.0825C7.39181 17.0198 7.40981 16.9453 7.4552 16.8859H7.45546Z" fill="#F89959"/>
<path d="M8.88104 16.7883C9.07604 16.4037 9.38513 16.0875 9.7201 15.8123C9.83623 15.7208 9.95819 15.6336 10.0994 15.5605C10.0249 15.8461 9.891 16.1009 9.73252 16.3532C9.57506 16.5936 9.40364 16.822 9.17543 17.0056C9.07553 17.0837 8.94646 17.0759 8.88738 16.9881C8.8496 16.9321 8.85011 16.8555 8.88104 16.7881V16.7883Z" fill="#F89959"/>
<path d="M17.059 13.0633C16.617 13.1178 16.1717 13.043 15.7485 12.9251C15.605 12.882 15.4623 12.8318 15.3213 12.7585C15.6111 12.6616 15.9065 12.6294 16.2131 12.6183C16.509 12.6129 16.8021 12.6251 17.0869 12.7078C17.2096 12.7453 17.2735 12.8531 17.2296 12.9487C17.2015 13.0098 17.1345 13.0514 17.0587 13.0633H17.059Z" fill="#F89959"/>
<path d="M20.3731 15.1942C19.9314 15.1379 19.5211 14.9556 19.1438 14.737C19.0168 14.6599 18.892 14.5763 18.7754 14.4708C19.0814 14.4487 19.3756 14.4906 19.6748 14.5555C19.9621 14.6232 20.242 14.7076 20.4953 14.8575C20.6039 14.9239 20.6368 15.0438 20.5689 15.1255C20.5253 15.1777 20.4494 15.2013 20.3731 15.1942Z" fill="#F89959"/>
<path d="M11.5061 17.415C11.5274 16.9878 11.6824 16.5803 11.8774 16.2009C11.9466 16.0729 12.0232 15.9469 12.1228 15.8262C12.1712 16.117 12.1527 16.4018 12.1104 16.6934C12.0642 16.9738 12.0003 17.2487 11.8657 17.5035C11.8059 17.6131 11.6839 17.6546 11.5936 17.5963C11.5358 17.559 11.5049 17.4886 11.5059 17.4148L11.5061 17.415Z" fill="#F89959"/>
<path d="M16.4955 16.6C16.1532 16.3259 15.9077 15.9618 15.7102 15.5837C15.6455 15.4534 15.5867 15.3188 15.5469 15.1699C15.8177 15.3081 16.0434 15.494 16.2604 15.7024C16.4655 15.9068 16.6555 16.1216 16.7863 16.3782C16.8411 16.49 16.8023 16.6084 16.6993 16.6424C16.6334 16.6642 16.5561 16.6452 16.4955 16.6Z" fill="#F89959"/>
<path d="M14.4548 16.2729C14.2051 15.9186 14.0742 15.5035 13.9933 15.0877C13.9687 14.9454 13.9512 14.8004 13.9558 14.6465C14.1764 14.8511 14.3394 15.09 14.4878 15.3476C14.626 15.5986 14.7467 15.8555 14.7982 16.1367C14.8187 16.2587 14.7472 16.3621 14.6384 16.3674C14.5689 16.371 14.5 16.3322 14.4548 16.2726V16.2729Z" fill="#F89959"/>
<path d="M11.1966 19.9873C11.2179 19.56 11.3728 19.1525 11.5678 18.7732C11.637 18.6452 11.7136 18.5189 11.8132 18.3984C11.8617 18.6893 11.8432 18.974 11.8008 19.2656C11.7547 19.5461 11.6908 19.8209 11.5561 20.0758C11.4963 20.1853 11.3746 20.2269 11.284 20.1686C11.2262 20.1313 11.1953 20.0608 11.1963 19.987L11.1966 19.9873Z" fill="#F89959"/>
<path d="M12.7207 19.4925C12.6355 19.0726 12.6845 18.6416 12.7798 18.2285C12.8153 18.0883 12.8581 17.9483 12.9253 17.8086C13.0448 18.0799 13.0973 18.3609 13.1287 18.6537C13.1536 18.9367 13.1596 19.2182 13.0922 19.4963C13.0613 19.6163 12.9532 19.6845 12.851 19.6487C12.7856 19.6259 12.7382 19.5643 12.7207 19.4925Z" fill="#F89959"/>
<path d="M16.0063 19.2917C15.68 19.0004 15.4556 18.6241 15.2794 18.2361C15.2223 18.1028 15.1711 17.9653 15.1396 17.8145C15.4023 17.9666 15.6171 18.1639 15.822 18.3832C16.0155 18.598 16.193 18.8224 16.3091 19.0853C16.3575 19.1999 16.3121 19.3161 16.2074 19.3447C16.1405 19.3632 16.0644 19.3402 16.0063 19.292V19.2917Z" fill="#F89959"/>
<path d="M6.36838 18.625C6.63361 18.2812 6.99798 18.0248 7.37985 17.8134C7.51145 17.7439 7.64813 17.6797 7.80077 17.6328C7.67272 17.9003 7.49244 18.1273 7.28857 18.3474C7.08775 18.556 6.87551 18.7503 6.61637 18.8905C6.50328 18.9496 6.37801 18.9192 6.33643 18.8225C6.3098 18.7607 6.32502 18.6856 6.36838 18.6248V18.625Z" fill="#F89959"/>
</svg>
