<svg width="20" height="20" viewBox="0 0 20 20" fill="none" xmlns="http://www.w3.org/2000/svg">
<path d="M7.91667 8.33333C9.5275 8.33333 10.8333 7.0275 10.8333 5.41667C10.8333 3.80584 9.5275 2.5 7.91667 2.5C6.30583 2.5 5 3.80584 5 5.41667C5 7.0275 6.30583 8.33333 7.91667 8.33333Z" stroke="#292D32" stroke-width="1.5" stroke-linecap="round" stroke-linejoin="round"/>
<path d="M13.75 3.33398C13.75 3.33398 14.6875 5.20898 13.75 7.50065" stroke="#292D32" stroke-width="1.5" stroke-linecap="round" stroke-linejoin="round"/>
<path d="M16.666 1.66602C16.666 1.66602 18.541 5.04102 16.666 9.16602" stroke="#292D32" stroke-width="1.5" stroke-linecap="round" stroke-linejoin="round"/>
<path d="M1.66602 16.9993V17.4993H14.166V16.9993C14.166 15.1325 14.166 14.1991 13.8027 13.4861C13.4831 12.8588 12.9732 12.3489 12.346 12.0293C11.6329 11.666 10.6995 11.666 8.83268 11.666H6.99935C5.13252 11.666 4.1991 11.666 3.48605 12.0293C2.85884 12.3489 2.3489 12.8588 2.02933 13.4861C1.66602 14.1991 1.66602 15.1325 1.66602 16.9993Z" stroke="#292D32" stroke-width="1.5" stroke-linecap="round" stroke-linejoin="round"/>
</svg>
