<svg width="20" height="20" viewBox="0 0 20 20" fill="none" xmlns="http://www.w3.org/2000/svg">
<path d="M4.58398 5.05771C4.58398 5.02475 4.60844 4.99692 4.64111 4.99271L13.3682 3.86663C15.5596 3.58389 17.5007 5.29063 17.5007 7.50009C17.5007 9.70954 15.5595 11.4163 13.3682 11.1335L4.64111 10.0075C4.60844 10.0033 4.58398 9.97542 4.58398 9.94246V5.05771Z" stroke="#292D32" stroke-width="1.5"/>
<path d="M4.58268 5.00065L1.66602 3.33398V11.6673L4.58268 10.0007" stroke="#292D32" stroke-width="1.5" stroke-linecap="round" stroke-linejoin="round"/>
<path d="M15.8324 10.416L13.0433 17.0402C12.7135 17.8234 11.9465 18.3327 11.0967 18.3327C9.58624 18.3327 8.56399 16.7931 9.15016 15.401L11.2491 10.416" stroke="#292D32" stroke-width="1.5"/>
<path d="M14.584 11.25C16.6551 11.25 18.334 9.57107 18.334 7.5C18.334 5.42893 16.6551 3.75 14.584 3.75C12.5129 3.75 10.834 5.42893 10.834 7.5C10.834 9.57107 12.5129 11.25 14.584 11.25Z" stroke="#292D32" stroke-width="1.5"/>
</svg>
