<svg width="32" height="30" viewBox="0 0 32 30" fill="none" xmlns="http://www.w3.org/2000/svg">
<path d="M28.75 6H12.25C11.0074 6 10 7.00736 10 8.25V17.25C10 18.4926 11.0074 19.5 12.25 19.5H28.75C29.9926 19.5 31 18.4926 31 17.25V8.25C31 7.00736 29.9926 6 28.75 6Z" stroke="#3C4EF2" stroke-width="2" stroke-linejoin="round"/>
<path d="M16 10.5V15" stroke="#3C4EF2" stroke-width="2" stroke-linecap="round"/>
<path d="M25 10.5V15" stroke="#3C4EF2" stroke-width="2" stroke-linecap="round"/>
<path d="M25 6V1.5H16V6" stroke="#3C4EF2" stroke-width="2" stroke-linecap="round" stroke-linejoin="round"/>
<path d="M31 24H7C6.17155 24 5.5 23.3284 5.5 22.5V5.25C5.5 4.42157 4.82843 3.75 4 3.75H1" stroke="#3C4EF2" stroke-width="2" stroke-linecap="round" stroke-linejoin="round"/>
<path d="M12.25 28.5C11.0073 28.5 10 27.4927 10 26.25V24H14.5V26.25C14.5 27.4927 13.4927 28.5 12.25 28.5Z" stroke="#3C4EF2" stroke-width="2" stroke-linecap="round" stroke-linejoin="round"/>
<path d="M25.75 28.5C24.5073 28.5 23.5 27.4927 23.5 26.25V24H28V26.25C28 27.4927 26.9927 28.5 25.75 28.5Z" stroke="#3C4EF2" stroke-width="2" stroke-linecap="round" stroke-linejoin="round"/>
</svg>
