<svg width="240" height="240" viewBox="0 0 240 240" fill="none" xmlns="http://www.w3.org/2000/svg">
<path d="M123.51 219.049C119.94 220.317 114.06 220.317 110.49 219.049C80.04 208.593 12 164.973 12 91.0404C12 58.4045 38.145 32 70.38 32C89.49 32 106.395 41.2944 117 55.6584C127.605 41.2944 144.615 32 163.62 32C195.855 32 222 58.4045 222 91.0404C222 164.973 153.96 208.593 123.51 219.049Z" fill="#FFC226"/>
<path d="M127.51 213.049C123.94 214.317 118.06 214.317 114.49 213.049C84.04 202.593 16 158.973 16 85.0404C16 52.4045 42.145 26 74.38 26C93.49 26 110.395 35.2944 121 49.6584C131.605 35.2944 148.615 26 167.62 26C199.855 26 226 52.4045 226 85.0404C226 158.973 157.96 202.593 127.51 213.049Z" stroke="#292D32" stroke-width="2" stroke-linecap="round" stroke-linejoin="round"/>
</svg>
