<svg width="240" height="240" viewBox="0 0 240 240" fill="none" xmlns="http://www.w3.org/2000/svg">
<path d="M44.6365 151.073C27.3456 158.22 11.0121 178.601 12.0467 200.784L220 208C211.206 198.111 188.299 186.048 160.252 191.162C133.87 195.973 115.247 178.066 107.488 171.118C85.1049 151.073 64.0347 143.054 44.6365 151.073Z" fill="#FFC226"/>
<path d="M22.0467 196.784C21.0121 174.601 37.3456 154.22 54.6365 147.073C74.0347 139.054 95.1049 147.073 117.488 167.118C125.247 174.066 143.87 191.973 170.252 187.162C198.299 182.048 221.206 194.111 230 204" stroke="#292D32" stroke-width="2"/>
<path d="M32 164.569L49.2114 105.955C52.6316 93.7075 62.4068 83.2641 69.2913 105.955L77.897 128.645L99.4112 53.4828C104.211 34.967 118.917 11.5054 133.834 53.4828L162.52 145.663L175.428 118.718C178.297 112.1 186.042 102.835 194.074 118.718C202.106 134.602 220.351 180.146 228 200" stroke="#292D32" stroke-width="2"/>
<path d="M124.727 36.1445L99.5727 53.7772" stroke="#292D32" stroke-width="2"/>
<path d="M129.385 44.4609L94.9147 68.6832" stroke="#292D32" stroke-width="2"/>
<path d="M133.111 52.8438L91.1883 81.7241" stroke="#292D32" stroke-width="2"/>
<path d="M135.906 62.6367L87.4618 93.8347" stroke="#292D32" stroke-width="2"/>
<path d="M138.701 71.4766L85.5986 105.015" stroke="#292D32" stroke-width="2"/>
<path d="M142.428 79.6992L81.8722 117.123" stroke="#292D32" stroke-width="2"/>
<path d="M145.223 89.9258L78.1457 130.168" stroke="#292D32" stroke-width="2"/>
</svg>
