<svg width="72" height="73" viewBox="0 0 72 73" fill="none" xmlns="http://www.w3.org/2000/svg">
<rect y="0.5" width="72" height="72" rx="36" fill="#3C4EF2" fill-opacity="0.1"/>
<path d="M47.4152 27.5694C45.7685 24.2444 42.586 21.7902 38.8968 20.9827C35.0335 20.1277 31.0752 21.0461 28.051 23.4844C25.011 25.9069 23.2852 29.5327 23.2852 33.4119C23.2852 37.5127 25.7393 41.8036 29.4443 44.2894V45.6036C29.4285 46.0469 29.4127 46.7277 29.951 47.2819C30.5052 47.8519 31.3285 47.9152 31.9777 47.9152H40.1002C40.9552 47.9152 41.6043 47.6777 42.0477 47.2344C42.6493 46.6169 42.6335 45.8252 42.6177 45.3977V44.2894C47.526 40.9802 50.6135 33.9977 47.4152 27.5694Z" fill="#3C4EF2"/>
<path d="M41.1613 52.3335C41.0663 52.3335 40.9555 52.3176 40.8605 52.286C37.678 51.3835 34.3372 51.3835 31.1547 52.286C30.5688 52.4443 29.9513 52.1118 29.793 51.526C29.6188 50.9401 29.9672 50.3226 30.553 50.1643C34.1313 49.151 37.8997 49.151 41.478 50.1643C42.0638 50.3385 42.4122 50.9401 42.238 51.526C42.0797 52.0168 41.6363 52.3335 41.1613 52.3335Z" fill="#3C4EF2"/>
</svg>
