<svg width="38" height="38" viewBox="0 0 38 38" fill="none" xmlns="http://www.w3.org/2000/svg">
<path d="M30.4152 10.0694C28.7685 6.74441 25.586 4.29024 21.8968 3.48274C18.0335 2.62774 14.0752 3.54607 11.051 5.98441C8.01099 8.40691 6.28516 12.0327 6.28516 15.9119C6.28516 20.0127 8.73932 24.3036 12.4443 26.7894V28.1036C12.4285 28.5469 12.4127 29.2277 12.951 29.7819C13.5052 30.3519 14.3285 30.4152 14.9777 30.4152H23.1002C23.9552 30.4152 24.6043 30.1777 25.0477 29.7344C25.6493 29.1169 25.6335 28.3252 25.6177 27.8977V26.7894C30.526 23.4802 33.6135 16.4977 30.4152 10.0694Z" fill="#3C4EF2"/>
<path d="M24.1613 34.8335C24.0663 34.8335 23.9555 34.8176 23.8605 34.786C20.678 33.8835 17.3372 33.8835 14.1547 34.786C13.5688 34.9443 12.9513 34.6118 12.793 34.026C12.6188 33.4401 12.9672 32.8226 13.553 32.6643C17.1313 31.651 20.8997 31.651 24.478 32.6643C25.0638 32.8385 25.4122 33.4401 25.238 34.026C25.0797 34.5168 24.6363 34.8335 24.1613 34.8335Z" fill="#3C4EF2"/>
</svg>
