<svg width="20" height="20" viewBox="0 0 20 20" fill="none" xmlns="http://www.w3.org/2000/svg">
<path d="M10.0004 11.8089C8.22539 11.8089 6.77539 10.3672 6.77539 8.58385C6.77539 6.80052 8.22539 5.36719 10.0004 5.36719C11.7754 5.36719 13.2254 6.80885 13.2254 8.59219C13.2254 10.3755 11.7754 11.8089 10.0004 11.8089ZM10.0004 6.61719C8.91706 6.61719 8.02539 7.50052 8.02539 8.59219C8.02539 9.68385 8.90872 10.5672 10.0004 10.5672C11.0921 10.5672 11.9754 9.68385 11.9754 8.59219C11.9754 7.50052 11.0837 6.61719 10.0004 6.61719Z" fill="#292D32"/>
<path d="M9.99941 18.966C8.76608 18.966 7.52441 18.4993 6.55775 17.5744C4.09941 15.2077 1.38275 11.4327 2.40775 6.94102C3.33275 2.86602 6.89108 1.04102 9.99941 1.04102C9.99941 1.04102 9.99941 1.04102 10.0077 1.04102C13.1161 1.04102 16.6744 2.86602 17.5994 6.94935C18.6161 11.441 15.8994 15.2077 13.4411 17.5744C12.4744 18.4993 11.2327 18.966 9.99941 18.966ZM9.99941 2.29102C7.57441 2.29102 4.45775 3.58268 3.63275 7.21602C2.73275 11.141 5.19941 14.5243 7.43275 16.666C8.87441 18.0577 11.1327 18.0577 12.5744 16.666C14.7994 14.5243 17.2661 11.141 16.3827 7.21602C15.5494 3.58268 12.4244 2.29102 9.99941 2.29102Z" fill="#292D32"/>
</svg>
