<svg width="24" height="25" viewBox="0 0 24 25" fill="none" xmlns="http://www.w3.org/2000/svg">
<path d="M11.9999 14.6695C9.86988 14.6695 8.12988 12.9395 8.12988 10.7995C8.12988 8.65945 9.86988 6.93945 11.9999 6.93945C14.1299 6.93945 15.8699 8.66945 15.8699 10.8095C15.8699 12.9495 14.1299 14.6695 11.9999 14.6695ZM11.9999 8.43945C10.6999 8.43945 9.62988 9.49945 9.62988 10.8095C9.62988 12.1195 10.6899 13.1795 11.9999 13.1795C13.3099 13.1795 14.3699 12.1195 14.3699 10.8095C14.3699 9.49945 13.2999 8.43945 11.9999 8.43945Z" fill="#B5B5B5"/>
<path d="M11.9997 23.26C10.5197 23.26 9.02969 22.7 7.86969 21.59C4.91969 18.75 1.65969 14.22 2.88969 8.83C3.99969 3.94 8.26969 1.75 11.9997 1.75C11.9997 1.75 11.9997 1.75 12.0097 1.75C15.7397 1.75 20.0097 3.94 21.1197 8.84C22.3397 14.23 19.0797 18.75 16.1297 21.59C14.9697 22.7 13.4797 23.26 11.9997 23.26ZM11.9997 3.25C9.08969 3.25 5.34969 4.8 4.35969 9.16C3.27969 13.87 6.23969 17.93 8.91969 20.5C10.6497 22.17 13.3597 22.17 15.0897 20.5C17.7597 17.93 20.7197 13.87 19.6597 9.16C18.6597 4.8 14.9097 3.25 11.9997 3.25Z" fill="#B5B5B5"/>
</svg>
