<svg width="225" height="47" viewBox="0 0 225 47" fill="none" xmlns="http://www.w3.org/2000/svg">
<path d="M206.223 0.0902113C205.803 0.0501174 205.354 0.0300708 204.905 0.0200474C204.755 0.0200474 204.606 0 204.456 0C204.436 0 204.426 0 204.406 0C204.386 0 204.366 0 204.346 0C204.216 0 204.096 0.0200474 203.967 0.0200474V0H34.672C34.672 0 34.6421 0 34.6221 0C34.6021 0 34.5921 0 34.5722 0C34.5522 0 34.5323 0 34.5123 0C31.3079 0 28.0536 0.671572 25.0987 1.9245C18.1808 4.88142 6.55107 15.5965 1.19042 20.7486C-0.396808 22.2721 -0.396808 24.8181 1.19042 26.3417C6.56106 31.4837 18.2007 42.1988 24.939 45.0755C27.8938 46.3385 31.1482 47 34.3526 47C34.4125 47 34.4524 47 34.5123 47C34.5323 47 34.5522 47 34.5622 47H203.947C204.027 46.99 204.096 47 204.176 47C204.236 47 204.276 47 204.336 47C204.376 47 204.406 47 204.436 47C204.755 47 205.055 46.9599 205.364 46.9499C205.564 46.9399 205.784 46.9399 205.973 46.9198C217.842 46.0979 225 35.9441 225 23.495C225 11.0459 217.912 1.01237 206.203 0.0801876L206.223 0.0902113Z" fill="#3C4EF2"/>
<path d="M39.0123 33.3502C40.5523 32.1102 41.4123 30.2802 41.5323 28.6202C41.7023 26.2502 40.6023 24.7502 39.9923 24.0602C39.8723 23.9202 39.6323 23.7002 39.3423 23.4602C39.6223 23.2202 39.8623 23.0002 39.9923 22.8602C40.5923 22.1702 41.7023 20.6702 41.5323 18.3002C41.4123 16.6402 40.5523 14.8002 39.0123 13.5702C37.1923 12.1102 35.1423 11.5402 32.7023 11.6302C31.1023 11.6902 29.2423 12.1702 27.8123 12.7402C27.1423 13.0102 26.4223 13.4102 25.6723 13.8902C25.1323 14.2302 25.0323 14.9802 25.4523 15.4602L26.6723 16.8302C27.0023 17.2002 27.5623 17.2902 27.9823 17.0302C28.4723 16.7302 28.9223 16.4902 29.3323 16.3202C31.3323 15.4702 34.4623 15.0602 36.3523 16.8502C36.9623 17.4302 37.1423 17.9402 37.2023 18.6402C37.2623 19.3802 37.0523 19.8502 36.7323 20.2702C36.7238 20.2811 36.7145 20.2936 36.704 20.3075C36.4937 20.588 35.8462 21.4516 32.9023 21.4802L31.8723 21.5002C31.4323 21.5002 31.0823 21.8702 31.0823 22.3102V24.6302C31.0823 25.0702 31.4323 25.4302 31.8723 25.4402L32.9623 25.4602C35.8779 25.4996 36.5426 26.4025 36.7244 26.6494L36.7323 26.6602C37.0623 27.0902 37.2623 27.5502 37.2023 28.2902C37.1423 28.9902 36.9623 29.4902 36.3523 30.0802C34.4723 31.8702 31.3323 31.4602 29.3323 30.6102C28.9223 30.4402 28.4723 30.1902 27.9823 29.9002C27.5523 29.6402 27.0023 29.7302 26.6723 30.1002L25.4523 31.4702C25.0323 31.9502 25.1323 32.6902 25.6723 33.0402C26.4223 33.5202 27.1423 33.9302 27.8123 34.1902C29.2323 34.7502 31.1023 35.2402 32.7023 35.3002C35.1523 35.3902 37.2023 34.8202 39.0123 33.3602V33.3502Z" fill="white"/>
<path d="M20.0126 23.4802C21.0026 22.5402 21.8626 21.7602 22.8326 20.9302C23.3026 20.5302 23.3626 19.8102 22.9426 19.3402L21.8426 18.1002C21.4426 17.6502 20.7526 17.6002 20.2926 17.9902C18.5326 19.4902 16.6126 21.3402 15.4726 22.4602C14.9026 23.0202 14.9126 23.9202 15.4726 24.4702C16.6526 25.6202 18.6626 27.5402 20.3626 28.9902C20.7826 29.3502 21.4226 29.3002 21.7926 28.8902L22.8726 27.6702C23.3926 27.0802 23.3526 26.4202 22.9126 26.0502C21.9126 25.2102 21.0126 24.4102 20.0226 23.4802H20.0126Z" fill="white"/>
<path fill-rule="evenodd" clip-rule="evenodd" d="M62.3125 15.2503H62.5325V13.5903C62.5325 12.9603 63.0425 12.4403 63.6825 12.4403H65.9125C66.5425 12.4403 67.0625 12.9503 67.0625 13.5903V33.3003C67.0625 33.9303 66.5525 34.4503 65.9125 34.4503H63.6825C63.0525 34.4503 62.5325 33.9403 62.5325 33.3003V31.4303H62.3125C61.8825 32.0403 61.2925 32.6103 60.5425 33.1603C58.9825 34.3203 57.2725 34.8903 55.4025 34.8903C52.4425 34.8903 49.9725 33.8303 48.0025 31.7203C46.0325 29.6003 45.0425 26.8503 45.0425 23.4503C45.0425 20.0503 46.0325 17.3003 48.0025 15.1803C49.9725 13.0703 52.4425 12.0103 55.4025 12.0103C57.2725 12.0103 58.9925 12.5603 60.5425 13.6503C61.2025 14.1103 61.7925 14.6503 62.3125 15.2503ZM56.2725 30.7903C58.1725 30.7903 59.6825 30.1503 60.8225 28.8703C61.9625 27.5903 62.5325 25.7803 62.5325 23.4503C62.5325 21.1203 61.9625 19.3103 60.8225 18.0303C59.6925 16.7503 58.1725 16.1103 56.2725 16.1103C54.2525 16.1103 52.6725 16.7403 51.5225 18.0103C50.3625 19.2803 49.7925 21.0903 49.7925 23.4503C49.7925 25.8103 50.3725 27.6203 51.5225 28.8903C52.6725 30.1603 54.2625 30.7903 56.2725 30.7903Z" fill="white"/>
<path d="M90.3624 12.4402H87.8825C87.4625 12.4402 87.0825 12.6602 86.8825 13.0302L82.2425 21.2902H81.1625L76.5325 13.0302C76.3325 12.6702 75.9425 12.4402 75.5325 12.4402H73.0425C72.1525 12.4402 71.6025 13.4102 72.0525 14.1802L77.5025 23.4502L71.8725 32.7102C71.4025 33.4802 71.9625 34.4602 72.8525 34.4602H75.3125C75.7225 34.4602 76.1025 34.2402 76.3125 33.8802L81.1625 25.4002H82.2425L87.0925 33.8802C87.3025 34.2402 87.6825 34.4602 88.0925 34.4602H90.5525C91.4525 34.4602 92.0025 33.4802 91.5325 32.7102L85.9025 23.4502L91.3525 14.1802C91.8025 13.4102 91.2524 12.4402 90.3624 12.4402Z" fill="white"/>
<path fill-rule="evenodd" clip-rule="evenodd" d="M96.9225 15.3103C99.1225 13.1103 101.843 12.0103 105.063 12.0103C108.293 12.0103 111.003 13.1103 113.203 15.3103C115.403 17.5103 116.503 20.2203 116.503 23.4503C116.503 26.6803 115.403 29.3903 113.203 31.5903C111.003 33.7903 108.293 34.8903 105.063 34.8903C101.833 34.8903 99.1225 33.7903 96.9225 31.5903C94.7225 29.3903 93.6226 26.6803 93.6226 23.4503C93.6226 20.2203 94.7225 17.5103 96.9225 15.3103ZM105.063 30.7903C107.053 30.7903 108.663 30.1203 109.903 28.7803C111.143 27.4403 111.763 25.6603 111.763 23.4503C111.763 21.2403 111.143 19.4603 109.903 18.1203C108.663 16.7803 107.043 16.1103 105.063 16.1103C103.083 16.1103 101.473 16.7803 100.233 18.1203C98.9925 19.4603 98.3726 21.2303 98.3726 23.4503C98.3726 25.6703 98.9925 27.4403 100.233 28.7803C101.463 30.1203 103.073 30.7903 105.063 30.7903Z" fill="white"/>
<path d="M119.882 16.5402H126.072V33.3002C126.072 33.9402 126.592 34.4502 127.222 34.4502H129.452C130.092 34.4502 130.602 33.9302 130.602 33.3002V16.5402H136.792C137.432 16.5402 137.942 16.0202 137.942 15.3902V13.5902C137.942 12.9502 137.422 12.4402 136.792 12.4402H119.882C119.242 12.4402 118.732 12.9602 118.732 13.5902V15.3902C118.732 16.0302 119.252 16.5402 119.882 16.5402Z" fill="white"/>
<path fill-rule="evenodd" clip-rule="evenodd" d="M143.213 15.3103C145.383 13.1103 148.033 12.0103 151.173 12.0103H151.183C154.323 12.0103 156.983 13.1103 159.153 15.3103C161.323 17.5103 162.413 20.2303 162.413 23.4503V23.4903C162.413 24.3003 161.753 24.9603 160.943 24.9603H144.493C144.833 26.7703 145.623 28.1903 146.863 29.2303C148.103 30.2603 149.543 30.7803 151.183 30.7803C153.203 30.7803 154.813 30.2803 156.023 29.2703C156.403 29.0003 156.743 28.6703 157.053 28.2903C157.333 27.9503 157.753 27.7603 158.433 27.7603H160.063C161.073 27.7603 161.693 28.8903 161.143 29.7403C160.763 30.3303 160.343 30.8703 159.893 31.3503C157.533 33.7103 154.623 34.8903 151.173 34.8903C148.043 34.8903 145.383 33.7903 143.213 31.5903C141.043 29.3903 139.953 26.6803 139.953 23.4503C139.953 20.2203 141.043 17.5103 143.213 15.3103ZM147.033 17.5103C145.823 18.4503 145.053 19.7103 144.703 21.2903H157.653C157.393 19.8503 156.713 18.6303 155.603 17.6203C154.493 16.6103 153.013 16.1103 151.173 16.1103C149.623 16.1103 148.243 16.5803 147.033 17.5103Z" fill="white"/>
<path d="M169.753 13.4302L164.453 32.7502C164.213 33.6102 164.863 34.4602 165.753 34.4602H167.693C168.303 34.4602 168.843 34.0502 168.993 33.4602L173.473 16.5502H176.283L180.763 33.4602C180.923 34.0502 181.453 34.4602 182.063 34.4602H184.003C184.893 34.4602 185.543 33.6102 185.303 32.7502L180.003 13.4302C179.843 12.8402 179.313 12.4402 178.703 12.4402H171.043C170.433 12.4402 169.903 12.8502 169.743 13.4302H169.753Z" fill="white"/>
<path d="M203.583 13.0502C203.833 12.6702 204.263 12.4402 204.713 12.4402H207.603C208.353 12.4402 208.953 13.0502 208.953 13.7902V33.1102C208.953 33.8602 208.343 34.4602 207.603 34.4602H205.763C205.013 34.4602 204.413 33.8502 204.413 33.1102V19.7802L204.453 19.3502H204.023L194.453 33.8502C194.203 34.2302 193.773 34.4602 193.323 34.4602H190.433C189.683 34.4602 189.083 33.8502 189.083 33.1102V13.7902C189.083 13.0402 189.693 12.4402 190.433 12.4402H192.273C193.023 12.4402 193.623 13.0502 193.623 13.7902V27.1202L193.583 27.5502H194.013L203.583 13.0502Z" fill="white"/>
</svg>
