<svg width="32" height="32" viewBox="0 0 32 32" fill="none" xmlns="http://www.w3.org/2000/svg">
<path d="M12.6667 13.3333C15.244 13.3333 17.3333 11.244 17.3333 8.66667C17.3333 6.08934 15.244 4 12.6667 4C10.0893 4 8 6.08934 8 8.66667C8 11.244 10.0893 13.3333 12.6667 13.3333Z" stroke="#3C4EF2" stroke-width="2" stroke-linecap="round" stroke-linejoin="round"/>
<path d="M22 5.33398C22 5.33398 23.5 8.33398 22 12.0007" stroke="#3C4EF2" stroke-width="2" stroke-linecap="round" stroke-linejoin="round"/>
<path d="M26.666 2.66602C26.666 2.66602 29.666 8.06602 26.666 14.666" stroke="#3C4EF2" stroke-width="2" stroke-linecap="round" stroke-linejoin="round"/>
<path d="M2.66602 27.1993V27.9993H22.666V27.1993C22.666 24.2124 22.666 22.7189 22.0848 21.5781C21.5734 20.5745 20.7575 19.7586 19.7539 19.2473C18.6131 18.666 17.1196 18.666 14.1327 18.666H11.1993C8.21242 18.666 6.71895 18.666 5.57807 19.2473C4.57454 19.7586 3.75864 20.5745 3.24732 21.5781C2.66602 22.7189 2.66602 24.2124 2.66602 27.1993Z" stroke="#3C4EF2" stroke-width="2" stroke-linecap="round" stroke-linejoin="round"/>
</svg>
