<svg width="240" height="240" viewBox="0 0 240 240" fill="none" xmlns="http://www.w3.org/2000/svg">
<path d="M121 120C149.995 120 173.5 96.4949 173.5 67.5C173.5 38.5051 149.995 15 121 15C92.0051 15 68.5 38.5051 68.5 67.5C68.5 96.4949 92.0051 120 121 120Z" stroke="#292D32" stroke-width="2" stroke-linecap="round" stroke-linejoin="round"/>
<path d="M210.833 225C210.833 184.365 170.309 151.5 120.417 151.5C70.5243 151.5 30 184.365 30 225" stroke="#292D32" stroke-width="2" stroke-linecap="round" stroke-linejoin="round"/>
<path d="M111 120C139.995 120 163.5 96.4949 163.5 67.5C163.5 38.5051 139.995 15 111 15C82.0051 15 58.5 38.5051 58.5 67.5C58.5 96.4949 82.0051 120 111 120Z" fill="#FFC226"/>
<path d="M200.833 225C200.833 184.365 160.309 151.5 110.417 151.5C60.5243 151.5 20 184.365 20 225" fill="#FFC226"/>
<path d="M121 120C149.995 120 173.5 96.4949 173.5 67.5C173.5 38.5051 149.995 15 121 15C92.0051 15 68.5 38.5051 68.5 67.5C68.5 96.4949 92.0051 120 121 120Z" stroke="#292D32" stroke-width="2" stroke-linecap="round" stroke-linejoin="round"/>
<path d="M210.833 225C210.833 184.365 170.309 151.5 120.417 151.5C70.5243 151.5 30 184.365 30 225" stroke="#292D32" stroke-width="2" stroke-linecap="round" stroke-linejoin="round"/>
</svg>
