<svg width="24" height="24" viewBox="0 0 24 24" fill="none" xmlns="http://www.w3.org/2000/svg">
<path opacity="0.4" d="M2.55714 4.71348L2.55724 4.71303C2.89436 3.25077 4.15477 2.50086 5.47461 2.50195C6.79468 2.50305 8.05526 3.25536 8.39264 4.71232C8.78915 6.46483 7.69258 8.00975 6.59628 9.0576C5.96911 9.64507 4.98095 9.64507 4.35378 9.05761C3.25525 8.00764 2.15188 6.46386 2.55714 4.71348ZM4.01003 5.2007C4.01003 6.02685 4.68388 6.7007 5.51003 6.7007C6.34942 6.7007 7.01003 6.02358 7.01003 5.2007C7.01003 4.37783 6.34942 3.7007 5.51003 3.7007H5.50003C4.66736 3.7007 4.01003 4.38113 4.01003 5.2007Z" fill="#3C4EF2" stroke="#3C4EF2"/>
<path d="M6.00977 5.19922C6.00977 5.47634 5.79037 5.69922 5.50977 5.69922C5.23591 5.69922 5.00977 5.47308 5.00977 5.19922C5.00977 4.91879 5.23243 4.69922 5.49977 4.69922H5.50977C5.79037 4.69922 6.00977 4.92209 6.00977 5.19922Z" fill="#3C4EF2" stroke="#3C4EF2"/>
<path opacity="0.4" d="M21.4228 16.7133L21.4229 16.7135C21.8281 18.4638 20.7245 20.008 19.617 21.0569C18.9896 21.6453 17.9904 21.6453 17.363 21.0569C16.2556 20.008 15.152 18.4641 15.557 16.7139C15.8985 15.2521 17.1659 14.5009 18.4933 14.502C19.8214 14.5031 21.0861 15.2569 21.4228 16.7133ZM17.03 17.2007C17.03 18.0268 17.7039 18.7007 18.53 18.7007C19.3561 18.7007 20.03 18.0268 20.03 17.2007C20.03 16.3746 19.3561 15.7007 18.53 15.7007H18.52C17.6873 15.7007 17.03 16.3811 17.03 17.2007Z" fill="#3C4EF2" stroke="#3C4EF2"/>
<path d="M19.0303 17.1992C19.0303 17.4731 18.8041 17.6992 18.5303 17.6992C18.2564 17.6992 18.0303 17.4731 18.0303 17.1992C18.0303 16.9188 18.2529 16.6992 18.5203 16.6992H18.5303C18.8041 16.6992 19.0303 16.9254 19.0303 17.1992Z" fill="#3C4EF2" stroke="#3C4EF2"/>
<path d="M7.2193 17.7963L7.21932 17.7963L7.21788 17.7925C6.88291 16.9102 7.12494 15.9396 7.84078 15.3053C7.84112 15.305 7.84146 15.3047 7.84181 15.3044L15.8296 8.31632L15.8297 8.31629C16.5053 7.72512 16.5101 6.91782 16.321 6.39107L16.3211 6.39102L16.3171 6.38051C16.1139 5.85206 15.5803 5.25 14.6804 5.25H12.0004C11.8666 5.25 11.7504 5.13386 11.7504 5C11.7504 4.86614 11.8666 4.75 12.0004 4.75H14.6804C15.6331 4.75 16.4548 5.32148 16.7816 6.20366L16.7815 6.20366L16.783 6.20746C17.1179 7.08981 16.8759 8.06039 16.1601 8.69467C16.1597 8.69497 16.1594 8.69528 16.159 8.69558L8.17121 15.6837L8.17118 15.6837C7.49556 16.2749 7.49074 17.0822 7.67983 17.6089L7.67971 17.609L7.68376 17.6195C7.88701 18.1479 8.4206 18.75 9.32043 18.75H12.0004C12.1343 18.75 12.2504 18.8661 12.2504 19C12.2504 19.1339 12.1343 19.25 12.0004 19.25H9.32043C8.3678 19.25 7.54603 18.6785 7.2193 17.7963Z" fill="#3C4EF2" stroke="#3C4EF2"/>
</svg>
