<svg width="32" height="33" viewBox="0 0 32 33" fill="none" xmlns="http://www.w3.org/2000/svg">
<path d="M17.3326 16.1663C17.0793 16.1663 16.8259 16.073 16.6259 15.873C16.2393 15.4863 16.2393 14.8463 16.6259 14.4597L27.5593 3.52633C27.9459 3.13966 28.5859 3.13966 28.9726 3.52633C29.3593 3.91299 29.3593 4.55299 28.9726 4.93966L18.0393 15.873C17.8393 16.073 17.5859 16.1663 17.3326 16.1663Z" fill="#3C4EF2"/>
<path d="M29.3336 10.566C28.7869 10.566 28.3336 10.1127 28.3336 9.56602V4.16602H22.9336C22.3869 4.16602 21.9336 3.71268 21.9336 3.16602C21.9336 2.61935 22.3869 2.16602 22.9336 2.16602H29.3336C29.8803 2.16602 30.3336 2.61935 30.3336 3.16602V9.56602C30.3336 10.1127 29.8803 10.566 29.3336 10.566Z" fill="#3C4EF2"/>
<path d="M19.9993 30.8327H11.9993C4.75935 30.8327 1.66602 27.7393 1.66602 20.4993V12.4993C1.66602 5.25935 4.75935 2.16602 11.9993 2.16602H14.666C15.2127 2.16602 15.666 2.61935 15.666 3.16602C15.666 3.71268 15.2127 4.16602 14.666 4.16602H11.9993C5.85268 4.16602 3.66602 6.35268 3.66602 12.4993V20.4993C3.66602 26.646 5.85268 28.8327 11.9993 28.8327H19.9993C26.146 28.8327 28.3327 26.646 28.3327 20.4993V17.8327C28.3327 17.286 28.786 16.8327 29.3327 16.8327C29.8794 16.8327 30.3327 17.286 30.3327 17.8327V20.4993C30.3327 27.7393 27.2393 30.8327 19.9993 30.8327Z" fill="#3C4EF2"/>
</svg>
