<svg width="20" height="20" viewBox="0 0 20 20" fill="none" xmlns="http://www.w3.org/2000/svg">
<path d="M15.4173 10.6257C15.0757 10.6257 14.7923 10.3423 14.7923 10.0007C14.7923 7.35898 12.6423 5.20898 10.0007 5.20898C7.35898 5.20898 5.20898 7.35898 5.20898 10.0007C5.20898 10.3423 4.92565 10.6257 4.58398 10.6257C4.24232 10.6257 3.95898 10.3423 3.95898 10.0007C3.95898 6.66732 6.66732 3.95898 10.0007 3.95898C13.334 3.95898 16.0423 6.66732 16.0423 10.0007C16.0423 10.3423 15.759 10.6257 15.4173 10.6257Z" fill="#292D32"/>
<path d="M18.334 10.834H18.2673C17.809 10.834 17.434 10.459 17.434 10.0007C17.434 9.54232 17.809 9.16732 18.2673 9.16732C18.7256 9.16732 19.134 9.54232 19.134 10.0007C19.134 10.459 18.7923 10.834 18.334 10.834ZM1.734 10.834H1.66732C1.20898 10.834 0.833984 10.459 0.833984 10.0007C0.833984 9.54232 1.20898 9.16732 1.66732 9.16732C2.12565 9.16732 2.53397 9.54232 2.53397 10.0007C2.53397 10.459 2.19233 10.834 1.734 10.834ZM15.8423 4.99231C15.6257 4.99231 15.4173 4.90899 15.2506 4.75066C14.9256 4.42566 14.9256 3.90066 15.2506 3.57566L15.359 3.46732C15.684 3.14232 16.209 3.14232 16.534 3.46732C16.859 3.79232 16.859 4.31732 16.534 4.64232L16.4257 4.75066C16.2673 4.90899 16.059 4.99231 15.8423 4.99231ZM4.15898 4.99231C3.94231 4.99231 3.73401 4.90899 3.56734 4.75066L3.459 4.64232C3.134 4.31732 3.134 3.79232 3.459 3.46732C3.784 3.14232 4.30898 3.14232 4.63398 3.46732L4.74232 3.57566C5.06732 3.90066 5.06732 4.42566 4.74232 4.75066C4.58399 4.90899 4.36731 4.99231 4.15898 4.99231ZM10.0007 2.53399C9.54232 2.53399 9.16732 2.19231 9.16732 1.73397V1.66732C9.16732 1.20898 9.54232 0.833984 10.0007 0.833984C10.459 0.833984 10.834 1.20898 10.834 1.66732C10.834 2.12565 10.459 2.53399 10.0007 2.53399Z" fill="#292D32"/>
<path d="M16.6673 13.125H3.33398C2.99232 13.125 2.70898 12.8417 2.70898 12.5C2.70898 12.1583 2.99232 11.875 3.33398 11.875H16.6673C17.009 11.875 17.2923 12.1583 17.2923 12.5C17.2923 12.8417 17.009 13.125 16.6673 13.125Z" fill="#292D32"/>
<path d="M15 15.625H5C4.65833 15.625 4.375 15.3417 4.375 15C4.375 14.6583 4.65833 14.375 5 14.375H15C15.3417 14.375 15.625 14.6583 15.625 15C15.625 15.3417 15.3417 15.625 15 15.625Z" fill="#292D32"/>
<path d="M12.5 18.125H7.5C7.15833 18.125 6.875 17.8417 6.875 17.5C6.875 17.1583 7.15833 16.875 7.5 16.875H12.5C12.8417 16.875 13.125 17.1583 13.125 17.5C13.125 17.8417 12.8417 18.125 12.5 18.125Z" fill="#292D32"/>
</svg>
