<svg width="20" height="20" viewBox="0 0 20 20" fill="none" xmlns="http://www.w3.org/2000/svg">
<path d="M15 11.2493V3.33268C15 2.41185 15.7458 1.66602 16.6667 1.66602H18.3333" stroke="#292D32" stroke-width="1.2" stroke-miterlimit="2" stroke-linecap="round" stroke-linejoin="round"/>
<path d="M4.16602 11.2493V3.33268C4.16602 2.41185 4.91185 1.66602 5.83268 1.66602H7.49935" stroke="#292D32" stroke-width="1.2" stroke-miterlimit="2" stroke-linecap="round" stroke-linejoin="round"/>
<path d="M4.16602 5H14.9993" stroke="#292D32" stroke-width="1.2" stroke-miterlimit="2" stroke-linecap="round" stroke-linejoin="round"/>
<path d="M4.16602 8.33398H14.9993" stroke="#292D32" stroke-width="1.2" stroke-miterlimit="2" stroke-linecap="round" stroke-linejoin="round"/>
<path d="M1.66602 14.166L2.70768 14.7291C3.37435 15.0894 4.12435 15.0894 4.79102 14.7291C5.45768 14.3687 6.20768 14.3687 6.87435 14.7291C7.54102 15.0894 8.29102 15.0894 8.95768 14.7291C9.62435 14.3687 10.3743 14.3687 11.041 14.7291C11.7077 15.0894 12.4577 15.0894 13.1243 14.7291C13.791 14.3687 14.541 14.3687 15.2077 14.7291C15.8743 15.0894 16.6243 15.0894 17.291 14.7291L18.3327 14.166" stroke="#292D32" stroke-width="1.2" stroke-miterlimit="2" stroke-linecap="round" stroke-linejoin="round"/>
<path d="M1.66602 16.666L2.70768 17.2291C3.37435 17.5894 4.12435 17.5894 4.79102 17.2291C5.45768 16.8687 6.20768 16.8687 6.87435 17.2291C7.54102 17.5894 8.29102 17.5894 8.95768 17.2291C9.62435 16.8687 10.3743 16.8687 11.041 17.2291C11.7077 17.5894 12.4577 17.5894 13.1243 17.2291C13.791 16.8687 14.541 16.8687 15.2077 17.2291C15.8743 17.5894 16.6243 17.5894 17.291 17.2291L18.3327 16.666" stroke="#292D32" stroke-width="1.2" stroke-miterlimit="2" stroke-linecap="round" stroke-linejoin="round"/>
</svg>
