<svg width="24" height="24" viewBox="0 0 24 24" fill="none" xmlns="http://www.w3.org/2000/svg">
<path fill-rule="evenodd" clip-rule="evenodd" d="M1.25 12C1.25 17.93 6.07 22.75 12 22.75C17.93 22.75 22.75 17.93 22.75 12C22.75 6.07 17.93 1.25 12 1.25C6.07 1.25 1.25 6.07 1.25 12ZM10.0499 15.36C10.1899 15.5 10.3799 15.58 10.5799 15.58C10.7799 15.58 10.9699 15.5 11.1099 15.36L16.7799 9.69001C17.0699 9.40001 17.0699 8.92001 16.7799 8.63001C16.4899 8.34001 16.0099 8.34001 15.7199 8.63001L10.5799 13.77L8.27994 11.47C7.98994 11.18 7.50994 11.18 7.21994 11.47C6.92994 11.76 6.92994 12.24 7.21994 12.53L10.0499 15.36Z" fill="#3BA87E"/>
</svg>
