<svg width="32" height="32" viewBox="0 0 32 32" fill="none" xmlns="http://www.w3.org/2000/svg">
<path d="M19.7479 23.3333C18.8599 26.7837 15.7277 29.3332 12 29.3332C7.58173 29.3332 4 25.7515 4 21.3333C4 18.1046 5.91263 15.3226 8.66667 14.0586" stroke="#3C4EF2" stroke-width="2" stroke-linecap="round" stroke-linejoin="round"/>
<path d="M12 8L13.3333 20L23.3333 19.3333L25.3333 26.6667H27.3333" stroke="#3C4EF2" stroke-width="2" stroke-linecap="round" stroke-linejoin="round"/>
<path d="M14.6673 5.33268C14.6673 6.80542 13.4734 7.99935 12.0007 7.99935C10.5279 7.99935 9.33398 6.80542 9.33398 5.33268C9.33398 3.85992 10.5279 2.66602 12.0007 2.66602C13.4734 2.66602 14.6673 3.85992 14.6673 5.33268Z" stroke="#3C4EF2" stroke-width="2" stroke-linecap="round" stroke-linejoin="round"/>
<path d="M16.666 13.334H21.9993" stroke="#3C4EF2" stroke-width="2" stroke-linecap="round" stroke-linejoin="round"/>
</svg>
